<?xml version="1.0" standalone="no"?>
<!DOCTYPE svg PUBLIC "-//W3C//DTD SVG 1.1//EN" "http://www.w3.org/Graphics/SVG/1.1/DTD/svg11.dtd">
<svg xmlns="http://www.w3.org/2000/svg">
<metadata>Copyright (C) 2018 by original authors @ fontello.com</metadata>
<defs>
<font id="icons" horiz-adv-x="1000" >
<font-face font-family="icons" font-weight="400" font-stretch="normal" units-per-em="1000" ascent="850" descent="-150" />
<missing-glyph horiz-adv-x="1000" />
<glyph glyph-name="qr" unicode="&#xe800;" d="M256 328h44v-45h45v-44h-223v44h45v89h89v-44h0z m578-400h44v44h-44v-44z m-534 400h45v44h-45v-44z m622-400h45v44h-45v-44z m-533-45h89v45h-89v-45z m400 0v45h-44v-45h44z m-178 0h45v89h-45v-89z m-355 578v-44h133v44h-133z m-45-44v44h-89v-89h45v45h44z m134 89h-312v311h312v-311z m-45 266h-222v-222h222v222z m-178-800h134v134h-134v-134z m445 45v-45h44v45h-44z m-311 711h-134v-133h134v133z m711 89v-311h-311v311h311z m-45-45h-222v-222h222v222z m-889-577h312v-312h-312v312z m45-267h222v222h-222v-222z m0 533h-45v-222h45v222z m578-222v-44h44v44h-44z m-134-178v45h-44v-45h-89v-89h89v-44h44v89h45v44h-45z m-133 578h89v44h-89v-44z m356-356h89v-44h44v133h-44v89h-45v-133h-133v-45h44v-44h45v44z m44-133h-44v45h-45v-89h-133v-45h89v-89h44v-44h45v89h177v44h-133v89z m0 0h45v89h-45v-89z m-356 0v45h45v44h44v44h45v89h133v89h-44v-44h-45v178h-44v89h44v133h-44v-89h-45v89h-133v-89h44v44h45v-89h44v-133h45v-44h-45v-89h-44v89h-45v44h-44v-89h44v-44h-44v-134h44v89h45v-89h-45v-44h-44v-133h89v44h-45z m489-44v44h-88v-44h88z m-44 622h-133v-133h133v133z m-356-578h89v45h-44v44h-45v-89z m89 89v44h-44v-44h44z m267 178h89v44h-89v-44z m44-356h45v45h-45v-45z m0 267h45v44h-45v-44z m-400 222h-44v-44h44v44z m0 0" horiz-adv-x="1000" />

<glyph glyph-name="angle-circled-left" unicode="&#xe801;" d="M0 350q0 117 58 215t155 156 216 58 215-58 156-156 57-215-57-215-156-156-215-58-216 58-155 156-58 215z m193 0q0-14 11-25l253-253q11-11 25-11t25 11l57 56q11 11 11 26t-11 25l-171 171 171 171q11 11 11 25t-11 25l-57 57q-10 11-25 11t-25-11l-253-253q-11-11-11-25z" horiz-adv-x="857.1" />

<glyph glyph-name="down-circled2" unicode="&#xe802;" d="M0 350q0 117 58 215t155 156 216 58 215-58 156-156 57-215-57-215-156-156-215-58-216 58-155 156-58 215z m125 0q0-83 41-152t110-111 153-41 152 41 110 111 41 152-41 152-110 111-152 41-153-41-110-111-41-152z m108-11q5 11 17 11h107v196q0 8 5 13t13 5h107q8 0 13-5t5-13v-196h107q8 0 13-5t5-13q0-7-6-13l-178-178q-6-5-12-5t-13 5l-179 178q-8 9-4 20z" horiz-adv-x="857.1" />

<glyph glyph-name="up-circled2" unicode="&#xe803;" d="M0 350q0 117 58 215t155 156 216 58 215-58 156-156 57-215-57-215-156-156-215-58-216 58-155 156-58 215z m125 0q0-83 41-152t110-111 153-41 152 41 110 111 41 152-41 152-110 111-152 41-153-41-110-111-41-152z m107 18q0 7 6 13l178 178q6 5 13 5t12-5l179-178q8-9 4-20-5-11-17-11h-107v-196q0-8-5-13t-13-5h-107q-8 0-13 5t-5 13v196h-107q-8 0-13 5t-5 13z" horiz-adv-x="857.1" />

<glyph glyph-name="left-circled2" unicode="&#xe804;" d="M0 350q0 117 58 215t155 156 216 58 215-58 156-156 57-215-57-215-156-156-215-58-216 58-155 156-58 215z m125 0q0-83 41-152t110-111 153-41 152 41 110 111 41 152-41 152-110 111-152 41-153-41-110-111-41-152z m89 0q0 8 5 13l179 178q5 5 13 5 7 0 12-5t6-12v-108h196q7 0 13-5t5-12v-108q0-7-5-12t-13-5h-196v-108q0-7-5-12t-13-5q-7 0-14 5l-178 178q-5 5-5 13z" horiz-adv-x="857.1" />

<glyph glyph-name="right-circled2" unicode="&#xe805;" d="M0 350q0 117 58 215t155 156 216 58 215-58 156-156 57-215-57-215-156-156-215-58-216 58-155 156-58 215z m125 0q0-83 41-152t110-111 153-41 152 41 110 111 41 152-41 152-110 111-152 41-153-41-110-111-41-152z m89-54v108q0 7 6 12t12 5h197v108q0 7 5 12t12 5q7 0 14-5l178-178q5-5 5-13t-5-13l-179-178q-5-5-13-5-7 0-12 5t-5 12v107h-197q-7 0-12 6t-6 12z" horiz-adv-x="857.1" />

<glyph glyph-name="phone" unicode="&#xe806;" d="M0 589q0 52 29 104 31 57 59 68 14 6 38 12t39 6q8 0 12-2 10-3 30-43 6-10 16-30t20-35 17-30q2-2 10-14t12-20 4-16q0-11-16-27t-35-31-34-30-16-25q0-5 3-13t4-11 8-14 7-10q42-77 97-132t131-97q1 0 10-6t14-8 11-5 13-2q10 0 25 15t30 35 31 35 28 16q7 0 15-4t20-12 14-10q14-8 30-17t36-20 30-17q39-19 42-29 2-4 2-12 0-15-6-39t-12-38q-11-28-68-60-52-28-103-28-16 0-30 2t-32 7-26 8-31 11-28 10q-54 20-97 47-72 44-148 120t-120 148q-27 43-46 97-2 5-10 28t-12 31-8 26-7 32-2 29z" horiz-adv-x="785.7" />

<glyph glyph-name="forward" unicode="&#xe807;" d="M0 225q0 111 30 186 90 225 488 225h125v143q0 14 10 25t26 10 25-10l285-286q11-11 11-25t-11-25l-285-286q-11-11-25-11t-26 11-10 25v143h-125q-55 0-98-3t-86-12-74-24-59-39-45-56-27-77-10-101q0-31 3-69 0-4 2-13t1-15q0-8-5-14t-13-6q-9 0-15 10-4 5-8 12t-7 17-6 13q-71 159-71 252z" horiz-adv-x="1000" />

<glyph glyph-name="reply-all" unicode="&#xe808;" d="M0 493q0 14 11 25l285 286q17 17 39 7 22-9 22-32v-39l-221-222q-11-11-11-25t11-25l221-222v-39q0-23-22-33-7-3-14-3-15 0-25 11l-285 286q-11 10-11 25z m214 0q0 14 11 25l286 286q16 17 39 7 21-9 21-32v-147q230-15 335-123 94-97 94-284 0-32-9-75t-22-77-27-69-22-51l-12-22q-4-10-15-10-3 0-5 1-14 4-13 19 24 223-59 315-36 40-95 62t-150 29v-140q0-23-21-33-8-3-14-3-15 0-25 11l-286 286q-11 10-11 25z" horiz-adv-x="1000" />

<glyph glyph-name="cog-alt" unicode="&#xe809;" d="M0 299v103q0 6 4 11t9 6l86 14q7 19 18 42-19 27-50 64-4 6-4 11 0 7 4 12 12 16 46 49t44 33q6 0 12-4l64-50q19 10 43 18 6 60 13 86 3 13 16 13h104q6 0 11-4t6-10l13-85q19-6 41-17l66 49q5 4 11 4 7 0 12-4 81-75 81-90 0-5-4-10-7-9-24-30t-25-34q13-27 19-46l85-12q5-2 9-6t4-11v-103q0-6-4-11t-9-6l-86-14q-6-19-18-42 19-27 50-64 4-6 4-11 0-7-4-11-13-17-46-50t-44-33q-6 0-11 4l-64 50q-21-11-43-17-6-60-13-87-4-13-17-13h-104q-6 0-11 4t-5 10l-13 85q-19 6-42 18l-66-50q-4-4-11-4-6 0-12 4-80 75-80 90 0 5 4 10 5 8 23 30t26 34q-13 24-20 46l-85 13q-5 1-9 5t-4 11z m214 51q0-59 42-101t101-42 101 42 42 101-42 101-101 42-101-42-42-101z m429-325v78q0 9 83 18 7 16 17 29-29 63-29 77 0 2 3 4 2 1 19 11t33 19 17 9q4 0 25-26t29-38q12 1 17 1t17-1q28 40 51 63l4 1q2 0 69-39 2-2 2-4 0-14-28-77 9-13 16-29 83-9 83-18v-78q0-9-83-17-6-15-16-29 28-63 28-77 0-2-2-4-68-40-69-40-5 0-26 27t-29 37q-11-1-17-1t-17 1q-7-11-29-37t-25-27q-1 0-69 40-3 2-3 4 0 14 29 77-10 14-17 29-83 8-83 17z m0 572v78q0 9 83 17 7 16 17 29-29 63-29 77 0 2 3 4 2 1 19 11t33 19 17 9q4 0 25-26t29-38q12 2 17 2t17-2q28 40 51 63l4 1q2 0 69-39 2-2 2-4 0-14-28-77 9-13 16-29 83-8 83-17v-78q0-9-83-18-6-15-16-29 28-63 28-77 0-2-2-4-68-39-69-39-5 0-26 26t-29 38q-11-1-17-1t-17 1q-7-12-29-38t-25-26q-1 0-69 39-3 2-3 4 0 14 29 77-10 14-17 29-83 9-83 18z m143-533q0-29 21-50t50-21 51 21 21 50q0 29-22 51t-50 21-50-21-21-51z m0 572q0-30 21-51t50-21 51 21 21 51q0 29-22 50t-50 21-50-21-21-50z" horiz-adv-x="1071.4" />

<glyph glyph-name="plus-circled" unicode="&#xe80a;" d="M0 350q0 117 58 215t155 156 216 58 215-58 156-156 57-215-57-215-156-156-215-58-216 58-155 156-58 215z m179-36q0-14 10-25t25-10h143v-143q0-15 11-25t25-11h71q15 0 25 11t11 25v143h143q14 0 25 10t11 25v72q0 14-11 25t-25 10h-143v143q0 15-11 25t-25 11h-71q-15 0-25-11t-11-25v-143h-143q-14 0-25-10t-10-25v-72z" horiz-adv-x="857.1" />

<glyph glyph-name="minus-circled" unicode="&#xe80b;" d="M0 350q0 117 58 215t155 156 216 58 215-58 156-156 57-215-57-215-156-156-215-58-216 58-155 156-58 215z m179-36q0-14 10-25t25-10h429q14 0 25 10t11 25v72q0 14-11 25t-25 10h-429q-14 0-25-10t-10-25v-72z" horiz-adv-x="857.1" />

<glyph glyph-name="plus-squared-alt" unicode="&#xe80c;" d="M0 154v464q0 66 47 113t114 48h464q66 0 114-48t47-113v-464q0-67-47-114t-114-47h-464q-67 0-114 47t-47 114z m71 0q0-37 27-63t63-27h464q37 0 63 27t26 63v464q0 37-26 63t-63 26h-464q-37 0-63-26t-27-63v-464z m72 214v36q0 7 5 12t13 5h196v197q0 8 5 13t13 5h36q8 0 13-5t5-13v-197h196q8 0 13-5t5-13v-35q0-8-5-13t-13-5h-196v-196q0-8-5-13t-13-5h-36q-8 0-13 5t-5 13v196h-196q-8 0-13 5t-5 13z" horiz-adv-x="785.7" />

<glyph glyph-name="minus-squared-alt" unicode="&#xe80d;" d="M0 154v464q0 66 47 113t114 48h464q66 0 114-48t47-113v-464q0-67-47-114t-114-47h-464q-67 0-114 47t-47 114z m71 0q0-37 27-63t63-27h464q37 0 63 27t26 63v464q0 37-26 63t-63 26h-464q-37 0-63-26t-27-63v-464z m72 214v36q0 7 5 12t13 5h464q8 0 13-5t5-12v-36q0-8-5-13t-13-5h-464q-8 0-13 5t-5 13z" horiz-adv-x="785.7" />

<glyph glyph-name="check-1" unicode="&#xe80e;" d="M573-15l-417 0q-65 0-110 46t-46 110l0 418q0 65 46 110t110 46l260 0q22 0 37-16t16-36-16-37-37-16l-260 0q-21 0-37-15t-15-36l0-418q0-21 15-36t37-15l417 0q21 0 36 15t16 36l0 157q0 21 16 36t37 16 36-16 15-36l0-157q0-65-46-110t-110-46z m-148 218q-29 0-49 20l-138 138q-20 22-20 50t20 49 48 20 49-20l75-74 180 284q14 25 42 33t53-5 33-42-7-53l-225-364q-18-36-61-36z" horiz-adv-x="729" />

<glyph glyph-name="edit" unicode="&#xe80f;" d="M0 154v464q0 66 47 113t114 48h464q35 0 65-14 9-4 10-13 2-10-5-16l-27-28q-8-8-18-4-13 3-25 3h-464q-37 0-63-26t-27-63v-464q0-37 27-63t63-27h464q37 0 63 27t26 63v70q0 7 5 12l36 36q8 8 20 4t11-16v-106q0-67-47-114t-114-47h-464q-67 0-114 47t-47 114z m357-18v160l375 375 161-160-375-375h-161z m54 107h53v-54h32l64 65-85 85-64-65v-31z m116 134q9-9 18 0l196 196q9 9 0 18t-18 0l-196-196q-9-9 0-18z m241 330l51 51q16 16 38 16t38-16l85-84q16-16 16-38t-16-38l-51-52z" horiz-adv-x="1000" />

<glyph glyph-name="print" unicode="&#xe810;" d="M0 82v232q0 44 32 76t75 31h36v304q0 22 16 38t37 16h375q23 0 50-12t42-26l85-85q15-16 27-43t11-49v-143h35q45 0 76-31t32-76v-232q0-7-6-12t-12-6h-125v-89q0-22-16-38t-38-16h-536q-22 0-37 16t-16 38v89h-125q-7 0-13 6t-5 12z m214-89h500v143h-500v-143z m0 357h500v214h-89q-22 0-38 16t-16 38v89h-357v-357z m572-36q0-14 10-25t25-10 26 10 10 25-10 25-26 11-25-11-10-25z" horiz-adv-x="928.6" />

<glyph glyph-name="chat-empty" unicode="&#xe811;" d="M0 421q0 78 53 144t143 104 197 38 197-38 143-104 53-144-53-143-143-104-197-38q-48 0-98 9-70-50-155-72-21-5-48-9h-2q-6 0-12 5t-6 11q-1 2-1 4t1 4 1 3l1 3t2 3 2 3 3 2 2 3q3 3 13 14t15 16 12 17 14 21 11 25q-69 40-108 98t-40 125z m71 0q0-45 30-88t83-73l54-32-19-46q19 11 34 21l25 18 30-6q43-8 85-8 85 0 159 29t118 79 44 106-44 107-118 79-159 29-160-29-118-79-44-107z m273-354q32-3 49-3 90 0 172 25t148 72q69 52 107 119t37 141q0 43-13 85 72-39 114-99t42-128q0-67-40-126t-108-98q5-14 11-25t14-21 13-16 14-17 13-14q0 0 2-2t3-3 2-3 2-3l1-3t1-3 1-4-1-3q-2-8-7-13t-13-4q-27 4-48 9-85 23-155 72-50-9-98-9-151 0-263 74z" horiz-adv-x="1000" />

<glyph glyph-name="mobile" unicode="&#xe812;" d="M0 64v572q0 29 21 50t50 21h286q29 0 50-21t22-50v-572q0-29-22-50t-50-21h-286q-29 0-50 21t-21 50z m54 90q0-8 5-13t12-5h286q7 0 13 5t5 13v392q0 8-5 13t-13 5h-286q-7 0-12-5t-5-13v-392z m107 473q0-9 9-9h89q9 0 9 9t-9 9h-89q-9 0-9-9z m9-563q0-18 13-31t31-13 32 13 13 31-13 32-32 13-31-13-13-32z" horiz-adv-x="428.6" />

<glyph glyph-name="calendar" unicode="&#xe813;" d="M0-79v715q0 29 21 50t50 21h72v54q0 36 26 63t63 26h36q37 0 63-26t26-63v-54h214v54q0 36 27 63t63 26h35q37 0 63-26t27-63v-54h71q29 0 50-21t22-50v-715q0-29-22-50t-50-21h-786q-29 0-50 21t-21 50z m71 0h161v161h-161v-161z m0 197h161v178h-161v-178z m0 214h161v161h-161v-161z m143 268q0-7 6-13t12-5h36q7 0 12 5t6 13v161q0 7-6 12t-12 6h-36q-7 0-12-6t-6-12v-161z m54-679h178v161h-178v-161z m0 197h178v178h-178v-178z m0 214h178v161h-178v-161z m214-411h179v161h-179v-161z m0 197h179v178h-179v-178z m0 214h179v161h-179v-161z m161 268q0-7 5-13t13-5h35q8 0 13 5t5 13v161q0 7-5 12t-13 6h-35q-8 0-13-6t-5-12v-161z m53-679h161v161h-161v-161z m0 197h161v178h-161v-178z m0 214h161v161h-161v-161z" horiz-adv-x="928.6" />

<glyph glyph-name="shuffle" unicode="&#xe814;" d="M0 82v107q0 8 5 13t13 5h125q27 0 48 9t39 25 28 34 26 43q17 35 43 96 16 36 28 62t30 58 36 56 41 46 50 38 59 24 72 9h143v107q0 8 5 13t13 5q6 0 13-5l178-178q5-5 5-13t-5-13l-179-179q-5-5-12-5-8 0-13 6t-5 12v107h-143q-27 0-49-8t-38-25-29-35-25-43q-18-34-43-95-16-37-28-62t-30-59-36-55-41-47-50-38-60-23-71-10h-125q-8 0-13 5t-5 13z m0 500v107q0 8 5 13t13 5h125q139 0 229-125-34-52-77-153-12 25-20 41t-23 35-28 32-36 19-45 8h-125q-8 0-13 5t-5 13z m415-392q33 52 76 152 12-25 20-40t23-36 28-31 35-20 46-8h143v107q0 8 5 13t13 5q6 0 13-5l178-178q5-5 5-13t-5-13l-179-179q-5-5-12-5-8 0-13 6t-5 12v107q-18 0-48 0t-45-1-41 1-39 3-36 6-35 10-32 16-33 22-31 30-31 39z" horiz-adv-x="1000" />

<glyph glyph-name="history-1" unicode="&#xe815;" d="M0 457v250q0 24 22 33 22 10 39-8l72-72q60 57 137 88t159 31q87 0 166-34t137-92 91-137 34-166-34-166-91-137-137-92-166-34q-96 0-183 41t-147 114q-4 6-4 12t5 12l76 77q6 5 14 5 9-1 13-7 41-53 100-82t126-29q58 0 110 23t92 61 61 91 22 111-22 111-61 91-92 61-110 23q-55 0-105-20t-90-57l77-77q17-16 8-38-10-23-33-23h-250q-15 0-25 11t-11 25z m286-196v35q0 8 5 13t13 5h125v197q0 8 5 13t12 5h36q8 0 13-5t5-13v-250q0-8-5-13t-13-5h-178q-8 0-13 5t-5 13z" horiz-adv-x="857.1" />

<glyph glyph-name="arrows-cw" unicode="&#xe816;" d="M0-7v250q0 14 11 25t25 11h250q14 0 25-11t10-25-10-25l-77-77q40-37 90-57t105-20q74 0 139 37t104 99q6 10 29 66 5 13 17 13h107q8 0 13-6t5-12q0-3 0-4-36-150-150-243t-267-93q-81 0-157 31t-136 88l-72-72q-11-11-25-11t-25 11-11 25z m10 446v4q36 150 151 243t268 93q81 0 158-31t137-88l72 72q11 11 25 11t26-11 10-25v-250q0-14-10-25t-26-11h-250q-14 0-25 11t-10 25 10 25l77 77q-82 77-194 77-75 0-140-37t-104-99q-6-10-29-66-5-13-17-13h-111q-7 0-13 6t-5 12z" horiz-adv-x="857.1" />

<glyph glyph-name="ccw" unicode="&#xe817;" d="M0 457v250q0 24 22 33 22 10 39-8l72-72q60 57 137 88t159 31q87 0 166-34t137-92 91-137 34-166-34-166-91-137-137-92-166-34q-96 0-183 41t-147 114q-4 6-4 12t5 12l76 77q6 5 14 5 9-1 13-7 41-53 100-82t126-29q58 0 110 23t92 61 61 91 22 111-22 111-61 91-92 61-110 23q-55 0-105-20t-90-57l77-77q17-16 8-38-10-23-33-23h-250q-15 0-25 11t-11 25z" horiz-adv-x="857.1" />

<glyph glyph-name="cw" unicode="&#xe818;" d="M0 350q0 87 34 166t92 137 136 92 167 34q82 0 158-31t137-88l72 72q16 18 39 8 22-9 22-33v-250q0-14-10-25t-26-11h-250q-23 0-32 23-10 22 7 38l77 77q-82 77-194 77-58 0-111-23t-91-61-62-91-22-111 22-111 62-91 91-61 111-23q66 0 125 29t100 82q4 6 13 7 8 0 14-5l76-77q5-4 6-11t-5-13q-60-74-147-114t-182-41q-87 0-167 34t-136 92-92 137-34 166z" horiz-adv-x="857.1" />

<glyph glyph-name="paper-plane-empty" unicode="&#xe819;" d="M0 276q-2 22 18 33l928 536q20 12 38-1 19-14 15-36l-142-857q-3-16-18-25-8-5-18-5-6 0-13 3l-294 120-166-182q-10-12-27-12-7 0-12 2-11 4-17 13t-6 21v252l-264 108q-20 7-22 30z m117 8l187-76 482 356-267-444 275-113 123 739z" horiz-adv-x="1000" />

<glyph glyph-name="check" unicode="&#xe81a;" d="M0 154v464q0 66 47 113t114 48h464q35 0 65-14 9-4 10-13 2-10-5-16l-27-28q-6-5-13-5-2 0-5 1-13 3-25 3h-464q-37 0-63-26t-27-63v-464q0-37 27-63t63-27h464q37 0 63 27t26 63v141q0 8 5 13l36 35q6 6 13 6 3 0 7-2 11-4 11-16v-177q0-67-47-114t-114-47h-464q-67 0-114 47t-47 114z m143 267q0 19 14 32l61 62q14 13 32 13t32-13l147-147 361 361q13 13 31 13t32-13l62-61q13-14 13-32t-13-32l-455-454q-13-14-31-14t-32 14l-240 240q-14 13-14 31z" horiz-adv-x="928.6" />

<glyph glyph-name="database" unicode="&#xe81b;" d="M0-7v95q66-47 181-71t248-24 247 24 181 71v-95q0-39-57-72t-157-52-214-19-215 19-156 52-58 72z m0 214v95q66-47 181-71t248-24 247 24 181 71v-95q0-38-57-71t-157-52-214-20-215 20-156 52-58 71z m0 214v95q66-47 181-71t248-24 247 24 181 71v-95q0-38-57-71t-157-52-214-20-215 20-156 52-58 71z m0 215v71q0 39 58 72t156 52 215 19 214-19 157-52 57-72v-71q0-39-57-72t-157-52-214-19-215 19-156 52-58 72z" horiz-adv-x="857.1" />

<glyph glyph-name="android" unicode="&#xe81c;" d="M0 181v240q0 23 17 40t41 17q23 0 40-17t16-40v-240q0-24-16-41t-40-17-41 17-17 41z m135 306q0 66 35 121t96 85l-39 73q-4 8 2 11 8 4 12-3l40-74q53 24 112 24t112-24l40 74q4 7 11 3 7-3 3-11l-39-73q59-31 95-85t36-121h-516z m2-391v371h512v-371q0-26-18-44t-43-18h-42v-127q0-24-16-40t-41-17-41 17-17 40v127h-77v-127q0-24-16-40t-41-17q-24 0-40 17t-17 40l-1 127h-41q-26 0-43 18t-18 44z m117 506q0-9 6-15t15-7 15 7 7 15-7 16-15 6-15-6-6-16z m235 0q0-9 6-15t16-7 15 7 6 15-6 16-15 6-16-6-6-16z m182-421v240q0 24 17 40t40 17q24 0 41-17t17-40v-240q0-24-17-41t-41-17q-23 0-40 17t-17 41z" horiz-adv-x="785.7" />

<glyph glyph-name="apple" unicode="&#xe81d;" d="M0 347q0 127 63 208 63 81 159 81 40 0 98-17 58-17 77-17 25 0 80 19 57 19 97 19 66 0 119-36 29-20 58-56-45-37-64-66-36-52-36-115 0-70 38-125t88-70q-21-70-68-140-72-109-144-109-27 0-78 18-48 18-84 18-34 0-79-19-46-19-74-19-85 0-168 145-82 146-82 281z m381 277q2 83 44 143 41 60 139 83 1-2 2-6t1-6q0-3 0-6t1-6q0-34-17-75-16-42-52-77-30-31-60-41-20-6-58-9z" horiz-adv-x="785.7" />

<glyph glyph-name="remove" unicode="&#xe81e;" d="M232 405h552v-110h-552v110z m268 432c-268 0-487-219-487-487 0-268 219-487 487-487 268 0 487 219 487 487 0 268-219 487-487 487z m0-919c-238 0-431 194-431 432 0 238 193 432 431 432 238 0 431-194 431-432 0-238-193-432-431-432z" horiz-adv-x="1000" />

<glyph glyph-name="checked" unicode="&#xe81f;" d="M841 571l46 57v-711c0-26-22-48-48-48h-778c-26 0-48 22-48 48v778c0 26 22 48 48 48h657l-59-47h-598c-1 0-1 0-1-1v-778c0-1 0-2 1-2h778c1 0 2 1 2 2v654z m-190 14c-108-109-196-222-264-337l-19 43c-38 84-73 127-104 127-36 0-76-24-120-70 26-9 49-27 70-54 21-27 43-69 68-126l17-39c18-44 29-75 34-94 14 13 39 32 76 58l45 30c56 118 137 245 243 381 107 136 203 236 290 301l-22 31c-102-59-207-142-314-251z" horiz-adv-x="1000" />

<glyph glyph-name="unchecked" unicode="&#xe820;" d="M839 696c1 0 2 0 2-1v-778c0-1-1-2-2-2h-778c-1 0-1 1-1 2v778c0 1 0 1 1 1h778m0 47h-778c-26 0-48-22-48-48v-778c0-26 22-48 48-48h778c26 0 48 22 48 48v778c0 26-22 48-48 48l0 0z" horiz-adv-x="1000" />

<glyph glyph-name="vs-tower" unicode="&#xe821;" d="M200-136c-1-3-4-6-3-9-26 0-52 0-78 0 55 142 110 285 165 427 9 20 16 41 24 62 2 3 3 6 9 6 23 0 46 0 70 0-10-26-19-52-30-77-51-136-104-273-157-409z m594 222c-33 85-66 171-100 257-1 3-2 7-8 7-23 0-46 0-70 0 1-4 2-7 3-10 61-157 121-314 181-471 2-4 5-9 5-14 26 0 52 0 77 0-29 76-59 153-88 231z m-112 651c-57 34-114 69-171 103-3 2-6 2-7 5-1 0-3 0-4 0-1-3-5-3-7-5-58-34-115-69-172-103-2-2-4-3-8-5 127 0 251 0 378 0-4 2-7 4-9 5z m-362-349c61 0 121 0 181 0 60 0 120 0 181 0 7 0 10 1 10 9 0 96 0 191 0 286 0 8-2 10-10 10-121 0-242 0-363 0-8 0-9-2-9-10 0-95 0-190 0-286 1-7 3-9 10-9z m300-181c-4 12-9 25-13 38-1 8-4 10-11 5-28-18-58-37-87-56-5-3-10-3-15 0-31 20-62 38-93 57-6 3-7 3-9-4-5-14-10-27-14-40-2-4-2-7 3-10 10-5 19-12 29-18 12-8 25-16 37-24-38-23-75-46-111-69-3-2-6-4-8-7-10-27-21-55-33-85 18 11 33 20 48 29 91 58 182 114 273 170 6 3 7 7 4 14z m48-125c-1 3-3 6-7 8-21 13-42 27-64 40-3 2-4 2-7 1-17-11-33-22-50-33 54-33 105-66 158-98 0 2 0 3 0 4-10 27-20 53-30 78z" horiz-adv-x="1000" />

<glyph glyph-name="vs-valve" unicode="&#xe822;" d="M995 306c0-62 0-119 0-179-48 0-96 0-145 0-1-17-3-31-4-45-231 0-462 0-694 0-1 14-2 27-2 44-48 0-96 0-145 0 0 61 0 118 0 180 48 0 95 0 144 0 1 15 2 28 4 44 72 0 143 0 217 0 0 39 0 75 0 115 29 0 56 0 83 0 0 36 0 69 0 105-70 0-138 0-209 0 0 34 0 65 0 97 170 0 338 0 510 0 0-31 0-61 0-95-69 0-137 0-208 0 0-36 0-69 0-105 26 0 52 0 81 0 0-40 0-76 0-116 74 0 145 0 219 0 1-16 2-29 4-45 48 0 96 0 145 0z" horiz-adv-x="1000" />

<glyph glyph-name="app1" unicode="&#xe823;" d="M977 376h-150c0 0 0 0 0 0-10 173-153 310-328 310-175 0-318-137-328-310h-148c-5 0-10-4-10-10s5-10 10-10h147c0-181 148-328 329-328 181 0 328 147 329 328h149c5 0 10 5 10 10s-5 10-10 10z m-478-328c-171 0-309 139-309 309 0 170 138 309 309 309 170 0 309-139 309-309 0-170-139-309-309-309z m-141 413c7 0 13 2 18 6 5 4 9 10 11 17 3 8 4 17 4 29 0 10-1 18-2 24-2 6-4 11-7 15-2 4-6 7-10 10-4 2-9 3-14 3-8 0-14-2-19-6-4-4-8-10-11-17-2-7-3-17-3-29 0-19 3-33 10-41 5-7 13-11 23-11z m-14 86c3 5 8 8 14 8 5 0 10-3 14-9 4-5 6-16 6-33 0-16-2-28-6-33-4-6-8-8-14-8-6 0-11 2-15 8-4 5-5 16-5 33 0 17 2 28 6 34z m96-53h-38v12h38v-12z m33 40c-5-3-9-5-13-7v12c7 4 13 8 18 12 6 5 9 10 12 14h8v-102h-13v79c-3-2-7-5-12-8z m78-71h-15v14h15v-14z m83 0h-67c0 3 1 6 2 9 1 4 4 9 8 13 4 5 9 10 16 16 11 9 19 16 23 21 3 5 5 10 5 15 0 5-1 9-5 13-3 3-8 5-14 5-6 0-11-2-14-6-4-3-6-8-6-15l-12 2c0 9 4 16 9 21 6 5 14 8 24 8 9 0 17-3 23-8 5-6 8-12 8-20 0-4-1-8-2-12-2-4-5-8-9-13-3-4-10-10-19-17-7-7-12-11-14-13s-4-5-5-7h49v-12z m-248-61h39l-44-213h-40l-45 213h41l24-144 25 144z m146-17c-6 6-13 10-21 13-7 2-18 4-31 4h-44v-213h44c12 0 21 1 29 3 8 3 16 7 22 14 10 8 17 21 22 36 6 16 8 34 8 53 0 21-2 39-7 54-5 15-13 27-22 36z m-14-126c-3-9-6-17-12-22-3-4-7-6-10-7-4-1-10-2-18-2h-3v135h6c6 0 11-1 15-2 3-1 6-3 9-6 6-5 10-13 13-23s3-23 3-37c0-14-1-26-3-36z m158 136c4-3 7-5 9-7v-50h-4c-1 1-3 4-6 8-2 4-5 7-8 9-2 3-6 6-9 8-4 2-8 3-12 3-5 0-9-1-13-3-4-2-8-7-12-13-3-5-6-13-8-22-2-9-3-20-3-33 0-13 1-24 3-33 3-10 6-17 9-23 3-5 7-9 12-12 4-2 8-3 12-3 4 0 8 1 12 3 4 2 7 5 10 8 3 3 6 6 8 9s4 6 6 9h3v-50c-2-2-5-4-9-6-3-3-7-5-10-6-4-2-8-4-12-5-4-1-9-2-16-2-21 0-38 10-50 30-12 19-18 46-18 81 0 34 6 61 19 81 12 20 29 30 49 30 6 0 11-1 16-2 4-1 8-2 12-3 3-2 6-4 10-6z" horiz-adv-x="1000" />

<glyph glyph-name="app1-b" unicode="&#xe824;" d="M974 380h-147c-11 171-154 308-328 308-175 0-318-137-329-308h-144c-7 0-13-6-13-13s6-12 13-12h143c2-180 149-327 330-327 181 0 328 147 329 327h146c7 0 13 6 13 12s-6 13-13 13z m-475-327c-168 0-305 137-305 305 0 168 137 305 305 305 168 0 305-137 305-305 0-168-137-305-305-305z m75 469h77l-119-363h-64l-129 363h79l80-229 76 229z" horiz-adv-x="1000" />

<glyph glyph-name="app2" unicode="&#xe825;" d="M450 781v-4-70-85-85-86-85-10-75-86-65c-13-7-25-16-36-27-28-28-42-61-42-99 0-39 14-72 42-99 27-28 60-42 98-42 39 0 72 14 100 41 27 28 41 61 41 100 0 38-14 71-41 99-13 12-27 22-41 28v225 424c0 0 0 0 0 0 0 1 0 1 0 1 0 0 0 0 0 1 0 0 0 0 0 1-2 14-8 26-18 36-23 23-62 25-85 0-9-10-14-12-18-33m86 15c6-6 9-12 10-21v-424h-39c3 3 5 6 5 10 0 7-5 12-12 12h-25v18h46c7 0 12 6 12 13 0 7-5 12-12 12h-46v18h25c7 0 12 6 12 12 0 7-5 13-12 13h-25v18h46c7 0 12 5 12 12 0 7-5 12-12 12h-46v18h25c7 0 12 6 12 13 0 6-5 12-12 12h-25v18h46c7 0 12 5 12 12 0 7-5 13-12 13h-46v18h25c7 0 12 5 12 12 0 7-5 12-12 12h-25v18h46c7 0 12 6 12 12 0 7-5 13-12 13h-46v18h25c7 0 12 5 12 12 0 7-5 12-12 12h-25v58l0 0c0 1 0 1 0 1 0 0 0 0 0 1l0 1c1 9 4 15 10 21 15 14 37 14 51 0z" horiz-adv-x="1000" />

<glyph glyph-name="app3" unicode="&#xe826;" d="M170 409c-87 0-157-69-157-155 0-85 70-155 157-155 86 0 156 70 156 155 0 86-70 155-156 155z m0-262c-60 0-109 48-109 107 0 59 49 107 109 107 59 0 108-48 108-107 0-59-49-107-108-107z m661 262c-54 0-101-27-130-68l-521 240c-13 6-27 0-32-12-6-12-1-26 12-31l521-240c-4-14-7-29-7-44 0-85 70-155 157-155 86 0 156 70 156 155 0 86-70 155-156 155z m0-262c-60 0-109 48-109 107 0 59 49 107 109 107 59 0 108-48 108-107 0-59-49-107-108-107z" horiz-adv-x="1000" />

<glyph glyph-name="app4" unicode="&#xe827;" d="M792 312c-14 42-36 86-66 134-16 26-45 69-88 128-38 53-67 96-85 128-28 47-48 92-59 135-43-91-94-182-154-272-8-13-27-39-55-79-24-32-42-60-55-81-38-65-58-129-58-193-2-90 24-167 76-230 52-63 122-103 210-119h66c48 7 92 24 133 51 41 27 75 60 101 102 27 42 44 88 51 138 7 52 1 105-17 158z m-96 104c24-39 43-75 55-108 32-87 28-171-12-253-10-18-20-35-32-50-3-4-6-7-9-11-33-35-75-61-127-77-81-25-157-16-227 27-47 28-83 70-109 126-29 63-36 128-22 196 9 39 27 82 56 129 34 53 59 92 75 116 33 52 58 92 74 119 26 42 48 83 68 123-1 1 1 3 4 4 1-4 24-43 67-117 28-52 53-94 74-125 42-63 64-96 65-99z m-183-443c-9 13-7 32 4 57 12 25 31 48 57 71 26 22 51 36 76 43 25 7 42 3 51-10 10-12 8-31-4-56-12-25-31-48-56-70-27-23-52-37-77-44-24-7-42-4-51 9" horiz-adv-x="1000" />

<glyph glyph-name="app5" unicode="&#xe828;" d="M981 333c-58-67-118-101-176-101-1 0-2 0-3 0-58 1-114 36-166 102-42 54-83 81-125 83-45 2-95-26-147-84-62-68-123-101-184-99-57 2-111 36-162 100-8 11-6 26 5 34 10 8 25 6 33-4 42-53 84-81 126-82 46-2 95 26 146 83 63 69 126 103 185 100 57-2 111-36 160-101 44-55 87-83 130-84 1 0 1 0 2 0 44 0 91 29 140 85 8 10 23 11 33 2 10-9 12-24 3-34z m-559 173c-5-5-6-12-1-17 4-5 12-6 17-2 32 27 85 27 118-1 2-2 5-3 8-3 3 0 7 1 9 4 4 5 4 13-1 17-42 35-109 36-150 2z m-45 14c46 39 93 55 139 49 48-7 81-37 90-47 1-2 2-4 4-6 2-2 5-3 9-3 3 0 6 1 8 4 9 9 0 18-5 23-43 45-145 95-260-2-5-4-6-12-1-17 4-5 11-6 16-1z m-123-325c5 4 5 12 1 17-4 5-12 6-17 1-32-27-85-26-118 2-5 4-13 4-17-1-5-6-4-13 1-17 21-18 49-27 77-27 26 0 53 8 73 25z m44-14c-46-39-92-55-138-49-48 6-81 37-90 47-1 2-2 4-4 5-5 4-13 4-17 0-9-9 0-18 5-23 24-26 69-54 125-54 40 0 86 15 135 56 5 4 6 11 1 17-4 5-12 5-17 1z m586 14c5 4 6 12 2 17-5 5-12 5-17 1-32-27-86-26-119 2-5 4-13 4-17-1-4-6-4-13 2-17 21-18 49-27 76-27 27 0 53 8 73 25z m45-14c-46-39-93-55-138-49-49 6-82 37-91 47-1 2-2 4-4 5-4 4-13 4-17 0-8-9 1-19 5-23 25-26 69-54 125-54 41 0 87 15 135 56 5 4 6 11 2 17-5 5-12 5-17 1z" horiz-adv-x="1000" />

<glyph glyph-name="app6" unicode="&#xe829;" d="M987 206c0-39-11-73-33-103-6-7-12-15-18-22-35-34-76-51-125-51-47 0-88 17-124 50 0 1 0 1 0 1-35 35-52 76-52 125 0 47 16 87 50 122 1 0 1 1 2 1 34 36 76 52 124 52 47 0 88-16 122-49 2 0 2-1 3-3 34-34 51-75 51-123z m-798 111c49 0 90 17 125 51 6 7 12 15 18 22 22 30 33 64 33 103 0 48-17 89-51 123-1 2-1 3-3 3-33 32-75 49-122 49-48 0-90-17-124-52-1 0-1-1-2-1-34-35-50-75-50-122 0-49 17-90 53-125 0 0 0 0 0-1 35-33 76-50 123-50z m227 401c-10 10-26 10-35 0s-10-26 0-36c52-52 78-114 78-189 0-60-17-111-50-157l-29-35c-54-52-117-78-191-78-14 0-25-11-25-25s11-25 25-25c87 0 163 31 227 92l33 40c40 56 60 117 60 188 0 88-31 163-93 225z m170-738c10-10 26-10 36 0s10 26 0 36c-53 52-78 114-78 190 0 59 16 111 49 156l29 36c55 52 117 77 191 77 14 0 26 11 26 25s-12 25-26 25c-87 0-163-31-227-92l-33-40c-40-56-60-117-60-187 0-88 32-164 93-226z" horiz-adv-x="1000" />

<glyph glyph-name="app7" unicode="&#xe82a;" d="M735 677l-341 159c-2 0-4 1-5 1-14 0-22-9-22-22v-128h-81c-14 0-22-8-22-22v-658c0-14 8-22 22-22h81v-100c0-13 8-22 22-22 1 0 3 1 4 1l341 131c5 2 8 7 8 12v658c0 5-3 10-7 12z m-304-310c0 11 3 21 10 29 7 8 16 13 26 13 9 0 18-5 25-13 6-8 10-18 10-29 0-12-4-21-10-29-7-9-16-13-25-13-10 0-19 4-26 13-7 8-10 17-10 29z m-142 296h78v-653l-78 0 0 653z" horiz-adv-x="1000" />

<glyph glyph-name="app8" unicode="&#xe82b;" d="M768 734l-50-84c-4-8-12-12-20-12-5 0-9 1-13 3-11 7-15 22-8 33l50 85c7 11 22 15 33 8 11-6 15-21 8-33z m-577-190l-88 51c-12 6-26 2-33-9-7-12-3-26 9-33l88-50c4-3 8-4 12-4 8 0 16 5 21 13 6 11 2 26-9 32z m318 135c13 0 24 10 24 24v110c0 13-11 24-24 24-13 0-24-11-24-24v-110c0-14 11-24 24-24z m-213-26c5-8 13-12 21-12 4 0 8 1 12 3 12 7 16 21 9 33l-47 82c-7 11-21 15-33 8-11-6-15-21-9-32l47-82z m468-283c1-5 2-9 2-13v-22c0-25-4-47-8-63l-1-9c-14-48-35-84-67-116l-12-12c-8-6-14-10-19-15-11-7-22-15-34-22-1-7-2-15-5-23 5-9 5-19 5-29 0-8 0-18-5-26 5-10 5-20 5-31 0-26-12-46-36-60-5-4-8-6-11-7v-2c0-15-10-30-24-41-16-12-34-12-58-12-20 0-38 0-54 12-16 10-27 25-27 41 0 1 0 2 1 3l1 4-3 2c-26 15-40 35-40 60 0 7 3 17 8 30-4 8-8 16-8 27 0 7 3 19 9 29-4 9-7 17-8 23-10 5-27 16-46 35-6 3-14 7-18 15-50 50-75 113-75 187v22c3 65 28 118 76 163 51 54 114 82 188 82 74 0 134-27 190-83 32-32 54-68 66-112 3-18 6-29 8-37z m-176-328c-24-14-55-21-88-21-33 0-61 7-85 21-5 3-11 7-15 11-1-3-2-6-2-7 0-6 2-10 8-19 3-5 8-9 13-14 4-3 7-6 10-9 18-13 41-16 71-16 26 0 54 2 74 17 9 6 14 11 23 23 4 4 4 11 4 18 0 2 0 5 0 7-4-4-8-8-13-11z m-37-131c-15-3-32-3-51-3-25 0-44 2-60 7 2-5 6-11 15-16 11-8 24-8 41-8 21 0 34 0 43 7 6 4 10 9 12 13z m50 78c0 2 0 4 0 6-4-3-8-7-13-10-26-18-58-21-88-21-34 0-62 4-86 21-5 5-8 8-11 10-1 1-2 2-3 3-1-4-2-7-2-9 0-16 9-29 29-40l9-6c16-8 35-11 64-11 26 0 46 0 59 8 0 0 1 0 1 0 2 1 4 2 6 3 3 1 5 2 7 4 0 1 1 2 2 2 18 10 26 22 26 40z m141 368c0 1-1 4-2 7-2 8-5 20-7 39-11 37-31 70-60 99-52 52-105 76-173 76-68 0-123-25-171-75-44-42-66-88-69-147l0-21c0-68 23-125 69-171 1-1 1-2 2-3 1-3 5-5 10-7 2-1 3-1 4-2 22-23 41-33 47-36 0 0 0 0 0 0 0 0 0 0 0 0 5-3 15-6 23-9 7-2 10-9 8-15-2-5-6-8-11-8-2 0-3 0-4 1-2 0-3 0-4 1 1-2 1-4 2-5 6-6 14-14 22-19 19-11 43-17 72-17 29 0 55 6 75 17 3 2 7 6 10 9 4 4 8 8 12 11 1 1 1 3 1 4-5-1-10-2-14-2-6 0-12 5-12 12s6 12 12 12c4 0 14 2 22 7 0 1 1 1 1 1 0 0 1 0 1 0 0 0 0 0 0 0 0 0 0 0 0 0 0 0 0 0 0 0 13 6 24 15 36 24 6 4 12 9 19 13l10 11c29 29 48 61 60 105l2 8c3 15 7 36 7 58v22z m191 196c12 7 15 22 8 33-7 12-21 15-33 8l-88-53c-11-7-15-22-8-33 5-8 13-12 21-12 4 0 8 1 12 4l88 53z m30-194h-104c-13 0-24-11-24-24s11-24 24-24h104c13 0 24 11 24 24s-11 24-24 24z m-822 0h-104c-13 0-24-11-24-24s11-24 24-24h104c13 0 24 11 24 24s-11 24-24 24z m485 107c-21 18-42 31-65 38-22 8-39 9-50 2-12-7-14-19-7-36 6-18 19-35 40-53 20-18 41-30 63-39 23-8 40-8 51-1 11 6 14 19 7 36-6 18-19 35-39 53z" horiz-adv-x="1000" />

<glyph glyph-name="app9" unicode="&#xe82c;" d="M735 677l-341 159c-2 0-4 1-5 1-14 0-22-9-22-22v-128h-81c-14 0-22-8-22-22v-658c0-14 8-22 22-22h81v-100c0-13 8-22 22-22 1 0 3 1 4 1l341 131c5 2 8 7 8 12v658c0 5-3 10-7 12z m-304-310c0 11 3 21 10 29 7 8 16 13 26 13 9 0 18-5 25-13 6-8 10-18 10-29 0-12-4-21-10-29-7-9-16-13-25-13-10 0-19 4-26 13-7 8-10 17-10 29z m-142 296h78v-653l-78 0 0 653z" horiz-adv-x="1000" />

<glyph glyph-name="app10" unicode="&#xe82d;" d="M987 206c0-39-11-73-33-103-6-7-12-15-18-22-35-34-76-51-125-51-47 0-88 17-124 50 0 1 0 1 0 1-35 35-52 76-52 125 0 47 16 87 50 122 1 0 1 1 2 1 34 36 76 52 124 52 47 0 88-16 122-49 2 0 2-1 3-3 34-34 51-75 51-123z m-798 111c49 0 90 17 125 51 6 7 12 15 18 22 22 30 33 64 33 103 0 48-17 89-51 123-1 2-1 3-3 3-33 32-75 49-122 49-48 0-90-17-124-52-1 0-1-1-2-1-34-35-50-75-50-122 0-49 17-90 53-125 0 0 0 0 0-1 35-33 76-50 123-50z m227 401c-10 10-26 10-35 0s-10-26 0-36c52-52 78-114 78-189 0-60-17-111-50-157l-29-35c-54-52-117-78-191-78-14 0-25-11-25-25s11-25 25-25c87 0 163 31 227 92l33 40c40 56 60 117 60 188 0 88-31 163-93 225z m170-738c10-10 26-10 36 0s10 26 0 36c-53 52-78 114-78 190 0 59 16 111 49 156l29 36c55 52 117 77 191 77 14 0 26 11 26 25s-12 25-26 25c-87 0-163-31-227-92l-33-40c-40-56-60-117-60-187 0-88 32-164 93-226z" horiz-adv-x="1000" />

<glyph glyph-name="app11" unicode="&#xe82e;" d="M438-137c-21 1-38 10-50 29l-136 204c-6 8-8 17-8 26 0 11 3 20 9 28l99 124v-144c0-8 2-14 5-18 2-3 6-4 9-4 4 1 8 3 11 5 2 3 3 8 3 16 0 3 0 7 0 10v471c2 10 5 18 11 26 2 2 4 5 6 8 13 11 28 17 45 17 17 0 32-6 43-17 10-10 16-23 18-38v-344l27-5v179c0 22 6 33 17 35 11 3 22 2 34-2 11-5 18-12 19-23 2-11 2-18 2-20v-182l30-6v162c0 22 6 33 17 35 10 3 22 2 34-2 12-5 18-12 20-23 1-11 2-17 2-20v-165l28-5v141c1 21 6 33 17 35 11 2 22 1 34-3 11-5 18-12 20-23 1-11 2-17 2-20v-449c0-25-12-38-38-38h-330m126 700c7 17 11 35 11 54 0 37-14 69-40 95-25 26-57 39-93 39-37 0-69-13-96-39-25-27-38-58-38-95 0-19 4-37 11-54 3-6 11-9 17-6 6 2 9 10 6 16-6 14-9 29-9 44 0 30 10 56 31 77 22 21 47 32 78 32 29 0 55-11 75-31 22-22 33-47 33-78 0-16-3-31-9-44-3-6 0-14 7-16 1-1 3-1 5-1 4 0 9 2 11 7z m-223-142c4 5 2 13-4 17-14 9-27 19-38 30-40 40-59 86-59 143 0 56 19 103 59 142 39 40 86 59 143 59 56 0 102-19 142-59 39-39 59-86 59-142 0-36-8-69-24-97-3-6-1-14 5-17 6-3 13-1 17 5 17 32 27 68 27 109 0 62-23 116-67 160-44 44-97 66-159 66-63 0-117-22-161-66-43-44-66-98-66-160 0-63 23-117 66-161 13-12 27-23 43-33 2-2 4-2 7-2 4 0 8 2 10 6z" horiz-adv-x="1000" />

<glyph glyph-name="app12" unicode="&#xe82f;" d="M293 110h-141l0-70-139 139 139 139v-69h141c137 0 207 348 415 347l139 1v69l139-139-139-139v69h-139c-139 0-208-347-415-347z m-141 347h141c50 0 87-46 110-74l74 105c-29 36-97 109-184 109h-141v69l-139-139 139-139v69z m835-278l-140 139v-69h-139c-48 0-84 39-111 73l-74-104c32-36 90-108 185-108h139v-70l140 139z" horiz-adv-x="1000" />

<glyph glyph-name="app13" unicode="&#xe830;" d="M541 507l-24-339h-43l-25 339c0 34 6 63 47 63 40 0 45-29 45-63z m-45-402c-37 0-44-7-44-43 0-37 7-43 44-43 37 0 44 6 44 43 0 36-7 43-44 43z m478-132c-19-33-58-52-109-52h-730c-51 0-90 19-109 52-20 33-16 76 10 121l364 632c26 44 62 69 100 69s74-25 100-69l364-632c26-45 30-88 10-121z m-39 104l-365 632c-19 33-44 52-70 52s-51-19-70-52l-365-632c-19-34-23-65-10-87 13-23 41-35 80-35h730c39 0 67 12 80 35s9 53-10 87z" horiz-adv-x="1000" />

<glyph glyph-name="app14" unicode="&#xe831;" d="M13 729h231v-27c-16-4-27-8-34-12-8-4-13-9-17-15-5-6-8-15-10-27-2-12-3-31-3-56v-473c0-25 1-42 3-54 1-11 4-20 8-27 4-6 9-12 17-16 7-4 20-9 36-13v-27h-231v27c23 6 38 12 46 19 7 8 12 18 15 31 2 13 3 33 3 60v473c0 25 0 44-2 55-2 12-5 21-9 27-5 6-10 12-17 15-7 4-19 8-36 13v27z m974-357c0-62-7-116-21-163-14-47-35-86-62-118-23-28-52-51-86-68-28-15-60-26-97-32-37-6-86-9-147-9h-198v27c17 4 29 9 36 13 8 4 13 9 17 15 4 6 7 15 9 27 2 11 3 30 3 55v473c0 26-1 44-3 56-2 11-5 20-9 26-4 6-10 12-17 15-7 4-19 8-36 13v27h240c69 0 125-8 169-23 44-15 81-37 111-67 31-29 53-66 68-110 15-44 23-96 23-157z m-112-10c0 74-11 135-32 182-21 48-51 83-90 105-39 21-85 32-139 32-25 0-49 0-71-2v-646c15-1 36-2 65-2 30 0 58 2 82 7 24 6 46 14 65 25 20 11 38 26 53 45 16 20 29 42 39 68 10 25 17 53 21 84 5 31 7 65 7 102z" horiz-adv-x="1000" />

<glyph glyph-name="app15" unicode="&#xe832;" d="M673 472c29 0 53 24 53 54 0 29-24 54-53 54s-54-25-54-54c0-30 24-54 54-54z m0 91c20 0 36-17 36-37 0-20-16-37-36-37-21 0-37 17-37 37 0 20 17 37 37 37z m-589-587c-2 7 2 13 8 15 6 2 13-2 14-8 5-16 15-28 29-36 13-8 29-10 44-6 6 2 13-2 14-8 2-6-1-13-8-14-7-2-14-4-22-4-14 0-27 4-40 11-19 11-33 29-39 50z m135-90c2-6-2-12-8-14-21-6-39-9-56-9-47 0-75 22-92 43-22 27-32 66-27 76 2 4 7 6 12 6 5-1 9-5 10-10 1-1 1-3 0-5 2-12 11-48 40-69 26-19 62-22 106-10 7 2 13-1 15-8z m299 566v148c0 15 12 27 27 27h65c5 0 9-4 9-8 0-5-4-9-9-9h-65c-5 0-10-4-10-10v-148c0-6 5-11 10-11h14c5 0 9-3 9-8 0-5-4-8-9-8h-14c-15 0-27 12-27 27z m234 167c0 4 3 8 8 8h14c15 0 27-12 27-27v-148c0-15-12-27-27-27h-61c-4 0-8 3-8 8 0 5 4 8 8 8h61c6 0 10 5 10 11v148c0 6-4 10-10 10h-14c-5 0-8 4-8 9z m-160-93c0-45 36-81 81-81 45 0 81 36 81 81s-36 81-81 81c-45 0-81-36-81-81z m81 64c35 0 64-29 64-64 0-36-29-64-64-64-36 0-64 28-64 64 0 35 28 64 64 64z m-127 51v2c0 11 9 19 19 19h13c11 0 19-8 19-19v-2c0-4-4-8-8-8-5 0-9 4-9 8v2c0 1-1 2-1 2h-14c-1 0-2-1-2-2v-2c0-4-4-8-8-8s-9 4-9 8z m361-374c0-22-9-43-25-59-2-2-5-3-8-3-3 0-6 1-8 3-5 5-5 12 0 17 11 11 17 26 18 42 0 16-6 31-17 42-5 4-5 12 0 16 5 5 12 5 17 0 15-15 23-36 23-58z m-192 45l103-44-103-44 6 6 6 5 4 6 4 5 3 6 2 5-215-1c-6 0-12 6-12 12 0 7 6 12 12 12l214 0-1 5-4 5-3 6-4 5-6 6-6 5z m209-132c-9-9-17-16-24-16-3 0-5 1-8 4-4 4-4 12 1 17 1 1 3 2 5 3 9 7 36 32 41 68 4 32-11 65-43 97-5 5-5 12 0 17s12 5 16 0c94-94 33-169 12-190z m-474 618c14-14 20-24 12-32-2-2-5-3-8-3-3 0-7 1-9 4-2 1-3 3-3 5-7 9-32 36-68 40-32 5-65-10-98-42-5-5-12-5-17 0-4 4-4 12 0 16 94 94 170 33 191 12z m-78-183l-2 1c2-2 3-4 3-7v-177c0-6-6-11-12-11s-12 5-12 11v177c0 3 1 5 2 6l-1 0-6-2-5-3-6-3-5-5-5-5-6-7 44 104 44-104-6 7-5 5-6 5-5 3-6 3-5 2z m0-331h74v-93c-21-11-44-17-69-17-29 0-52 9-71 27-18 18-27 42-27 72 0 31 10 56 30 75 20 20 45 30 75 30 22 0 41-3 56-10v-34c-16 11-34 16-54 16-21 0-39-7-52-21-14-14-20-32-20-54 0-23 6-40 17-53 12-13 27-20 47-20 14 0 25 3 35 8v47h-41v27z m41 452c-3 0-6 1-8 3-12 12-27 18-43 19-16 0-30-6-41-17-5-5-12-5-17 0-4 5-4 12 0 17 16 15 37 23 59 23 22 0 42-9 58-25 5-5 5-12 0-17-2-2-5-3-8-3z m-139-576c5-4 6-11 2-16l-58-81 4-1 6 1 7 0 7 2 8 3 8 3-97-79 22 123 1-9 2-8 2-7 2-6 4-6 3-5 0 0c1 1 1 1 1 2l59 82c4 5 12 6 17 2z" horiz-adv-x="1000" />

<glyph glyph-name="app16" unicode="&#xe833;" d="M691 257l120-251-251 119-94-262v308c67 32 114 100 114 179 0 79-47 147-114 179v308l94-262 251 119-120-251 262-93-262-93z m-158 93c0 84-69 152-153 152-63 0-117-39-140-94h-182v-116h182c23-55 77-94 140-94 84 0 153 68 153 152z" horiz-adv-x="1000" />

<glyph glyph-name="app16-b" unicode="&#xe834;" d="M918 350l-246 88 112 236-236-112-98 275v-335l6-3c58-28 94-85 94-149 0-64-36-121-94-149l-6-2v-336l98 275 236-112-112 236 246 88z m-176-281l-206 97-66-186v206c62 32 100 94 100 164 0 69-39 132-100 164v206l66-186 206 98-98-206 214-76-214-76 98-205z m-214 281c0 79-64 144-144 144-56 0-106-32-130-83h-163v-122h163c24-51 74-83 130-83 80 0 144 65 144 144z m-144-124c-50 0-95 30-114 77l-3 6h-156v82h156l3 6c19 47 64 77 114 77 69 0 124-56 124-124 0-68-55-124-124-124z" horiz-adv-x="1000" />

<glyph glyph-name="app17" unicode="&#xe835;" d="M987 352c0-79-24-145-69-200l-90 72c31 35 46 74 46 116 0 57-21 103-63 139-43 38-93 56-152 56h-281v-145l-261 208 261 202v-160h329c75-6 140-35 192-86 58-56 88-124 88-202z m-373-199h-276c-60 0-111 17-153 55-43 36-65 82-65 140 0 46 17 86 50 117l-87 73c-46-53-70-115-70-186 0-88 30-160 89-217 51-47 110-76 178-82 7-1 17-2 26-2h308v-148l243 186-243 206v-142z" horiz-adv-x="1000" />

<glyph glyph-name="app18" unicode="&#xe836;" d="M236 529c25-25 37-55 37-91 0-29-8-54-24-76-4-6-9-11-13-16-26-25-57-38-93-38-35 0-65 13-91 37 0 1 0 1 0 1-26 26-39 56-39 92 0 35 12 65 37 91 1 0 1 0 2 0 25 27 56 39 91 39 35 0 66-12 91-37 1 0 1-1 2-2z m173-287c-12 12-27 18-45 18-18 0-33-6-45-19-1 0-1 0-1 0-13-13-19-28-19-46 0-17 7-33 20-46 0 0 0 0 0 0 13-12 28-18 45-18 18 0 33 6 46 18 3 3 5 6 7 8 8 12 12 24 12 38 0 18-6 34-19 46 0 1 0 1-1 1z m202 297c-20 19-44 29-71 29-29 0-53-10-72-30-1 0-1-1-2-1-20-21-29-44-29-72 0-28 10-52 31-72 0 0 0 0 0-1 20-19 44-29 72-29 28 0 52 10 73 30 3 4 7 8 10 12 13 18 19 38 19 60 0 29-10 53-29 73-1 0-1 1-2 1z m358 46c-1 0-1 1-1 1-12 11-27 17-44 17-17 0-32-6-44-18 0 0 0-1 0-1-13-12-18-26-18-43 0-17 6-32 18-44 0 0 0 0 0-1 13-11 27-17 44-17 18 0 32 6 45 18 2 2 4 5 6 7 8 11 12 23 12 37 0 17-6 32-18 44z m-83-302c-25 24-56 37-90 37-36 0-67-13-92-39-1 0-1-1-2-1-25-26-36-55-36-90 0-36 12-67 38-93 0 0 0 0 0-1 26-24 57-36 92-36 35 0 66 12 92 37 4 6 9 11 13 16 16 23 24 48 24 77 0 35-12 66-37 91-1 1-1 2-2 2z" horiz-adv-x="1000" />

<glyph glyph-name="app19" unicode="&#xe837;" d="M981 333c-58-67-118-101-176-101-1 0-2 0-3 0-58 1-114 36-166 102-42 54-83 81-125 83-45 2-95-26-147-84-62-68-123-101-184-99-57 2-111 36-162 100-8 11-6 26 5 34 10 8 25 6 33-4 42-53 84-81 126-82 46-2 95 26 146 83 63 69 126 103 185 100 57-2 111-36 160-101 44-55 87-83 130-84 1 0 1 0 2 0 44 0 91 29 140 85 8 10 23 11 33 2 10-9 12-24 3-34z m-559 173c-5-5-6-12-1-17 4-5 12-6 17-2 32 27 85 27 118-1 2-2 5-3 8-3 3 0 7 1 9 4 4 5 4 13-1 17-42 35-109 36-150 2z m-45 14c46 39 93 55 139 49 48-7 81-37 90-47 1-2 2-4 4-6 2-2 5-3 9-3 3 0 6 1 8 4 9 9 0 18-5 23-43 45-145 95-260-2-5-4-6-12-1-17 4-5 11-6 16-1z m-123-325c5 4 5 12 1 17-4 5-12 6-17 1-32-27-85-26-118 2-5 4-13 4-17-1-5-6-4-13 1-17 21-18 49-27 77-27 26 0 53 8 73 25z m44-14c-46-39-92-55-138-49-48 6-81 37-90 47-1 2-2 4-4 5-5 4-13 4-17 0-9-9 0-18 5-23 24-26 69-54 125-54 40 0 86 15 135 56 5 4 6 11 1 17-4 5-12 5-17 1z m586 14c5 4 6 12 2 17-5 5-12 5-17 1-32-27-86-26-119 2-5 4-13 4-17-1-4-6-4-13 2-17 21-18 49-27 76-27 27 0 53 8 73 25z m45-14c-46-39-93-55-138-49-49 6-82 37-91 47-1 2-2 4-4 5-4 4-13 4-17 0-8-9 1-19 5-23 25-26 69-54 125-54 41 0 87 15 135 56 5 4 6 11 2 17-5 5-12 5-17 1z" horiz-adv-x="1000" />

<glyph glyph-name="app20" unicode="&#xe838;" d="M377 615l-1 1c1-2 2-4 2-7v-177c0-6-5-11-12-11-6 0-11 5-11 11v177c0 3 0 5 2 6l-2 0-5-2-6-3-5-3-6-5-5-5-5-7 43 104 44-104-6 7-5 5-5 5-6 3-6 3-5 2z m-114-457l-59-82c-1-1-1-1-1-2l0 0-4 5-3 6-3 6-2 7-1 8-2 9-21-123 97 79-8-3-8-3-7-2-7 0-7-1-4 1 59 81c4 5 3 12-3 16-5 4-12 3-16-2z m464 149l5-6 5-5 3-6 3-5 2-5-214 0c-7 0-12-5-12-12 0-6 5-12 12-12h0l214 1-2-5-3-6-3-5-5-6-5-5-7-6 104 44-104 44 7-5z m-300 432c4 5 4 12 0 17-16 16-37 25-59 25-22 0-43-8-58-23-5-5-5-12 0-17 4-5 12-5 17 0 10 11 25 17 41 17 16-1 31-7 42-19 2-2 5-3 8-3 3 0 6 1 9 3z m-162 47c-5-4-5-12 0-16 4-5 12-5 16 0 33 32 66 47 98 42 36-4 61-31 68-40 1-2 2-4 3-5 3-3 6-4 9-4 3 0 6 1 9 3 8 8 2 18-13 32-21 21-96 82-190-12z m624-461c-4 5-12 5-16 0-5-4-5-12 0-16 10-11 16-26 16-42 0-16-7-31-18-42-5-5-5-12 0-17 2-2 5-3 8-3 3 0 6 1 9 3 15 16 24 37 25 59 0 22-8 43-24 58z m29 45c-5 5-12 5-17 0-5-5-5-12 0-17 33-32 47-65 43-97-5-36-32-61-41-68-2-1-3-2-5-3-4-5-5-13 0-17 2-3 5-4 8-4 7 0 15 7 23 16 21 21 82 96-11 190z m-789-444c12-7 26-11 40-11 7 0 15 2 22 4 6 1 10 8 8 14-2 6-8 10-15 8-14-4-30-2-44 6-14 8-24 20-28 36-2 6-8 10-15 8-6-2-9-8-8-15 7-21 20-39 40-50z m81-32c-44-12-80-9-106 10-29 21-39 57-40 69 0 2 0 4 0 5-2 5-6 9-11 10-5 0-9-2-11-6-6-10 5-49 26-76 17-21 46-43 93-43 16 0 35 3 55 9 7 2 10 8 8 14-1 7-8 10-14 8z m167 363h42v-47c-10-5-22-8-35-8-20 0-36 7-47 20-12 13-18 30-18 53 0 22 7 40 20 54 14 14 31 21 52 21 21 0 39-5 54-15v33c-15 7-33 10-55 10-31 0-56-10-76-30-19-19-29-44-29-75 0-30 9-54 27-72 18-18 42-27 71-27 25 0 48 6 68 17v93h-74v-27z m291 241v-66h40v87l-32-27-8 6z m-67 24v-90h40v89l-20 17-20-16z m-27-90v68l-40-33v-35h40z m162 0h40v145l-40-35v-110z m-60 85l99 84 0 29-99-82-55 46-88-71v-32l88 72 55-46z m139-101h-293v249h-13v-262h306v13z" horiz-adv-x="1000" />

<glyph glyph-name="app20-b" unicode="&#xe839;" d="M801 428h-280v230c0 4 4 7 8 7 4 0 7-3 7-7v-148l51 55 63-46 60 98 88 34c4 1 9 0 10-4 2-4 0-9-4-10l-83-32-67-107-65 47-53-58v-44h265c4 0 8-3 8-7 0-5-4-8-8-8z m-536-270l-59-82c0-1 0-1-1-2l0 0-3 5-4 6-2 6-2 7-2 8-1 9-22-123 97 79-8-3-8-3-7-2-7 0-6-1-4 1 58 81c4 5 3 12-2 16-5 4-13 3-17-2z m115 99l0 0h41v-47c-10-5-21-8-35-8-20 0-35 7-47 20-12 13-17 30-17 53 0 22 6 40 20 54 13 14 30 21 51 21 21 0 39-5 54-15v33c-14 7-33 10-55 10-30 0-55-10-75-30-20-19-30-44-30-75 0-30 9-54 27-72 18-18 42-27 71-27 25 0 48 6 69 17v93h-74v-27z m-249-331c13-7 26-11 40-11 8 0 15 2 22 4 7 1 10 8 8 14-1 6-8 10-14 8-15-4-31-2-44 6-14 8-24 20-29 36-1 6-8 10-14 8-6-2-10-8-8-15 6-21 20-39 39-50z m81-32c-44-12-80-9-106 10-29 21-38 57-40 69 1 2 1 4 0 5-1 5-6 9-10 10-5 0-10-2-12-6-5-10 5-49 27-76 17-21 45-43 92-43 17 0 35 3 56 9 6 2 10 8 8 14s-8 10-15 8z m55 892c-4-4-4-12 0-16 5-5 12-5 17 0 33 32 65 47 98 42 36-4 61-31 68-40 0-2 1-4 3-5 2-3 6-4 9-4 3 0 6 1 8 3 8 8 2 18-12 32-21 21-97 82-191-12z m653-416c-4 5-12 5-17 0-4-5-4-12 0-17 33-32 48-65 43-97-4-36-31-61-40-68-2-1-4-2-5-3-5-5-5-13-1-17 3-3 5-4 8-4 7 0 15 7 24 16 21 21 82 96-12 190z m-28-45c-5 5-12 5-17 0-5-4-5-12 0-16 11-11 17-26 17-42-1-16-7-31-19-42-4-5-4-12 0-17 3-2 6-3 9-3s6 1 8 3c16 16 25 37 25 59 0 22-8 43-23 58z m-507 288l6-3 5-3 6-5 5-5 6-7-44 104-44-104 6 7 5 5 5 5 6 3 5 3 6 2 1 0c-1-1-2-3-2-6v-177c0-6 5-11 12-11 6 0 12 5 12 11v177c0 3-1 5-3 7l2-1 5-2z m44 126c5 5 5 12 0 17-16 16-36 25-58 25-22 0-43-8-59-23-4-5-4-12 0-17 5-5 12-5 17 0 11 11 25 17 41 17 16-1 31-7 42-19 3-2 6-3 9-3 3 0 6 1 8 3z m300-432l6-6 4-5 3-6 4-5 1-5-214 0c-6 0-12-5-12-12 0-6 6-12 12-12h0l215 1-2-5-3-6-4-5-4-6-6-5-6-6 103 44-103 44 6-5z" horiz-adv-x="1000" />

<glyph glyph-name="app20-c" unicode="&#xe83a;" d="M374 284h74v-93c-20-11-43-17-68-17-30 0-53 9-71 27-18 18-27 42-27 72 0 31 9 56 29 75 20 20 45 30 76 30 21 0 40-3 55-10v-34c-15 11-33 16-54 16-21 0-38-7-52-21-13-14-20-32-20-54 0-23 6-40 17-53 12-13 28-20 47-20 14 0 26 3 36 8v47h-42v27z m5 329l6-3 5-3 6-5 5-5 6-7-44 104-44-104 6 7 5 5 5 5 6 3 6 3 5 2 1 0c-1-1-2-3-2-6v-177c0-6 6-11 12-11 7 0 12 5 12 11v177c0 3-1 5-2 7l1-1 5-2z m-119-455l-60-82c0-1 0-1 0-2l-1 0-3 5-3 6-3 6-2 7-2 8-1 9-21-123 97 79-9-3-7-3-7-2-7 0-7-1-4 1 59 81c4 5 2 12-3 16-5 4-13 3-16-2z m464 149l5-6 4-5 4-6 3-5 2-5-215 0c-6 0-11-5-11-12 0-6 5-12 11-12h0l215 1-2-5-3-6-3-5-5-6-5-5-7-6 104 44-104 44 7-5z m-301 432c5 5 5 12 0 17-15 16-36 25-58 25-22 0-43-8-58-23-5-5-5-12 0-17 4-5 12-5 16 0 11 11 26 17 42 17 15-1 30-7 42-19 2-2 5-3 8-3 3 0 6 1 8 3z m-161 47c-5-4-5-12 0-16 4-5 12-5 16 0 33 32 66 47 98 42 36-4 61-31 68-40 0-2 1-4 3-5 2-3 6-4 9-4 3 0 6 1 8 3 8 8 2 18-12 32-21 21-97 82-190-12z m624-461c-5 5-12 5-17 0-4-4-4-12 0-16 11-11 17-26 17-42 0-16-7-31-18-42-5-5-5-12 0-17 2-2 5-3 8-3s6 1 8 3c16 16 25 37 25 59 1 22-8 43-23 58z m28 45c-4 5-12 5-16 0-5-5-5-12 0-17 32-32 47-65 43-97-5-36-32-61-41-68-2-1-4-2-5-3-5-5-5-13 0-17 2-3 5-4 7-4 8 0 15 7 24 16 21 21 82 96-12 190z m-789-444c13-7 27-11 40-11 8 0 15 2 23 4 6 1 9 8 8 14-2 6-9 10-15 8-15-4-30-2-44 6-14 8-24 20-28 36-2 6-9 10-15 8-6-2-10-8-8-15 6-21 20-39 39-50z m82-32c-45-12-80-9-106 10-30 21-39 57-40 69 0 2 0 4-1 5-1 5-5 9-10 10-5 0-9-2-12-6-5-10 6-49 27-76 17-21 46-43 93-43 16 0 34 3 55 9 6 2 10 8 8 14-2 7-8 10-14 8z m294 629c0 71 57 129 127 129 70 0 127-58 127-129s-57-129-127-129c-70 0-127 58-127 129z m9 0c0-66 53-120 118-120 65 0 117 54 117 120 0 66-52 120-117 120-65 0-118-54-118-120z m119 61c3 0 5 2 5 4v34c0 2-2 4-5 4-3 0-5-2-5-4v-34c0-2 2-4 5-4z m0-124c-3 0-5-2-5-4v-34c0-2 2-4 5-4 3 0 5 2 5 4v34c0 2-2 4-5 4z m60 62c0-3 2-5 5-5h33c2 0 4 2 4 5 0 3-2 5-4 5h-33c-3 0-5-2-5-5z m-120 0c0 3-3 5-5 5h-33c-3 0-5-2-5-5 0-3 2-5 5-5h33c2 0 5 2 5 5z m111 47c1 0 2 0 3 1l18 19c2 2 2 5 0 7-1 2-4 2-6 0l-19-19c-2-2-2-5 0-7 1-1 2-1 4-1z m-105-95l-19-19c-1-2-1-5 0-7 1-1 3-1 4-1 1 0 2 0 3 1l19 19c1 2 1 5-1 7-1 2-4 2-6 0z m108 0c-2 2-5 2-7 0-2-2-2-5 0-7l19-19c1-1 2-1 3-1 1 0 2 0 3 1 2 2 2 5 0 7l-18 19z m-108 96c1-1 2-1 3-1 1 0 3 0 3 1 2 2 2 5 1 7l-19 19c-2 2-5 2-7 0-1-2-1-5 0-7l19-19z m49-53c0 0 1-1 1-1 1 0 1-1 1-1 1 0 1 0 2 0h48c2 0 5 2 5 5 0 2-3 4-5 4h-41l34 85c1 2 0 5-3 6-2 1-5-1-6-3l-37-91c0 0 0 0 0-1 0 0 0 0 0 0 0-1 0-1 0-1 0-1 1-1 1-2z" horiz-adv-x="1000" />

<glyph glyph-name="app21" unicode="&#xe83b;" d="M521 605c-140 0-253-113-253-253 0-139 113-253 253-253 139 0 253 114 253 253 0 140-114 253-253 253z m0-481v457c126 0 228-103 228-229 0-126-102-228-228-228z m-322 439l-87 52c-6 3-14 1-17-5-3-5-2-13 4-16l87-52c2-1 4-2 7-2 4 0 8 2 10 6 4 6 2 14-4 17z m142-532c-6 4-14 2-17-4l-52-91c-3-5-1-13 5-16 2-1 4-2 6-2 4 0 8 2 10 6l52 91c4 5 1 13-4 16z m-178 328c0 7-5 12-12 12h-113c-7 0-12-5-12-12 0-7 5-12 12-12h113c7 0 12 5 12 12z m20-186l-84-48c-5-4-7-11-4-17 2-4 6-6 11-6 2 0 4 0 6 2l84 48c5 3 7 11 4 17-3 6-11 8-17 4z m144 512c2-4 7-6 11-6 2 0 4 0 6 2 6 3 8 11 4 17l-55 90c-3 6-11 7-17 4-5-4-7-11-4-17l55-90z m201 21c7 0 12 5 12 12v106c0 7-5 13-12 13s-12-6-12-13v-106c0-7 5-12 12-12z m0-712c-7 0-12-5-12-12v-106c0-7 5-13 12-13s12 6 12 13v106c0 7-5 12-12 12z" horiz-adv-x="1000" />

<glyph glyph-name="app22" unicode="&#xe83c;" d="M934 528c-29 0-53-24-53-53 0-24 17-45 39-51v-119h-121c-11 157-142 281-301 281s-291-124-302-281h-117v119c23 6 40 27 40 51 0 29-24 53-53 53-29 0-53-24-53-53 0-24 17-45 40-51v-125c0-1 0-3 1-4-1-1-1-2-1-3 0-7 6-13 13-13h129c3-165 137-298 303-298 165 0 299 133 302 298h131c6 0 11 4 13 9l2 7c0 2 0 3 0 4v125c24 6 41 27 41 51 0 29-24 53-53 53z m-895-53c0 15 12 27 27 27 15 0 27-12 27-27 0-15-12-27-27-27-15 0-27 12-27 27z m459-468c-153 0-277 124-277 277 0 152 124 276 277 276 152 0 276-124 276-276 0-153-124-277-276-277z m436 441c-15 0-27 12-27 27 0 15 12 27 27 27 15 0 27-12 27-27 0-15-12-27-27-27z m-438-131c2-7 3-19 3-34v-107h-32v95c0 17-1 27-3 32-3 6-7 10-13 10-5 0-9-2-13-6-4-4-7-9-8-17-2-7-3-18-3-34v-80h-32v91c0 17-1 27-2 32-1 4-3 8-5 10-2 2-6 4-10 4-5 0-9-2-13-6-4-4-7-9-8-16-2-7-3-18-3-34v-81h-32v166h30v-22c10 17 23 26 37 26 8 0 15-2 20-6 6-5 11-11 14-20 5 9 11 15 17 20 6 4 13 6 20 6 9 0 16-2 22-7 6-5 11-12 14-22z m83 89l-65-230h36l14 52h66l15-52h36l-66 230h-36z m-5-139l22 85 23-85h-45z m-175 368c7 0 13 2 18 6 5 4 9 10 11 17 2 7 4 16 4 28 0 10-1 18-3 24-1 5-3 10-6 14-3 4-6 8-10 10-4 2-9 3-14 3-7 0-13-2-18-6-5-4-8-9-11-17-2-7-3-16-3-28 0-19 3-32 9-41 6-6 13-10 23-10z m-14 85c4 4 8 7 14 7 6 0 10-3 14-8 4-6 6-17 6-33 0-16-2-27-6-33-4-5-8-8-14-8-6 0-10 3-14 8-4 6-6 17-6 33 0 16 2 28 6 34z m95-37h-37v12h37v-12z m75-46h-66c0 3 0 6 1 8 2 5 5 9 8 14 4 4 9 9 16 15 11 9 18 16 22 21 4 5 6 10 6 15 0 4-2 8-5 12-4 3-8 5-14 5-6 0-10-2-14-6-4-3-5-8-5-14l-13 1c1 9 4 17 10 22 5 4 13 7 22 7 10 0 18-3 23-8 6-5 8-12 8-20 0-4 0-8-2-12-2-3-4-7-8-12-4-4-10-10-19-17-7-6-12-11-14-13s-4-4-5-6h49v-12z m45-2c7 0 14 2 18 6 5 4 9 10 11 17 2 7 4 16 4 28 0 10-1 18-3 24-1 5-3 10-6 14-2 4-6 8-10 10-4 2-8 3-14 3-7 0-13-2-18-6s-8-9-11-17c-2-7-3-16-3-28 0-19 3-32 10-41 5-6 13-10 22-10z m-13 85c3 4 7 7 13 7 6 0 11-3 14-8 4-6 6-17 6-33 0-16-2-27-6-33-3-5-8-8-14-8-5 0-10 3-14 8-4 6-6 17-6 33 0 16 2 28 7 34z" horiz-adv-x="1000" />

<glyph glyph-name="app22-b" unicode="&#xe83d;" d="M987 312c0-7-6-12-12-12l-96-1-50-118c-2-4-7-7-12-7-5 0-10 4-11 9l-75 241-76-242c-2-6-7-9-12-9-6 0-10 4-12 9l-61 242-94-244c-2-5-7-9-13-8-5 0-10 4-11 10l-50 239-100-250c-2-5-7-8-12-8 0 0 0 0 0 0-6 1-10 4-12 9l-70 255-62-129c-2-4-6-7-11-7l-109-1c0 0 0 0 0 0-7 0-13 6-13 12 0 7 6 13 13 13l101 0 74 152c2 5 6 8 12 7 5 0 9-4 10-9l69-251 103 254c2 5 7 8 12 7 5 0 10-4 11-9l50-239 93 242c2 5 6 8 12 7 5 0 10-4 11-9l61-237 74 239c2 5 7 8 12 8h0c5 0 10-3 12-8l76-247 41 94c2 4 6 7 11 7l103 1c0 0 0 0 0 0 7 0 13-5 13-12z" horiz-adv-x="1000" />

<glyph glyph-name="app23" unicode="&#xe83e;" d="M729 390c6-8 10-16 10-25 0-11-4-20-10-26-7-7-16-10-26-10h-77l-52 51-47-72 107-210c3-4 7-9 8-15 1-4 2-7 2-12 0-14-5-25-15-34-9-11-20-15-34-15s-24 4-33 15c-2 1-3 2-4 4-5 5-8 11-9 17l-89 172-30-114h-173c-12 1-24 5-33 14-9 9-13 20-13 34 0 13 4 24 13 34 8 8 18 13 29 13h13 98l32 131 52 88h-52l-44-53-8-9c-6-6-14-9-23-9-10 0-19 3-26 11-7 6-10 15-10 25 0 6 1 11 3 16l8 10 64 88h154c-13 14-21 32-21 52 0 20 8 37 21 52 15 14 33 21 52 21 20 0 38-7 51-21 15-15 23-32 23-52 0-20-8-38-23-52-9-10-22-17-35-20l76-88h44 1c10 0 19-4 26-11z m-543 212c-35-40-53-86-55-136 0-4-1-9-1-13 0-48 14-92 41-130 3-4 6-5 10-5 3 0 5 0 7 2 6 4 7 12 3 17-24 34-36 73-36 116 0 3 0 6 1 11 1 46 18 86 49 121 4 5 4 13-1 18-5 4-13 4-18-1z m628 0c-5 5-13 5-18 1-5-5-5-13-1-18 31-34 48-75 50-121v-11c0-43-12-82-36-116-4-5-3-13 3-17 2-2 4-2 7-2 4 0 8 1 10 5 27 38 41 82 41 130l0 12c-3 52-22 98-56 137z m-731 54c-45-55-68-119-69-189-1-4-1-8-1-11 0-68 19-129 56-182 2-3 6-5 10-5 3 0 5 1 7 2 6 4 7 12 3 17-34 49-51 105-51 168 0 2 0 4 1 8 1 67 22 126 63 177 5 5 4 13-1 17-6 4-13 4-18-2z m834 0c-4 6-12 6-17 2-6-4-7-12-2-17 41-51 62-110 64-177v-8c0-63-17-120-51-168-4-5-3-13 3-17 2-1 5-2 7-2 4 0 8 2 10 5 37 52 56 114 56 182v9c-2 72-26 136-70 191z" horiz-adv-x="1000" />

<glyph glyph-name="app24" unicode="&#xe83f;" d="M677 25l25-41c-14-9-29-17-44-24l-21 43c14 7 27 14 40 22z m39 25l28-39c13 10 27 20 39 31l-31 37c-12-10-24-20-36-29z m-165-80l14-47c16 5 32 11 47 17l-17 44c-14-5-29-10-44-14z m-90-19l6-48c17 2 33 5 49 8l-9 47c-15-3-30-5-46-7z m324 159l35-34c11 12 23 25 33 37l-37 31c-10-12-20-23-31-34z m136 236l46-12c5 16 8 33 11 49l-47 8c-3-15-6-30-10-45z m-77-165l39-28c10 14 19 28 27 42l-41 24c-8-13-16-26-25-38z m46 79l43-20c7 15 14 31 19 46l-45 17c-5-15-11-29-17-43z m73 540c-14 0-24-11-24-24v-293c0-16-1-31-2-46l48-4c1 16 2 33 2 50v293c0 13-11 24-24 24z m-547-866l0 13c-7 0-14 0-21 0h-358c-13 0-24-11-24-24s11-24 24-24h358c8 0 15 0 22 0l0 14c1 3 2 7 2 10 0 4-1 8-3 11z" horiz-adv-x="1000" />

<glyph glyph-name="app25" unicode="&#xe840;" d="M450 781v-4-70-85-85-86-85-10-75-86-65c-13-7-25-16-36-27-28-28-42-61-42-99 0-39 14-72 42-99 27-28 60-42 98-42 39 0 72 14 100 41 27 28 41 61 41 100 0 38-14 71-41 99-13 12-27 22-41 28v225 424c0 0 0 0 0 0 0 1 0 1 0 1 0 0 0 0 0 1 0 0 0 0 0 1-2 14-8 26-18 36-23 23-62 25-85 0-9-10-14-12-18-33m86 15c6-6 9-12 10-21v-424h-39c3 3 5 6 5 10 0 7-5 12-12 12h-25v18h46c7 0 12 6 12 13 0 7-5 12-12 12h-46v18h25c7 0 12 6 12 12 0 7-5 13-12 13h-25v18h46c7 0 12 5 12 12 0 7-5 12-12 12h-46v18h25c7 0 12 6 12 13 0 6-5 12-12 12h-25v18h46c7 0 12 5 12 12 0 7-5 13-12 13h-46v18h25c7 0 12 5 12 12 0 7-5 12-12 12h-25v18h46c7 0 12 6 12 12 0 7-5 13-12 13h-46v18h25c7 0 12 5 12 12 0 7-5 12-12 12h-25v58l0 0c0 1 0 1 0 1 0 0 0 0 0 1l0 1c1 9 4 15 10 21 15 14 37 14 51 0z" horiz-adv-x="1000" />

<glyph glyph-name="app26" unicode="&#xe841;" d="M984 342c-5 8-16 11-25 6-135-78-265-85-396-23v397h-161v-320c-130 41-257 23-380-54-9-5-11-17-6-25 6-9 17-11 25-6 117 73 238 88 361 46v-388h161v310c58-25 117-38 175-38 80 0 160 23 240 70 8 5 11 16 6 25z m-435-354h-133v71h45c4 0 6 3 6 6 0 3-2 6-6 6h-45v32h26c4 0 6 2 6 6 0 3-2 6-6 6h-26v32h45c4 0 6 2 6 6 0 3-2 6-6 6h-45v31h26c4 0 6 3 6 6 0 4-2 6-6 6h-26v32h45c4 0 6 3 6 6 0 3-2 6-6 6h-45v32h26c4 0 6 2 6 6 0 3-2 6-6 6h-26v31h45c4 0 6 3 6 6s-2 6-6 6h-45v25c29-11 58-25 88-43 15-8 30-16 45-23v-304z m0 344c-9 5-18 10-27 15-35 21-71 38-106 50v12h45c4 0 6 2 6 6s-2 6-6 6h-45v31h26c4 0 6 3 6 6s-2 7-6 7h-26v31h45c4 0 6 3 6 6s-2 6-6 6h-45v32h26c4 0 6 3 6 6s-2 6-6 6h-26v32h45c4 0 6 2 6 6s-2 6-6 6h-45v31h26c4 0 6 3 6 6s-2 6-6 6h-26v70h133v-377z" horiz-adv-x="1000" />

<glyph glyph-name="app27" unicode="&#xe842;" d="M768 734l-50-84c-4-8-12-12-20-12-5 0-9 1-13 3-11 7-15 22-8 33l50 85c7 11 22 15 33 8 11-6 15-21 8-33z m-577-190l-88 51c-12 6-26 2-33-9-7-12-3-26 9-33l88-50c4-3 8-4 12-4 8 0 16 5 21 13 6 11 2 26-9 32z m318 135c13 0 24 10 24 24v110c0 13-11 24-24 24-13 0-24-11-24-24v-110c0-14 11-24 24-24z m-213-26c5-8 13-12 21-12 4 0 8 1 12 3 12 7 16 21 9 33l-47 82c-7 11-21 15-33 8-11-6-15-21-9-32l47-82z m468-283c1-5 2-9 2-13v-22c0-25-4-47-8-63l-1-9c-14-48-35-84-67-116l-12-12c-8-6-14-10-19-15-11-7-22-15-34-22-1-7-2-15-5-23 5-9 5-19 5-29 0-8 0-18-5-26 5-10 5-20 5-31 0-26-12-46-36-60-5-4-8-6-11-7v-2c0-15-10-30-24-41-16-12-34-12-58-12-20 0-38 0-54 12-16 10-27 25-27 41 0 1 0 2 1 3l1 4-3 2c-26 15-40 35-40 60 0 7 3 17 8 30-4 8-8 16-8 27 0 7 3 19 9 29-4 9-7 17-8 23-10 5-27 16-46 35-6 3-14 7-18 15-50 50-75 113-75 187v22c3 65 28 118 76 163 51 54 114 82 188 82 74 0 134-27 190-83 32-32 54-68 66-112 3-18 6-29 8-37z m-176-328c-24-14-55-21-88-21-33 0-61 7-85 21-5 3-11 7-15 11-1-3-2-6-2-7 0-6 2-10 8-19 3-5 8-9 13-14 4-3 7-6 10-9 18-13 41-16 71-16 26 0 54 2 74 17 9 6 14 11 23 23 4 4 4 11 4 18 0 2 0 5 0 7-4-4-8-8-13-11z m-37-131c-15-3-32-3-51-3-25 0-44 2-60 7 2-5 6-11 15-16 11-8 24-8 41-8 21 0 34 0 43 7 6 4 10 9 12 13z m50 78c0 2 0 4 0 6-4-3-8-7-13-10-26-18-58-21-88-21-34 0-62 4-86 21-5 5-8 8-11 10-1 1-2 2-3 3-1-4-2-7-2-9 0-16 9-29 29-40l9-6c16-8 35-11 64-11 26 0 46 0 59 8 0 0 1 0 1 0 2 1 4 2 6 3 3 1 5 2 7 4 0 1 1 2 2 2 18 10 26 22 26 40z m141 368c0 1-1 4-2 7-2 8-5 20-7 39-11 37-31 70-60 99-52 52-105 76-173 76-68 0-123-25-171-75-44-42-66-88-69-147l0-21c0-68 23-125 69-171 1-1 1-2 2-3 1-3 5-5 10-7 2-1 3-1 4-2 22-23 41-33 47-36 0 0 0 0 0 0 0 0 0 0 0 0 5-3 15-6 23-9 7-2 10-9 8-15-2-5-6-8-11-8-2 0-3 0-4 1-2 0-3 0-4 1 1-2 1-4 2-5 6-6 14-14 22-19 19-11 43-17 72-17 29 0 55 6 75 17 3 2 7 6 10 9 4 4 8 8 12 11 1 1 1 3 1 4-5-1-10-2-14-2-6 0-12 5-12 12s6 12 12 12c4 0 14 2 22 7 0 1 1 1 1 1 0 0 1 0 1 0 0 0 0 0 0 0 0 0 0 0 0 0 0 0 0 0 0 0 13 6 24 15 36 24 6 4 12 9 19 13l10 11c29 29 48 61 60 105l2 8c3 15 7 36 7 58v22z m191 196c12 7 15 22 8 33-7 12-21 15-33 8l-88-53c-11-7-15-22-8-33 5-8 13-12 21-12 4 0 8 1 12 4l88 53z m30-194h-104c-13 0-24-11-24-24s11-24 24-24h104c13 0 24 11 24 24s-11 24-24 24z m-822 0h-104c-13 0-24-11-24-24s11-24 24-24h104c13 0 24 11 24 24s-11 24-24 24z m485 107c-21 18-42 31-65 38-22 8-39 9-50 2-12-7-14-19-7-36 6-18 19-35 40-53 20-18 41-30 63-39 23-8 40-8 51-1 11 6 14 19 7 36-6 18-19 35-39 53z" horiz-adv-x="1000" />

<glyph glyph-name="app28" unicode="&#xe843;" d="M592 402c-6 12-15 22-27 30l-47 274-36-275c-12-7-21-17-27-29l-277-47 289-39 1 2c3-4 8-8 12-11l47-255 40 255c4 3 8 6 12 10l287 49-274 36z m-71 134l16-94c-4 1-9 1-13 1-5 0-10 0-15-1l12 94z m-173-178l99 17c0-2 0-4 0-6 0-9 1-17 4-25l-103 14z m155 56l2-1 0 2c6 2 12 3 19 3 6 0 12-1 18-3l0-2 3 0c14-6 25-18 29-33l-1-1 1 0c1-4 1-7 1-10 0-27-23-49-51-49-29 0-52 22-52 49 0 20 13 37 31 45z m22-210l-17 92c5-1 10-2 16-2 5 0 10 1 15 2l-14-92z m75 171l96-12-100-17c3 7 5 15 5 23 0 2-1 4-1 6z m-109 349h-12v98h13l52-77v77h12v-98h-13l-52 77v-77z m73-782c2-4 4-8 4-14 0-5-2-10-5-14-3-5-7-9-13-11-5-3-11-4-18-4-9 0-17 1-23 4-6 2-10 6-14 12-3 5-5 11-5 17l12 1c1-5 2-9 4-12 2-3 6-5 10-7 4-2 9-3 15-3 5 0 9 0 13 2 4 1 7 3 9 6 1 2 2 5 2 8 0 3-1 6-2 8-2 3-5 5-9 6-3 1-9 3-18 5-9 2-15 4-18 6-5 2-9 5-11 9-2 4-3 8-3 12 0 5 1 10 4 14 3 4 7 8 12 10 6 2 11 3 18 3 7 0 14-1 19-3 6-3 10-6 13-11 3-4 5-9 5-15l-13-1c0 6-2 11-6 14-4 3-10 5-17 5-8 0-14-2-18-4-3-3-5-7-5-11 0-3 1-6 4-9 2-2 9-4 19-7 11-2 18-4 22-6 6-2 10-6 13-10z m-438 463h13l-27-98h-12l-21 75c-1 6-2 10-3 11-1-4-2-8-3-11l-20-75h-14l-26 98h14l15-64c1-7 3-14 4-20 2 10 4 16 4 18l19 66h15l14-50c4-12 6-24 8-34 1 6 3 13 5 21l15 63z m861-82v-12h-73v98h70v-11h-57v-30h54v-12h-54v-33h60z" horiz-adv-x="1000" />

<glyph glyph-name="app29" unicode="&#xe844;" d="M236 529c25-25 37-55 37-91 0-29-8-54-24-76-4-6-9-11-13-16-26-25-57-38-93-38-35 0-65 13-91 37 0 1 0 1 0 1-26 26-39 56-39 92 0 35 12 65 37 91 1 0 1 0 2 0 25 27 56 39 91 39 35 0 66-12 91-37 1 0 1-1 2-2z m173-287c-12 12-27 18-45 18-18 0-33-6-45-19-1 0-1 0-1 0-13-13-19-28-19-46 0-17 7-33 20-46 0 0 0 0 0 0 13-12 28-18 45-18 18 0 33 6 46 18 3 3 5 6 7 8 8 12 12 24 12 38 0 18-6 34-19 46 0 1 0 1-1 1z m202 297c-20 19-44 29-71 29-29 0-53-10-72-30-1 0-1-1-2-1-20-21-29-44-29-72 0-28 10-52 31-72 0 0 0 0 0-1 20-19 44-29 72-29 28 0 52 10 73 30 3 4 7 8 10 12 13 18 19 38 19 60 0 29-10 53-29 73-1 0-1 1-2 1z m358 46c-1 0-1 1-1 1-12 11-27 17-44 17-17 0-32-6-44-18 0 0 0-1 0-1-13-12-18-26-18-43 0-17 6-32 18-44 0 0 0 0 0-1 13-11 27-17 44-17 18 0 32 6 45 18 2 2 4 5 6 7 8 11 12 23 12 37 0 17-6 32-18 44z m-83-302c-25 24-56 37-90 37-36 0-67-13-92-39-1 0-1-1-2-1-25-26-36-55-36-90 0-36 12-67 38-93 0 0 0 0 0-1 26-24 57-36 92-36 35 0 66 12 92 37 4 6 9 11 13 16 16 23 24 48 24 77 0 35-12 66-37 91-1 1-1 2-2 2z" horiz-adv-x="1000" />

<glyph glyph-name="app30" unicode="&#xe845;" d="M358 574c-5 13-12 28-22 44-5 8-15 22-29 41-12 18-21 32-27 42-9 16-16 30-20 44-14-30-30-59-50-89-2-4-8-12-18-25-7-11-13-20-17-27-13-21-19-42-20-62 0-30 8-55 25-76 17-20 40-33 69-38h21c16 2 30 7 44 16 13 9 24 20 33 33 9 14 14 29 16 45 2 17 1 35-5 52z m-32 34c8-13 14-24 18-35 11-29 9-56-4-83-3-6-6-11-10-16-1-1-2-2-3-4-11-11-24-20-41-25-27-8-51-5-74 9-16 9-27 23-36 41-9 21-12 42-7 64 3 13 9 27 18 42 11 17 19 30 25 38 10 17 19 30 24 39 8 13 15 27 22 40 0 0 0 1 1 1 1-1 8-14 22-38 9-17 17-31 24-41 14-20 21-31 21-32z m-59-145c-3 5-3 11 1 19 4 8 10 16 19 23 8 7 16 12 24 14 9 2 14 1 17-3 3-4 3-10-1-18-4-8-10-16-19-23-8-8-17-12-25-14-8-3-13-2-16 2m471-323c-78 0-157 22-234 68-159 94-314 95-463 2-8-6-19-3-25 5-5 9-3 20 6 26 161 100 329 100 501-2 145-85 288-85 436 2 9 5 20 2 25-7 5-8 2-20-6-25-80-46-160-69-240-69z m1-197c-80 0-159 23-237 69-158 93-313 93-461 0-8-5-19-2-25 6-5 9-3 20 6 25 161 101 328 101 498 0 147-86 291-86 439 1 9 5 20 2 25-7 5-9 2-20-6-25-80-46-160-69-239-69z m76 480c-5 14-12 29-22 44-5 9-15 23-29 42-12 17-22 31-28 41-9 16-15 31-19 45-14-30-30-60-50-89-2-4-9-13-18-26-8-10-14-19-18-26-12-21-19-42-19-63 0-30 8-55 25-75 17-21 40-34 69-39h21c16 2 30 8 44 17 13 8 24 19 33 33 8 14 14 29 16 45 2 17 0 34-5 51z m-32 34c8-12 14-24 18-35 11-28 9-56-4-82-3-6-6-12-10-17-1-1-2-2-3-3-11-12-25-20-41-25-27-9-52-6-75 8-15 10-27 23-35 42-9 20-12 41-7 63 3 13 8 27 18 43 11 17 19 29 24 37 11 17 19 30 25 39 8 14 15 27 22 40-1 1 0 1 1 2 0-2 8-15 22-39 9-17 17-30 24-40 14-21 21-32 21-33z m-59-144c-3 4-3 10 1 18 4 9 10 16 19 24 8 7 16 11 24 14 8 2 14 1 17-4 3-4 3-10-1-18-4-8-11-16-19-23-8-7-17-12-25-14-8-2-13-1-16 3" horiz-adv-x="1000" />

<glyph glyph-name="app31" unicode="&#xe846;" d="M977 376h-150c0 0 0 0 0 0-10 173-153 310-328 310-175 0-318-137-328-310h-148c-5 0-10-4-10-10 0-5 5-10 10-10h147c0-181 148-328 329-328 181 0 328 147 329 328h149c5 0 10 5 10 10 0 6-5 10-10 10z m-478-328c-171 0-309 139-309 309s138 309 309 309c170 0 309-139 309-309s-139-309-309-309z m-89 486c-4-3-9-5-13-6v12c7 3 13 7 19 12 5 4 8 9 11 13h8v-102h-13v80c-3-3-7-6-12-9z m122-71h-67c0 3 0 6 1 9 2 5 5 9 9 14s9 9 16 15c11 9 18 16 22 21 4 6 6 11 6 15 0 5-2 9-5 13-4 3-8 5-14 5-6 0-11-2-14-6s-6-8-6-14l-13 1c1 9 4 17 10 22 6 5 14 7 23 7 10 0 18-3 23-8 6-5 9-12 9-20 0-4-1-8-3-12-1-4-4-8-8-12-4-5-10-11-19-18-8-6-12-11-15-13-2-2-3-4-5-7h50v-12z m46-1c8 0 14 2 19 6 5 4 8 9 11 17s3 16 3 28c0 10 0 18-2 24-1 6-3 11-6 15-3 5-6 8-10 10-4 2-9 3-15 3-7 0-13-2-18-6-5-4-9-9-11-17-2-7-4-17-4-29 0-19 4-32 10-41 6-7 14-10 23-10z m-13 86c3 4 8 7 13 7 6 0 11-3 15-8 4-6 6-17 6-34 0-16-2-27-6-33-4-5-9-8-15-8-5 0-10 3-14 8-4 6-6 17-6 33 0 17 2 28 7 35z m-123-146l-44-213h-40l-45 213h41l24-144 25 144h39z m36 0l-45-213h39l8 43h37l8-43h40l-45 213h-42z m8-132l12 68 13-68h-25z m188 125c4-3 7-5 9-7v-50h-4c-1 2-3 4-6 8-3 4-5 7-8 10-3 3-6 5-10 7-4 3-7 4-11 4-5 0-9-2-13-4-4-2-8-7-12-13-3-5-6-13-8-22-2-9-3-20-3-33 0-13 1-24 3-33 2-10 5-17 9-23 3-5 7-9 11-11 5-3 9-4 13-4 4 0 8 1 12 3 3 2 7 5 10 9 3 3 5 6 8 9s4 6 5 8h4v-50c-2-2-5-4-9-6-4-3-7-5-10-6-5-2-9-4-12-5-4-1-10-1-16-1-21 0-38 9-50 29-12 20-18 47-18 81 0 34 6 62 18 81 13 20 29 30 50 30 6 0 11 0 15-1 5-1 9-3 13-4 3-2 6-3 10-6z" horiz-adv-x="1000" />

<glyph glyph-name="app32" unicode="&#xe847;" d="M974 362h-146c-11 171-155 308-329 308-175 0-318-137-329-308h-144c-7 0-13-6-13-13s6-12 13-12h143c2-180 149-327 330-327 181 0 328 147 329 327h146c7 0 13 6 13 12s-6 13-13 13z m-475-327c-168 0-305 137-305 305 0 168 137 305 305 305 168 0 305-137 305-305 0-168-137-305-305-305z m-140 409c7 0 13 2 18 6s8 10 11 17c2 7 3 17 3 29 0 10 0 18-2 23-1 6-3 11-6 15-3 5-6 8-10 10-4 2-9 3-14 3-8 0-14-2-19-6s-8-9-11-17c-2-7-3-16-3-28 0-19 3-33 10-41 5-7 13-11 23-11z m-14 86c3 4 8 7 13 7 6 0 11-3 15-8 4-6 6-17 6-33 0-17-2-28-6-33-4-6-9-9-14-9-6 0-11 3-15 9-4 5-6 16-6 33 0 16 3 28 7 34z m96-36h-38v12h38v-12z m58-33c4 5 6 10 6 18 0 7-2 13-6 17-4 4-9 6-16 6-4 0-7-1-11-3-3-2-5-4-7-7l-12 2 10 51h50v-11h-40l-6-28c7 5 13 7 20 7 8 0 16-3 22-9s9-14 9-24c0-9-3-17-8-24-7-8-15-12-27-12-9 0-16 3-22 8-6 5-9 12-10 20l13 1c1-6 3-11 7-14 3-3 8-5 12-5 6 0 11 3 16 7z m82-11c5 4 8 10 11 17 2 7 3 17 3 29 0 10 0 18-2 23-2 6-4 11-6 15-3 5-6 8-10 10s-9 3-15 3c-7 0-13-2-18-6-5-4-8-9-11-17-2-7-4-16-4-28 0-19 4-33 10-41 6-7 14-11 23-11 8 0 14 2 19 6z m-33 13c-4 5-6 16-6 33 0 16 2 28 7 34 3 4 8 7 13 7 6 0 11-3 15-8 4-6 6-17 6-33 0-17-2-28-6-33-4-6-9-9-15-9-5 0-10 3-14 9z m93-19c7 0 13 2 18 6 5 4 9 10 11 17 2 7 4 17 4 29 0 10-1 18-3 23-1 6-3 11-6 15-3 5-6 8-10 10s-9 3-14 3c-8 0-14-2-19-6-4-4-8-9-10-17-3-7-4-16-4-28 0-19 3-33 10-41 5-7 13-11 23-11z m-14 86c3 4 8 7 14 7 5 0 10-3 14-8 4-6 6-17 6-33 0-17-2-28-6-33-4-6-9-9-14-9-6 0-11 3-15 9-3 5-5 16-5 33 0 16 2 28 6 34z m-273-145h39l-44-212h-40l-45 212h40l25-143 25 143z m109 4c-22 0-38-10-50-29-12-20-18-47-18-81 0-34 6-61 18-81 12-20 28-30 50-30 21 0 38 10 50 30 12 20 18 47 18 81 0 34-6 61-18 81-12 19-29 29-50 29z m21-163c-5-13-12-19-21-19-9 0-16 6-21 19-5 12-7 30-7 53 0 23 2 40 7 53 5 12 12 19 21 19 9 0 16-7 21-19 4-13 7-30 7-53 0-23-3-41-7-53z m102-13h53v-40h-91v212h38v-172z m35 172h115v-40h-38v-172h-39v172h-38v40z" horiz-adv-x="1000" />

<glyph glyph-name="app33" unicode="&#xe848;" d="M290 758c-61 0-94-34-109-73l-80-206c-31-4-88-41-88-112v-262h78v-84c0-104 146-102 146 0v84h263 263v-84c0-102 146-104 146 0v84h78v262c0 71-56 108-88 112l-80 206c-15 39-48 73-109 73h-113-193-114z m0-75h210 0 211c26-1 38-17 45-40l60-162h-316 0-316l60 162c8 23 19 39 46 40z m-123-281c37 0 67-31 67-70 0-38-30-69-67-69-38 0-68 31-68 69 0 39 30 70 68 70z m667 0c37 0 67-31 67-70 0-38-30-69-67-69-37 0-68 31-68 69 0 39 31 70 68 70z" horiz-adv-x="1000" />

<glyph glyph-name="app34" unicode="&#xe849;" d="M768 201c37 36 55 91 55 160 0 66-18 120-55 157-36 40-87 58-145 58-37 0-66-3-92-14-22-11-36-26-54-40-15-15-30-37-40-59-11-25-19-62-19-106 0-65 19-120 55-156 36-37 84-55 150-55 62 0 109 18 145 55z m-229 54c-22 22-33 59-33 106 0 48 11 84 33 109 18 22 47 33 84 33 32 0 62-11 80-33 22-25 33-61 33-109 0-51-11-87-33-109-18-26-48-33-80-33-33 0-62 11-84 36z m-332-109c-59 0-106 18-139 55-36 36-55 91-55 153 0 73 19 127 55 164 33 36 84 58 142 58 51 0 92-14 124-47 19-18 33-40 41-73l-81-22c-7 22-14 40-33 51-14 15-32 18-54 18-33 0-55-11-77-33-18-21-29-58-29-105 0-55 11-91 29-113 18-26 44-33 73-33 26 0 44 7 58 18 19 15 30 37 37 69l80-25c-11-48-33-80-62-102-33-26-69-33-109-33z m780 210c0-247-201-448-449-448-130 0-254 57-339 156-8 9-7 22 2 30 9 8 23 7 30-2 77-90 189-141 307-141 224 0 406 182 406 405 0 224-182 406-406 406-111 0-219-47-296-129-8-9-22-9-30-1-9 8-9 22-1 30 84 91 204 143 327 143 248 0 449-201 449-449z" horiz-adv-x="1000" />

<glyph glyph-name="app35" unicode="&#xe84a;" d="M450 781v-4-70-85-85-86-85-10-75-86-65c-13-7-25-16-36-27-28-28-42-61-42-99 0-39 14-72 42-99 27-28 60-42 98-42 39 0 72 14 100 41 27 28 41 61 41 100 0 38-14 71-41 99-13 12-27 22-41 28v225 424c0 0 0 0 0 0 0 1 0 1 0 1 0 0 0 0 0 1 0 0 0 0 0 1-2 14-8 26-18 36-23 23-62 25-85 0-9-10-14-12-18-33m86 15c6-6 9-12 10-21v-424h-39c3 3 5 6 5 10 0 7-5 12-12 12h-25v18h46c7 0 12 6 12 13 0 7-5 12-12 12h-46v18h25c7 0 12 6 12 12 0 7-5 13-12 13h-25v18h46c7 0 12 5 12 12 0 7-5 12-12 12h-46v18h25c7 0 12 6 12 13 0 6-5 12-12 12h-25v18h46c7 0 12 5 12 12 0 7-5 13-12 13h-46v18h25c7 0 12 5 12 12 0 7-5 12-12 12h-25v18h46c7 0 12 6 12 12 0 7-5 13-12 13h-46v18h25c7 0 12 5 12 12 0 7-5 12-12 12h-25v58l0 0c0 1 0 1 0 1 0 0 0 0 0 1l0 1c1 9 4 15 10 21 15 14 37 14 51 0z" horiz-adv-x="1000" />

<glyph glyph-name="app36" unicode="&#xe84b;" d="M984 342c-5 8-16 11-25 6-135-78-265-85-396-23v397h-161v-320c-130 41-257 23-380-54-9-5-11-17-6-25 6-9 17-11 25-6 117 73 238 88 361 46v-388h161v310c58-25 117-38 175-38 80 0 160 23 240 70 8 5 11 16 6 25z m-435-354h-133v71h45c4 0 6 3 6 6 0 3-2 6-6 6h-45v32h26c4 0 6 2 6 6 0 3-2 6-6 6h-26v32h45c4 0 6 2 6 6 0 3-2 6-6 6h-45v31h26c4 0 6 3 6 6 0 4-2 6-6 6h-26v32h45c4 0 6 3 6 6 0 3-2 6-6 6h-45v32h26c4 0 6 2 6 6 0 3-2 6-6 6h-26v31h45c4 0 6 3 6 6s-2 6-6 6h-45v25c29-11 58-25 88-43 15-8 30-16 45-23v-304z m0 344c-9 5-18 10-27 15-35 21-71 38-106 50v12h45c4 0 6 2 6 6s-2 6-6 6h-45v31h26c4 0 6 3 6 6s-2 7-6 7h-26v31h45c4 0 6 3 6 6s-2 6-6 6h-45v32h26c4 0 6 3 6 6s-2 6-6 6h-26v32h45c4 0 6 2 6 6s-2 6-6 6h-45v31h26c4 0 6 3 6 6s-2 6-6 6h-26v70h133v-377z" horiz-adv-x="1000" />

<glyph glyph-name="app37" unicode="&#xe84c;" d="M293 110h-141l0-70-139 139 139 139v-69h141c137 0 207 348 415 347l139 1v69l139-139-139-139v69h-139c-139 0-208-347-415-347z m-141 347h141c50 0 87-46 110-74l74 105c-29 36-97 109-184 109h-141v69l-139-139 139-139v69z m835-278l-140 139v-69h-139c-48 0-84 39-111 73l-74-104c32-36 90-108 185-108h139v-70l140 139z" horiz-adv-x="1000" />

<glyph glyph-name="app39" unicode="&#xe84d;" d="M290 758c-61 0-94-34-109-73l-80-206c-31-4-88-41-88-112v-262h78v-84c0-104 146-102 146 0v84h263 263v-84c0-102 146-104 146 0v84h78v262c0 71-56 108-88 112l-80 206c-15 39-48 73-109 73h-113-193-114z m0-75h210 0 211c26-1 38-17 45-40l60-162h-316 0-316l60 162c8 23 19 39 46 40z m-123-281c37 0 67-31 67-70 0-38-30-69-67-69-38 0-68 31-68 69 0 39 30 70 68 70z m667 0c37 0 67-31 67-70 0-38-30-69-67-69-37 0-68 31-68 69 0 39 31 70 68 70z" horiz-adv-x="1000" />

<glyph glyph-name="app40" unicode="&#xe84e;" d="M290 758c-61 0-94-34-109-73l-80-206c-31-4-88-41-88-112v-262h78v-84c0-104 146-102 146 0v84h263 263v-84c0-102 146-104 146 0v84h78v262c0 71-56 108-88 112l-80 206c-15 39-48 73-109 73h-113-193-114z m0-75h210 0 211c26-1 38-17 45-40l60-162h-316 0-316l60 162c8 23 19 39 46 40z m-123-281c37 0 67-31 67-70 0-38-30-69-67-69-38 0-68 31-68 69 0 39 30 70 68 70z m667 0c37 0 67-31 67-70 0-38-30-69-67-69-37 0-68 31-68 69 0 39 31 70 68 70z" horiz-adv-x="1000" />

<glyph glyph-name="app41" unicode="&#xe84f;" d="M90 38h816c20 0 36 17 36 36 0 20-17 36-36 36h-364v57c170 18 303 163 303 338 0 188-152 340-340 340-187 0-340-152-340-339 0-175 133-320 304-338v-57h-379c-21 0-36-17-36-36 0-20 15-37 36-37z m148 468c0 147 120 267 268 267 147 0 267-119 267-267 0-148-120-268-267-268-149 0-268 120-268 268z m705-615c0-21-17-36-36-36h-817c-21 0-36 16-36 36 0 20 16 36 36 36h816c20 1 37-16 37-36z m-463 587c-16 16-15 37 1 53l163 124 16-17-128-159c-15-16-37-17-52-1z" horiz-adv-x="1000" />

<glyph glyph-name="app41-b" unicode="&#xe850;" d="M837 501c0 0 0 0 0 0 0 92-37 176-97 237-1 0-1 0-1 0 0 0 0 0 0 1-61 60-145 98-237 98-184 0-334-151-334-336 0 0 0 0 0 0v0c0 0 0 0 0 0 0-138 83-256 202-308l1-119c0-2 1-3 1-4 0-1 0-2 1-3 0-2 1-3 3-4 0-1 0-1 1-2 1-1 3-2 4-3 1 0 1-1 1-1 2-1 5-1 7-1 0 0 1 0 1 0h46v-174c0-11 8-19 18-19h98c10 0 19 8 19 19v174h44c10 0 19 8 19 18v119c119 51 203 170 203 308 0 0 0 0 0 0l0 0z m-171-18h134c-5-68-32-131-74-179l-55 54c-7 7-18 7-25 0-8-7-8-19 0-26l54-54c-27-23-57-42-91-55 0 0-1-1-1-1-28-10-57-17-88-19v135c0 10-8 18-18 18-10 0-18-8-18-18v-135c-69 5-131 32-179 75l50 50c7 8 7 19 0 26s-18 7-26 0l-50-50c-43 48-70 111-74 179h133c11 0 19 8 19 18 0 10-8 19-19 19h-133c4 68 31 130 74 179l47-47c3-3 8-5 12-5 5 0 10 2 13 5 8 7 8 19 0 26l-46 47c48 43 110 70 179 74v-248c0-10 8-18 18-18 10 0 18 8 18 18v248c69-4 131-31 180-74l-48-49c-7-7-7-18 0-25 3-4 8-6 13-6 4 0 9 2 12 6l49 48c42-49 69-111 74-179h-134c-10 0-18-9-18-19 0-10 8-18 18-18z m-132-583h-61v156h61v-156z m63 192h-190l0 88c30-9 62-14 95-14 33 0 65 5 95 14v-88z" horiz-adv-x="1000" />

<glyph glyph-name="app42" unicode="&#xe851;" d="M500 837c-268 0-487-219-487-487 0-268 219-487 487-487 268 0 487 219 487 487 0 268-219 487-487 487z m0-945c-253 0-458 205-458 458s205 458 458 458c253 0 458-205 458-458s-205-458-458-458z m-10 705v127c0 8 7 14 15 14 7 0 14-6 14-14v-127c0-8-7-14-14-14-8 0-15 6-15 14z m29-503v-127c0-8-7-14-14-14-8 0-15 6-15 14v127c0 8 7 14 15 14 7 0 14-6 14-14z m378 252c0-8-6-15-14-15h-127c-8 0-14 7-14 15 0 7 6 14 14 14h127c8 0 14-7 14-14z m-644-15h-127c-8 0-14 7-14 15 0 7 6 14 14 14h127c8 0 14-7 14-14 0-8-6-15-14-15z m437 200c-5 6-5 15 0 20l72 72c6 6 15 6 20 0 6-5 6-14 0-20l-71-72c-3-2-7-4-10-4s-8 2-11 4z m-371-371c5-6 5-15 0-20l-72-72c-3-3-6-4-10-4s-7 1-10 4c-6 6-6 15 0 20l72 72c5 5 14 5 20 0z m463-72c6-5 6-14 0-20-3-3-6-4-10-4s-7 1-10 4l-72 72c-5 5-5 14 0 20 6 5 15 5 21 0l71-72z m-463 463c5-5 5-14 0-20-3-2-7-4-10-4s-8 2-10 4l-72 72c-6 6-6 15 0 20 6 6 15 6 20 0l72-72z m367-229h-186c-2 0-4 1-5 1 0 0 0 0 0 0-2 1-4 2-5 4 0 0-1 0-1 1-1 1-2 2-2 3-1 2-1 4-1 5 0 1 0 1 0 1 0 1 0 2 0 3 1 0 1 1 1 2l0 0c0 0 0 0 0 0l141 344c3 8 12 11 19 8 7-3 11-11 8-18l-134-325h165c8 0 14-7 14-14 0-8-6-15-14-15z" horiz-adv-x="1000" />

<glyph glyph-name="app43" unicode="&#xe852;" d="M236 529c25-25 37-55 37-91 0-29-8-54-24-76-4-6-9-11-13-16-26-25-57-38-93-38-35 0-65 13-91 37 0 1 0 1 0 1-26 26-39 56-39 92 0 35 12 65 37 91 1 0 1 0 2 0 25 27 56 39 91 39 35 0 66-12 91-37 1 0 1-1 2-2z m173-287c-12 12-27 18-45 18-18 0-33-6-45-19-1 0-1 0-1 0-13-13-19-28-19-46 0-17 7-33 20-46 0 0 0 0 0 0 13-12 28-18 45-18 18 0 33 6 46 18 3 3 5 6 7 8 8 12 12 24 12 38 0 18-6 34-19 46 0 1 0 1-1 1z m202 297c-20 19-44 29-71 29-29 0-53-10-72-30-1 0-1-1-2-1-20-21-29-44-29-72 0-28 10-52 31-72 0 0 0 0 0-1 20-19 44-29 72-29 28 0 52 10 73 30 3 4 7 8 10 12 13 18 19 38 19 60 0 29-10 53-29 73-1 0-1 1-2 1z m358 46c-1 0-1 1-1 1-12 11-27 17-44 17-17 0-32-6-44-18 0 0 0-1 0-1-13-12-18-26-18-43 0-17 6-32 18-44 0 0 0 0 0-1 13-11 27-17 44-17 18 0 32 6 45 18 2 2 4 5 6 7 8 11 12 23 12 37 0 17-6 32-18 44z m-83-302c-25 24-56 37-90 37-36 0-67-13-92-39-1 0-1-1-2-1-25-26-36-55-36-90 0-36 12-67 38-93 0 0 0 0 0-1 26-24 57-36 92-36 35 0 66 12 92 37 4 6 9 11 13 16 16 23 24 48 24 77 0 35-12 66-37 91-1 1-1 2-2 2z" horiz-adv-x="1000" />

<glyph glyph-name="app44" unicode="&#xe853;" d="M246 213l0 0-6 0c-1 0-3 0-4 0s-3 0-4 0h-6v0c-44-5-80-43-80-89 0-49 40-89 89-89 49 0 89 40 89 89 2 46-33 84-78 89z m-9-158c-38 0-69 31-69 69 0 38 31 70 69 70 38 0 70-32 70-70 0-38-32-69-70-69z m645 334v-4h20v4c45 5 80 43 80 89 0 49-39 89-88 89s-89-40-89-89c-1-46 33-84 77-89z m11 157c38 0 69-31 69-69 0-38-31-70-69-70s-70 32-70 70c0 39 32 69 70 69z m-18-233l13-15c-7-5-16-9-25-9h-6v19h6c4 0 8 2 12 5z m-46-24h-27v19h27v-19z m-82 19h27v-19h-27v19z m-54 0h26v-19h-26v19z m209 22h-20v27h20v-27z m-237-22v-19h-13v19h13z m-438-46h19v-24h-19v24z m155 27v19h25v-19h-25z m-132-9l-17 10c6 9 16 16 26 17l4-19c-6 0-10-4-13-8z m182 9v19h24v-19h-24z m-98 19h24v-19h-24v19z m-24-19h-24v19h24v-19z m184 19v-19h-13v19h13z m186-88l-107 186-106-186h213z m-35 20h-145l73 126 72-126z m-268 255l-12 3c-8 1-14 2-21 2-69 0-125-56-125-124l1-23-22 9c-14 6-29 8-43 8-69 0-124-55-124-124 0-50 29-94 76-114l-11-24c-55 24-91 78-91 138 0 83 67 150 150 150 14 0 27-2 39-5 8 76 72 135 150 135 4 0 9 0 13-1 27 81 103 136 188 136 75 0 141-40 174-104 20 2 40 3 61 1l-2-25c-21 2-43 1-63-3l-10-2-5 9c-28 61-85 98-155 98-77 0-146-53-166-128l-2-12z m618-173c0-131-106-238-238-238h-392v26h392c117 0 212 96 212 212 0 20-2 39-7 57l25 7c6-20 8-42 8-64z" horiz-adv-x="1000" />

<glyph glyph-name="app45" unicode="&#xe854;" d="M987 352c0-79-24-145-69-200l-90 72c31 35 46 74 46 116 0 57-21 103-63 139-43 38-93 56-152 56h-281v-145l-261 208 261 202v-160h329c75-6 140-35 192-86 58-56 88-124 88-202z m-373-199h-276c-60 0-111 17-153 55-43 36-65 82-65 140 0 46 17 86 50 117l-87 73c-46-53-70-115-70-186 0-88 30-160 89-217 51-47 110-76 178-82 7-1 17-2 26-2h308v-148l243 186-243 206v-142z" horiz-adv-x="1000" />

<glyph glyph-name="app46" unicode="&#xe855;" d="M450 781v-4-70-85-85-86-85-10-75-86-65c-13-7-25-16-36-27-28-28-42-61-42-99 0-39 14-72 42-99 27-28 60-42 98-42 39 0 72 14 100 41 27 28 41 61 41 100 0 38-14 71-41 99-13 12-27 22-41 28v225 424c0 0 0 0 0 0 0 1 0 1 0 1 0 0 0 0 0 1 0 0 0 0 0 1-2 14-8 26-18 36-23 23-62 25-85 0-9-10-14-12-18-33m86 15c6-6 9-12 10-21v-424h-39c3 3 5 6 5 10 0 7-5 12-12 12h-25v18h46c7 0 12 6 12 13 0 7-5 12-12 12h-46v18h25c7 0 12 6 12 12 0 7-5 13-12 13h-25v18h46c7 0 12 5 12 12 0 7-5 12-12 12h-46v18h25c7 0 12 6 12 13 0 6-5 12-12 12h-25v18h46c7 0 12 5 12 12 0 7-5 13-12 13h-46v18h25c7 0 12 5 12 12 0 7-5 12-12 12h-25v18h46c7 0 12 6 12 12 0 7-5 13-12 13h-46v18h25c7 0 12 5 12 12 0 7-5 12-12 12h-25v58l0 0c0 1 0 1 0 1 0 0 0 0 0 1l0 1c1 9 4 15 10 21 15 14 37 14 51 0z" horiz-adv-x="1000" />

<glyph glyph-name="app47" unicode="&#xe856;" d="M302 271c0-9-7-16-16-16h-85c-9 0-16 7-16 16s7 16 16 16h85c9 0 16-7 16-16z m-187 16h-86c-8 0-16-7-16-16s8-16 16-16h86c9 0 16 7 16 16s-7 16-16 16z m342 0h-85c-9 0-16-7-16-16s7-16 16-16h85c9 0 16 7 16 16s-7 16-16 16z m171 0h-85c-9 0-16-7-16-16s7-16 16-16h85c9 0 16 7 16 16s-7 16-16 16z m343 0h-86c-9 0-16-7-16-16s7-16 16-16h86c9 0 16 7 16 16s-7 16-16 16z m-171 0h-86c-9 0-16-7-16-16s7-16 16-16h86c8 0 16 7 16 16s-8 16-16 16z m-257 108h85c9 0 16 7 16 16 0 9-7 16-16 16h-85c-9 0-16-7-16-16 0-9 7-16 16-16z m171 0h86c8 0 16 7 16 16 0 9-8 16-16 16h-86c-9 0-16-7-16-16 0-9 7-16 16-16z m171 0h86c9 0 16 7 16 16 0 9-7 16-16 16h-86c-9 0-16-7-16-16 0-9 7-16 16-16z m-856 0h86c9 0 16 7 16 16 0 9-7 16-16 16h-86c-8 0-16-7-16-16 0-9 8-16 16-16z m172 0h85c9 0 16 7 16 16 0 9-7 16-16 16h-85c-9 0-16-7-16-16 0-9 7-16 16-16z m171 0h85c9 0 16 7 16 16 0 9-7 16-16 16h-85c-9 0-16-7-16-16 0-9 7-16 16-16z" horiz-adv-x="1000" />

<glyph glyph-name="app48" unicode="&#xe857;" d="M302 271c0-9-7-16-16-16h-85c-9 0-16 7-16 16s7 16 16 16h85c9 0 16-7 16-16z m-187 16h-86c-8 0-16-7-16-16s8-16 16-16h86c9 0 16 7 16 16s-7 16-16 16z m342 0h-85c-9 0-16-7-16-16s7-16 16-16h85c9 0 16 7 16 16s-7 16-16 16z m171 0h-85c-9 0-16-7-16-16s7-16 16-16h85c9 0 16 7 16 16s-7 16-16 16z m343 0h-86c-9 0-16-7-16-16s7-16 16-16h86c9 0 16 7 16 16s-7 16-16 16z m-171 0h-86c-9 0-16-7-16-16s7-16 16-16h86c8 0 16 7 16 16s-8 16-16 16z m-257 108h85c9 0 16 7 16 16 0 9-7 16-16 16h-85c-9 0-16-7-16-16 0-9 7-16 16-16z m171 0h86c8 0 16 7 16 16 0 9-8 16-16 16h-86c-9 0-16-7-16-16 0-9 7-16 16-16z m171 0h86c9 0 16 7 16 16 0 9-7 16-16 16h-86c-9 0-16-7-16-16 0-9 7-16 16-16z m-856 0h86c9 0 16 7 16 16 0 9-7 16-16 16h-86c-8 0-16-7-16-16 0-9 8-16 16-16z m172 0h85c9 0 16 7 16 16 0 9-7 16-16 16h-85c-9 0-16-7-16-16 0-9 7-16 16-16z m171 0h85c9 0 16 7 16 16 0 9-7 16-16 16h-85c-9 0-16-7-16-16 0-9 7-16 16-16z" horiz-adv-x="1000" />

<glyph glyph-name="app49" unicode="&#xe858;" d="M48 527c-24 0-43 19-43 43s19 44 43 44h646v130l301-174-301-173v130h-646z m904-348h-646v130l-301-174 301-174v131h646c24 0 43 19 43 43s-19 44-43 44z" horiz-adv-x="1000" />

<glyph glyph-name="app50" unicode="&#xe859;" d="M652 396h-104v12c10 3 17 6 20 9 4 3 6 8 7 14 1 6 2 15 2 27v213c0 11-1 20-1 25-1 5-3 9-4 12-2 3-5 5-8 7-3 2-9 4-16 6v12h104v-12c-7-2-12-4-16-6-3-2-5-4-7-7-2-2-4-6-4-12-1-5-2-14-2-25v-213c0-11 1-19 1-24 1-6 2-10 4-13 2-2 4-5 8-7 3-2 9-4 16-6v-12z m335 176c0-28-3-53-10-74-6-21-15-39-28-53-10-12-23-23-38-31-13-6-28-11-44-14-17-3-39-4-66-4h-90v12c8 2 13 4 17 6 3 2 6 4 7 7 2 3 4 7 4 12 1 5 2 13 2 25v213c0 12-1 20-2 25 0 5-2 9-4 12-2 3-4 5-7 7-3 2-9 3-17 6v12h108c32 0 57-4 77-11 20-6 36-16 50-30 14-13 24-30 31-49 6-20 10-44 10-71z m-51-5c0 34-4 61-14 82-10 22-23 38-41 47s-38 15-62 15c-12 0-22 0-32-1v-291c6-1 16-1 29-1 14 0 26 1 37 4 11 2 21 5 29 10 9 5 17 12 24 21 7 9 13 19 18 30 4 12 7 24 9 38 2 14 3 30 3 46z m-692-63h0c-25 42-104 178-128 221-57-33-100-62-102-136-6-213 200-569 387-676 67-39 116-18 174 16-24 42-103 179-127 221-138-79-330 281-204 354z m14 16c7-14 25-18 39-10l63 36c13 8 18 25 10 39l-120 209c-8 13-26 18-39 10l-63-37c-14-7-19-25-11-38l121-209z m321-296c-8 13-26 18-39 10l-63-36c-14-8-19-26-11-39l120-209c8-13 26-18 39-10l64 36c13 8 18 26 10 39l-120 209z" horiz-adv-x="1000" />

<glyph glyph-name="app51" unicode="&#xe85a;" d="M290 735c0 56 45 102 102 102 56 0 102-46 102-102 0-57-46-103-102-103-57 0-102 46-102 103z m496-653c0 88 15 193-41 221-29 14-65 9-102 9-33 0-69 0-109 0-7 42-15 84-24 128-10 53-16 127-52 157-53 45-143 7-149-62-3-24 6-54 12-83 5-28 11-54 16-78 15-74 19-186 83-204 69-21 165 5 257-5 0-34 0-84 0-133 0-79-16-156 42-169h24c47 12 43 59 43 124 0 31 0 64 0 95z m-379 45c-18 2-38 13-46 19-44 32-53 125-66 192-4 20-10 51-17 83-7 35-14 55-40 57-25 1-43-9-43-36l4-29c25-111 21-248 98-322 24-22 57-45 95-50 1 0 2 0 3 0v-153c0-7 5-12 12-12 6 0 12 5 12 12v152c23 0 54 1 87 1 44 0 109-10 112 38 4 80-146 38-211 48z" horiz-adv-x="1000" />

<glyph glyph-name="app52" unicode="&#xe85b;" d="M15 338c-3 6-2 14 4 18 161 100 330 100 501-2 149-87 295-87 447 2 6 3 14 1 18-5 4-6 1-14-5-18-80-46-160-69-239-69-79 0-157 23-234 68-163 96-322 97-474 2-6-4-14-2-18 4z m952-182c-152-88-299-88-449 0-170 100-338 100-499 0-6-4-7-12-4-18 4-6 12-8 18-4 152 95 311 95 471 0 79-46 158-69 238-69 79 0 159 23 238 69 6 4 9 11 5 18-4 6-12 8-18 4z m-934 378c152 95 311 94 474-2 77-46 155-68 234-68 79 0 159 23 239 69 6 4 9 12 5 18-4 6-12 8-18 5-152-89-298-89-447-2-171 102-340 102-501 1-6-3-7-11-4-17 4-6 12-8 18-4z" horiz-adv-x="1000" />

<glyph glyph-name="app53" unicode="&#xe85c;" d="M745 400c-28 0-51-20-56-47h-130c-1 0-3-1-3-2v387c0 0 1-1 2-1h129c0 0 0 0 0 0 0-32 25-58 57-58 32 0 58 26 58 58 0 31-26 57-58 57-28 0-52-20-56-48h-130c-1 0-2 0-2 0v41c0 0-1 1-1 1 0 0 1 0 1 0 0 0-1 0-1 1 0 0 1 0 1 0-2 13-7 24-16 32-11 11-23 16-38 16-14 0-27-5-38-16-8-8-12-17-14-28h-1v-5-4-71-86-40h-117c0 0 0 0 0 0 0 32-26 58-58 58-31 0-57-26-57-58 0-31 26-57 57-57 29 0 52 21 57 48h118v-38-87-86-87-87-72c-15-7-28-16-40-28-27-26-40-57-40-95 0-37 14-69 40-95 26-26 58-40 95-40 37 0 69 13 95 40 26 26 40 58 40 95 0 37-13 69-40 95-13 14-28 24-43 30v222c0-1 2-2 3-2h129c0 0 0 0 0 0 0-32 26-57 57-57 32 0 58 25 58 57 0 32-26 57-58 57z m-284 178c0 0 1 0 1 1h51c2 0 4 2 4 4 0 3-2 5-4 5h-55v34h33c3 0 5 2 5 5 0 2-2 4-5 4h-33v34h55c2 0 4 2 4 5 0 3-2 5-4 5h-55v34h33c3 0 5 2 5 4 0 3-2 5-5 5h-33v66c0 1 0 1 0 2 0 1 0 1 0 2 0 0 0 0 0 0 1 11 6 19 13 27 9 8 19 12 31 12 12 0 23-4 31-12 8-8 12-16 13-27v-1-443h-88v18h33c3 0 5 2 5 5s-2 4-5 4h-33v34h55c2 0 4 2 4 5 0 2-2 5-4 5h-55v34h33c3 0 5 2 5 4s-2 5-5 5h-33v34h55c2 0 4 2 4 5s-2 4-4 4h-55v34h33c3 0 5 2 5 5s-2 5-5 5h-33v33h3z" horiz-adv-x="1000" />

<glyph glyph-name="app54" unicode="&#xe85d;" d="M977 376h-150c0 0 0 0 0 0-10 173-153 310-328 310-175 0-318-137-328-310h-148c-5 0-10-4-10-10 0-5 5-10 10-10h147c0-181 148-328 329-328 181 0 328 147 329 328h149c5 0 10 5 10 10 0 6-5 10-10 10z m-478-328c-171 0-309 139-309 309s138 309 309 309c170 0 309-139 309-309s-139-309-309-309z m-46 415h-67c0 3 1 6 2 9 1 5 4 9 8 14s9 9 16 15c11 9 19 16 22 21 4 6 6 11 6 15 0 5-2 9-5 13-4 3-8 5-14 5-6 0-11-2-14-6s-6-8-6-14l-12 1c0 9 4 17 9 22 6 5 14 7 23 7 10 0 18-3 24-8 5-5 8-12 8-20 0-4-1-8-2-12-2-4-5-8-9-12-4-5-10-11-19-18-7-6-12-11-14-13s-4-4-6-7h50v-12z m53 0h13v25h14v11h-14v66h-10l-47-66v-11h44v-25z m-31 36l31 46v-46h-31z m103-37c8 0 14 2 19 6 5 4 8 9 11 17 2 7 3 16 3 28 0 10 0 18-2 24-1 6-3 11-6 15-3 5-6 8-10 10-4 2-9 3-15 3-7 0-13-2-18-6-5-4-8-9-11-17s-4-17-4-29c0-19 4-32 10-41 6-7 14-10 23-10z m-13 86c3 4 8 7 13 7 6 0 11-3 15-8 4-6 6-17 6-34 0-16-2-27-6-33-4-5-9-8-15-8s-10 3-14 8c-4 6-6 17-6 33 0 17 2 28 7 35z m-123-146l-44-213h-40l-45 213h41l24-144 25 144h39z m36 0l-45-213h39l8 43h37l8-43h40l-45 213h-42z m8-132l12 68 13-68h-25z m188 125c4-3 7-5 9-7v-50h-4c-1 2-3 4-6 8-3 4-5 7-8 10-3 3-6 5-10 7-4 3-7 4-11 4-5 0-9-2-13-4-4-2-8-7-12-13-3-5-6-13-8-22-2-9-3-20-3-33 0-13 1-24 3-33 2-10 5-17 9-23 3-5 7-9 11-11 5-3 9-4 13-4 4 0 8 1 12 3 3 2 7 5 10 9 3 3 5 6 8 9 2 3 4 6 5 8h4v-50c-2-2-5-4-9-6-4-3-7-5-10-6-5-2-9-4-13-5-3-1-9-1-15-1-21 0-38 9-50 29-12 20-18 47-18 81 0 34 6 62 18 81 13 20 29 30 50 30 6 0 11 0 15-1 5-1 9-3 13-4 3-2 6-3 10-6z" horiz-adv-x="1000" />

<glyph glyph-name="app55" unicode="&#xe85e;" d="M987 466c0 29-24 53-53 53-29 0-53-24-53-53 0-24 17-45 39-51v-119h-121c-11 157-142 281-301 281-160 0-291-124-302-281h-117v119c23 6 40 26 40 51 0 29-24 53-53 53-29 0-53-24-53-53 0-24 17-45 40-51v-125c0-2 0-3 1-4-1-1-1-2-1-3 0-7 6-13 13-13h129c3-165 137-298 303-298 165 0 299 133 302 298h131c6 0 11 4 13 9l2 7c0 1 0 3 0 4v125c24 6 41 26 41 51z m-948 0c0 15 12 27 27 27 15 0 27-12 27-27 0-15-12-27-27-27-15 0-27 12-27 27z m459-468c-153 0-277 124-277 276 0 153 124 277 277 277 152 0 276-124 276-277 0-152-124-276-276-276z m436 441c-15 0-27 12-27 27 0 15 12 27 27 27 15 0 27-12 27-27 0-15-12-27-27-27z m-438-131c2-7 3-19 3-35v-106h-32v95c0 17-1 27-3 32-3 6-7 9-13 9-5 0-9-2-13-5-4-4-7-10-8-17-2-7-3-18-3-34v-80h-32v91c0 16-1 27-2 31-1 5-3 9-5 11-2 2-6 3-10 3-5 0-9-1-13-5-4-4-7-9-8-16-2-7-3-18-3-34v-81h-32v166h30v-22c10 17 23 26 37 26 8 0 15-2 20-7 6-4 11-11 14-19 5 8 11 15 17 19 6 5 13 7 20 7 9 0 16-3 22-7 6-5 11-13 14-22z m83 88l-65-229h36l14 52h66l15-52h36l-66 229h-36z m-5-138l22 85 23-85h-45z m-136 368c7 0 13 2 18 6 5 4 8 9 11 16 2 8 3 17 3 29 0 10-1 17-2 23-1 6-4 11-6 15-3 4-6 7-10 9-4 3-9 4-14 4-7 0-13-2-18-6s-9-10-11-17c-3-7-4-16-4-28 0-19 4-32 10-41 6-7 13-10 23-10z m-14 84c4 5 8 8 14 8 5 0 10-3 14-9 4-5 6-16 6-32 0-17-2-27-6-33-4-5-9-8-14-8-6 0-11 3-14 8-4 5-6 16-6 33 0 16 2 27 6 33z m95-36h-38v12h38v-12z m32 23c-4-3-9-5-13-6v12c7 3 13 7 18 11 5 5 9 9 11 14h8v-100h-12v78c-3-3-7-6-12-9z" horiz-adv-x="1000" />

<glyph glyph-name="app56" unicode="&#xe85f;" d="M987 353c0-248-202-450-450-450-131 0-256 57-341 156-8 9-7 22 2 30 8 7 22 6 29-2 78-90 191-142 310-142 225 0 408 183 408 408 0 225-183 408-408 408-115 0-221-46-299-129-8-9-21-9-29-1-9 8-9 21-1 29 84 91 204 143 329 143 248 0 450-202 450-450z m-742-195h78v387h-78v-153h-154v153h-78v-387h78v169h154v-169z m188 26c-24-22-39-39-47-52-8-13-13-27-14-42h146v39h-83c2 4 5 8 9 12 3 4 11 12 25 24 13 12 22 21 27 28 8 9 13 19 17 27 3 9 5 19 5 28 0 18-6 32-18 44-13 11-30 17-51 17-20 0-36-5-49-15-13-10-21-27-24-49l42-5c1 13 4 21 9 26 5 6 12 8 21 8 9 0 16-2 21-7 5-5 7-12 7-22 0-8-3-17-9-25-4-6-15-18-34-36z m337 49c-13-11-32-16-57-16-24 0-42 6-56 18-14 12-24 31-28 56l-76-7c5-44 21-76 47-99 26-23 63-34 112-34 34 0 62 5 85 14 22 10 39 24 52 43 12 20 18 40 18 63 0 24-5 45-15 61-10 17-25 30-43 39-18 10-46 19-84 28-38 9-62 18-72 26-8 7-12 14-12 24 0 10 5 18 13 24 13 9 30 14 53 14 22 0 39-5 50-13 11-9 18-23 21-43l78 3c-1 36-14 64-38 85-25 22-62 32-110 32-30 0-55-4-76-13-21-9-37-22-48-39-12-18-17-36-17-56 0-30 12-56 35-77 17-16 47-28 89-39 32-8 53-13 62-17 13-4 23-10 28-16 5-7 8-15 8-24 0-14-6-26-19-37z" horiz-adv-x="1000" />

<glyph glyph-name="app57" unicode="&#xe860;" d="M779 10c7-9 5-22-4-29-74-55-157-82-254-82-117 0-215 39-299 119-20 20-35 39-46 58-6 10-3 22 7 28 9 6 22 3 28-7 9-16 23-33 39-50 76-72 165-108 271-108 89 0 162 24 229 75 9 6 22 5 29-4z m-543 628l14 14c75 75 164 112 271 112 106 0 196-38 266-112 63-63 99-130 109-205 1-10 10-18 20-18 1 0 1 0 2 0 11 2 19 12 18 23-11 85-50 160-119 229-78 81-180 123-296 123-119 0-217-40-300-123l-14-14c-8-8-8-21 0-29 8-8 21-8 29 0z m101-483v407h-77v-272l-167 272h-80v-407h77v265l164-265h83z m411 358c36-37 54-89 54-155 0-66-18-117-54-155-35-37-83-55-143-55-61 0-109 18-145 55-35 37-53 88-53 153 0 41 6 76 18 104 10 21 22 40 38 56 16 17 34 29 53 37 25 11 55 16 88 16 60 0 108-19 144-56z m-31-153c0 46-10 81-31 104-20 23-47 35-81 35-34 0-62-12-82-35-21-23-31-58-31-105 0-46 10-81 31-105 22-24 49-36 82-36 32 0 59 12 80 36 21 23 32 59 32 106z m191-223c4 4 13 12 27 25 14 13 23 22 29 29 8 10 13 20 17 29 4 10 6 20 6 30 0 18-7 33-20 45-13 13-30 19-53 19-21 0-38-5-52-16-13-11-22-28-24-52l44-4c0 12 4 22 9 27 5 6 13 8 22 8 9 0 16-2 22-8 5-5 8-12 8-22 0-9-3-18-9-27-5-7-17-19-37-38-25-22-41-41-49-55-9-13-14-28-15-43h154v40h-88c3 4 6 8 9 13z" horiz-adv-x="1000" />

<glyph glyph-name="app58" unicode="&#xe861;" d="M399 560c-21-9-41-22-59-41-18-18-32-39-42-62-14-32-21-71-21-118 0-72 20-129 60-171 40-41 94-62 162-62 67 0 121 21 161 63 40 41 60 99 60 173 0 74-20 132-61 174-40 41-94 62-161 62-38 0-70-6-99-18z m191-99c23-26 34-65 34-117 0-53-11-93-35-119-23-27-54-40-90-40-37 0-67 13-91 40-24 27-36 66-36 117 0 53 11 92 35 118 23 26 54 39 92 39s68-12 91-38z m326-310c9-11 14-24 14-40 0-22-9-42-25-57-17-16-37-24-62-24-23 0-42 6-58 20-15 13-24 31-26 52l47 6c2-12 6-21 13-28 6-6 15-9 24-9 10 0 19 3 26 11 7 8 10 18 10 31 0 13-3 23-10 30-7 7-15 11-24 11-7 0-14-2-23-4l6 40c13 0 23 3 30 9 7 6 11 14 11 24 0 9-3 16-8 21-5 5-12 8-21 8-8 0-15-3-21-9-6-6-10-14-11-26l-46 8c4 16 8 28 15 37 6 10 15 17 26 22 12 6 25 8 39 8 24 0 43-8 58-23 12-13 18-27 18-43 0-22-12-40-37-54 15-3 27-10 35-21z m71 199c0-11-1-22-1-33-1-14-13-24-27-23-13 1-24 13-23 26 1 10 1 20 1 30 0 241-196 437-437 437-241 0-437-196-437-437s196-437 437-437c88 0 172 26 244 75 12 7 27 4 35-7 7-11 5-27-7-35-80-54-174-83-272-83-268 0-487 219-487 487s219 487 487 487c268 0 487-219 487-487z" horiz-adv-x="1000" />

<glyph glyph-name="app59" unicode="&#xe862;" d="M902 632h-58v45c0 16-13 29-29 29h-84c-16 0-29-13-29-29v-45h-422v45c0 16-13 29-29 29h-84c-16 0-29-13-29-29v-45h-40c-42 0-85-16-85-44v-533c0-29 43-44 85-44h804c42 0 85 15 85 44v533c0 28-43 44-85 44z m59-577c0-4-20-18-59-18h-804c-38 0-59 14-59 18v533c0 4 21 17 59 17h804c39 0 59-13 59-17v-533z m-688 457v-398c0-16-13-29-29-29h-88c-16 0-29 13-29 29v398c0 16 13 29 29 29h88c16 0 29-13 29-29z m202 0v-398c0-16-13-29-29-29h-89c-16 0-29 13-29 29v398c0 16 13 29 29 29h89c16 0 29-13 29-29z m201 0v-398c0-16-13-29-29-29h-88c-16 0-29 13-29 29v398c0 16 13 29 29 29h88c16 0 29-13 29-29z m202-161v-237c0-16-13-29-29-29h-89c-16 0-29 13-29 29v237c0 16 13 29 29 29h89c16 0 29-13 29-29z" horiz-adv-x="1000" />

<glyph glyph-name="app60" unicode="&#xe863;" d="M981 333c-58-67-118-101-176-101-1 0-2 0-3 0-58 1-114 36-166 102-42 54-83 81-125 83-45 2-95-26-147-84-62-68-123-101-184-99-57 2-111 36-162 100-8 11-6 26 5 34 10 8 25 6 33-4 42-53 84-81 126-82 46-2 95 26 146 83 63 69 126 103 185 100 57-2 111-36 160-101 44-55 87-83 130-84 1 0 1 0 2 0 44 0 91 29 140 85 8 10 23 11 33 2 10-9 12-24 3-34z m-559 173c-5-5-6-12-1-17 4-5 12-6 17-2 32 27 85 27 118-1 2-2 5-3 8-3 3 0 7 1 9 4 4 5 4 13-1 17-42 35-109 36-150 2z m-45 14c46 39 93 55 139 49 48-7 81-37 90-47 1-2 2-4 4-6 2-2 5-3 9-3 3 0 6 1 8 4 9 9 0 18-5 23-43 45-145 95-260-2-5-4-6-12-1-17 4-5 11-6 16-1z m-123-325c5 4 5 12 1 17-4 5-12 6-17 1-32-27-85-26-118 2-5 4-13 4-17-1-5-6-4-13 1-17 21-18 49-27 77-27 26 0 53 8 73 25z m44-14c-46-39-92-55-138-49-48 6-81 37-90 47-1 2-2 4-4 5-5 4-13 4-17 0-9-9 0-18 5-23 24-26 69-54 125-54 40 0 86 15 135 56 5 4 6 11 1 17-4 5-12 5-17 1z m586 14c5 4 6 12 2 17-5 5-12 5-17 1-32-27-86-26-119 2-5 4-13 4-17-1-4-6-4-13 2-17 21-18 49-27 76-27 27 0 53 8 73 25z m45-14c-46-39-93-55-138-49-49 6-82 37-91 47-1 2-2 4-4 5-4 4-13 4-17 0-8-9 1-19 5-23 25-26 69-54 125-54 41 0 87 15 135 56 5 4 6 11 2 17-5 5-12 5-17 1z" horiz-adv-x="1000" />

<glyph glyph-name="app61" unicode="&#xe864;" d="M729 390c6-8 10-16 10-25 0-11-4-20-10-26-7-7-16-10-26-10h-77l-52 51-47-72 107-210c3-4 7-9 8-15 1-4 2-7 2-12 0-14-5-25-15-34-9-11-20-15-34-15s-24 4-33 15c-2 1-3 2-4 4-5 5-8 11-9 17l-89 172-30-114h-173c-12 1-24 5-33 14-9 9-13 20-13 34 0 13 4 24 13 34 8 8 18 13 29 13h13 98l32 131 52 88h-52l-44-53-8-9c-6-6-14-9-23-9-10 0-19 3-26 11-7 6-10 15-10 25 0 6 1 11 3 16l8 10 64 88h154c-13 14-21 32-21 52 0 20 8 37 21 52 15 14 33 21 52 21 20 0 38-7 51-21 15-15 23-32 23-52 0-20-8-38-23-52-9-10-22-17-35-20l76-88h44 1c10 0 19-4 26-11z m-543 212c-35-40-53-86-55-136 0-4-1-9-1-13 0-48 14-92 41-130 3-4 6-5 10-5 3 0 5 0 7 2 6 4 7 12 3 17-24 34-36 73-36 116 0 3 0 6 1 11 1 46 18 86 49 121 4 5 4 13-1 18-5 4-13 4-18-1z m628 0c-5 5-13 5-18 1-5-5-5-13-1-18 31-34 48-75 50-121v-11c0-43-12-82-36-116-4-5-3-13 3-17 2-2 4-2 7-2 4 0 8 1 10 5 27 38 41 82 41 130l0 12c-3 52-22 98-56 137z m-731 54c-45-55-68-119-69-189-1-4-1-8-1-11 0-68 19-129 56-182 2-3 6-5 10-5 3 0 5 1 7 2 6 4 7 12 3 17-34 49-51 105-51 168 0 2 0 4 1 8 1 67 22 126 63 177 5 5 4 13-1 17-6 4-13 4-18-2z m834 0c-4 6-12 6-17 2-6-4-7-12-2-17 41-51 62-110 64-177v-8c0-63-17-120-51-168-4-5-3-13 3-17 2-1 5-2 7-2 4 0 8 2 10 5 37 52 56 114 56 182v9c-2 72-26 136-70 191z" horiz-adv-x="1000" />

<glyph glyph-name="app62" unicode="&#xe865;" d="M290 735c0 56 45 102 102 102 56 0 102-46 102-102 0-57-46-103-102-103-57 0-102 46-102 103z m496-653c0 88 15 193-41 221-29 14-65 9-102 9-33 0-69 0-109 0-7 42-15 84-24 128-10 53-16 127-52 157-53 45-143 7-149-62-3-24 6-54 12-83 5-28 11-54 16-78 15-74 19-186 83-204 69-21 165 5 257-5 0-34 0-84 0-133 0-79-16-156 42-169h24c47 12 43 59 43 124 0 31 0 64 0 95z m-379 45c-18 2-38 13-46 19-44 32-53 125-66 192-4 20-10 51-17 83-7 35-14 55-40 57-25 1-43-9-43-36l4-29c25-111 21-248 98-322 24-22 57-45 95-50 1 0 2 0 3 0v-153c0-7 5-12 12-12 6 0 12 5 12 12v152c23 0 54 1 87 1 44 0 109-10 112 38 4 80-146 38-211 48z" horiz-adv-x="1000" />

<glyph glyph-name="app63" unicode="&#xe866;" d="M500 789l-495-858h990l-495 858z m224-596c-3 74-62 133-136 136v249l222-384h-86z m-90-10h60c-2-57-49-102-106-105v60c24 2 44 21 46 45z m0 10c-2 24-21 43-46 46v60c57-2 104-48 106-106h-60z m-56 46c-24-3-44-21-46-46h-60c3 57 48 103 106 106v-60z m-45-56c3-24 22-42 46-45v-60c-58 3-104 48-107 105h61z m55-135c73 3 133 61 135 135h92l129-223h-356v88z m-10 546v-265c-73-3-133-62-135-136h-253l310 537 78-136z m-394-411h259c2-73 62-132 135-135v-88h-522l128 223z" horiz-adv-x="1000" />

<glyph glyph-name="app63-old" unicode="&#xe867;" d="M724 360c6-6 14-9 23-9 7 0 13 1 18 5l1 0 211 211c13 12 13 33 0 45l-215 216c-12 12-33 12-45 0l-208-207c-6-6-9-14-9-23 0-8 3-17 9-23l45-44-29-30-15 15c-1 1-4 3-7 3-5 0-11-3-18-7-29 28-53 40-59 42-5 4-16 6-67-45-14-15-47-49-47-62l0-4 1-1c3-7 15-30 43-60-4-7-7-13-7-17 0-4 1-6 3-8l14-14-38-38-44 45c-12 12-34 12-46 0l-215-215c-13-12-13-33 0-45l215-216c6-6 14-9 23-9 6 0 12 2 18 5l0 0 220 219c6 6 9 14 9 23 0 9-3 17-9 23l-96 95 38 38 30-30c0 0 0 0 0 0l0 0 6-6 11 11c0 0 0 0 0 0 3-6 27-47 82-104-45-68-64-133-46-151 0-1 1-1 1-1 0 0 0 0 0 0l18-18 0 0c0 0 0 0 0 0 0 0 1-1 1-1 1-1 1-1 1-1 2-2 5-4 9-4 25 0 113 77 188 150l28-28c-1-4-2-8-2-13 0-9 4-18 10-24 7-7 16-11 25-11 9 0 18 4 24 11 7 6 11 15 11 24 0 9-4 18-11 25-10 10-26 12-39 6l-28 29c72 72 144 157 144 181 0 4-2 7-3 9-1 0-1 1-2 1 0 0 0 1-1 1l0 0-17 18c0 0-1 0-1 1 0 0 0 0 0 0-5 4-12 7-22 7-29 0-78-20-130-53-57 56-98 79-104 82 0 0 0 0 0 1l11 11-36 35 30 30 95-96z m-207 238c0 4 1 8 4 11l208 207c2 3 6 4 11 4 4 0 8-1 11-4l214-216c7-6 7-15 1-22l-204-202 0 0-4-4c-6-6-16-6-22 0l-215 215c-3 3-4 7-4 11z m32-121l28 29 27-27-28-29-27 27z m16 41l0 0-28-29 0 1 28 28z m-236-70c3 6 17 24 42 49 25 25 43 39 49 42 6-3 26-13 51-37-22-17-48-43-55-50-8-7-33-33-50-56-24 26-34 46-37 52z m49-117l0 0-38-38 0 0 38 38z m-26-50l38 38 27-27-38-38-27 27z m135-158c3-3 4-7 4-11 0-4-1-8-4-11l-211-211 0 0-4-4c-6-6-17-6-22 0l-215 216c-6 6-6 16 0 22l215 214c3 3 7 5 11 5 4 0 8-2 11-5l45-45-1 0 12-12 0 0 26-25 37-38 0 1 96-96z m-96 119l0 0 38 38 0 0-38-38z m-13 113l0 0-12 12c4 8 23 35 61 73 39 39 66 58 74 61l107-107c-17-8-41-29-73-61-9-9-48-48-62-73l-20 20 0 0-75 75z m491-27c0-2 0-5-1-8-43-25-124-101-172-149-32-32-120-122-147-171-3-1-6-2-9-2 0 0 0 0-1 1 6 18 58 85 151 178 94 94 161 146 179 151z m-144-197c-57-56-107-95-143-116 24 32 65 79 122 136l21-20z m-3 38c55 54 100 92 130 115-19-32-55-79-109-135l-21 20z m-159-182c1 0 1 0 1 1 0-1-1-1-1-1 0 0 0 0 0 0z m317 317c1 0 1 0 1 0-1 0-1-1-1-1 0 0 0 1 0 1z m-74 1c-36-29-82-70-128-116-30-31-111-113-142-163 9 39 45 116 117 188 70 70 145 108 187 117-9-6-20-14-34-26z m10-220c3-3 5-8 5-13s-2-9-5-13c-7-6-19-6-26 0-3 4-5 8-5 13 0 5 2 10 5 13 3 3 8 5 13 5 5 0 9-2 13-5z m-199 280c5-3 44-26 97-78-25-17-50-38-73-61-23-23-44-48-61-72-52 53-74 92-77 97 1 3 4 9 11 18l84 85c9 6 16 10 19 11z m-29 73l-1 1 29 28 0 0-28-29z m47 256l-95-96 64-64 96 95-65 65z m-72-96l72 72 41-41-72-72-41 41z m287-105l96 96-64 64-96-95 64-65z m72 96l-72-72-40 41 72 71 40-40z m-119 143l-64 65-96-96 64-64 96 95z m-64 41l40-41-72-72-41 41 73 72z m40-208l95 96-64 64-95-96 64-64z m72 96l-72-72-41 40 72 72 41-40z m-144-39l-96-96 64-64 96 96-64 64z m-72-96l72 72 41-40-72-72-41 40z m208-40l-64 64-96-95 64-65 96 96z m-64 40l40-40-72-72-40 41 72 71z m-550-381l-95-96 64-64 95 96-64 64z m-72-96l72 72 41-40-72-72-41 40z m80 103l64-64 96 96-64 64-96-96z m64-40l-41 40 73 72 40-40-72-72z m-96-134l64-65 96 96-64 64-96-95z m64-41l-40 41 72 72 41-41-73-72z m56 318l-64 65-96-96 64-64 96 95z m-64 41l40-41-72-71-40 40 72 72z m112-280l95 96-64 64-95-95 64-65z m72 96l-72-72-41 41 72 72 41-41z m-287 105l-96-96 64-64 96 95-64 65z m-72-96l72 72 40-41-72-71-40 40z" horiz-adv-x="1000" />

<glyph glyph-name="app64" unicode="&#xe868;" d="M398 243l-55-372h-64l-52 372h63l24-263 22 263h62z m181-372h-63l-7 73h-42l-6-73h-59l41 372h92l44-372z m-75 125l-14 178-18-178h32z m255-50c0-55-27-83-80-83-51 0-76 27-76 81v231c0 24 7 42 22 56 14 13 33 19 57 19 16 0 31-4 44-11 15-9 24-20 29-35 2-9 4-23 4-42v-46h-62c0 7 0 17 0 30 0 13 1 23 1 30 0 15-6 23-18 23-10 0-15-8-15-24v-232c0-20 6-29 16-29 9 0 14 4 16 12 0 3 0 10 0 23v63h62v-66z m-456 762v-17h-96c0 4 1 8 2 12 3 7 7 13 12 20s13 13 24 22c15 13 26 23 32 30 5 8 8 15 8 22 0 7-3 13-8 18-5 5-11 7-19 7-9 0-16-3-21-8-5-5-8-12-8-21l-18 2c1 13 6 24 14 31 8 7 19 11 33 11 14 0 25-4 33-12 8-8 12-17 12-29 0-5-1-11-3-17-3-5-7-11-12-17-6-7-15-15-28-26-10-9-17-15-20-18s-6-7-8-10h71z m69-17v35h-63v16l66 94h14v-94h20v-16h-20v-35h-17z m0 51v65l-46-65h46z m45-8v18h55v-18h-55z m62-5l18 2c2-10 5-16 10-21 5-5 11-7 18-7 9 0 16 3 22 10s9 15 9 26c0 10-3 18-9 24-5 5-13 8-22 8-6 0-11-1-16-3-4-3-8-6-11-11l-16 3 14 74h72v-17h-58l-8-39c9 6 18 9 28 9 12 0 23-4 32-13s13-20 13-34c0-13-4-24-12-34-9-12-22-18-38-18-13 0-24 4-32 11-8 8-13 18-14 30z m104 34c0 17 2 31 6 41 3 10 8 19 15 24 7 6 16 9 27 9 7 0 14-2 20-5 6-3 11-8 15-14s7-13 9-21c2-9 3-20 3-34 0-18-2-31-5-42-4-10-9-18-16-24-7-6-16-9-26-9-14 0-25 5-33 15-10 13-15 32-15 60z m19 0c0-24 2-40 8-48s12-12 21-12c8 0 15 4 20 12 6 8 9 24 9 48 0 23-3 39-9 47-5 8-12 12-21 12-8 0-14-4-19-10-6-9-9-26-9-49z m86 0c0 17 2 31 5 41 4 10 9 19 16 24 7 6 16 9 26 9 8 0 15-2 21-5 6-3 11-8 14-14s7-13 10-21c2-9 3-20 3-34 0-18-2-31-5-42-4-10-9-18-16-24-7-6-16-9-27-9-14 0-25 5-33 15-9 13-14 32-14 60z m18 0c0-24 3-40 9-48s12-12 20-12c9 0 15 4 21 12 6 8 8 24 8 48 0 23-2 39-8 47-6 8-12 12-21 12-8 0-15-4-19-10-7-9-10-26-10-49z m209-314c11 12 10 30-1 41-12 11-31 10-41-2-60-65-120-99-176-99 0 0 0 0-1 0-55 1-113 33-170 97-78 86-157 128-235 128-76-1-151-43-221-126-11-13-9-31 3-41 12-11 30-9 41 3 59 70 119 106 178 106 0 0 1 0 2 0 60 0 123-36 189-109 69-76 141-115 213-116 0 0 1 0 1 0 73 0 147 40 218 118z" horiz-adv-x="1000" />

<glyph glyph-name="app65" unicode="&#xe869;" d="M554 108v594c0 0 0 0 0 1 0 0 0 0 0 0 0 0 0 1 0 1 0 0 0 0 0 0-2 14-7 25-16 33-21 21-56 22-78 0-6-6-11-14-13-23h-3v-11-3-65-78-78-78-78-78-78-61c-12-6-23-14-33-24-26-26-38-55-38-91 0-35 13-65 38-90 24-25 55-38 90-38 35 0 65 13 90 38 25 25 38 55 38 90 0 35-13 66-38 91-11 11-24 20-37 26z m-55 624c10 0 17-3 24-10 5-5 8-12 9-20v-399h-66v9h24c5 0 10 5 10 11s-4 11-10 11h-24v17h43c6 0 11 5 11 11 0 6-5 11-11 11h-43v18h24c5 0 10 4 10 10 0 6-4 11-10 11h-24v18h43c6 0 11 4 11 10 0 6-5 11-11 11h-43v18h24c5 0 10 4 10 10 0 6-4 11-10 11h-24v18h43c6 0 11 4 11 10 0 6-5 11-11 11h-43v18h24c5 0 10 4 10 10 0 6-4 11-10 11h-24v18h43c6 0 11 4 11 10 0 6-5 11-11 11h-43v18h24c5 0 10 4 10 10 0 6-4 11-10 11h-24v54l0 0c0 0 0 0 0 0 0 0 0 1 0 1l0 1c1 8 4 15 10 20 6 6 14 10 23 10z m-204-48c-6 10-18 26-34 50-15 21-27 37-34 50-11 18-19 36-23 53-17-36-37-72-60-107-3-5-11-15-22-31-9-13-16-23-21-32-15-25-23-50-23-75-1-36 9-66 30-91 20-24 48-40 82-46h26c19 3 36 9 52 20 16 10 29 23 40 39 10 17 17 35 20 55 2 20 0 41-7 62-5 16-14 34-26 53z m5-154c-3-7-8-14-12-20-2-1-3-2-4-4-13-14-29-24-50-30-31-10-61-6-89 10-18 11-32 28-42 50-12 25-15 50-9 77 3 15 10 32 22 50 13 21 23 36 29 46 13 20 23 36 29 47 10 16 19 32 27 48 0 0 0 1 1 1 1-1 10-16 27-46 11-20 21-36 29-48 16-25 25-38 25-39 10-16 17-30 22-43 13-34 11-67-5-99z m-15 31c4-5 4-12-1-22-5-10-12-19-22-28-11-9-21-14-30-17-10-2-17-1-20 4-4 5-3 12 1 22 5 10 12 19 23 28 10 9 19 14 29 17 10 3 17 1 20-4z m642-224c-5 16-14 34-26 53-6 10-18 27-35 50-15 21-26 37-33 50-11 19-19 36-23 53-17-36-37-71-61-107-2-5-10-15-21-31-9-12-17-23-21-32-15-25-23-50-23-75-1-36 9-66 30-90 20-25 48-41 82-47h26c19 3 36 9 52 20 16 10 29 24 40 40 10 16 17 34 20 54 2 20 0 41-7 62z m-21-101c-4-7-8-14-13-19-1-2-2-3-3-5-13-14-29-24-50-30-31-10-61-6-89 11-18 11-32 27-43 49-11 25-14 50-8 77 3 15 10 32 22 51 13 20 23 36 29 45 13 21 23 36 29 47 10 16 19 33 27 48-1 1 0 1 1 2 1-2 10-17 27-46 11-21 21-37 29-49 16-25 25-38 25-39 10-15 17-30 22-42 12-35 11-68-5-100z m-15 31c4-5 4-12-1-22-5-10-13-19-22-27-11-9-21-15-30-17-10-3-17-2-20 3-4 5-3 13 1 22 5 10 12 19 22 28 10 9 20 14 30 17 10 3 17 1 20-4z" horiz-adv-x="1000" />

<glyph glyph-name="app66" unicode="&#xe86a;" d="M958 376l-427 427c-19 19-55 34-82 34l-229-2c-26 0-62-15-81-34l-90-90c-19-19-34-55-34-81l-2-229c0-27 15-62 34-81l427-428c19-19 44-29 70-29 26 0 51 10 70 29l344 345c38 38 38 100 0 139z m-24-115l-345-345c-24-24-66-24-90 0l-428 428c-12 12-23 39-23 57l1 229c0 17 11 44 24 57l90 90c13 13 40 24 58 24l228 1c18 0 45-11 57-23l428-427c25-26 25-66 0-91z m-605 435c-23 23-54 36-87 36-33 0-64-13-88-36-23-24-36-55-36-88 0-33 13-64 36-87 24-23 55-36 88-36s64 13 87 36c48 48 48 127 0 175z m-48-127c-21-22-59-22-80 0-11 11-17 25-17 40 0 15 6 29 17 40 11 11 25 17 40 17 15 0 30-6 40-17 11-11 17-25 17-40 0-15-6-29-17-40z m493-289c7-7 7-18 0-24-3-4-8-5-12-5s-9 1-12 5l-278 278c-7 7-7 17 0 24 6 7 17 7 24 0l278-278z m-93-93c7-7 7-18 0-24-3-4-8-5-12-5s-9 1-12 5l-278 278c-7 7-7 18 0 24 6 7 17 7 24 0l278-278z m-93-93c7-7 7-18 0-24-3-4-7-5-12-5-4 0-9 1-12 5l-278 278c-7 7-7 18 0 24 6 7 17 7 24 0l278-278z" horiz-adv-x="1000" />

<glyph glyph-name="app67" unicode="&#xe86b;" d="M967-48h-934c-15 0-28 13-28 29s13 28 28 28h935c15 0 28-13 28-28s-14-29-29-29z m-291 559c6 7 6 18 0 24-7 7-18 7-24 0-83-83-220-83-304 0-6 7-17 7-24 0-6-6-6-17 0-24 48-48 112-73 176-73 64 0 128 24 176 73z m87-110c6 6 6 18 0 24-6 7-18 7-24 0-132-131-346-131-478 0-6 7-17 7-24 0-6-6-6-18 0-24 70-69 164-108 263-108s193 39 263 108z m81-104c7 7 7 18 0 24-6 7-17 7-24 0-176-177-463-177-640 0-7 7-18 7-24 0-7-6-7-17 0-24 95-95 219-142 344-142s249 47 344 142z m-355 215c0-6 5-11 11-11s11 5 11 11v45c12-7 28-10 40-11-22 17-41 37-52 63-10-26-30-45-52-63 13 1 28 4 40 11v-45z m22-395c0 6-4 11-11 11s-11-5-11-11v-45c-12 7-27 10-40 10 21-17 42-37 52-63 11 26 30 47 52 63-12 0-28-3-40-10v45z m-11 631c-35 0-64-29-64-64s29-64 64-64 64 29 64 64-29 64-64 64z" horiz-adv-x="1000" />

<glyph glyph-name="app68" unicode="&#xe86c;" d="M500 786l-487-843h974l-487 843z m220-586c-3 73-61 131-134 134v244l219-378h-85z m-134-54c24 2 43 21 46 45h59c-3-57-48-102-105-104v59z m46 54c-3 24-22 43-46 45v60c57-3 103-48 105-105h-59z m-55 45c-24-2-43-21-45-45h-59c2 57 48 102 104 105v-60z m-45-54c3-24 21-42 45-45v-59c-56 3-101 48-104 104h59z m54-133c73 2 131 60 134 133h90l127-220h-351v87z m-9 537v-261c-72-3-131-61-133-134h-248l304 528 77-133z m-387-404h254c3-72 61-130 133-133v-86h-513l126 219z" horiz-adv-x="1000" />

<glyph glyph-name="app69" unicode="&#xe86d;" d="M302 271c0-9-7-16-16-16h-85c-9 0-16 7-16 16s7 16 16 16h85c9 0 16-7 16-16z m-187 16h-86c-8 0-16-7-16-16s8-16 16-16h86c9 0 16 7 16 16s-7 16-16 16z m342 0h-85c-9 0-16-7-16-16s7-16 16-16h85c9 0 16 7 16 16s-7 16-16 16z m171 0h-85c-9 0-16-7-16-16s7-16 16-16h85c9 0 16 7 16 16s-7 16-16 16z m343 0h-86c-9 0-16-7-16-16s7-16 16-16h86c9 0 16 7 16 16s-7 16-16 16z m-171 0h-86c-9 0-16-7-16-16s7-16 16-16h86c8 0 16 7 16 16s-8 16-16 16z m-257 108h85c9 0 16 7 16 16 0 9-7 16-16 16h-85c-9 0-16-7-16-16 0-9 7-16 16-16z m171 0h86c8 0 16 7 16 16 0 9-8 16-16 16h-86c-9 0-16-7-16-16 0-9 7-16 16-16z m171 0h86c9 0 16 7 16 16 0 9-7 16-16 16h-86c-9 0-16-7-16-16 0-9 7-16 16-16z m-856 0h86c9 0 16 7 16 16 0 9-7 16-16 16h-86c-8 0-16-7-16-16 0-9 8-16 16-16z m172 0h85c9 0 16 7 16 16 0 9-7 16-16 16h-85c-9 0-16-7-16-16 0-9 7-16 16-16z m171 0h85c9 0 16 7 16 16 0 9-7 16-16 16h-85c-9 0-16-7-16-16 0-9 7-16 16-16z" horiz-adv-x="1000" />

<glyph glyph-name="app70" unicode="&#xe86e;" d="M958-39v-98h-359v78c113 78 211 230 211 423 0 175-104 372-306 372-202 0-314-186-314-375 0-178 99-349 213-420v-78h-360v98h207v4c-95 80-188 223-189 406 0 274 191 466 445 466 266 0 432-200 432-453 0-197-94-338-189-419v-4h209z" horiz-adv-x="1000" />

</font>
</defs>
</svg>
