<?xml version="1.0" encoding="utf-8"?>
<!-- Generator: Adobe Illustrator 16.0.3, SVG Export Plug-In . SVG Version: 6.00 Build 0)  -->
<!DOCTYPE svg PUBLIC "-//W3C//DTD SVG 1.1//EN" "http://www.w3.org/Graphics/SVG/1.1/DTD/svg11.dtd">
<svg version="1.1" id="Layer_1" xmlns="http://www.w3.org/2000/svg" xmlns:xlink="http://www.w3.org/1999/xlink" x="0px" y="0px"
	 width="126px" height="126px" viewBox="0 0 126 126" enable-background="new 0 0 126 126" xml:space="preserve">
<path fill="#FFFFFF" d="M41.836,93.203l28.023,10.052c0.135,0.063,0.279,0.095,0.428,0.095c1.094,0,1.775-0.679,1.775-1.772v-7.51
	h9.664c1.094,0,1.775-0.681,1.775-1.779V32.202c0-1.098-0.682-1.78-1.775-1.78h-9.664v-5.196c0-1.102-0.682-1.784-1.775-1.784
	c-0.125,0-0.248,0.023-0.363,0.067l-28.023,7.75c-0.391,0.15-0.648,0.524-0.648,0.943v60.086
	C41.252,92.683,41.481,93.038,41.836,93.203z M66.842,64.812c0,0.912-0.299,1.674-0.895,2.388c-0.529,0.651-1.236,1.019-2.064,1.019
	c-0.773,0-1.479-0.367-2.068-1.019c-0.53-0.714-0.822-1.476-0.822-2.388c0-0.971,0.292-1.778,0.822-2.445
	c0.589-0.703,1.295-1.011,2.068-1.011c0.828,0,1.535,0.308,2.064,1.011C66.543,63.033,66.842,63.841,66.842,64.812z M81.477,92.047
	h-9.414V32.442l9.418,0.004L81.477,92.047z"/>
</svg>
