<?xml version="1.0" encoding="utf-8"?>
<!-- Generator: Adobe Illustrator 16.0.3, SVG Export Plug-In . SVG Version: 6.00 Build 0)  -->
<!DOCTYPE svg PUBLIC "-//W3C//DTD SVG 1.1//EN" "http://www.w3.org/Graphics/SVG/1.1/DTD/svg11.dtd">
<svg version="1.1" id="Layer_1" xmlns="http://www.w3.org/2000/svg" xmlns:xlink="http://www.w3.org/1999/xlink" x="0px" y="0px"
	 width="126px" height="126px" viewBox="0 0 126 126" enable-background="new 0 0 126 126" xml:space="preserve">
<g>
	<path fill="#FFFFFF" d="M82.063,31.603H42.692c-0.795,0-1.439,0.645-1.439,1.44v60.705c0,0.795,0.645,1.439,1.439,1.439h39.371
		c0.795,0,1.439-0.645,1.439-1.439V33.043C83.502,32.248,82.857,31.603,82.063,31.603z M75.529,67.697
		c-1.805,0-3.268-1.463-3.268-3.268c0-1.804,1.463-3.267,3.268-3.267s3.268,1.463,3.268,3.267
		C78.797,66.234,77.334,67.697,75.529,67.697z"/>
	<path fill="#FFFFFF" d="M83.462,28.264h-42.17c-1.846,0-3.348,1.523-3.348,3.396v63.471c0,1.873,1.502,3.396,3.348,3.396h42.17
		c1.846,0,3.348-1.523,3.348-3.396V31.66C86.81,29.788,85.308,28.264,83.462,28.264z M84.81,95.131c0,0.771-0.603,1.396-1.348,1.396
		h-42.17c-0.745,0-1.348-0.625-1.348-1.396V31.66c0-0.771,0.603-1.396,1.348-1.396h42.17c0.745,0,1.348,0.625,1.348,1.396V95.131z"
		/>
</g>
</svg>
