<?xml version="1.0" standalone="no"?>
<!DOCTYPE svg PUBLIC "-//W3C//DTD SVG 20010904//EN"
 "http://www.w3.org/TR/2001/REC-SVG-20010904/DTD/svg10.dtd">
<svg version="1.0" xmlns="http://www.w3.org/2000/svg"
 width="378.000000pt" height="378.000000pt" viewBox="0 0 378.000000 378.000000"
 preserveAspectRatio="xMidYMid meet">
<metadata>
Created by potrace 1.11, written by Peter Selinger 2001-2013
</metadata>
<g transform="translate(0.000000,378.000000) scale(0.100000,-0.100000)"
fill="#000000" stroke="none">
<path d="M1857 3774 c-1 -1 -40 -5 -87 -8 -93 -5 -161 -13 -200 -21 -14 -3
-41 -8 -60 -11 -65 -11 -265 -75 -351 -113 -119 -52 -259 -130 -259 -143 0 -6
-3 -9 -6 -5 -10 9 -142 -87 -243 -178 -226 -203 -417 -492 -516 -785 -14 -40
-22 -76 -20 -81 3 -4 1 -10 -4 -13 -8 -5 -21 -51 -27 -96 -1 -8 -7 -37 -13
-64 -32 -135 -35 -477 -6 -641 5 -32 18 -97 20 -105 36 -149 80 -272 146 -405
27 -55 54 -109 61 -119 13 -21 75 -117 93 -144 6 -9 22 -30 37 -47 16 -16 28
-33 28 -36 0 -3 20 -28 45 -55 24 -27 45 -52 45 -56 0 -5 7 -8 15 -8 8 0 15
-7 15 -15 0 -9 6 -18 13 -20 7 -3 43 -34 81 -70 38 -35 74 -61 79 -58 6 3 7 1
4 -4 -4 -6 8 -20 26 -31 17 -11 66 -44 107 -72 122 -83 408 -219 431 -204 5 3
9 1 9 -4 0 -5 12 -12 28 -15 15 -2 61 -14 102 -25 41 -11 95 -23 120 -27 25
-3 59 -8 75 -10 17 -3 42 -6 58 -7 24 -2 27 -6 27 -40 l0 -38 161 0 161 0 -2
27 c-3 46 -1 51 23 50 24 0 97 9 137 18 14 3 37 8 51 10 65 10 245 63 334 100
53 21 229 108 235 115 3 3 30 21 60 39 30 19 57 37 60 40 3 4 34 27 70 53 59
42 271 238 258 238 -3 0 16 24 43 53 27 28 49 58 49 65 0 6 4 12 8 12 11 0
102 142 157 245 40 75 109 238 121 285 2 8 15 55 28 104 14 49 27 107 30 130
3 23 8 52 11 66 23 116 23 438 -1 553 -2 12 -7 38 -10 57 -16 103 -113 402
-127 393 -6 -3 -7 -2 -4 4 3 5 -5 33 -18 61 -13 29 -24 55 -24 59 0 3 -3 9 -8
12 -7 5 -16 19 -57 96 -11 19 -18 29 -43 59 -7 8 -13 19 -13 23 0 5 -11 20
-25 35 -14 15 -25 30 -25 34 0 10 -111 137 -174 199 -65 63 -186 169 -186 162
0 -3 -15 7 -32 24 -18 16 -38 29 -45 29 -7 0 -13 5 -13 10 0 6 -7 10 -15 10
-8 0 -15 4 -15 9 0 4 -21 20 -47 34 -27 14 -74 39 -105 56 -62 32 -269 117
-309 125 -13 3 -58 14 -99 26 -41 11 -97 22 -125 26 -27 3 -55 7 -62 9 -22 7
-281 24 -286 19z m136 -145 c84 -3 275 -36 367 -64 47 -14 92 -27 100 -29 40
-10 212 -90 284 -132 529 -307 854 -863 860 -1474 3 -256 -62 -539 -176 -765
-168 -336 -423 -596 -750 -765 -179 -93 -349 -144 -610 -185 -16 -3 -28 -1
-29 3 -5 34 -7 131 -4 148 3 14 13 21 32 22 33 2 76 9 118 17 17 4 39 8 50 9
12 1 27 6 34 10 7 4 15 5 18 2 3 -3 11 -2 17 3 7 6 23 12 38 15 14 2 35 9 46
15 11 6 22 7 26 4 3 -3 6 -1 6 5 0 7 3 11 8 10 4 0 16 2 27 7 66 26 81 32 85
31 3 -1 19 9 36 21 17 12 34 20 38 16 3 -3 6 -1 6 5 0 7 5 12 11 12 6 0 24 9
40 21 16 11 29 17 29 13 0 -4 7 1 15 12 8 10 15 16 15 12 0 -4 12 4 26 17 15
14 31 22 36 19 4 -3 7 0 6 8 -2 7 3 12 10 10 6 -1 12 3 12 9 0 5 4 8 8 5 5 -3
16 6 26 19 10 14 23 22 29 18 6 -3 7 -1 3 5 -4 7 -3 12 2 12 5 0 29 20 53 45
24 25 50 45 58 45 8 0 11 3 8 7 -4 3 9 21 28 39 19 17 35 36 35 42 0 6 9 17
20 25 11 8 17 17 13 20 -3 4 -1 7 5 7 6 0 14 9 17 20 4 11 11 17 17 14 6 -4 8
-2 4 4 -3 6 0 14 8 19 8 4 14 10 14 13 -1 3 11 24 25 47 15 24 27 47 27 52 0
5 4 11 9 13 7 3 80 149 82 165 1 5 6 17 12 28 6 11 12 22 13 25 0 3 3 12 6 20
3 8 11 35 19 60 7 25 15 49 18 55 3 5 6 16 7 25 1 8 4 26 7 40 13 55 17 76 21
110 3 19 8 55 12 80 4 25 5 101 4 170 -3 167 -4 180 -10 180 -4 0 -6 10 -6 23
-1 21 -3 34 -19 117 -9 46 -63 207 -82 243 -7 15 -11 33 -7 39 5 7 3 8 -6 3
-10 -6 -12 -4 -7 8 3 10 2 17 -3 17 -10 0 -25 40 -21 55 1 6 -1 7 -5 2 -8 -8
-50 71 -46 86 1 5 -2 6 -8 2 -6 -4 -13 7 -16 24 -4 17 -10 29 -14 26 -7 -4
-15 8 -19 28 0 4 -9 15 -18 25 -38 39 -78 96 -75 106 2 6 1 8 -3 4 -4 -4 -18
5 -31 20 -51 57 -94 101 -94 96 0 -3 -6 1 -14 8 -8 7 -12 16 -9 21 2 4 -1 6
-9 5 -7 -2 -12 3 -10 10 1 8 -1 11 -6 8 -7 -4 -53 28 -123 87 -14 12 -34 27
-45 33 -10 6 -35 19 -54 30 -19 10 -38 24 -42 29 -4 6 -8 6 -8 1 0 -5 -9 -1
-21 10 -12 10 -23 18 -25 17 -11 -7 -24 -2 -19 7 3 5 0 7 -8 4 -8 -3 -22 2
-31 11 -9 9 -16 14 -16 11 0 -3 -19 3 -42 13 -52 22 -80 34 -90 36 -5 2 -11 4
-15 5 -5 1 -12 3 -18 5 -5 1 -12 3 -15 4 -6 3 -34 10 -125 31 -46 10 -78 15
-175 26 -64 7 -335 1 -335 -7 0 -1 -11 -3 -25 -4 -14 -1 -33 -5 -42 -10 -10
-4 -35 -8 -57 -8 -21 -1 -37 -5 -34 -9 3 -7 -10 -9 -42 -8 -3 0 -19 -7 -35
-15 -17 -9 -30 -13 -30 -9 0 4 -6 2 -12 -3 -12 -9 -45 -20 -73 -23 -5 -1 -16
-6 -22 -12 -7 -6 -13 -7 -13 -2 0 5 -4 4 -8 -2 -12 -17 -102 -55 -114 -48 -6
4 -8 3 -5 -3 3 -5 -14 -20 -38 -32 -25 -12 -47 -26 -50 -32 -4 -5 -11 -7 -16
-4 -5 4 -9 2 -9 -4 0 -5 -18 -20 -40 -32 -22 -13 -40 -27 -40 -33 0 -5 -3 -7
-6 -3 -3 3 -14 -2 -23 -11 -58 -54 -125 -107 -133 -104 -5 1 -7 -1 -4 -6 2 -4
-11 -23 -30 -41 -19 -19 -34 -38 -34 -43 0 -5 -4 -7 -9 -3 -5 3 -12 -4 -16
-15 -4 -11 -11 -17 -17 -14 -6 4 -8 3 -5 -3 3 -5 -5 -22 -19 -38 -13 -15 -24
-32 -24 -37 0 -5 -4 -6 -10 -3 -5 3 -10 -1 -10 -9 0 -8 -8 -22 -17 -32 -10
-10 -18 -20 -19 -23 -3 -21 -18 -40 -27 -34 -5 3 -7 1 -3 -5 3 -6 -1 -17 -9
-26 -9 -8 -15 -18 -15 -21 1 -10 -33 -70 -44 -77 -6 -4 -8 -8 -3 -8 4 0 0 -15
-10 -32 -9 -18 -18 -35 -19 -38 -1 -3 -5 -15 -9 -27 -4 -13 -11 -23 -16 -23
-5 0 -6 -6 -3 -14 3 -8 0 -17 -5 -21 -6 -3 -9 -11 -6 -16 4 -5 1 -9 -5 -9 -6
0 -9 -4 -5 -9 3 -5 1 -20 -4 -33 -21 -51 -24 -64 -22 -82 2 -12 -1 -16 -10
-11 -7 5 -10 4 -5 -3 3 -6 -1 -43 -10 -83 -20 -90 -23 -123 -23 -279 0 -158 3
-179 34 -332 2 -13 11 -48 20 -78 9 -30 18 -62 20 -70 2 -8 4 -16 5 -17 2 -2
3 -7 4 -12 0 -5 4 -13 9 -17 4 -4 7 -14 7 -22 0 -8 11 -37 25 -64 14 -27 22
-55 18 -60 -3 -6 -2 -8 4 -5 5 3 20 -15 32 -41 29 -59 91 -163 109 -181 7 -8
21 -26 30 -40 9 -14 22 -30 29 -34 8 -5 10 -13 7 -19 -4 -7 -2 -8 4 -4 7 4 12
3 12 -3 0 -10 160 -175 170 -176 6 0 43 -31 72 -57 10 -10 18 -15 18 -10 1 4
10 -4 20 -17 11 -13 20 -19 20 -15 0 5 5 1 11 -9 6 -9 14 -15 20 -12 5 4 12
-1 15 -9 3 -9 15 -16 25 -16 10 0 19 -5 19 -11 0 -5 5 -7 10 -4 6 3 13 -1 16
-9 3 -9 10 -13 15 -10 5 3 9 1 9 -4 0 -5 6 -9 13 -9 22 -1 86 -40 79 -48 -4
-5 -2 -5 4 -2 11 7 74 -13 74 -23 0 -3 12 -7 27 -8 15 -1 29 -5 32 -10 3 -4
15 -8 26 -10 11 -2 27 -6 35 -9 20 -8 16 -7 85 -22 33 -7 67 -16 75 -19 8 -3
26 -6 40 -7 14 -1 27 -4 30 -5 3 -1 9 -2 14 -1 6 1 19 0 31 -3 22 -6 21 -1 16
-142 l-1 -31 -92 13 c-104 15 -115 17 -178 34 -316 85 -583 241 -806 472 -127
133 -200 233 -301 418 -65 118 -127 306 -159 480 -25 133 -25 447 0 580 134
727 698 1285 1413 1400 77 12 276 28 306 23 10 -1 41 -3 70 -4z m82 -204 c59
-11 100 -17 123 -18 12 0 22 -4 22 -7 0 -3 8 -6 18 -7 9 0 28 -4 42 -8 14 -4
31 -7 38 -7 6 -1 12 -5 12 -10 0 -5 6 -8 13 -7 6 1 20 -1 30 -4 9 -4 25 -10
35 -14 9 -3 26 -8 37 -10 10 -2 23 -9 27 -16 4 -6 8 -8 8 -3 0 5 7 3 15 -4 8
-7 15 -9 15 -4 0 5 7 0 15 -10 8 -11 15 -17 15 -13 0 13 157 -74 200 -110 24
-21 40 -31 36 -23 -5 8 4 2 19 -15 14 -16 23 -23 19 -15 -8 15 21 -10 96 -81
22 -21 41 -34 44 -31 3 3 6 0 6 -7 0 -7 20 -32 45 -55 25 -24 45 -48 45 -54 0
-6 5 -14 12 -18 7 -5 8 -3 3 6 -5 9 -4 11 3 6 7 -4 12 -11 12 -17 0 -5 9 -19
20 -31 10 -13 20 -27 22 -33 2 -10 10 -22 36 -50 6 -7 12 -18 12 -23 0 -5 9
-17 20 -27 11 -10 17 -22 14 -26 -3 -5 0 -9 6 -9 6 0 8 -4 5 -10 -3 -5 -2 -10
3 -10 9 0 25 -37 23 -52 -1 -5 4 -8 10 -8 5 0 8 -4 5 -9 -3 -5 1 -14 9 -21 8
-7 13 -16 10 -20 -3 -5 -1 -11 5 -15 5 -3 10 -15 10 -26 0 -10 5 -19 10 -19 6
0 10 -11 10 -24 0 -13 4 -26 8 -28 16 -6 67 -226 80 -343 12 -112 6 -337 -12
-416 -3 -13 -8 -35 -10 -49 -19 -99 -48 -200 -58 -200 -5 0 -7 -4 -4 -9 9 -13
-58 -167 -102 -235 -14 -22 -26 -44 -27 -48 0 -4 -6 -13 -12 -20 -7 -6 -13
-17 -13 -24 0 -6 -7 -15 -16 -18 -9 -4 -14 -9 -11 -12 3 -4 1 -12 -6 -19 -26
-27 -61 -70 -61 -75 1 -11 -24 -29 -31 -22 -5 4 -5 2 -2 -4 4 -6 -1 -20 -9
-30 -9 -10 -12 -13 -8 -5 5 9 3 12 -4 7 -7 -4 -12 -12 -12 -17 0 -14 -103
-110 -192 -179 -10 -8 -28 -23 -40 -32 -12 -10 -26 -18 -32 -18 -6 0 -24 -12
-41 -26 -42 -36 -279 -150 -334 -160 -13 -3 -32 -9 -43 -15 -10 -5 -18 -7 -18
-4 0 4 -6 3 -12 -2 -7 -4 -24 -9 -38 -10 -14 -2 -45 -8 -69 -14 -24 -5 -62
-12 -85 -15 -22 -3 -47 -7 -53 -9 -8 -3 -13 6 -14 23 0 15 -3 69 -5 120 -3 82
-2 92 14 93 128 6 369 88 513 175 488 294 726 875 584 1426 -129 503 -559 885
-1077 955 -91 12 -308 6 -400 -11 -97 -18 -264 -73 -342 -113 -378 -191 -651
-573 -702 -983 -10 -79 -12 -268 -3 -315 4 -22 10 -61 13 -86 14 -109 83 -294
153 -415 192 -327 517 -554 890 -621 l92 -16 -5 -106 c-7 -138 -6 -131 -14
-126 -4 3 -32 7 -61 11 -30 3 -57 8 -60 10 -4 2 -24 7 -45 10 -48 8 -69 12
-69 14 0 2 -38 11 -52 12 -7 1 -13 5 -13 10 0 5 -4 7 -8 4 -9 -6 -128 40 -201
77 -25 12 -48 22 -52 22 -5 0 -19 9 -31 20 -13 10 -25 18 -28 17 -3 -1 -13 5
-22 13 -10 8 -18 11 -18 7 0 -4 -7 2 -15 12 -8 11 -15 16 -15 10 0 -5 -7 0
-15 10 -8 11 -15 16 -15 10 0 -5 -4 -4 -8 1 -4 6 -27 26 -52 45 -25 19 -51 39
-58 45 -34 27 -152 144 -152 152 0 4 -14 19 -30 32 -17 13 -30 28 -30 34 0 5
-8 16 -17 24 -12 10 -13 12 -3 8 8 -4 6 1 -5 10 -11 9 -20 19 -20 24 0 4 -8
15 -17 24 -9 10 -20 26 -23 37 -3 11 -11 20 -17 20 -6 0 -8 3 -5 7 4 3 0 15
-10 25 -9 10 -12 18 -8 18 4 0 1 8 -8 18 -15 17 -37 63 -43 91 -1 8 -8 17 -14
21 -6 4 -13 16 -15 26 -2 10 -4 20 -4 22 -1 1 -1 5 -2 10 0 4 -5 13 -11 20 -6
6 -8 12 -4 12 4 0 0 13 -9 29 -8 17 -17 40 -19 53 -3 13 -5 24 -7 26 -1 1 -2
5 -4 10 -16 61 -25 104 -31 152 -2 19 -6 58 -10 85 -13 107 -6 386 10 413 2 4
7 28 10 53 3 26 12 67 20 93 8 25 12 46 10 46 -3 0 1 10 8 23 7 12 13 25 14
30 1 4 3 9 4 12 1 3 3 9 4 14 0 5 4 13 9 17 4 4 7 18 7 31 0 13 4 23 10 23 5
0 9 3 9 8 -3 14 23 72 32 72 5 0 8 3 7 8 -3 11 36 92 44 92 5 0 8 6 8 13 0 7
11 25 25 40 14 15 22 27 18 27 -4 0 -1 6 8 13 9 7 17 17 18 22 7 27 155 195
172 195 6 0 8 4 4 9 -3 5 4 12 15 16 11 4 18 11 15 16 -4 5 0 9 8 9 8 0 17 7
21 15 3 8 11 14 18 13 7 -2 12 3 11 10 -2 6 2 12 8 12 6 0 16 6 23 13 28 26
66 57 72 57 3 0 19 9 35 21 16 11 29 18 29 15 0 -3 12 6 26 19 15 14 30 22 35
20 4 -3 10 -1 14 5 5 8 54 34 85 45 3 1 25 11 50 23 24 11 48 18 52 16 4 -3 8
0 8 5 0 6 9 11 19 11 11 0 40 9 66 20 25 11 43 15 40 10 -3 -5 9 -3 27 4 18 8
49 16 69 19 20 2 41 7 45 10 5 2 43 8 84 11 41 4 76 9 78 11 5 5 252 -3 287
-10z m-65 -369 c63 -5 162 -27 235 -52 28 -9 55 -17 60 -18 6 -1 38 -16 71
-33 34 -18 65 -29 68 -26 3 4 6 2 6 -4 0 -6 14 -16 30 -23 17 -7 30 -17 30
-22 0 -5 5 -6 10 -3 6 3 10 2 10 -2 0 -5 27 -28 60 -52 56 -41 230 -219 230
-235 0 -2 18 -31 40 -64 22 -33 40 -66 40 -75 0 -8 7 -20 15 -27 8 -7 15 -16
15 -20 0 -4 8 -25 17 -46 9 -22 18 -42 19 -46 1 -5 3 -10 4 -13 3 -6 4 -10 14
-50 4 -16 10 -37 12 -45 6 -18 6 -15 16 -65 25 -120 26 -312 2 -420 -3 -16 -7
-39 -8 -50 -1 -11 -5 -26 -9 -32 -5 -7 -5 -17 -2 -23 3 -5 1 -10 -5 -10 -7 0
-10 -6 -7 -14 3 -8 2 -16 -3 -18 -5 -2 -11 -12 -13 -23 -2 -11 -9 -31 -14 -45
-6 -14 -19 -44 -28 -67 -9 -24 -22 -43 -28 -43 -6 0 -7 -3 -4 -7 4 -3 2 -12
-4 -20 -6 -7 -9 -13 -6 -13 3 0 -5 -12 -18 -26 -14 -15 -22 -30 -19 -35 3 -5
-2 -12 -10 -15 -9 -3 -16 -10 -16 -16 0 -5 -11 -21 -25 -36 -14 -15 -25 -33
-25 -40 0 -7 -3 -12 -7 -10 -5 2 -22 -11 -40 -29 -17 -18 -29 -33 -26 -33 3 0
-21 -21 -53 -47 -32 -27 -67 -57 -80 -68 -12 -11 -27 -21 -34 -23 -7 -1 -18
-9 -25 -16 -7 -7 -27 -19 -44 -26 -17 -7 -31 -17 -31 -22 0 -5 -4 -7 -9 -3 -5
3 -16 -2 -25 -10 -8 -9 -17 -14 -18 -13 -2 2 -22 -4 -43 -14 -60 -25 -79 -31
-87 -30 -5 1 -8 -3 -8 -9 0 -5 -4 -7 -10 -4 -5 3 -18 1 -29 -4 -10 -6 -36 -13
-57 -16 -43 -6 -79 -13 -79 -15 0 -6 -34 -7 -42 -1 -6 3 -14 69 -17 146 -4 77
-9 181 -12 232 l-5 92 38 10 c21 5 50 13 66 17 15 3 27 10 27 15 0 5 6 6 13 3
7 -2 30 7 50 20 20 14 37 23 37 20 0 -3 21 9 46 27 53 36 118 98 156 149 34
45 81 130 72 130 -4 0 1 9 11 20 10 11 15 20 11 20 -4 0 -4 6 1 13 7 11 11 24
17 57 2 8 6 27 10 41 22 79 6 272 -26 333 -6 12 -11 22 -10 23 5 8 -51 113
-60 113 -6 0 -8 3 -5 6 7 7 -2 22 -52 82 -19 23 -39 38 -45 35 -6 -3 -8 -3 -4
2 4 4 2 13 -5 19 -21 21 -131 94 -147 98 -8 2 -18 7 -21 11 -3 5 -12 9 -20 11
-8 1 -24 8 -36 14 -13 7 -23 10 -23 8 0 -3 -12 -1 -26 4 -37 14 -110 23 -179
22 -91 -1 -191 -18 -201 -33 -3 -5 -9 -7 -14 -4 -9 6 -113 -44 -118 -57 -2 -5
-9 -8 -15 -8 -7 0 -24 -10 -39 -23 -14 -12 -38 -30 -52 -41 -14 -10 -23 -22
-21 -27 3 -4 0 -11 -6 -15 -8 -5 -9 -3 -4 7 8 12 6 12 -8 1 -19 -16 -85 -113
-85 -126 0 -5 -4 -12 -9 -15 -20 -14 -58 -105 -68 -160 -2 -14 -8 -46 -13 -72
-9 -49 -8 -165 3 -208 4 -14 9 -36 11 -48 2 -12 9 -35 16 -50 6 -16 12 -34 14
-42 1 -8 8 -17 14 -21 7 -4 12 -10 11 -13 -1 -22 23 -66 32 -60 7 3 9 3 5 -2
-14 -15 73 -120 88 -107 4 4 4 2 1 -4 -7 -12 28 -46 37 -37 3 4 6 2 6 -4 0
-12 89 -76 106 -76 8 0 14 -4 14 -7 0 -8 100 -48 138 -55 65 -12 64 -10 58
-98 -3 -45 -8 -145 -11 -222 -7 -149 -11 -179 -25 -170 -8 5 -57 13 -112 18
-10 1 -18 4 -18 7 0 3 -8 6 -17 7 -10 1 -40 9 -68 18 -27 10 -54 18 -60 19 -5
1 -34 14 -62 29 -29 15 -53 24 -53 20 0 -5 -4 -3 -8 3 -11 16 -78 54 -85 49
-4 -3 -5 -2 -2 1 2 4 -17 21 -42 38 -26 16 -81 64 -124 106 -42 41 -75 71 -71
65 3 -6 1 -6 -4 -2 -5 5 -9 12 -9 15 0 10 -31 52 -36 49 -2 -1 -3 0 -2 2 3 5
-50 75 -60 79 -4 2 -5 7 -2 12 3 5 -1 14 -7 22 -18 18 -86 160 -93 193 -2 6
-9 30 -18 55 -8 25 -17 59 -20 75 -3 17 -8 40 -11 53 -27 122 -21 329 15 467
11 44 21 88 22 98 1 9 5 17 9 17 4 0 8 7 8 15 0 9 14 42 30 75 17 33 28 60 25
60 -3 0 3 10 15 22 11 12 20 25 20 30 0 5 15 30 34 57 19 27 32 52 28 57 -4 4
-1 4 6 0 6 -4 12 -3 12 2 0 6 34 45 77 89 42 43 75 82 74 86 -1 5 2 6 7 3 4
-2 25 10 45 29 20 19 37 32 37 29 0 -2 21 11 47 29 27 18 72 43 101 56 28 14
52 29 52 34 0 6 3 8 6 4 4 -3 23 1 43 9 20 9 47 18 60 20 13 3 32 9 41 14 10
5 32 11 49 12 17 1 31 5 31 8 0 3 12 6 28 7 75 5 123 10 126 14 5 4 111 2 196
-5z m-43 -590 c76 -9 190 -54 236 -94 9 -8 17 -12 17 -9 0 6 84 -78 105 -105
102 -128 139 -297 101 -459 -19 -85 -46 -144 -89 -201 -19 -25 -32 -49 -29
-53 4 -4 2 -5 -3 -3 -6 2 -19 -6 -31 -17 -62 -60 -114 -92 -198 -124 -95 -35
-93 -37 -95 83 l-2 104 54 25 c77 35 132 89 169 165 29 60 33 76 33 152 0 76
-4 93 -33 152 -38 77 -92 130 -171 167 -80 37 -201 37 -282 -1 -79 -36 -133
-89 -171 -166 -29 -59 -33 -76 -33 -152 0 -76 4 -93 33 -152 37 -76 92 -130
169 -165 l54 -25 -3 -101 -3 -102 -35 3 c-46 3 -166 61 -212 101 -20 17 -41
31 -47 31 -7 0 -10 4 -7 8 3 5 -4 16 -15 25 -42 37 -108 162 -125 238 -15 68
-19 163 -9 212 3 15 7 39 10 53 7 40 61 151 97 197 44 57 84 93 143 132 81 52
144 73 245 82 30 3 57 7 59 9 2 2 7 2 10 0 3 -2 30 -6 58 -10z"/>
</g>
</svg>
