<?xml version="1.0" encoding="utf-8"?>
<!-- Generator: Adobe Illustrator 15.0.2, SVG Export Plug-In . SVG Version: 6.00 Build 0)  -->
<!DOCTYPE svg PUBLIC "-//W3C//DTD SVG 1.0//EN" "http://www.w3.org/TR/2001/REC-SVG-20010904/DTD/svg10.dtd">
<svg version="1.0" id="Layer_1" xmlns="http://www.w3.org/2000/svg" xmlns:xlink="http://www.w3.org/1999/xlink" x="0px" y="0px"
	 width="108px" height="108px" viewBox="0 0 108 108" enable-background="new 0 0 108 108" xml:space="preserve">
<path d="M105.477,51.153H89.334c-0.018,0-0.031,0.009-0.045,0.009C88.195,32.545,72.75,17.724,53.866,17.724
	c-18.881,0-34.324,14.817-35.425,33.429H2.522c-0.599,0-1.083,0.485-1.083,1.083s0.484,1.083,1.083,1.083H18.34
	c0.032,19.558,15.956,35.461,35.526,35.461c19.569,0,35.493-15.903,35.526-35.461h16.084c0.6,0,1.084-0.484,1.084-1.083
	S106.076,51.153,105.477,51.153z M53.866,86.613c-18.396,0-33.364-14.962-33.364-33.355c0-18.399,14.968-33.368,33.364-33.368
	c18.397,0,33.362,14.968,33.362,33.368C87.229,71.651,72.264,86.613,53.866,86.613z M42.212,42.017c0.802,0,1.464-0.216,1.99-0.645
	c0.527-0.432,0.921-1.041,1.183-1.83c0.267-0.789,0.398-1.828,0.398-3.112c0-1.085-0.083-1.949-0.246-2.587
	c-0.165-0.641-0.394-1.183-0.681-1.629c-0.288-0.446-0.656-0.787-1.099-1.024c-0.441-0.237-0.958-0.355-1.546-0.355
	c-0.796,0-1.458,0.216-1.984,0.643c-0.524,0.43-0.92,1.037-1.187,1.826s-0.4,1.832-0.4,3.127c0,2.056,0.362,3.541,1.083,4.453
	C40.327,41.638,41.156,42.017,42.212,42.017z M40.718,32.731c0.368-0.522,0.861-0.785,1.479-0.785c0.628,0,1.15,0.298,1.571,0.891
	s0.631,1.79,0.631,3.592c0,1.794-0.21,2.987-0.631,3.585c-0.421,0.597-0.939,0.897-1.557,0.897c-0.618,0-1.139-0.298-1.558-0.893
	c-0.421-0.597-0.63-1.792-0.63-3.59C40.024,34.631,40.255,33.4,40.718,32.731z M51.131,36.63h-4.13v-1.352h4.13V36.63z
	 M57.405,40.18c0.448-0.489,0.673-1.136,0.673-1.942c0-0.768-0.216-1.373-0.647-1.815c-0.43-0.444-0.994-0.667-1.692-0.667
	c-0.432,0-0.823,0.1-1.172,0.296c-0.347,0.197-0.622,0.451-0.821,0.766l-1.263-0.165l1.061-5.625h5.445v1.286h-4.369l-0.59,2.942
	c0.657-0.459,1.348-0.688,2.068-0.688c0.957,0,1.765,0.33,2.421,0.992c0.657,0.665,0.985,1.515,0.985,2.556
	c0,0.992-0.287,1.847-0.867,2.57c-0.7,0.886-1.658,1.329-2.875,1.329c-0.996,0-1.809-0.279-2.439-0.835
	c-0.63-0.559-0.99-1.297-1.079-2.219l1.414-0.119c0.104,0.686,0.347,1.204,0.728,1.549c0.381,0.347,0.84,0.52,1.377,0.52
	C56.409,40.912,56.957,40.667,57.405,40.18z M64.323,42.017c0.802,0,1.464-0.216,1.99-0.645c0.527-0.432,0.921-1.041,1.183-1.83
	c0.267-0.789,0.398-1.828,0.398-3.112c0-1.085-0.083-1.949-0.246-2.587c-0.165-0.641-0.394-1.183-0.681-1.629
	c-0.288-0.446-0.656-0.787-1.099-1.024c-0.441-0.237-0.958-0.355-1.546-0.355c-0.796,0-1.458,0.216-1.984,0.643
	c-0.524,0.43-0.92,1.037-1.187,1.826s-0.4,1.832-0.4,3.127c0,2.056,0.362,3.541,1.083,4.453
	C62.438,41.638,63.268,42.017,64.323,42.017z M62.83,32.731c0.367-0.522,0.86-0.785,1.479-0.785c0.628,0,1.15,0.298,1.571,0.891
	s0.631,1.79,0.631,3.592c0,1.794-0.21,2.987-0.631,3.585c-0.421,0.597-0.939,0.897-1.557,0.897c-0.618,0-1.139-0.298-1.557-0.893
	c-0.422-0.597-0.631-1.792-0.631-3.59C62.136,34.631,62.366,33.4,62.83,32.731z M41.704,48.448h4.235l-4.783,23.025h-4.368
	l-4.786-23.025h4.348l2.676,15.526L41.704,48.448z M57.438,50.259c-0.635-0.609-1.375-1.062-2.22-1.362
	c-0.844-0.298-1.99-0.449-3.439-0.449H47.05v23.025h4.775c1.261,0,2.318-0.129,3.175-0.387c0.854-0.256,1.652-0.736,2.393-1.438
	c1.001-0.948,1.786-2.272,2.356-3.973c0.573-1.701,0.859-3.599,0.859-5.69c0-2.226-0.275-4.162-0.825-5.805
	C59.235,52.533,58.452,51.228,57.438,50.259z M55.918,63.842c-0.256,1.037-0.67,1.854-1.237,2.45
	c-0.372,0.394-0.753,0.646-1.143,0.76c-0.389,0.112-1.013,0.169-1.872,0.169h-0.425V52.685h0.706c0.68,0,1.199,0.065,1.562,0.195
	c0.363,0.129,0.698,0.332,1.003,0.609c0.643,0.599,1.104,1.447,1.379,2.545c0.275,1.098,0.415,2.399,0.415,3.903
	C56.306,61.505,56.177,62.806,55.918,63.842z M73.029,49.213c0.408,0.273,0.734,0.508,0.979,0.705v5.473h-0.424
	c-0.15-0.206-0.369-0.508-0.656-0.903c-0.285-0.398-0.568-0.741-0.844-1.028c-0.316-0.319-0.674-0.599-1.078-0.835
	c-0.404-0.237-0.818-0.355-1.244-0.355c-0.507,0-0.979,0.129-1.41,0.387c-0.435,0.256-0.849,0.715-1.244,1.375
	c-0.36,0.609-0.651,1.407-0.876,2.396c-0.225,0.99-0.334,2.181-0.334,3.571c0,1.402,0.118,2.604,0.351,3.605
	c0.237,0.999,0.546,1.802,0.927,2.412c0.364,0.588,0.783,1.007,1.248,1.261c0.466,0.252,0.921,0.378,1.362,0.378
	c0.432,0,0.854-0.112,1.262-0.334c0.406-0.22,0.785-0.522,1.137-0.903c0.307-0.319,0.576-0.646,0.818-0.975
	c0.236-0.33,0.447-0.628,0.625-0.897h0.381v5.396c-0.254,0.176-0.574,0.4-0.969,0.673c-0.391,0.275-0.76,0.489-1.104,0.643
	c-0.471,0.216-0.912,0.381-1.326,0.495c-0.416,0.112-0.979,0.169-1.688,0.169c-2.284,0-4.083-1.056-5.39-3.169
	c-1.308-2.113-1.961-5.037-1.961-8.769c0-3.7,0.668-6.624,2.007-8.767C64.915,49.072,66.699,48,68.933,48
	c0.605,0,1.153,0.055,1.642,0.163c0.49,0.108,0.936,0.25,1.34,0.425C72.25,48.731,72.621,48.941,73.029,49.213z"/>
</svg>
