<?xml version="1.0" encoding="utf-8"?>
<!-- Generator: Adobe Illustrator 15.0.2, SVG Export Plug-In . SVG Version: 6.00 Build 0)  -->
<!DOCTYPE svg PUBLIC "-//W3C//DTD SVG 1.0//EN" "http://www.w3.org/TR/2001/REC-SVG-20010904/DTD/svg10.dtd">
<svg version="1.0" id="Layer_1" xmlns="http://www.w3.org/2000/svg" xmlns:xlink="http://www.w3.org/1999/xlink" x="0px" y="0px"
	 width="108px" height="108px" viewBox="0 0 108 108" enable-background="new 0 0 108 108" xml:space="preserve">
<path d="M36.96,65.582h6.628l-5.849,40.195h-6.986l-5.544-40.195h6.809l2.53,28.386L36.96,65.582z M78.681,66.01
	c-1.442-0.804-3.038-1.207-4.759-1.207c-2.568,0-4.644,0.706-6.207,2.105c-1.573,1.414-2.353,3.391-2.353,5.972v24.937
	c0,5.831,2.75,8.743,8.257,8.743c5.704,0,8.562-2.998,8.562-8.981v-7.111h-6.635v6.865c0,1.372-0.022,2.175-0.064,2.419
	c-0.19,0.924-0.738,1.38-1.625,1.38c-1.166,0-1.743-1.05-1.743-3.133V72.88c0-1.69,0.545-2.536,1.625-2.536
	c1.242,0,1.873,0.823,1.873,2.472c0,0.726-0.021,1.806-0.065,3.248c0,1.416,0,2.475,0,3.202h6.635v-4.941
	c0-2.052-0.151-3.572-0.431-4.582C81.313,68.171,80.282,66.928,78.681,66.01z M62.25,76.448c0.49,2.539,0.739,5.663,0.739,9.373
	c0,3.27-0.233,6.083-0.697,8.45c-0.568,2.881-1.37,5.224-2.419,7.001c-0.792,1.355-1.861,2.408-3.202,3.167
	c-1.007,0.563-2.359,0.84-4.039,0.84h-6.793V65.616h6.548c1.882,0,3.31,0.252,4.294,0.759c1.331,0.686,2.466,1.906,3.408,3.65
	C61.034,71.775,61.756,73.917,62.25,76.448z M56.371,85.756c0-3.483-0.081-6.146-0.256-8.016c-0.177-1.861-0.423-3.32-0.734-4.351
	c-0.32-1.053-0.705-1.761-1.198-2.119c-0.353-0.297-1.06-0.435-2.11-0.435h-0.157v29.817h0.92c0.718,0,1.236-0.151,1.561-0.434
	c0.418-0.367,0.766-0.988,1.038-1.873c0.279-0.877,0.505-2.327,0.682-4.346C56.29,91.988,56.371,89.236,56.371,85.756z
	 M38.104,4.917v12.271h1.927V1.44h-1.24c-0.336,0.678-0.907,1.377-1.712,2.097c-0.807,0.723-1.749,1.335-2.825,1.839v1.862
	c0.6-0.221,1.275-0.551,2.027-0.994C37.034,5.802,37.642,5.359,38.104,4.917z M49.789,10.544h-5.916v1.937h5.916V10.544z
	 M60.755,15.872c-0.77,0-1.428-0.247-1.974-0.745c-0.546-0.496-0.893-1.235-1.043-2.217l-2.021,0.17
	c0.128,1.319,0.643,2.377,1.546,3.178c0.901,0.798,2.066,1.198,3.492,1.198c1.74,0,3.113-0.636,4.118-1.907
	c0.828-1.033,1.242-2.259,1.242-3.679c0-1.492-0.471-2.71-1.412-3.659c-0.941-0.949-2.098-1.422-3.467-1.422
	c-1.034,0-2.021,0.328-2.963,0.982l0.846-4.213h6.258V1.72h-7.8l-1.519,8.055l1.809,0.235c0.284-0.448,0.678-0.815,1.176-1.098
	c0.5-0.28,1.06-0.423,1.68-0.423c0.998,0,1.806,0.319,2.424,0.952c0.617,0.635,0.925,1.503,0.925,2.601
	c0,1.156-0.32,2.083-0.963,2.783C62.467,15.522,61.682,15.872,60.755,15.872z M68.576,15.83c-1.035-1.305-1.551-3.433-1.551-6.377
	c0-1.854,0.189-3.346,0.57-4.477c0.383-1.131,0.949-2.002,1.702-2.615c0.752-0.613,1.698-0.921,2.841-0.921
	c0.841,0,1.579,0.171,2.214,0.51c0.635,0.338,1.158,0.826,1.572,1.464c0.413,0.638,0.738,1.417,0.973,2.332
	c0.237,0.918,0.354,2.153,0.354,3.707c0,1.842-0.189,3.326-0.567,4.457c-0.379,1.131-0.943,2.004-1.696,2.62
	c-0.752,0.616-1.702,0.927-2.85,0.927C70.625,17.457,69.438,16.914,68.576,15.83z M69.003,9.453c0,2.576,0.303,4.289,0.904,5.14
	c0.604,0.854,1.347,1.279,2.231,1.279c0.883,0,1.626-0.428,2.229-1.285c0.604-0.854,0.904-2.567,0.904-5.134
	c0-2.582-0.301-4.295-0.904-5.146c-0.604-0.848-1.354-1.271-2.252-1.271c-0.884,0-1.591,0.373-2.118,1.123
	C69.335,5.113,69.003,6.879,69.003,9.453z M99.135,39.086c-1.17-1.068-2.981-0.991-4.051,0.178
	c-6.545,7.142-12.993,10.763-19.175,10.763c-0.017,0-0.036,0-0.053,0c-6.079-0.021-12.347-3.555-18.62-10.498
	c-8.32-9.274-16.842-13.931-25.17-13.802C23.933,25.837,15.967,30.42,8.39,39.344c-1.024,1.208-0.877,3.017,0.329,4.042
	c1.208,1.024,3.017,0.88,4.041-0.329c6.459-7.608,12.98-11.509,19.385-11.597c6.663,0.043,13.659,3.914,20.832,11.907
	c7.407,8.198,15.099,12.368,22.86,12.396c0.025,0,0.049,0,0.074,0c7.854,0,15.727-4.247,23.4-12.625
	C100.381,41.97,100.303,40.156,99.135,39.086z"/>
</svg>
