<?xml version="1.0" encoding="utf-8"?>
<!-- Generator: Adobe Illustrator 15.0.2, SVG Export Plug-In . SVG Version: 6.00 Build 0)  -->
<!DOCTYPE svg PUBLIC "-//W3C//DTD SVG 1.0//EN" "http://www.w3.org/TR/2001/REC-SVG-20010904/DTD/svg10.dtd">
<svg version="1.0" id="Layer_1" xmlns="http://www.w3.org/2000/svg" xmlns:xlink="http://www.w3.org/1999/xlink" x="0px" y="0px"
	 width="108px" height="108px" viewBox="0 0 108 108" enable-background="new 0 0 108 108" xml:space="preserve">
<path d="M76.721,61.749l10.906,4.59l-10.906,4.643l0.689-0.616l0.561-0.561l0.492-0.583l0.354-0.565l0.332-0.611l0.172-0.469
	L35.667,67.6l0,0h-0.313h-0.227L24.298,85.512l0.438,0.065l0.669-0.056l0.732-0.034l0.764-0.188l0.807-0.264l0.868-0.364
	l-10.242,8.334l2.289-13.023l0.133,0.993l0.152,0.836l0.232,0.769l0.271,0.633l0.343,0.639l0.365,0.48l0,0l11.073-18.315
	l-0.001-0.891h0.001V24.839l-0.505,0.186l-0.563,0.336l-0.609,0.357L30.951,26.2l-0.558,0.563l-0.561,0.667l4.596-10.909
	l4.635,10.909l-0.611-0.688l-0.565-0.568l-0.582-0.488l-0.566-0.357l-0.611-0.327l-0.461-0.169v40.293l43.642-0.024l-0.188-0.498
	l-0.336-0.568l-0.355-0.606l-0.479-0.558l-0.564-0.565L76.721,61.749z M28.479,9.791c-0.483,0.483-0.483,1.267,0,1.75
	s1.267,0.483,1.75,0c1.152-1.153,2.705-1.792,4.358-1.751c1.671,0.025,3.254,0.702,4.456,1.907c0.242,0.243,0.56,0.364,0.876,0.364
	s0.634-0.121,0.874-0.361c0.484-0.483,0.484-1.267,0.002-1.75c-1.661-1.664-3.852-2.599-6.171-2.633
	C32.315,7.265,30.11,8.161,28.479,9.791z M25.482,8.527c3.449-3.447,6.909-4.968,10.307-4.521c3.786,0.499,6.451,3.314,7.169,4.276
	c0.057,0.201,0.164,0.391,0.322,0.547c0.255,0.253,0.614,0.387,0.969,0.387c0.318,0,0.633-0.11,0.859-0.339
	c0.86-0.866,0.212-1.838-1.284-3.329C41.611,3.338,33.616-3.1,23.733,6.777c-0.483,0.482-0.483,1.267,0,1.75
	S24.999,9.01,25.482,8.527z M94.512,60.34c-0.482-0.483-1.266-0.483-1.75,0c-0.482,0.483-0.482,1.268,0,1.749
	c1.154,1.153,1.775,2.702,1.75,4.361c-0.023,1.674-0.701,3.259-1.906,4.465c-0.484,0.483-0.484,1.267,0,1.75
	c0.242,0.241,0.559,0.362,0.875,0.362s0.633-0.121,0.875-0.362c1.662-1.663,2.598-3.857,2.631-6.179
	C97.023,64.152,96.143,61.969,94.512,60.34z M97.521,55.603c-0.484-0.483-1.268-0.483-1.75,0c-0.484,0.483-0.484,1.268,0,1.75
	c3.445,3.442,4.969,6.903,4.525,10.286c-0.494,3.787-3.322,6.465-4.283,7.183c-0.199,0.056-0.383,0.161-0.537,0.316
	c-0.484,0.483-0.539,1.347-0.057,1.828c0.27,0.268,0.549,0.382,0.842,0.382c0.75,0,1.58-0.751,2.482-1.656
	C100.957,73.477,107.408,65.479,97.521,55.603z M14.308,99.917c1.321,0.757,2.77,1.143,4.23,1.143c0.784,0,1.571-0.111,2.343-0.336
	c0.656-0.19,1.033-0.878,0.842-1.534c-0.191-0.654-0.871-1.036-1.533-0.842c-1.559,0.451-3.21,0.248-4.652-0.577
	c-1.453-0.832-2.514-2.188-2.988-3.822c-0.19-0.655-0.875-1.037-1.534-0.843c-0.656,0.19-1.033,0.877-0.842,1.534
	C10.828,96.891,12.296,98.766,14.308,99.917z M22.888,103.279c-4.678,1.346-8.44,1.006-11.187-1.015
	c-3.081-2.264-4.062-6.054-4.227-7.241c0.045-0.194,0.041-0.403-0.017-0.609c-0.136-0.481-0.591-0.92-1.087-0.978
	c-0.509-0.057-0.988,0.196-1.231,0.635c-0.547,0.986,0.548,5.131,2.829,7.993c1.776,2.231,4.799,4.495,9.756,4.495
	c1.71,0,3.65-0.27,5.85-0.902c0.656-0.19,1.036-0.875,0.846-1.531C24.23,103.47,23.545,103.094,22.888,103.279z"/>
</svg>
