<?xml version="1.0" encoding="utf-8"?>
<!-- Generator: Adobe Illustrator 15.0.2, SVG Export Plug-In . SVG Version: 6.00 Build 0)  -->
<!DOCTYPE svg PUBLIC "-//W3C//DTD SVG 1.0//EN" "http://www.w3.org/TR/2001/REC-SVG-20010904/DTD/svg10.dtd">
<svg version="1.0" id="Layer_1" xmlns="http://www.w3.org/2000/svg" xmlns:xlink="http://www.w3.org/1999/xlink" x="0px" y="0px"
	 width="108px" height="108px" viewBox="0 0 108 108" enable-background="new 0 0 108 108" xml:space="preserve">
<path d="M1.702,54.881c-0.43-0.566-0.319-1.375,0.248-1.804c10.125-7.674,20.724-7.642,31.507,0.087
	c7.078,5.03,14.344,6.421,19.439,3.718c0.626-0.331,1.407-0.095,1.741,0.534c0.333,0.628,0.094,1.408-0.534,1.741
	c-2.132,1.131-4.513,1.688-7.051,1.688c-4.681,0-9.899-1.895-15.092-5.586c-9.899-7.097-19.208-7.139-28.455-0.131
	C2.937,55.559,2.13,55.445,1.702,54.881z M60.309,67.894c-9.131,6.434-17.962,6.444-26.994,0.028
	c-10.694-7.639-21.247-7.641-31.362-0.003c-0.568,0.429-0.681,1.236-0.252,1.804c0.429,0.568,1.236,0.682,1.803,0.252
	c9.243-6.978,18.504-6.964,28.317,0.045c4.942,3.511,9.933,5.267,14.935,5.267c5.011,0,10.036-1.763,15.037-5.287
	c0.581-0.41,0.72-1.213,0.311-1.795C61.691,67.623,60.889,67.483,60.309,67.894z M3.505,40.253c9.25-7.002,18.554-6.96,28.455,0.129
	c4.852,3.454,9.816,5.202,14.769,5.202c0.257,0,0.514-0.005,0.77-0.014c0.711-0.026,1.267-0.623,1.24-1.334
	c-0.025-0.712-0.629-1.293-1.334-1.24c-4.641,0.165-9.321-1.417-13.948-4.71c-10.781-7.722-21.382-7.752-31.505-0.087
	c-0.567,0.43-0.679,1.238-0.25,1.805C2.13,40.571,2.939,40.68,3.505,40.253z M92.165,64.847v8.708c0,0.475-0.385,0.858-0.859,0.858
	h-3.61V87.17c0,0.475-0.384,0.859-0.858,0.859h-6.932c-0.475,0-0.858-0.385-0.858-0.859V74.413h-3.731c-0.002,0-0.005,0-0.007,0
	c-0.117,0-0.229-0.023-0.333-0.067c-0.047-0.02-0.084-0.058-0.128-0.085c-0.049-0.032-0.104-0.058-0.145-0.098
	c-0.033-0.032-0.05-0.076-0.077-0.113c-0.038-0.052-0.082-0.1-0.106-0.159c-0.019-0.041-0.018-0.091-0.029-0.135
	c-0.015-0.064-0.04-0.126-0.04-0.194l-0.065-8.732c-8.414-3.513-14.349-11.835-14.349-21.525c0-12.855,10.436-23.315,23.26-23.315
	c6.415,0,12.232,2.616,16.446,6.84c0.005,0.005,0.012,0.007,0.017,0.012c0.009,0.008,0.012,0.02,0.019,0.028
	c4.188,4.219,6.783,10.029,6.783,16.435C106.561,53.011,100.604,61.344,92.165,64.847z M99.122,57.909
	c3.356-3.651,5.468-8.452,5.678-13.746h-9.905c-0.475,0-0.858-0.384-0.858-0.858s0.384-0.858,0.858-0.858h9.905
	c-0.21-5.296-2.321-10.1-5.682-13.752l-3.729,3.728c-0.167,0.167-0.387,0.251-0.606,0.251s-0.439-0.084-0.607-0.251
	c-0.335-0.335-0.335-0.879,0-1.214l3.733-3.73c-3.647-3.385-8.453-5.516-13.754-5.727v18.016c0,0.475-0.384,0.858-0.858,0.858
	s-0.858-0.384-0.858-0.858V21.75c-5.299,0.211-10.104,2.341-13.749,5.726l3.622,3.621c0.336,0.335,0.336,0.879,0,1.214
	c-0.168,0.168-0.387,0.251-0.606,0.251s-0.439-0.083-0.607-0.251l-3.619-3.618c-3.359,3.652-5.472,8.456-5.681,13.753h9.907
	c0.475,0,0.858,0.384,0.858,0.858s-0.384,0.858-0.858,0.858h-9.907c0.209,5.296,2.321,10.098,5.681,13.75l3.888-3.887
	c0.335-0.335,0.878-0.335,1.214,0c0.335,0.335,0.335,0.878,0,1.214l-3.892,3.89c3.646,3.385,8.451,5.514,13.75,5.726v-9.96
	c0-0.475,0.384-0.858,0.858-0.858s0.858,0.384,0.858,0.858v9.96c2.373-0.094,4.644-0.571,6.761-1.377
	c0.051-0.027,0.104-0.043,0.161-0.059c2.551-0.995,4.861-2.46,6.835-4.293l-4.169-4.165c-0.335-0.334-0.335-0.878,0-1.214
	c0.336-0.335,0.879-0.335,1.214,0L99.122,57.909z M85.979,74.413h-5.215v11.898h5.215V74.413z M90.447,65.477
	c-2.255,0.733-4.656,1.139-7.151,1.139c-2.511,0-4.924-0.413-7.188-1.153l0.054,7.233h14.286V65.477z"/>
</svg>
