<?xml version="1.0" encoding="utf-8"?>
<!-- Generator: Adobe Illustrator 15.0.2, SVG Export Plug-In . SVG Version: 6.00 Build 0)  -->
<!DOCTYPE svg PUBLIC "-//W3C//DTD SVG 1.0//EN" "http://www.w3.org/TR/2001/REC-SVG-20010904/DTD/svg10.dtd">
<svg version="1.0" id="Layer_1" xmlns="http://www.w3.org/2000/svg" xmlns:xlink="http://www.w3.org/1999/xlink" x="0px" y="0px"
	 width="108px" height="108px" viewBox="0 0 108 108" enable-background="new 0 0 108 108" xml:space="preserve">
<path d="M1.44,13.079h24.942v2.892c-1.747,0.426-2.996,0.868-3.76,1.3c-0.767,0.437-1.379,0.975-1.832,1.625
	c-0.453,0.649-0.786,1.629-0.999,2.924c-0.227,1.3-0.331,3.308-0.331,6.029v51.115c0,2.637,0.093,4.57,0.267,5.79
	c0.176,1.22,0.471,2.184,0.884,2.897c0.416,0.708,1.025,1.294,1.833,1.763c0.807,0.485,2.125,0.954,3.938,1.422v2.897H1.44v-2.897
	c2.437-0.628,4.075-1.331,4.903-2.093c0.831-0.777,1.372-1.858,1.622-3.281c0.256-1.416,0.389-3.584,0.389-6.498V27.848
	c0-2.722-0.096-4.698-0.298-5.934c-0.194-1.246-0.52-2.205-0.978-2.902c-0.45-0.688-1.052-1.241-1.8-1.651
	c-0.74-0.41-2.029-0.879-3.837-1.39V13.079z M106.561,51.662c0,6.658-0.754,12.516-2.274,17.582
	c-1.518,5.06-3.736,9.305-6.649,12.729c-2.524,2.999-5.606,5.459-9.275,7.382c-3.033,1.588-6.544,2.711-10.515,3.372
	c-3.979,0.671-9.257,1.006-15.84,1.006H40.614v-2.897c1.813-0.468,3.116-0.927,3.904-1.357c0.791-0.432,1.393-0.985,1.827-1.657
	c0.437-0.665,0.753-1.635,0.95-2.892c0.192-1.257,0.293-3.249,0.293-5.966V27.848c0-2.759-0.101-4.762-0.293-6.002
	c-0.197-1.236-0.524-2.195-0.979-2.866c-0.45-0.666-1.05-1.209-1.798-1.619c-0.754-0.41-2.048-0.879-3.904-1.39v-2.892h25.883
	c7.449,0,13.54,0.815,18.288,2.456c4.748,1.625,8.754,4.037,12.026,7.228c3.266,3.196,5.71,7.158,7.326,11.915
	C105.751,39.422,106.561,45.083,106.561,51.662z M94.505,52.721c0-7.995-1.148-14.567-3.454-19.707
	c-2.307-5.135-5.556-8.89-9.75-11.26c-4.194-2.359-9.209-3.547-15.039-3.547c-2.685,0-5.217,0.085-7.627,0.24v69.789
	c1.576,0.16,3.906,0.239,6.975,0.239c3.308,0,6.269-0.276,8.863-0.825c2.603-0.554,4.973-1.422,7.098-2.604
	c2.128-1.188,4.034-2.823,5.728-4.938c1.697-2.099,3.073-4.527,4.137-7.265c1.063-2.732,1.837-5.779,2.335-9.129
	C94.257,60.364,94.505,56.7,94.505,52.721z"/>
</svg>
