<?xml version="1.0" encoding="utf-8"?>
<!-- Generator: Adobe Illustrator 15.0.2, SVG Export Plug-In . SVG Version: 6.00 Build 0)  -->
<!DOCTYPE svg PUBLIC "-//W3C//DTD SVG 1.0//EN" "http://www.w3.org/TR/2001/REC-SVG-20010904/DTD/svg10.dtd">
<svg version="1.0" id="Layer_1" xmlns="http://www.w3.org/2000/svg" xmlns:xlink="http://www.w3.org/1999/xlink" x="0px" y="0px"
	 width="108px" height="108px" viewBox="0 0 108 108" enable-background="new 0 0 108 108" xml:space="preserve">
<path d="M47.283,106.56c-2.276-0.084-4.102-1.064-5.402-3.055L27.207,81.432c-0.615-0.817-0.894-1.79-0.894-2.842
	c0-1.186,0.321-2.153,0.973-2.966l10.73-13.38V77.77c0,0.859,0.163,1.546,0.531,1.956c0.244,0.32,0.606,0.446,1.009,0.41
	c0.41-0.09,0.778-0.284,1.104-0.537c0.284-0.362,0.404-0.888,0.404-1.7c0-0.365,0-0.736,0-1.064V25.906
	c0.166-1.012,0.534-1.948,1.139-2.755c0.202-0.244,0.452-0.576,0.696-0.862c1.375-1.257,2.966-1.901,4.787-1.901
	c1.875,0,3.457,0.644,4.722,1.901c1.018,1.067,1.661,2.405,1.948,4.035V63.54l2.844,0.539V44.686
	c0.04-2.316,0.691-3.567,1.866-3.777c1.139-0.287,2.355-0.166,3.66,0.287c1.217,0.486,1.921,1.298,2.113,2.439
	c0.16,1.178,0.199,1.911,0.199,2.192v19.669l3.179,0.614V48.559c0.084-2.29,0.688-3.541,1.824-3.746
	c1.178-0.287,2.439-0.171,3.699,0.281c1.264,0.452,1.958,1.262,2.16,2.439c0.124,1.178,0.205,1.872,0.205,2.156V67.53l3.084,0.533
	V52.861c0.05-2.318,0.646-3.583,1.829-3.785c1.142-0.287,2.355-0.16,3.654,0.284c1.23,0.494,1.959,1.335,2.155,2.481
	c0.161,1.146,0.208,1.869,0.208,2.158v48.454c0,2.713-1.341,4.105-4.106,4.105H47.283 M60.919,30.99
	c0.768-1.805,1.156-3.775,1.156-5.854c0-3.958-1.443-7.408-4.287-10.251c-2.737-2.744-6.136-4.136-10.101-4.136
	c-3.93,0-7.373,1.384-10.271,4.151c-2.786,2.877-4.2,6.322-4.2,10.236c0,2.057,0.426,4.038,1.264,5.885
	c0.311,0.681,1.109,0.979,1.782,0.669c0.676-0.306,0.976-1.104,0.668-1.781c-0.678-1.496-1.022-3.102-1.022-4.772
	c0-3.236,1.125-5.973,3.407-8.327c2.373-2.267,5.112-3.369,8.372-3.369c3.224,0,5.98,1.125,8.197,3.346
	c2.355,2.354,3.498,5.085,3.498,8.349c0,1.715-0.317,3.332-0.94,4.803c-0.292,0.684,0.028,1.474,0.712,1.764
	c0.171,0.074,0.35,0.108,0.526,0.108C60.203,31.811,60.7,31.503,60.919,30.99z M36.839,46.39c0.402-0.625,0.221-1.458-0.405-1.86
	c-1.593-1.026-2.962-2.101-4.165-3.268c-4.253-4.292-6.321-9.34-6.321-15.435c0-6.064,2.068-11.096,6.314-15.378
	c4.277-4.25,9.324-6.317,15.426-6.317c6.047,0,11.07,2.067,15.357,6.313c4.272,4.281,6.349,9.313,6.349,15.382
	c0,3.917-0.862,7.443-2.561,10.481c-0.362,0.649-0.131,1.47,0.519,1.833c0.646,0.36,1.469,0.131,1.832-0.518
	c1.927-3.445,2.902-7.413,2.902-11.795c0-6.725-2.4-12.541-7.143-17.288C60.19,3.828,54.384,1.44,47.688,1.44
	c-6.753,0-12.581,2.388-17.33,7.107c-4.712,4.751-7.102,10.565-7.102,17.28c0,6.746,2.39,12.576,7.12,17.349
	c1.35,1.311,2.856,2.494,4.602,3.617c0.227,0.145,0.479,0.214,0.729,0.214C36.147,47.007,36.581,46.789,36.839,46.39z"/>
</svg>
