<?xml version="1.0" encoding="utf-8"?>
<!-- Generator: Adobe Illustrator 15.0.2, SVG Export Plug-In . SVG Version: 6.00 Build 0)  -->
<!DOCTYPE svg PUBLIC "-//W3C//DTD SVG 1.0//EN" "http://www.w3.org/TR/2001/REC-SVG-20010904/DTD/svg10.dtd">
<svg version="1.0" id="Layer_1" xmlns="http://www.w3.org/2000/svg" xmlns:xlink="http://www.w3.org/1999/xlink" x="0px" y="0px"
	 width="108px" height="108px" viewBox="0 0 108 108" enable-background="new 0 0 108 108" xml:space="preserve">
<path d="M58.43,37.08l-2.563,36.536h-4.712L48.51,37.08c0-3.719,0.661-6.86,5.041-6.86C57.934,30.22,58.43,33.361,58.43,37.08z
	 M53.551,80.477c-3.968,0-4.794,0.744-4.794,4.629c0,3.967,0.826,4.629,4.794,4.629c3.969,0,4.794-0.662,4.794-4.629
	C58.345,81.221,57.52,80.477,53.551,80.477z M105.24,94.722c-2.08,3.602-6.288,5.584-11.851,5.584H14.611
	c-5.563,0-9.772-1.982-11.851-5.584c-2.079-3.601-1.692-8.236,1.089-13.054l39.389-68.221C46.02,8.63,49.841,5.977,54,5.977
	s7.979,2.653,10.762,7.47l39.39,68.221C106.932,86.485,107.318,91.121,105.24,94.722z M100.973,83.502l-39.39-68.221
	C59.485,11.646,56.792,9.646,54,9.646s-5.485,2.001-7.583,5.636L7.027,83.502c-2.099,3.635-2.486,6.968-1.089,9.386
	c1.396,2.418,4.476,3.749,8.673,3.749H93.39c4.197,0,7.277-1.331,8.673-3.749S103.072,87.137,100.973,83.502z"/>
</svg>
