<?xml version="1.0" encoding="utf-8"?>
<!-- Generator: Adobe Illustrator 15.0.2, SVG Export Plug-In . SVG Version: 6.00 Build 0)  -->
<!DOCTYPE svg PUBLIC "-//W3C//DTD SVG 1.0//EN" "http://www.w3.org/TR/2001/REC-SVG-20010904/DTD/svg10.dtd">
<svg version="1.0" id="Layer_1" xmlns="http://www.w3.org/2000/svg" xmlns:xlink="http://www.w3.org/1999/xlink" x="0px" y="0px"
	 width="108px" height="108px" viewBox="0 0 108 108" enable-background="new 0 0 108 108" xml:space="preserve">
<path d="M74.65,64.059l12.884,27.105L60.422,78.28l-10.055,28.281V73.376c7.221-3.47,12.217-10.828,12.217-19.382
	c0-8.545-4.996-15.903-12.217-19.371V1.44l10.055,28.28l27.112-12.886L74.65,43.95l28.277,10.052L74.65,64.059z M57.516,54.002
	c0-9.083-7.371-16.443-16.443-16.443c-6.853,0-12.719,4.191-15.19,10.146H6.305v12.589h19.577
	c2.466,5.958,8.337,10.148,15.19,10.148C50.145,70.443,57.516,63.087,57.516,54.002z"/>
</svg>
