<?xml version="1.0" encoding="utf-8"?>
<!-- Generator: Adobe Illustrator 15.0.2, SVG Export Plug-In . SVG Version: 6.00 Build 0)  -->
<!DOCTYPE svg PUBLIC "-//W3C//DTD SVG 1.0//EN" "http://www.w3.org/TR/2001/REC-SVG-20010904/DTD/svg10.dtd">
<svg version="1.0" id="Layer_1" xmlns="http://www.w3.org/2000/svg" xmlns:xlink="http://www.w3.org/1999/xlink" x="0px" y="0px"
	 width="108px" height="108px" viewBox="0 0 108 108" enable-background="new 0 0 108 108" xml:space="preserve">
<path d="M25.448,34.62c2.707,2.708,4.067,6.005,4.067,9.88c0,3.089-0.874,5.805-2.621,8.224c-0.479,0.581-0.954,1.161-1.446,1.741
	c-2.815,2.714-6.098,4.067-9.976,4.067c-3.768,0-7.061-1.353-9.872-3.971c0-0.096,0-0.096,0-0.096
	C2.789,51.668,1.44,48.372,1.44,44.5c0-3.782,1.254-6.975,3.967-9.784c0.094,0,0.094-0.096,0.194-0.096
	c2.711-2.815,6.006-4.168,9.872-4.168c3.779,0,7.072,1.353,9.781,3.971C25.353,34.422,25.353,34.521,25.448,34.62z M44.207,65.671
	c-1.353-1.308-2.993-1.979-4.879-1.979c-1.928,0-3.573,0.671-4.926,2.075c-0.049,0-0.049,0.048-0.099,0.048
	c-1.348,1.403-1.979,2.993-1.979,4.882c0,1.928,0.683,3.57,2.078,4.975c0,0,0,0,0,0.045c1.4,1.308,3.046,1.984,4.926,1.984
	c1.934,0,3.574-0.677,4.975-2.029c0.245-0.285,0.485-0.586,0.728-0.874c0.871-1.206,1.305-2.554,1.305-4.101
	c0-1.931-0.679-3.579-2.032-4.93C44.255,65.721,44.255,65.671,44.207,65.671z M66.013,33.594c-2.142-2.069-4.743-3.143-7.721-3.143
	c-3.06,0-5.659,1.073-7.806,3.294c-0.077,0-0.077,0.072-0.148,0.072c-2.142,2.218-3.129,4.74-3.129,7.72
	c0,3.06,1.063,5.656,3.277,7.872c0,0,0,0,0,0.08c2.224,2.066,4.82,3.131,7.806,3.131c3.055,0,5.648-1.065,7.869-3.211
	c0.387-0.456,0.768-0.914,1.146-1.372c1.377-1.909,2.066-4.056,2.066-6.5c0-3.057-1.07-5.651-3.212-7.792
	C66.087,33.669,66.087,33.594,66.013,33.594z M104.61,28.633c-0.051-0.045-0.051-0.096-0.099-0.096
	c-1.297-1.254-2.879-1.907-4.689-1.907c-1.864,0-3.44,0.652-4.748,2.002c-0.051,0-0.051,0.048-0.088,0.048
	c-1.311,1.353-1.912,2.878-1.912,4.7c0,1.854,0.652,3.44,2,4.785c0,0,0,0,0,0.045c1.353,1.254,2.93,1.907,4.748,1.907
	c1.859,0,3.43-0.652,4.788-1.952c0.229-0.277,0.461-0.559,0.695-0.839c0.834-1.164,1.254-2.463,1.254-3.946
	C106.56,31.515,105.91,29.935,104.61,28.633z M95.689,61.261c-2.708-2.61-6.003-3.968-9.779-3.968c-3.877,0-7.163,1.358-9.877,4.162
	c-0.096,0-0.096,0.109-0.191,0.109c-2.717,2.799-3.971,5.992-3.971,9.766c0,3.885,1.353,7.171,4.162,9.979c0,0,0,0,0,0.101
	c2.815,2.61,6.106,3.963,9.877,3.963c3.873,0,7.159-1.353,9.971-4.063c0.485-0.584,0.973-1.159,1.451-1.739
	c1.75-2.421,2.613-5.137,2.613-8.239c0-3.87-1.351-7.161-4.064-9.875C95.78,61.367,95.78,61.261,95.689,61.261z"/>
</svg>
