<?xml version="1.0" encoding="utf-8"?>
<!-- Generator: Adobe Illustrator 15.0.2, SVG Export Plug-In . SVG Version: 6.00 Build 0)  -->
<!DOCTYPE svg PUBLIC "-//W3C//DTD SVG 1.0//EN" "http://www.w3.org/TR/2001/REC-SVG-20010904/DTD/svg10.dtd">
<svg version="1.0" id="Layer_1" xmlns="http://www.w3.org/2000/svg" xmlns:xlink="http://www.w3.org/1999/xlink" x="0px" y="0px"
	 width="108px" height="108px" viewBox="0 0 108 108" enable-background="new 0 0 108 108" xml:space="preserve">
<path d="M106.56,69.584c0,4.186-1.177,7.847-3.542,11.116c-0.639,0.783-1.293,1.576-1.959,2.359
	c-3.802,3.67-8.238,5.493-13.478,5.493c-5.103,0-9.544-1.823-13.346-5.362c0-0.131,0-0.131,0-0.131
	c-3.798-3.789-5.629-8.241-5.629-13.476c0-5.103,1.699-9.418,5.367-13.212c0.123,0,0.123-0.133,0.262-0.133
	c3.663-3.805,8.116-5.634,13.346-5.634c5.106,0,9.559,1.83,13.222,5.363c0.134,0,0.134,0.136,0.256,0.271
	C104.723,59.892,106.56,64.347,106.56,69.584z M20.408,57.56c5.243,0,9.686-1.834,13.488-5.499c0.649-0.786,1.315-1.576,1.959-2.354
	c2.365-3.27,3.536-6.933,3.536-11.116c0-5.246-1.831-9.695-5.495-13.353c-0.122-0.13-0.122-0.266-0.266-0.266
	c-3.659-3.528-8.107-5.357-13.223-5.357c-5.227,0-9.673,1.829-13.339,5.624c-0.136,0-0.136,0.133-0.264,0.133
	C3.13,29.166,1.44,33.486,1.44,38.591c0,5.224,1.832,9.676,5.629,13.47c0,0,0,0,0,0.13C10.868,55.725,15.315,57.56,20.408,57.56z
	 M44.957,14.273c-1.065-1.065-2.79-1.065-3.855,0s-1.065,2.792,0,3.855c5.66,5.66,8.414,12.353,8.414,20.465
	c0,6.424-1.771,12.003-5.313,16.921l-3.171,3.82c-5.876,5.613-12.622,8.343-20.624,8.343c-1.505,0-2.727,1.221-2.727,2.727
	s1.222,2.726,2.727,2.726c9.397,0,17.645-3.354,24.512-9.97l3.602-4.32c4.338-6.015,6.446-12.638,6.446-20.247
	C54.968,29.096,51.601,20.912,44.957,14.273z M63.296,93.927c1.065,1.065,2.79,1.065,3.855,0s1.065-2.792,0-3.855
	c-5.66-5.66-8.414-12.353-8.414-20.465c0-6.424,1.771-12.003,5.313-16.921l3.171-3.82c5.876-5.613,12.622-8.343,20.624-8.343
	c1.505,0,2.727-1.221,2.727-2.727s-1.222-2.726-2.727-2.726c-9.397,0-17.645,3.354-24.512,9.97l-3.602,4.32
	c-4.338,6.015-6.446,12.638-6.446,20.247C53.285,79.104,56.652,87.288,63.296,93.927z"/>
</svg>
