<?xml version="1.0" encoding="utf-8"?>
<!-- Generator: Adobe Illustrator 15.0.2, SVG Export Plug-In . SVG Version: 6.00 Build 0)  -->
<!DOCTYPE svg PUBLIC "-//W3C//DTD SVG 1.0//EN" "http://www.w3.org/TR/2001/REC-SVG-20010904/DTD/svg10.dtd">
<svg version="1.0" id="Layer_1" xmlns="http://www.w3.org/2000/svg" xmlns:xlink="http://www.w3.org/1999/xlink" x="0px" y="0px"
	 width="108px" height="108px" viewBox="0 0 108 108" enable-background="new 0 0 108 108" xml:space="preserve">
<path d="M105.477,51.155H89.334c-0.015,0-0.028,0.008-0.042,0.008c-1.093-18.616-16.54-33.438-35.425-33.438
	c-18.882,0-34.328,14.817-35.424,33.429H2.523c-0.599,0-1.083,0.484-1.083,1.083s0.484,1.083,1.083,1.083h15.816
	c0.036,19.557,15.959,35.458,35.528,35.458c19.569,0,35.49-15.901,35.525-35.458h16.084c0.599,0,1.083-0.484,1.083-1.083
	S106.075,51.155,105.477,51.155z M53.867,86.613c-18.397,0-33.365-14.965-33.365-33.358c0-18.396,14.968-33.364,33.365-33.364
	c18.396,0,33.363,14.968,33.363,33.364C87.23,71.648,72.264,86.613,53.867,86.613z M38.637,41.975c0.802,0,1.465-0.215,1.991-0.645
	c0.525-0.432,0.92-1.041,1.184-1.83c0.264-0.79,0.396-1.828,0.396-3.112c0-1.085-0.082-1.949-0.247-2.587
	c-0.165-0.641-0.391-1.183-0.68-1.629c-0.289-0.446-0.654-0.787-1.098-1.024c-0.443-0.237-0.959-0.355-1.546-0.355
	c-0.797,0-1.458,0.216-1.983,0.643c-0.526,0.43-0.921,1.037-1.188,1.826c-0.266,0.789-0.399,1.832-0.399,3.127
	c0,2.056,0.362,3.541,1.083,4.453C36.751,41.597,37.581,41.975,38.637,41.975z M37.144,32.691c0.367-0.523,0.861-0.785,1.479-0.785
	c0.627,0,1.151,0.298,1.571,0.891c0.421,0.592,0.631,1.79,0.631,3.592c0,1.794-0.21,2.987-0.631,3.585
	c-0.42,0.597-0.938,0.897-1.557,0.897c-0.618,0-1.137-0.298-1.558-0.893c-0.419-0.597-0.631-1.792-0.631-3.59
	C36.448,34.59,36.68,33.359,37.144,32.691z M47.555,38.502h-4.13V37.15h4.13V38.502z M51.115,34.148
	c-0.525,0.309-0.998,0.54-1.416,0.694v-1.299c0.752-0.353,1.409-0.783,1.971-1.286c0.563-0.502,0.961-0.99,1.195-1.464h0.867V41.79
	h-1.345v-8.568C52.065,33.53,51.641,33.839,51.115,34.148z M59.462,41.79h-1.53v-1.532h1.53V41.79z M68.494,41.79h-7.238
	c-0.011-0.324,0.042-0.635,0.156-0.933c0.185-0.493,0.479-0.979,0.885-1.458c0.406-0.478,0.992-1.03,1.76-1.659
	c1.19-0.975,1.994-1.75,2.412-2.318c0.42-0.571,0.628-1.11,0.628-1.618c0-0.533-0.191-0.982-0.571-1.348
	c-0.381-0.366-0.878-0.55-1.49-0.55c-0.647,0-1.165,0.195-1.554,0.584c-0.388,0.389-0.585,0.926-0.59,1.614l-1.381-0.142
	c0.094-1.032,0.451-1.817,1.068-2.359c0.618-0.539,1.446-0.81,2.486-0.81c1.052,0,1.884,0.292,2.496,0.874
	c0.612,0.584,0.918,1.305,0.918,2.167c0,0.44-0.089,0.87-0.269,1.292c-0.179,0.423-0.477,0.869-0.892,1.337
	c-0.416,0.469-1.107,1.11-2.074,1.927c-0.807,0.679-1.324,1.138-1.554,1.379s-0.417,0.484-0.567,0.728h5.371V41.79z M41.708,48.406
	h4.234l-4.784,23.025h-4.37l-4.784-23.025h4.347l2.677,15.526L41.708,48.406z M57.439,50.217c-0.634-0.609-1.375-1.062-2.219-1.362
	c-0.843-0.298-1.991-0.449-3.439-0.449h-4.729v23.025h4.773c1.262,0,2.322-0.129,3.177-0.388c0.854-0.256,1.652-0.735,2.392-1.438
	c1.002-0.947,1.787-2.271,2.358-3.973c0.573-1.701,0.858-3.598,0.858-5.69c0-2.226-0.275-4.161-0.824-5.805
	C59.238,52.492,58.455,51.186,57.439,50.217z M55.92,63.801c-0.257,1.037-0.669,1.853-1.237,2.45
	c-0.373,0.394-0.754,0.645-1.144,0.759c-0.388,0.113-1.012,0.17-1.871,0.17h-0.425V52.644h0.706c0.68,0,1.2,0.065,1.563,0.195
	c0.362,0.129,0.696,0.332,1.002,0.609c0.643,0.599,1.103,1.447,1.378,2.545s0.415,2.399,0.415,3.903
	C56.308,61.463,56.179,62.765,55.92,63.801z M73.03,49.172c0.407,0.273,0.734,0.508,0.98,0.705v5.473h-0.426
	c-0.148-0.205-0.368-0.507-0.656-0.903c-0.286-0.397-0.568-0.74-0.846-1.028c-0.313-0.319-0.672-0.599-1.075-0.835
	c-0.404-0.237-0.818-0.356-1.244-0.356c-0.507,0-0.978,0.129-1.412,0.387c-0.432,0.256-0.847,0.715-1.244,1.375
	c-0.358,0.609-0.649,1.407-0.874,2.397c-0.224,0.99-0.336,2.181-0.336,3.571c0,1.403,0.119,2.605,0.354,3.605
	c0.236,0.999,0.544,1.802,0.924,2.412c0.367,0.588,0.783,1.007,1.25,1.262c0.467,0.251,0.92,0.378,1.362,0.378
	c0.433,0,0.854-0.112,1.26-0.334c0.408-0.221,0.786-0.523,1.137-0.903c0.308-0.32,0.579-0.646,0.818-0.976s0.449-0.629,0.628-0.897
	h0.381V69.9c-0.254,0.175-0.577,0.399-0.97,0.673c-0.391,0.274-0.76,0.488-1.103,0.643c-0.471,0.216-0.913,0.381-1.328,0.495
	c-0.414,0.112-0.977,0.169-1.688,0.169c-2.284,0-4.082-1.056-5.389-3.169c-1.308-2.113-1.961-5.037-1.961-8.769
	c0-3.7,0.669-6.624,2.007-8.767c1.336-2.145,3.121-3.218,5.354-3.218c0.605,0,1.151,0.055,1.642,0.163
	c0.489,0.108,0.936,0.25,1.339,0.425C72.252,48.69,72.624,48.899,73.03,49.172z"/>
</svg>
