<?xml version="1.0" encoding="utf-8"?>
<!-- Generator: Adobe Illustrator 15.0.2, SVG Export Plug-In . SVG Version: 6.00 Build 0)  -->
<!DOCTYPE svg PUBLIC "-//W3C//DTD SVG 1.0//EN" "http://www.w3.org/TR/2001/REC-SVG-20010904/DTD/svg10.dtd">
<svg version="1.0" id="Layer_1" xmlns="http://www.w3.org/2000/svg" xmlns:xlink="http://www.w3.org/1999/xlink" x="0px" y="0px"
	 width="108px" height="108px" viewBox="0 0 108 108" enable-background="new 0 0 108 108" xml:space="preserve">
<path d="M99.177,54.002l-26.628-9.466L84.68,19L59.154,31.135L48.597,1.44v36.197l0.618,0.296c6.248,3.001,10.13,9.156,10.13,16.062
	c0,6.91-3.882,13.068-10.131,16.071l-0.617,0.297v36.196l10.558-29.695L84.68,88.997L72.549,63.473L99.177,54.002z M80.084,84.399
	L57.91,73.86l-7.135,20.068V71.721c6.647-3.472,10.748-10.201,10.748-17.725c0-7.404-4.196-14.282-10.748-17.716V14.071
	l7.135,20.068l22.174-10.541L69.545,45.78l23.13,8.222l-23.13,8.227L80.084,84.399z M57.06,54.002
	c0-8.578-6.978-15.557-15.557-15.557c-6.064,0-11.511,3.479-14.073,8.927H9.824v13.254h17.604c2.563,5.449,8.009,8.93,14.074,8.93
	C50.082,69.557,57.06,62.579,57.06,54.002z M41.503,67.378c-5.427,0-10.278-3.241-12.358-8.257l-0.279-0.673H12.003v-8.897h16.863
	l0.279-0.672c2.081-5.015,6.932-8.255,12.358-8.255c7.377,0,13.379,6.002,13.379,13.378C54.882,61.377,48.88,67.378,41.503,67.378z"
	/>
</svg>
