<?xml version="1.0" encoding="utf-8"?>
<!-- Generator: Adobe Illustrator 15.0.2, SVG Export Plug-In . SVG Version: 6.00 Build 0)  -->
<!DOCTYPE svg PUBLIC "-//W3C//DTD SVG 1.0//EN" "http://www.w3.org/TR/2001/REC-SVG-20010904/DTD/svg10.dtd">
<svg version="1.0" id="Layer_1" xmlns="http://www.w3.org/2000/svg" xmlns:xlink="http://www.w3.org/1999/xlink" x="0px" y="0px"
	 width="108px" height="108px" viewBox="0 0 108 108" enable-background="new 0 0 108 108" xml:space="preserve">
<path fill="#1B1819" d="M72.651,40.804c3.194,0,5.791-2.601,5.791-5.793c0.005-3.194-2.597-5.793-5.791-5.793
	s-5.795,2.599-5.795,5.793C66.856,38.208,69.457,40.804,72.651,40.804z M72.651,31.046c2.188,0,3.963,1.779,3.963,3.967
	c0.005,2.184-1.774,3.965-3.963,3.965c-2.188,0-3.962-1.781-3.962-3.965C68.689,32.825,70.469,31.046,72.651,31.046z M9.053,94.351
	c-0.193-0.674,0.193-1.377,0.863-1.572c0.674-0.202,1.375,0.191,1.572,0.865c0.485,1.671,1.572,3.06,3.06,3.913
	c1.474,0.845,3.163,1.056,4.762,0.588c0.674-0.187,1.375,0.193,1.572,0.863c0.193,0.671-0.193,1.377-0.862,1.572
	c-0.791,0.229-1.6,0.344-2.404,0.344c-1.496,0-2.979-0.394-4.331-1.168C11.227,98.574,9.722,96.658,9.053,94.351z M23.641,104.064
	c0.197,0.674-0.193,1.377-0.867,1.569c-2.246,0.647-4.236,0.926-5.989,0.926c-5.077,0-8.172-2.32-9.992-4.607
	c-2.336-2.932-3.459-7.177-2.898-8.184c0.251-0.451,0.746-0.705,1.263-0.651c0.507,0.059,0.975,0.511,1.114,1.002
	c0.058,0.212,0.063,0.425,0.018,0.625c0.171,1.218,1.173,5.099,4.331,7.417c2.808,2.069,6.663,2.42,11.457,1.036
	C22.746,102.997,23.452,103.393,23.641,104.064z M55.952,43.003V27.021c0-1.628,1.325-2.952,2.956-2.952h7.005
	c0.503,0,0.911,0.409,0.911,0.914c0,0.506-0.408,0.917-0.911,0.917h-7.005c-0.624,0-1.123,0.5-1.123,1.121v15.983
	c0,0.618,0.499,1.121,1.123,1.121h1.482c0.508,0,0.912,0.413,0.912,0.917c0,0.503-0.404,0.914-0.912,0.914h-1.482
	C57.277,45.955,55.952,44.634,55.952,43.003z M81.175,24.983c0-0.505,0.408-0.917,0.912-0.917h1.486
	c1.631,0,2.952,1.326,2.952,2.954v15.983c0,1.628-1.321,2.952-2.952,2.952h-6.546c-0.508,0-0.916-0.411-0.916-0.918
	c0-0.501,0.408-0.912,0.916-0.912h6.546c0.62,0,1.123-0.503,1.123-1.121V27.021c0-0.62-0.503-1.123-1.123-1.123h-1.486
	C81.583,25.897,81.175,25.486,81.175,24.983z M63.882,35.011c0,4.836,3.936,8.77,8.77,8.77c4.835,0,8.766-3.934,8.766-8.77
	s-3.931-8.768-8.766-8.768C67.817,26.243,63.882,30.174,63.882,35.011z M72.651,28.074c3.828,0,6.938,3.111,6.938,6.937
	c0,3.826-3.109,6.939-6.938,6.939c-3.823,0-6.937-3.113-6.937-6.939C65.715,31.186,68.828,28.074,72.651,28.074z M58.976,22.532
	v-0.195c0-1.112,0.908-2.02,2.022-2.02h1.474c1.113,0,2.017,0.908,2.017,2.02v0.195c0,0.505-0.408,0.915-0.912,0.915
	c-0.503,0-0.916-0.409-0.916-0.915v-0.195c0-0.104-0.086-0.191-0.188-0.191h-1.474c-0.108,0-0.189,0.087-0.189,0.191v0.195
	c0,0.505-0.413,0.915-0.916,0.915S58.976,23.038,58.976,22.532z M97.959,62.982c-0.036,2.377-0.992,4.623-2.695,6.328
	c-0.247,0.247-0.57,0.373-0.895,0.373c-0.327,0-0.651-0.126-0.898-0.373c-0.494-0.494-0.494-1.296,0-1.79
	c1.231-1.235,1.928-2.86,1.955-4.574c0.026-1.698-0.611-3.284-1.793-4.466c-0.494-0.494-0.494-1.296,0-1.792
	c0.494-0.494,1.299-0.494,1.793,0C97.097,58.357,97.995,60.593,97.959,62.982z M77.203,58.131l11.169,4.701l-11.169,4.751
	l0.705-0.629l0.575-0.572l0.503-0.601l0.364-0.579l0.341-0.622l0.176-0.481l-23.165,0.025c-0.7,0-1.267-0.566-1.267-1.265
	c-0.005-0.701,0.566-1.27,1.263-1.27l23.155-0.024l-0.193-0.51l-0.341-0.585l-0.364-0.619l-0.49-0.573l-0.579-0.579L77.203,58.131z
	 M99.761,72.406c-0.926,0.928-1.774,1.698-2.543,1.698c-0.301,0-0.588-0.114-0.862-0.389c-0.494-0.494-0.44-1.377,0.054-1.874
	c0.162-0.159,0.351-0.27,0.553-0.325c0.983-0.734,3.882-3.473,4.39-7.351c0.449-3.466-1.11-7.008-4.637-10.535
	c-0.494-0.496-0.494-1.298,0-1.792s1.294-0.494,1.793,0C108.625,61.949,102.029,70.135,99.761,72.406z M48.589,5.642
	c1.527,1.527,2.192,2.521,1.308,3.41c-0.229,0.236-0.553,0.346-0.881,0.346c-0.359,0-0.728-0.137-0.988-0.396
	c-0.162-0.162-0.274-0.355-0.333-0.559c-0.732-0.986-3.464-3.869-7.341-4.378c-3.469-0.458-7.022,1.101-10.554,4.63
	c-0.494,0.497-1.298,0.497-1.792,0c-0.494-0.494-0.494-1.296,0-1.791C38.13-3.208,46.315,3.384,48.589,5.642z M40.129,25.356
	l-0.124-0.027c0.129,0.199,0.223,0.422,0.223,0.676v19.112c0,0.699-0.565,1.267-1.267,1.267s-1.267-0.568-1.267-1.267V26.005
	c0-0.249,0.09-0.466,0.213-0.662l-0.15,0.033l-0.58,0.213l-0.574,0.346l-0.625,0.366l-0.579,0.49l-0.571,0.58l-0.575,0.683
	l4.709-11.171l4.749,11.171l-0.629-0.708l-0.58-0.58l-0.593-0.499l-0.58-0.366l-0.629-0.337L40.129,25.356z M40.143,61.084h8.006
	v10.113c-2.22,1.209-4.69,1.813-7.408,1.813c-3.149,0-5.7-0.982-7.65-2.94c-1.95-1.962-2.925-4.554-2.925-7.782
	c0-3.297,1.067-6.002,3.199-8.115c2.134-2.114,4.847-3.17,8.131-3.17c2.367,0,4.357,0.346,5.971,1.04v3.637
	c-1.636-1.09-3.581-1.633-5.836-1.633c-2.27,0-4.125,0.748-5.577,2.241c-1.451,1.496-2.175,3.431-2.175,5.808
	c0,2.446,0.623,4.369,1.869,5.769c1.25,1.401,2.939,2.103,5.078,2.103c1.465,0,2.736-0.283,3.806-0.847v-5.063h-4.488V61.084z
	 M44.586,12.313c-0.323,0-0.651-0.124-0.898-0.371c-1.231-1.235-2.854-1.932-4.565-1.957c-1.707-0.056-3.279,0.613-4.461,1.792
	c-0.494,0.495-1.298,0.495-1.792,0c-0.495-0.494-0.495-1.296,0-1.792c1.671-1.669,3.917-2.504,6.294-2.534
	c2.377,0.038,4.618,0.995,6.321,2.698c0.489,0.499,0.489,1.301-0.005,1.792C45.232,12.19,44.909,12.313,44.586,12.313z
	 M29.571,74.502c0.562,0.411,0.691,1.204,0.278,1.768l-6.324,8.731l0.438,0.065l0.688-0.054l0.75-0.036l0.782-0.193l0.826-0.271
	l0.89-0.371l-10.49,8.534l2.346-13.334l0.135,1.013l0.157,0.858l0.237,0.786l0.274,0.649l0.354,0.651l0.373,0.496l0.021,0.021
	c0.032-0.066,0.047-0.139,0.092-0.2l6.398-8.83C28.21,74.217,29,74.098,29.571,74.502z"/>
</svg>
