<?xml version="1.0" encoding="utf-8"?>
<!-- Generator: Adobe Illustrator 15.0.2, SVG Export Plug-In . SVG Version: 6.00 Build 0)  -->
<!DOCTYPE svg PUBLIC "-//W3C//DTD SVG 1.0//EN" "http://www.w3.org/TR/2001/REC-SVG-20010904/DTD/svg10.dtd">
<svg version="1.0" id="Layer_1" xmlns="http://www.w3.org/2000/svg" xmlns:xlink="http://www.w3.org/1999/xlink" x="0px" y="0px"
	 width="108px" height="108px" viewBox="0 0 108 108" enable-background="new 0 0 108 108" xml:space="preserve">
<path d="M63.957,48.399c-0.675-1.308-1.688-2.416-2.951-3.198l-5.037-29.656L52.04,45.23c-1.242,0.78-2.233,1.881-2.9,3.17
	l-29.93,5.09l31.263,4.141l0.024-0.179c0.417,0.433,0.871,0.832,1.379,1.168l4.985,27.605l4.378-27.618
	c0.446-0.297,0.86-0.637,1.239-1.01l31.055-5.285L63.957,48.399z M56.307,33.971l1.712,10.096c-0.479-0.083-0.965-0.144-1.467-0.144
	c-0.543,0-1.07,0.058-1.583,0.154L56.307,33.971z M37.615,53.152l10.688-1.817c-0.019,0.214-0.066,0.419-0.066,0.637
	c0,0.935,0.195,1.818,0.502,2.654L37.615,53.152z M54.284,47.146l0.274,0.036l0.019-0.146c0.615-0.224,1.279-0.361,1.976-0.361
	c0.695,0,1.356,0.137,1.973,0.361l0.032,0.196l0.322-0.055c1.516,0.673,2.655,1.972,3.059,3.552l-0.024,0.175l0.081,0.011
	c0.072,0.341,0.112,0.696,0.112,1.057c0,2.922-2.491,5.298-5.555,5.298c-3.067,0-5.563-2.376-5.563-5.298
	C50.989,49.822,52.346,47.976,54.284,47.146z M56.683,69.762l-1.787-9.903c0.535,0.106,1.089,0.163,1.656,0.163
	c0.583,0,1.152-0.062,1.701-0.174L56.683,69.762z M64.787,51.284l10.342,1.369l-10.724,1.825c0.271-0.793,0.454-1.626,0.454-2.507
	C64.859,51.737,64.808,51.516,64.787,51.284z M53.072,13.576H51.73V3h1.436l5.556,8.302V3h1.341v10.576h-1.436l-5.555-8.313V13.576z
	 M60.881,98.028c0.293,0.436,0.441,0.935,0.441,1.505c0,0.562-0.162,1.091-0.484,1.591c-0.322,0.497-0.784,0.885-1.39,1.161
	c-0.602,0.277-1.281,0.414-2.037,0.414c-0.957,0-1.76-0.14-2.405-0.419c-0.647-0.277-1.155-0.699-1.523-1.258
	c-0.368-0.563-0.563-1.193-0.581-1.9l1.319-0.115c0.063,0.529,0.21,0.962,0.438,1.301c0.229,0.338,0.583,0.612,1.064,0.822
	c0.481,0.209,1.021,0.314,1.623,0.314c0.532,0,1.005-0.081,1.414-0.239c0.408-0.159,0.712-0.377,0.911-0.653
	c0.201-0.274,0.301-0.578,0.301-0.903c0-0.333-0.097-0.623-0.29-0.87c-0.191-0.248-0.508-0.455-0.951-0.624
	c-0.285-0.11-0.911-0.282-1.885-0.516c-0.97-0.234-1.65-0.454-2.04-0.661c-0.505-0.264-0.881-0.592-1.128-0.984
	c-0.25-0.392-0.374-0.83-0.374-1.316c0-0.535,0.153-1.032,0.454-1.497c0.304-0.465,0.747-0.817,1.328-1.057
	c0.583-0.241,1.23-0.362,1.942-0.362c0.782,0,1.474,0.126,2.072,0.379c0.6,0.253,1.06,0.626,1.382,1.115
	c0.322,0.492,0.497,1.046,0.521,1.666l-1.344,0.103c-0.07-0.669-0.314-1.175-0.731-1.516c-0.416-0.342-1.032-0.514-1.844-0.514
	c-0.847,0-1.465,0.156-1.852,0.468c-0.387,0.309-0.58,0.683-0.58,1.121c0,0.379,0.137,0.693,0.411,0.938
	c0.271,0.244,0.973,0.497,2.112,0.755c1.137,0.256,1.916,0.481,2.341,0.675C60.134,97.232,60.588,97.593,60.881,98.028z
	 M13.634,48.079h1.406l-2.9,10.575H10.79l-2.228-8.06c-0.188-0.672-0.298-1.086-0.333-1.239c-0.11,0.484-0.212,0.898-0.309,1.239
	l-2.244,8.06h-1.43L1.44,48.079h1.435l1.61,6.932c0.172,0.728,0.323,1.448,0.446,2.166c0.271-1.132,0.43-1.782,0.479-1.957
	l2.013-7.141H9.11l1.513,5.351c0.381,1.328,0.656,2.578,0.825,3.747c0.134-0.669,0.309-1.438,0.524-2.304L13.634,48.079z
	 M106.561,56.93v1.247h-7.894V47.601h7.646v1.247h-6.246v3.238h5.851v1.242h-5.851v3.602H106.561z"/>
</svg>
