<?xml version="1.0" encoding="utf-8"?>
<!-- Generator: Adobe Illustrator 15.0.2, SVG Export Plug-In . SVG Version: 6.00 Build 0)  -->
<!DOCTYPE svg PUBLIC "-//W3C//DTD SVG 1.0//EN" "http://www.w3.org/TR/2001/REC-SVG-20010904/DTD/svg10.dtd">
<svg version="1.0" id="Layer_1" xmlns="http://www.w3.org/2000/svg" xmlns:xlink="http://www.w3.org/1999/xlink" x="0px" y="0px"
	 width="108px" height="108px" viewBox="0 0 108 108" enable-background="new 0 0 108 108" xml:space="preserve">
<path d="M40.388,61.084h8.003v10.113c-2.217,1.208-4.688,1.813-7.408,1.813c-3.149,0-5.699-0.981-7.648-2.94
	c-1.95-1.961-2.925-4.554-2.925-7.781c0-3.298,1.066-6.002,3.198-8.116c2.135-2.114,4.846-3.169,8.132-3.169
	c2.365,0,4.356,0.346,5.969,1.04v3.637c-1.633-1.089-3.578-1.633-5.836-1.633c-2.267,0-4.124,0.748-5.575,2.242
	c-1.451,1.496-2.175,3.43-2.175,5.807c0,2.446,0.622,4.369,1.869,5.769c1.249,1.402,2.94,2.103,5.079,2.103
	c1.465,0,2.733-0.283,3.803-0.847v-5.063h-4.485V61.084z M40.946,25.565l0.627,0.337l0.577,0.366l0.598,0.499l0.58,0.58l0.624,0.708
	l-4.746-11.171l-4.707,11.171l0.573-0.683l0.573-0.58l0.577-0.49l0.622-0.366l0.577-0.346l0.58-0.213l0.15-0.033
	c-0.124,0.195-0.214,0.413-0.214,0.662v19.112c0,0.699,0.566,1.267,1.268,1.267c0.7,0,1.267-0.568,1.267-1.267V26.005
	c0-0.254-0.095-0.478-0.223-0.675l0.121,0.026L40.946,25.565z M28.041,74.785l-6.399,8.831c-0.045,0.062-0.059,0.132-0.09,0.198
	l-0.021-0.019l-0.375-0.497l-0.351-0.651l-0.278-0.648l-0.236-0.787l-0.157-0.857l-0.135-1.014l-2.345,13.335l10.488-8.535
	l-0.888,0.371l-0.826,0.271l-0.782,0.193l-0.75,0.035l-0.686,0.055l-0.442-0.065l6.328-8.731c0.411-0.564,0.28-1.357-0.283-1.769
	C29.245,74.097,28.452,74.216,28.041,74.785z M78.133,58.699l0.575,0.58l0.489,0.572l0.364,0.62l0.344,0.584l0.193,0.51
	L56.943,61.59c-0.697,0-1.268,0.567-1.263,1.269c0.002,0.699,0.565,1.265,1.267,1.265h0.002l23.163-0.024l-0.176,0.48l-0.342,0.622
	l-0.361,0.58l-0.505,0.6l-0.575,0.573l-0.706,0.629l11.172-4.751L77.447,58.13L78.133,58.699z M45.723,11.943
	c0.498-0.492,0.498-1.294,0.004-1.792c-1.702-1.703-3.944-2.66-6.318-2.698c-2.37,0.029-4.626,0.865-6.295,2.534
	c-0.496,0.497-0.496,1.298,0,1.792c0.494,0.495,1.296,0.495,1.791,0c1.181-1.179,2.749-1.849,4.463-1.792
	c1.712,0.025,3.334,0.721,4.564,1.957c0.247,0.247,0.573,0.371,0.896,0.371C45.154,12.313,45.476,12.19,45.723,11.943z
	 M28.252,6.904c-0.494,0.494-0.494,1.296,0,1.791c0.494,0.497,1.297,0.497,1.793,0c3.531-3.529,7.078-5.088,10.556-4.63
	c3.875,0.51,6.606,3.392,7.339,4.378C48,8.647,48.108,8.841,48.271,9.002c0.264,0.258,0.63,0.396,0.991,0.396
	c0.325,0,0.646-0.11,0.881-0.346c0.88-0.889,0.218-1.882-1.313-3.41C46.563,3.384,38.372-3.208,28.252,6.904z M95.67,56.688
	c-0.496-0.495-1.298-0.495-1.792,0c-0.494,0.496-0.494,1.298,0,1.792c1.179,1.182,1.819,2.768,1.795,4.466
	c-0.029,1.714-0.724,3.338-1.957,4.573c-0.494,0.494-0.494,1.296,0,1.791c0.247,0.247,0.573,0.372,0.896,0.372
	s0.649-0.125,0.896-0.372c1.702-1.705,2.659-3.952,2.695-6.328C98.24,60.592,97.339,58.357,95.67,56.688z M98.75,51.838
	c-0.494-0.494-1.296-0.494-1.79,0c-0.497,0.494-0.497,1.296,0,1.792c3.528,3.527,5.088,7.07,4.634,10.536
	c-0.508,3.877-3.403,6.615-4.387,7.35c-0.205,0.057-0.392,0.167-0.553,0.326c-0.492,0.496-0.546,1.379-0.052,1.873
	c0.271,0.274,0.56,0.389,0.86,0.389c0.769,0,1.619-0.771,2.545-1.698C102.272,70.135,108.87,61.95,98.75,51.838z M13.532,99.756
	c1.35,0.775,2.832,1.168,4.328,1.168c0.805,0,1.613-0.114,2.404-0.344c0.669-0.195,1.056-0.9,0.862-1.572
	c-0.195-0.669-0.903-1.049-1.572-0.862c-1.6,0.467-3.289,0.256-4.763-0.589c-1.489-0.854-2.574-2.241-3.06-3.913
	c-0.197-0.674-0.892-1.066-1.572-0.864c-0.669,0.195-1.056,0.898-0.862,1.572C9.967,96.658,11.47,98.574,13.532,99.756z
	 M22.319,103.197c-4.791,1.384-8.644,1.033-11.456-1.035c-3.156-2.318-4.16-6.2-4.329-7.418c0.045-0.199,0.041-0.413-0.02-0.624
	c-0.138-0.492-0.604-0.943-1.112-1.002c-0.525-0.054-1.011,0.2-1.26,0.651c-0.562,1.006,0.562,5.252,2.896,8.184
	c1.819,2.287,4.917,4.607,9.994,4.607c1.749,0,3.737-0.279,5.988-0.926c0.67-0.193,1.063-0.896,0.865-1.57
	C23.692,103.393,22.996,102.997,22.319,103.197z M54.083,35.305c0-7.689,6.148-13.945,13.705-13.945
	c7.56,0,13.708,6.256,13.708,13.945s-6.148,13.95-13.708,13.95C60.231,49.255,54.083,42.995,54.083,35.305z M55.099,35.305
	c0,7.128,5.692,12.932,12.689,12.932c6.998,0,12.69-5.804,12.69-12.932c0-7.132-5.692-12.928-12.69-12.928
	C60.791,22.377,55.099,28.173,55.099,35.305z M67.919,28.782c0.278,0,0.508-0.227,0.508-0.508v-3.599
	c0-0.283-0.229-0.512-0.508-0.512c-0.283,0-0.51,0.229-0.51,0.512v3.599C67.409,28.555,67.636,28.782,67.919,28.782z M67.919,42.083
	c-0.283,0-0.51,0.229-0.51,0.51v3.603c0,0.279,0.227,0.51,0.51,0.51c0.278,0,0.508-0.231,0.508-0.51v-3.603
	C68.427,42.312,68.197,42.083,67.919,42.083z M74.438,35.431c0,0.283,0.227,0.507,0.51,0.507h3.536c0.28,0,0.508-0.225,0.508-0.507
	c0-0.276-0.228-0.506-0.508-0.506h-3.536C74.664,34.925,74.438,35.155,74.438,35.431z M61.393,35.431
	c0-0.276-0.227-0.506-0.51-0.506H57.35c-0.281,0-0.51,0.229-0.51,0.506c0,0.283,0.229,0.507,0.51,0.507h3.533
	C61.166,35.938,61.393,35.714,61.393,35.431z M73.391,30.375c0.131,0,0.266-0.056,0.364-0.157l1.997-2.033
	c0.195-0.202,0.195-0.521-0.009-0.721c-0.198-0.197-0.52-0.197-0.717,0.005l-2,2.04c-0.195,0.2-0.192,0.521,0.005,0.717
	C73.13,30.323,73.258,30.375,73.391,30.375z M62.078,40.649l-1.999,2.033c-0.195,0.202-0.193,0.523,0.009,0.721
	c0.099,0.097,0.227,0.146,0.354,0.146c0.133,0,0.264-0.052,0.364-0.153l1.997-2.035c0.2-0.2,0.193-0.519-0.007-0.719
	C62.597,40.449,62.275,40.449,62.078,40.649z M73.755,40.649c-0.2-0.2-0.521-0.2-0.724-0.007c-0.197,0.2-0.2,0.519-0.005,0.719
	l2,2.035c0.099,0.101,0.231,0.153,0.363,0.153c0.129,0,0.254-0.049,0.354-0.146c0.204-0.198,0.204-0.519,0.009-0.721L73.755,40.649z
	 M62.078,30.217c0.099,0.101,0.231,0.157,0.361,0.157c0.131,0,0.259-0.052,0.357-0.15c0.2-0.193,0.207-0.517,0.007-0.717
	l-1.997-2.04c-0.2-0.202-0.519-0.202-0.719-0.005c-0.202,0.196-0.204,0.519-0.009,0.721L62.078,30.217z M67.389,35.956
	c0.038,0.058,0.078,0.098,0.137,0.136c0.029,0.021,0.041,0.058,0.074,0.072c0.061,0.025,0.126,0.036,0.188,0.036h5.203
	c0.28,0,0.508-0.227,0.508-0.51c0-0.279-0.228-0.508-0.508-0.508h-4.45l3.673-9.1c0.105-0.256-0.021-0.555-0.281-0.66
	c-0.258-0.099-0.555,0.022-0.662,0.283l-3.954,9.792c-0.014,0.034,0.007,0.065,0,0.1c-0.007,0.034-0.038,0.057-0.038,0.093
	c0,0.038,0.034,0.062,0.041,0.098C67.332,35.852,67.353,35.901,67.389,35.956z"/>
</svg>
