<?xml version="1.0" encoding="utf-8"?>
<!-- Generator: Adobe Illustrator 15.0.2, SVG Export Plug-In . SVG Version: 6.00 Build 0)  -->
<!DOCTYPE svg PUBLIC "-//W3C//DTD SVG 1.0//EN" "http://www.w3.org/TR/2001/REC-SVG-20010904/DTD/svg10.dtd">
<svg version="1.0" id="Layer_1" xmlns="http://www.w3.org/2000/svg" xmlns:xlink="http://www.w3.org/1999/xlink" x="0px" y="0px"
	 width="108px" height="108px" viewBox="0 0 108 108" enable-background="new 0 0 108 108" xml:space="preserve">
<path d="M106.293,54.894c-0.546-0.938-1.743-1.255-2.691-0.713c-14.57,8.47-28.621,9.273-42.801,2.475V13.803H43.425v34.639
	c-14.017-4.458-27.781-2.547-41.063,5.773c-0.92,0.578-1.2,1.793-0.623,2.714c0.578,0.923,1.793,1.196,2.714,0.623
	c12.577-7.882,25.641-9.51,38.971-4.938v41.912H60.8V60.998c6.267,2.735,12.583,4.107,18.928,4.107
	c8.587,0,17.227-2.508,25.853-7.521C106.521,57.039,106.839,55.834,106.293,54.894z M59.327,93.052H44.9V85.45h4.905
	c0.362,0,0.656-0.294,0.656-0.656c0-0.363-0.294-0.656-0.656-0.656H44.9v-3.404h2.875c0.362,0,0.656-0.294,0.656-0.656
	c0-0.363-0.294-0.656-0.656-0.656H44.9v-3.445h4.905c0.362,0,0.656-0.294,0.656-0.656c0-0.363-0.294-0.656-0.656-0.656H44.9v-3.407
	h2.875c0.362,0,0.656-0.293,0.656-0.656c0-0.362-0.294-0.656-0.656-0.656H44.9v-3.412h4.905c0.362,0,0.656-0.293,0.656-0.656
	c0-0.362-0.294-0.656-0.656-0.656H44.9v-3.404h2.875c0.362,0,0.656-0.293,0.656-0.656c0-0.362-0.294-0.656-0.656-0.656H44.9v-3.401
	h4.905c0.362,0,0.656-0.293,0.656-0.656s-0.294-0.656-0.656-0.656H44.9v-2.671c3.159,1.19,6.334,2.728,9.521,4.617
	c1.632,0.96,3.267,1.798,4.906,2.571V93.052z M59.327,55.947c-0.968-0.499-1.936-1.033-2.904-1.604
	c-3.856-2.287-7.698-4.068-11.522-5.405v-1.274h4.905c0.362,0,0.656-0.293,0.656-0.656s-0.294-0.656-0.656-0.656H44.9v-3.404h2.875
	c0.362,0,0.656-0.293,0.656-0.656s-0.294-0.656-0.656-0.656H44.9v-3.409h4.905c0.362,0,0.656-0.293,0.656-0.656
	s-0.294-0.656-0.656-0.656H44.9v-3.412h2.875c0.362,0,0.656-0.293,0.656-0.656s-0.294-0.656-0.656-0.656H44.9v-3.404h4.905
	c0.362,0,0.656-0.293,0.656-0.656s-0.294-0.656-0.656-0.656H44.9v-3.412h2.875c0.362,0,0.656-0.293,0.656-0.656
	s-0.294-0.656-0.656-0.656H44.9v-7.471h14.427V55.947z"/>
</svg>
