<?xml version="1.0" encoding="utf-8"?>
<!-- Generator: Adobe Illustrator 15.0.2, SVG Export Plug-In . SVG Version: 6.00 Build 0)  -->
<!DOCTYPE svg PUBLIC "-//W3C//DTD SVG 1.0//EN" "http://www.w3.org/TR/2001/REC-SVG-20010904/DTD/svg10.dtd">
<svg version="1.0" id="Layer_1" xmlns="http://www.w3.org/2000/svg" xmlns:xlink="http://www.w3.org/1999/xlink" x="0px" y="0px"
	 width="108px" height="108px" viewBox="0 0 108 108" enable-background="new 0 0 108 108" xml:space="preserve">
<path d="M100.85,34.768c-3.146,0-5.703,2.559-5.703,5.704c0,2.646,1.816,4.858,4.261,5.502v12.884H86.286
	c-1.201-16.932-15.325-30.351-32.558-30.351S22.372,41.926,21.169,58.858H8.505V46.001c2.487-0.613,4.345-2.851,4.345-5.529
	c0-3.146-2.557-5.704-5.7-5.704c-3.149,0-5.711,2.559-5.711,5.704c0,2.645,1.816,4.854,4.261,5.5v13.54
	c0,0.142,0.042,0.272,0.081,0.401c-0.03,0.113-0.07,0.224-0.07,0.347c0,0.774,0.628,1.402,1.402,1.402h13.961
	c0.259,17.801,14.795,32.207,32.653,32.207c17.858,0,32.394-14.406,32.653-32.207h14.213c0.625,0,1.174-0.414,1.348-1.014
	l0.216-0.749c0.036-0.126,0.055-0.256,0.055-0.388V46c2.49-0.614,4.349-2.851,4.349-5.527
	C106.561,37.327,103.999,34.768,100.85,34.768z M4.244,40.472c0-1.599,1.304-2.9,2.907-2.9c1.596,0,2.896,1.301,2.896,2.9
	c0,1.602-1.299,2.906-2.896,2.906C5.548,43.378,4.244,42.074,4.244,40.472z M53.728,91.065c-16.472,0-29.872-13.404-29.872-29.88
	c0-16.473,13.4-29.874,29.872-29.874c16.472,0,29.873,13.401,29.873,29.874C83.601,77.661,70.2,91.065,53.728,91.065z
	 M100.85,43.378c-1.6,0-2.899-1.304-2.899-2.906c0-1.599,1.3-2.9,2.899-2.9c1.603,0,2.906,1.301,2.906,2.9
	C103.756,42.074,102.452,43.378,100.85,43.378z M53.566,57.573c0.237,0.766,0.356,2.004,0.356,3.716v11.472h-3.439V62.506
	c0-1.78-0.119-2.929-0.356-3.447c-0.317-0.675-0.807-1.013-1.468-1.013c-0.481,0-0.935,0.203-1.36,0.608
	c-0.423,0.405-0.729,1-0.918,1.783c-0.188,0.782-0.281,2.018-0.281,3.708v8.616H42.66v-9.833c0-1.746-0.063-2.873-0.185-3.379
	c-0.122-0.506-0.313-0.883-0.569-1.132c-0.256-0.247-0.604-0.372-1.046-0.372c-0.531,0-1.008,0.197-1.432,0.592
	c-0.426,0.394-0.729,0.963-0.913,1.706c-0.184,0.743-0.275,1.976-0.275,3.7v8.718H34.8V54.819h3.171v2.449
	c1.134-1.903,2.484-2.854,4.051-2.854c0.833,0,1.556,0.236,2.168,0.709c0.611,0.473,1.113,1.188,1.506,2.146
	c0.571-0.957,1.187-1.672,1.848-2.146c0.661-0.473,1.367-0.709,2.118-0.709c0.954,0,1.763,0.267,2.424,0.802
	C52.747,55.75,53.242,56.537,53.566,57.573z M62.542,47.993l-6.99,24.768h3.845l1.48-5.626h7.173l1.568,5.626h3.943l-7.187-24.768
	H62.542z M61.99,62.962l2.425-9.192l2.472,9.192H61.99z M43.088,23.207c0.789,0,1.44-0.211,1.957-0.635
	c0.517-0.422,0.904-1.022,1.163-1.797c0.26-0.776,0.389-1.794,0.389-3.057c0-1.067-0.08-1.915-0.24-2.544
	c-0.163-0.628-0.386-1.162-0.669-1.6c-0.284-0.438-0.644-0.773-1.078-1.006c-0.437-0.233-0.942-0.349-1.521-0.349
	c-0.781,0-1.431,0.211-1.947,0.632c-0.518,0.421-0.906,1.019-1.167,1.794c-0.263,0.775-0.393,1.799-0.393,3.072
	c0,2.021,0.354,3.479,1.064,4.375C41.238,22.835,42.051,23.207,43.088,23.207z M41.621,14.083c0.363-0.513,0.848-0.771,1.453-0.771
	c0.617,0,1.132,0.291,1.547,0.874c0.412,0.583,0.619,1.759,0.619,3.531c0,1.761-0.207,2.936-0.619,3.523
	c-0.415,0.587-0.924,0.881-1.532,0.881c-0.605,0-1.115-0.292-1.529-0.877c-0.413-0.584-0.621-1.76-0.621-3.526
	C40.938,15.951,41.167,14.739,41.621,14.083z M51.854,18.057h-4.061v-1.328h4.061V18.057z M59.89,23.023h-7.112
	c-0.01-0.318,0.042-0.624,0.155-0.917c0.181-0.485,0.471-0.961,0.869-1.432c0.399-0.47,0.975-1.013,1.729-1.629
	c1.169-0.959,1.959-1.719,2.37-2.279c0.412-0.56,0.617-1.09,0.617-1.588c0-0.524-0.187-0.966-0.561-1.325
	c-0.375-0.36-0.864-0.54-1.465-0.54c-0.637,0-1.146,0.19-1.528,0.572c-0.381,0.381-0.574,0.91-0.578,1.585l-1.358-0.14
	c0.093-1.012,0.441-1.785,1.05-2.315c0.606-0.531,1.42-0.797,2.444-0.797c1.031,0,1.85,0.287,2.45,0.859
	c0.603,0.572,0.903,1.282,0.903,2.129c0,0.43-0.087,0.854-0.265,1.27c-0.175,0.416-0.467,0.854-0.876,1.314
	c-0.409,0.46-1.088,1.091-2.037,1.893c-0.793,0.667-1.302,1.117-1.526,1.354s-0.411,0.476-0.559,0.716h5.277V23.023z M64.815,23.207
	c0.788,0,1.44-0.211,1.957-0.635c0.517-0.422,0.903-1.022,1.163-1.797c0.259-0.776,0.389-1.794,0.389-3.057
	c0-1.067-0.081-1.915-0.241-2.544c-0.162-0.628-0.386-1.162-0.668-1.6c-0.285-0.438-0.645-0.773-1.079-1.006
	c-0.437-0.233-0.942-0.349-1.521-0.349c-0.782,0-1.432,0.211-1.948,0.632s-0.906,1.019-1.167,1.794
	c-0.263,0.775-0.393,1.799-0.393,3.072c0,2.021,0.354,3.479,1.064,4.375C62.963,22.835,63.778,23.207,64.815,23.207z M63.346,14.083
	c0.363-0.513,0.848-0.771,1.454-0.771c0.616,0,1.132,0.291,1.546,0.874c0.413,0.583,0.619,1.759,0.619,3.531
	c0,1.761-0.206,2.936-0.619,3.523c-0.414,0.587-0.924,0.881-1.531,0.881c-0.606,0-1.116-0.292-1.53-0.877
	c-0.413-0.584-0.621-1.76-0.621-3.526C62.664,15.951,62.892,14.739,63.346,14.083z"/>
</svg>
