<?xml version="1.0" encoding="utf-8"?>
<!-- Generator: Adobe Illustrator 15.0.2, SVG Export Plug-In . SVG Version: 6.00 Build 0)  -->
<!DOCTYPE svg PUBLIC "-//W3C//DTD SVG 1.0//EN" "http://www.w3.org/TR/2001/REC-SVG-20010904/DTD/svg10.dtd">
<svg version="1.0" id="Layer_1" xmlns="http://www.w3.org/2000/svg" xmlns:xlink="http://www.w3.org/1999/xlink" x="0px" y="0px"
	 width="108px" height="108px" viewBox="0 0 108 108" enable-background="new 0 0 108 108" xml:space="preserve">
<path d="M40.722,25.356l-0.118-0.026c0.128,0.199,0.222,0.421,0.222,0.675v19.112c0,0.699-0.568,1.267-1.269,1.267
	c-0.699,0-1.268-0.568-1.268-1.267V26.005c0-0.249,0.09-0.466,0.214-0.662l-0.15,0.033l-0.58,0.213l-0.577,0.346l-0.622,0.366
	l-0.577,0.49l-0.571,0.58l-0.575,0.683l4.707-11.171l4.748,11.171l-0.626-0.708l-0.58-0.58l-0.598-0.499l-0.577-0.366l-0.627-0.337
	L40.722,25.356z M28.392,74.785l-6.399,8.83c-0.045,0.062-0.059,0.133-0.091,0.199l-0.02-0.02l-0.375-0.496l-0.351-0.651
	l-0.278-0.649l-0.236-0.786l-0.157-0.858l-0.135-1.013l-2.345,13.334l10.491-8.534l-0.89,0.371l-0.826,0.271l-0.782,0.193
	l-0.75,0.036l-0.686,0.054l-0.441-0.065l6.327-8.731c0.411-0.563,0.283-1.356-0.283-1.768
	C29.596,74.098,28.803,74.217,28.392,74.785z M78.483,58.699l0.575,0.579l0.492,0.573l0.361,0.619l0.346,0.585l0.193,0.51
	L57.296,61.59c-0.699,0-1.268,0.568-1.265,1.27c0.002,0.698,0.565,1.265,1.267,1.265H57.3l23.163-0.025l-0.176,0.481l-0.341,0.622
	l-0.362,0.579l-0.505,0.6l-0.573,0.573l-0.705,0.629l11.169-4.751l-11.169-4.701L78.483,58.699z M46.073,11.943
	c0.498-0.492,0.498-1.294,0.004-1.792c-1.702-1.703-3.944-2.66-6.318-2.698c-2.37,0.029-4.623,0.865-6.295,2.534
	c-0.494,0.497-0.494,1.298,0,1.792c0.494,0.495,1.296,0.495,1.793,0c1.179-1.179,2.749-1.849,4.461-1.792
	c1.712,0.025,3.334,0.721,4.564,1.957c0.247,0.247,0.573,0.371,0.898,0.371C45.505,12.313,45.826,12.19,46.073,11.943z
	 M28.603,6.904c-0.494,0.494-0.494,1.296,0,1.791c0.494,0.497,1.297,0.497,1.793,0c3.531-3.529,7.078-5.088,10.556-4.63
	c3.875,0.51,6.606,3.392,7.341,4.378c0.059,0.204,0.167,0.397,0.33,0.559c0.264,0.258,0.63,0.396,0.991,0.396
	c0.325,0,0.646-0.11,0.881-0.346c0.88-0.889,0.218-1.882-1.313-3.41C46.913,3.384,38.723-3.208,28.603,6.904z M96.021,56.688
	c-0.496-0.494-1.298-0.494-1.792,0c-0.494,0.496-0.494,1.298,0,1.792c1.182,1.182,1.819,2.768,1.795,4.466
	c-0.027,1.714-0.724,3.339-1.957,4.574c-0.494,0.494-0.494,1.296,0,1.79c0.249,0.247,0.573,0.373,0.896,0.373
	c0.325,0,0.649-0.126,0.896-0.373c1.702-1.705,2.659-3.951,2.695-6.328C98.591,60.593,97.689,58.357,96.021,56.688z M99.101,51.838
	c-0.494-0.494-1.296-0.494-1.79,0c-0.497,0.494-0.497,1.296,0,1.792c3.528,3.527,5.088,7.069,4.634,10.535
	c-0.508,3.878-3.403,6.616-4.387,7.351c-0.205,0.056-0.392,0.166-0.553,0.325c-0.492,0.497-0.546,1.38-0.052,1.874
	c0.271,0.274,0.56,0.389,0.86,0.389c0.769,0,1.619-0.771,2.545-1.698C102.623,70.135,109.221,61.949,99.101,51.838z M13.882,99.756
	c1.35,0.774,2.833,1.168,4.329,1.168c0.804,0,1.613-0.114,2.404-0.344c0.669-0.195,1.056-0.901,0.862-1.572
	c-0.195-0.67-0.903-1.05-1.57-0.863c-1.602,0.468-3.291,0.257-4.765-0.588c-1.489-0.854-2.574-2.242-3.06-3.913
	c-0.197-0.674-0.892-1.067-1.572-0.865c-0.669,0.195-1.056,0.898-0.863,1.572C10.317,96.658,11.82,98.574,13.882,99.756z
	 M22.67,103.197c-4.791,1.384-8.644,1.033-11.456-1.036c-3.154-2.318-4.16-6.199-4.329-7.417c0.045-0.2,0.041-0.413-0.021-0.625
	c-0.137-0.491-0.602-0.943-1.112-1.002c-0.525-0.054-1.011,0.2-1.26,0.651c-0.562,1.007,0.562,5.252,2.896,8.184
	c1.82,2.287,4.917,4.607,9.994,4.607c1.75,0,3.738-0.278,5.989-0.925c0.672-0.193,1.063-0.896,0.867-1.57
	C24.045,103.393,23.347,102.997,22.67,103.197z M40.74,64.057h4.485v5.063c-1.068,0.563-2.338,0.847-3.803,0.847
	c-2.139,0-3.83-0.701-5.079-2.103c-1.246-1.399-1.869-3.322-1.869-5.769c0-2.377,0.724-4.312,2.175-5.808
	c1.451-1.493,3.309-2.241,5.575-2.241c2.258,0,4.203,0.543,5.836,1.633v-3.637c-1.612-0.694-3.603-1.04-5.968-1.04
	c-3.287,0-5.998,1.056-8.132,3.17c-2.132,2.113-3.199,4.818-3.199,8.115c0,3.229,0.975,5.82,2.925,7.782
	c1.95,1.958,4.499,2.94,7.648,2.94c2.721,0,5.191-0.604,7.409-1.813V61.084H40.74V64.057z M72.171,37.983v7.159h4.336v-9.385
	l-3.467,2.965L72.171,37.983z M64.893,35.433v9.709h4.336v-9.65l-2.168-1.831L64.893,35.433z M61.945,45.142V37.85l-4.331,3.554
	v3.738H61.945z M79.451,45.142h4.336V29.525l-4.336,3.708V45.142z M73.04,36.022l10.642-9.109l0.056-3.138L73.04,32.668
	l-5.979-5.063l-9.469,7.764v3.356l9.469-7.766L73.04,36.022z M88.066,46.872H56.332V20.01H55v28.293h33.066V46.872z"/>
</svg>
