<?xml version="1.0" encoding="utf-8"?>
<!-- Generator: Adobe Illustrator 15.0.2, SVG Export Plug-In . SVG Version: 6.00 Build 0)  -->
<!DOCTYPE svg PUBLIC "-//W3C//DTD SVG 1.0//EN" "http://www.w3.org/TR/2001/REC-SVG-20010904/DTD/svg10.dtd">
<svg version="1.0" id="Layer_1" xmlns="http://www.w3.org/2000/svg" xmlns:xlink="http://www.w3.org/1999/xlink" x="0px" y="0px"
	 width="108px" height="108px" viewBox="0 0 108 108" enable-background="new 0 0 108 108" xml:space="preserve">
<path d="M73.145,89.119l2.666,4.446c-1.537,0.923-3.132,1.79-4.743,2.578l-2.282-4.655C70.266,90.763,71.731,89.967,73.145,89.119z
	 M77.289,86.392l3.032,4.205c1.463-1.056,2.894-2.179,4.245-3.339l-3.377-3.935C79.949,84.388,78.635,85.421,77.289,86.392z
	 M59.543,95.087l1.471,4.973c1.722-0.509,3.44-1.097,5.109-1.747l-1.881-4.831C62.708,94.079,61.126,94.618,59.543,95.087z
	 M49.831,97.086l0.614,5.149c1.775-0.213,3.567-0.504,5.329-0.866l-1.044-5.078C53.11,96.624,51.461,96.891,49.831,97.086z
	 M84.817,79.937l3.696,3.636c1.259-1.279,2.479-2.628,3.623-4.007l-3.99-3.312C87.096,77.521,85.975,78.76,84.817,79.937z
	 M99.459,54.397l5.008,1.337c0.463-1.735,0.855-3.513,1.164-5.284l-5.108-0.891C100.238,51.182,99.882,52.81,99.459,54.397z
	 M91.152,72.304l4.253,2.962c1.022-1.469,1.998-3.007,2.894-4.571l-4.496-2.58C92.979,69.549,92.089,70.958,91.152,72.304z
	 M96.084,63.709l4.704,2.186c0.76-1.638,1.453-3.319,2.063-5.003l-4.876-1.765C97.418,60.668,96.782,62.209,96.084,63.709z
	 M103.968,5.44c-1.433,0-2.593,1.161-2.593,2.593V39.69c0,1.643-0.07,3.309-0.212,4.954l5.164,0.445
	c0.155-1.792,0.233-3.607,0.233-5.399V8.033C106.561,6.601,105.4,5.44,103.968,5.44z M44.932,98.932l-0.053-1.459
	c-0.738,0.027-1.479,0.041-2.225,0.041H4.033c-1.432,0-2.593,1.161-2.593,2.593s1.161,2.593,2.593,2.593h38.622
	c0.81,0,1.613-0.015,2.412-0.044l-0.055-1.493c0.146-0.324,0.235-0.678,0.235-1.056C45.248,99.676,45.117,99.288,44.932,98.932z"/>
</svg>
