<?xml version="1.0" encoding="utf-8"?>
<!-- Generator: Adobe Illustrator 15.0.2, SVG Export Plug-In . SVG Version: 6.00 Build 0)  -->
<!DOCTYPE svg PUBLIC "-//W3C//DTD SVG 1.0//EN" "http://www.w3.org/TR/2001/REC-SVG-20010904/DTD/svg10.dtd">
<svg version="1.0" id="Layer_1" xmlns="http://www.w3.org/2000/svg" xmlns:xlink="http://www.w3.org/1999/xlink" x="0px" y="0px"
	 width="108px" height="108px" viewBox="0 0 108 108" enable-background="new 0 0 108 108" xml:space="preserve">
<path d="M106.561,58.101c0.008,0.734-0.582,1.335-1.316,1.343l-10.286,0.107l-5.47,12.661c-0.221,0.511-0.698,0.811-1.292,0.801
	c-0.556-0.031-1.033-0.404-1.197-0.935l-8.06-26.035l-8.201,26.153c-0.178,0.567-0.726,0.913-1.304,0.932
	c-0.595-0.017-1.104-0.426-1.251-1.002l-6.637-26.079L51.375,72.406c-0.21,0.548-0.741,0.886-1.347,0.846
	c-0.587-0.048-1.073-0.476-1.193-1.054l-5.4-25.837L32.577,73.349c-0.204,0.506-0.693,0.833-1.233,0.833
	c-0.024,0-0.051-0.001-0.076-0.003c-0.568-0.032-1.054-0.424-1.204-0.975l-7.554-27.506l-6.708,13.94
	c-0.221,0.457-0.682,0.749-1.189,0.752L2.778,60.467c-0.004,0-0.006,0-0.009,0c-0.731,0-1.324-0.589-1.329-1.32
	c-0.005-0.734,0.586-1.333,1.32-1.338l11.004-0.07l7.888-16.392c0.24-0.5,0.748-0.798,1.317-0.748
	c0.553,0.051,1.015,0.438,1.162,0.972l7.449,27.13L42.606,41.3c0.218-0.543,0.765-0.896,1.35-0.828
	c0.584,0.052,1.064,0.479,1.184,1.052l5.377,25.725l10.052-26.046c0.208-0.539,0.705-0.896,1.319-0.848
	c0.577,0.034,1.066,0.439,1.208,1l6.509,25.578l8.074-25.754c0.175-0.554,0.688-0.932,1.27-0.932h0.003
	c0.581,0.001,1.096,0.38,1.267,0.936l8.257,26.675l4.387-10.152c0.208-0.483,0.68-0.797,1.207-0.802l11.151-0.117
	c0.002,0,0.008,0,0.013,0C105.958,56.786,106.553,57.372,106.561,58.101z"/>
</svg>
