<?xml version="1.0" encoding="utf-8"?>
<!-- Generator: Adobe Illustrator 15.0.2, SVG Export Plug-In . SVG Version: 6.00 Build 0)  -->
<!DOCTYPE svg PUBLIC "-//W3C//DTD SVG 1.0//EN" "http://www.w3.org/TR/2001/REC-SVG-20010904/DTD/svg10.dtd">
<svg version="1.0" id="Layer_1" xmlns="http://www.w3.org/2000/svg" xmlns:xlink="http://www.w3.org/1999/xlink" x="0px" y="0px"
	 width="108px" height="108px" viewBox="0 0 108 108" enable-background="new 0 0 108 108" xml:space="preserve">
<path d="M82.989,70.143c3.94-3.938,5.908-9.849,5.908-17.331c0-7.096-1.968-13.004-5.908-16.944
	c-3.94-4.332-9.453-6.302-15.76-6.302c-3.94,0-7.089,0.394-9.849,1.579c-2.361,1.181-3.94,2.755-5.91,4.332
	c-1.572,1.577-3.151,3.938-4.332,6.302c-1.181,2.762-1.97,6.702-1.97,11.425c0,7.091,1.97,13.002,5.91,16.939
	c3.94,3.94,9.062,5.911,16.15,5.911C73.928,76.054,79.049,74.083,82.989,70.143z M58.17,64.234
	c-2.364-2.361-3.545-6.302-3.545-11.423c0-5.125,1.181-9.063,3.545-11.819c1.97-2.361,5.118-3.546,9.059-3.546
	c3.547,0,6.699,1.185,8.668,3.546c2.366,2.755,3.547,6.693,3.547,11.819c0,5.513-1.181,9.453-3.547,11.819
	c-1.97,2.757-5.121,3.544-8.668,3.544C63.687,68.175,60.536,66.992,58.17,64.234z M22.32,76.054c-6.306,0-11.427-1.971-14.969-5.911
	C3.41,66.205,1.44,60.294,1.44,53.597c0-7.881,1.97-13.789,5.911-17.729c3.542-3.938,9.059-6.302,15.361-6.302
	c5.52,0,9.851,1.579,13.397,5.125c1.971,1.97,3.542,4.332,4.332,7.878l-8.668,2.364c-0.785-2.364-1.574-4.334-3.542-5.519
	c-1.579-1.577-3.55-1.968-5.911-1.968c-3.547,0-5.91,1.185-8.276,3.546c-1.968,2.362-3.151,6.302-3.151,11.425
	c0,5.906,1.183,9.847,3.151,12.213c1.971,2.757,4.729,3.544,7.881,3.544c2.757,0,4.728-0.787,6.307-1.97
	c1.968-1.574,3.148-3.94,3.938-7.485l8.668,2.76c-1.186,5.121-3.547,8.663-6.697,11.029C30.592,75.269,26.652,76.054,22.32,76.054z
	 M106.561,53.319c0,26.7-21.725,48.422-48.427,48.422c-14.098,0-27.469-6.13-36.681-16.816c-0.841-0.974-0.731-2.445,0.243-3.285
	c0.977-0.841,2.446-0.729,3.285,0.243c8.327,9.659,20.41,15.198,33.152,15.198c24.134,0,43.768-19.631,43.768-43.762
	c0-24.132-19.634-43.765-43.768-43.765c-12.075,0-23.73,5.062-31.978,13.889c-0.877,0.943-2.352,0.99-3.292,0.111
	c-0.94-0.878-0.99-2.352-0.111-3.292c9.124-9.767,22.02-15.368,35.381-15.368C84.836,4.895,106.561,26.618,106.561,53.319z"/>
</svg>
