<?xml version="1.0" encoding="utf-8"?>
<!-- Generator: Adobe Illustrator 15.0.2, SVG Export Plug-In . SVG Version: 6.00 Build 0)  -->
<!DOCTYPE svg PUBLIC "-//W3C//DTD SVG 1.0//EN" "http://www.w3.org/TR/2001/REC-SVG-20010904/DTD/svg10.dtd">
<svg version="1.0" id="Layer_1" xmlns="http://www.w3.org/2000/svg" xmlns:xlink="http://www.w3.org/1999/xlink" x="0px" y="0px"
	 width="108px" height="108px" viewBox="0 0 108 108" enable-background="new 0 0 108 108" xml:space="preserve">
<path d="M31.34,9.95c-6.642,0-10.162,3.636-11.791,7.874l-8.601,22.268C7.517,40.523,1.44,44.553,1.44,52.158V80.51h8.402v9.044
	c0,11.152,15.794,11.019,15.794,0V80.51h28.385h28.376v9.044c0,11.019,15.77,11.152,15.77,0V80.51h8.394V52.158
	c0-7.605-6.05-11.635-9.466-12.066l-8.638-22.268c-1.632-4.238-5.154-7.874-11.801-7.874H64.461H43.678H31.34z M31.27,18.075h22.712
	h0.039h22.746c2.842,0.021,4.07,1.818,4.87,4.281l6.509,17.526H54.021h-0.039H19.864l6.499-17.526
	C27.173,19.893,28.422,18.096,31.27,18.075z M17.998,48.382c4.027,0,7.293,3.388,7.293,7.547c0,4.144-3.267,7.501-7.293,7.501
	c-4.027,0-7.296-3.357-7.296-7.501C10.701,51.77,13.97,48.382,17.998,48.382z M90.033,48.382c4.03,0,7.3,3.388,7.3,7.547
	c0,4.144-3.27,7.501-7.3,7.501c-4.015,0-7.287-3.357-7.287-7.501C82.746,51.77,86.019,48.382,90.033,48.382z"/>
</svg>
