<?xml version="1.0" encoding="utf-8"?>
<!-- Generator: Adobe Illustrator 15.0.2, SVG Export Plug-In . SVG Version: 6.00 Build 0)  -->
<!DOCTYPE svg PUBLIC "-//W3C//DTD SVG 1.0//EN" "http://www.w3.org/TR/2001/REC-SVG-20010904/DTD/svg10.dtd">
<svg version="1.0" id="Layer_1" xmlns="http://www.w3.org/2000/svg" xmlns:xlink="http://www.w3.org/1999/xlink" x="0px" y="0px"
	 width="108px" height="108px" viewBox="0 0 108 108" enable-background="new 0 0 108 108" xml:space="preserve">
<path d="M105.477,51.154H89.332c-0.013,0-0.025,0.007-0.038,0.007c-1.092-18.613-16.543-33.435-35.43-33.435
	c-18.88,0-34.324,14.817-35.421,33.428H2.523c-0.601,0-1.083,0.484-1.083,1.083c0,0.599,0.482,1.083,1.083,1.083h15.82
	c0.035,19.557,15.956,35.459,35.521,35.459c19.57,0,35.495-15.902,35.531-35.459h16.081c0.597,0,1.083-0.484,1.083-1.083
	C106.56,51.638,106.073,51.154,105.477,51.154z M53.864,86.613c-18.396,0-33.36-14.966-33.36-33.361s14.965-33.36,33.36-33.36
	c18.4,0,33.369,14.966,33.369,33.36S72.265,86.613,53.864,86.613z M44.319,34.121c-0.526,0.309-0.998,0.54-1.417,0.694v-1.299
	c0.753-0.354,1.409-0.783,1.972-1.286c0.563-0.501,0.963-0.99,1.197-1.464h0.865v10.996h-1.343v-8.567
	C45.268,33.503,44.845,33.812,44.319,34.121z M57.448,41.761h-7.239c-0.011-0.323,0.042-0.634,0.156-0.933
	c0.185-0.493,0.479-0.979,0.885-1.458s0.994-1.03,1.76-1.659c1.189-0.975,1.995-1.75,2.412-2.318
	c0.419-0.571,0.628-1.111,0.628-1.618c0-0.533-0.19-0.982-0.571-1.348c-0.381-0.366-0.878-0.55-1.491-0.55
	c-0.647,0-1.163,0.195-1.553,0.584s-0.584,0.927-0.59,1.614l-1.382-0.142c0.093-1.033,0.451-1.817,1.068-2.359
	c0.618-0.54,1.445-0.81,2.485-0.81c1.054,0,1.883,0.292,2.496,0.874c0.614,0.584,0.919,1.305,0.919,2.166
	c0,0.44-0.089,0.87-0.267,1.292c-0.183,0.423-0.479,0.87-0.894,1.337c-0.416,0.47-1.108,1.111-2.072,1.927
	c-0.809,0.679-1.324,1.138-1.556,1.379c-0.23,0.241-0.416,0.484-0.568,0.728h5.373V41.761z M62.457,41.948
	c0.805,0,1.467-0.216,1.993-0.646c0.524-0.432,0.918-1.041,1.183-1.83s0.396-1.828,0.396-3.112c0-1.085-0.08-1.948-0.245-2.587
	c-0.165-0.641-0.392-1.183-0.682-1.629c-0.287-0.446-0.653-0.787-1.096-1.024c-0.444-0.237-0.96-0.355-1.549-0.355
	c-0.795,0-1.455,0.215-1.981,0.643c-0.527,0.429-0.921,1.036-1.187,1.825c-0.267,0.789-0.402,1.832-0.402,3.127
	c0,2.056,0.364,3.541,1.083,4.453C60.575,41.569,61.404,41.948,62.457,41.948z M60.964,32.663c0.368-0.522,0.863-0.785,1.48-0.785
	c0.627,0,1.151,0.298,1.57,0.891c0.423,0.592,0.632,1.79,0.632,3.592c0,1.794-0.209,2.987-0.632,3.585
	c-0.419,0.597-0.939,0.897-1.558,0.897c-0.617,0-1.136-0.298-1.557-0.893c-0.419-0.597-0.63-1.792-0.63-3.59
	C60.271,34.563,60.503,33.332,60.964,32.663z M47.774,48.383l-4.783,23.024h-4.37l-4.785-23.024h4.349l2.677,15.525l2.678-15.525
	H47.774z M51.595,48.383l-4.796,23.024H51l0.819-4.701h4.011l0.818,4.701h4.313l-4.796-23.024H51.595z M52.515,62.609l1.31-7.359
	l1.312,7.359H52.515z M72.776,49.148c0.408,0.273,0.736,0.508,0.981,0.705v5.473h-0.427c-0.148-0.205-0.368-0.508-0.656-0.903
	c-0.285-0.398-0.566-0.741-0.844-1.028c-0.315-0.319-0.673-0.599-1.077-0.835c-0.401-0.237-0.816-0.355-1.243-0.355
	c-0.508,0-0.978,0.129-1.411,0.387c-0.434,0.256-0.849,0.715-1.244,1.375c-0.357,0.609-0.649,1.407-0.874,2.397
	c-0.224,0.99-0.336,2.181-0.336,3.571c0,1.402,0.118,2.604,0.354,3.604c0.236,0.999,0.543,1.802,0.924,2.412
	c0.366,0.588,0.783,1.007,1.251,1.261c0.465,0.252,0.918,0.379,1.359,0.379c0.434,0,0.853-0.112,1.261-0.334
	c0.409-0.22,0.785-0.522,1.137-0.903c0.309-0.319,0.579-0.645,0.818-0.975s0.448-0.628,0.628-0.897h0.381v5.396
	c-0.254,0.176-0.577,0.4-0.969,0.673c-0.394,0.275-0.762,0.489-1.104,0.643c-0.469,0.216-0.913,0.381-1.328,0.495
	c-0.415,0.112-0.978,0.169-1.686,0.169c-2.285,0-4.081-1.056-5.389-3.169c-1.307-2.113-1.963-5.037-1.963-8.769
	c0-3.7,0.669-6.623,2.008-8.766c1.337-2.145,3.12-3.218,5.354-3.218c0.605,0,1.153,0.055,1.642,0.163
	c0.491,0.108,0.936,0.25,1.342,0.425C71.998,48.666,72.37,48.875,72.776,49.148z"/>
</svg>
