<?xml version="1.0" encoding="utf-8"?>
<!-- Generator: Adobe Illustrator 15.0.2, SVG Export Plug-In . SVG Version: 6.00 Build 0)  -->
<!DOCTYPE svg PUBLIC "-//W3C//DTD SVG 1.0//EN" "http://www.w3.org/TR/2001/REC-SVG-20010904/DTD/svg10.dtd">
<svg version="1.0" id="Layer_1" xmlns="http://www.w3.org/2000/svg" xmlns:xlink="http://www.w3.org/1999/xlink" x="0px" y="0px"
	 width="108px" height="108px" viewBox="0 0 108 108" enable-background="new 0 0 108 108" xml:space="preserve">
<path d="M18.306,47.629c-9.299,0-16.866,7.505-16.866,16.73c0,9.219,7.567,16.72,16.866,16.72c9.299,0,16.864-7.5,16.864-16.72
	C35.17,55.135,27.605,47.629,18.306,47.629z M18.306,75.894c-6.44,0-11.681-5.175-11.681-11.534c0-6.366,5.241-11.545,11.681-11.545
	c6.441,0,11.679,5.179,11.679,11.545C29.985,70.719,24.747,75.894,18.306,75.894z M89.693,47.629c-5.785,0-10.898,2.909-13.937,7.33
	L19.39,29.035c-1.309-0.599-2.843-0.026-3.438,1.272c-0.6,1.302-0.03,2.841,1.271,3.439l56.304,25.895
	c-0.446,1.498-0.694,3.079-0.694,4.718c0,9.219,7.565,16.72,16.861,16.72c9.298,0,16.868-7.5,16.868-16.72
	C106.562,55.135,98.991,47.629,89.693,47.629z M89.693,75.894c-6.438,0-11.676-5.175-11.676-11.534
	c0-6.366,5.237-11.545,11.676-11.545c6.442,0,11.683,5.179,11.683,11.545C101.376,70.719,96.136,75.894,89.693,75.894z"/>
</svg>
