<?xml version="1.0" encoding="utf-8"?>
<!-- Generator: Adobe Illustrator 15.0.2, SVG Export Plug-In . SVG Version: 6.00 Build 0)  -->
<!DOCTYPE svg PUBLIC "-//W3C//DTD SVG 1.0//EN" "http://www.w3.org/TR/2001/REC-SVG-20010904/DTD/svg10.dtd">
<svg version="1.0" id="Layer_1" xmlns="http://www.w3.org/2000/svg" xmlns:xlink="http://www.w3.org/1999/xlink" x="0px" y="0px"
	 width="108px" height="108px" viewBox="0 0 108 108" enable-background="new 0 0 108 108" xml:space="preserve">
<path d="M38.636,29.818c-0.492-1.461-1.276-3.04-2.333-4.739c-0.563-0.908-1.597-2.397-3.106-4.488
	c-1.348-1.881-2.361-3.375-3.005-4.493c-0.971-1.679-1.677-3.271-2.068-4.757c-1.514,3.201-3.31,6.395-5.424,9.563
	c-0.265,0.457-0.93,1.361-1.944,2.773c-0.826,1.159-1.47,2.109-1.907,2.871c-1.346,2.279-2.047,4.54-2.068,6.775
	c-0.064,3.188,0.848,5.897,2.69,8.117c1.819,2.207,4.305,3.625,7.408,4.178h2.324c1.667-0.249,3.233-0.831,4.676-1.779
	c1.446-0.951,2.628-2.135,3.558-3.583c0.956-1.487,1.559-3.102,1.782-4.865C39.466,33.545,39.266,31.684,38.636,29.818z
	 M35.247,26.145c0.851,1.382,1.507,2.638,1.922,3.801c1.139,3.063,0.995,6.046-0.415,8.925c-0.328,0.636-0.699,1.241-1.138,1.756
	c-0.098,0.125-0.205,0.251-0.305,0.377c-1.146,1.261-2.633,2.148-4.451,2.712c-2.856,0.884-5.531,0.574-8.017-0.938
	c-1.653-0.987-2.915-2.476-3.829-4.447c-1.017-2.212-1.26-4.511-0.766-6.893c0.293-1.366,0.932-2.876,1.944-4.557
	c1.2-1.863,2.091-3.219,2.65-4.073c1.182-1.843,2.051-3.25,2.605-4.188c0.915-1.484,1.698-2.938,2.383-4.321
	c-0.022-0.059,0.046-0.131,0.148-0.146c0.062,0.146,0.849,1.509,2.358,4.126c1.016,1.817,1.879,3.283,2.622,4.38
	C34.438,24.897,35.201,26.061,35.247,26.145z M28.805,41.752c-0.332-0.464-0.271-1.125,0.148-1.994
	c0.407-0.887,1.071-1.72,2.003-2.504c0.893-0.771,1.784-1.287,2.676-1.512c0.869-0.238,1.487-0.121,1.8,0.331
	c0.328,0.438,0.287,1.097-0.148,1.989c-0.438,0.869-1.098,1.697-1.989,2.466c-0.923,0.805-1.82,1.297-2.69,1.533
	C29.735,42.306,29.12,42.204,28.805,41.752 M79.723,76.718c-8.502,0-16.955-2.454-25.301-7.365
	C37.285,59.187,20.475,59.128,4.455,69.165c-0.92,0.574-2.137,0.299-2.714-0.622c-0.577-0.922-0.297-2.137,0.623-2.715
	c17.375-10.883,35.563-10.837,54.064,0.135c15.674,9.222,31.104,9.164,47.175-0.168c0.948-0.544,2.147-0.227,2.691,0.713
	c0.546,0.94,0.229,2.145-0.713,2.69C96.953,74.212,88.313,76.718,79.723,76.718z M79.79,98c-8.579,0-17.138-2.489-25.614-7.464
	C37.189,80.492,20.458,80.474,4.452,90.475c-0.92,0.575-2.134,0.294-2.713-0.627c-0.576-0.923-0.295-2.137,0.626-2.713
	c17.358-10.84,35.46-10.839,53.81,0.009c15.869,9.315,31.379,9.302,47.427-0.04c0.94-0.548,2.146-0.228,2.691,0.71
	c0.546,0.939,0.229,2.145-0.713,2.691C97.004,95.501,88.384,98,79.79,98z M87.977,46.082c-0.497-1.466-1.284-3.042-2.34-4.745
	c-0.562-0.905-1.592-2.399-3.104-4.485c-1.349-1.881-2.358-3.375-3.007-4.488c-0.966-1.676-1.668-3.271-2.063-4.768
	c-1.512,3.212-3.312,6.403-5.423,9.566c-0.272,0.454-0.931,1.366-1.948,2.776c-0.825,1.159-1.472,2.104-1.907,2.874
	c-1.343,2.278-2.045,4.539-2.061,6.774c-0.069,3.188,0.841,5.893,2.681,8.115c1.825,2.22,4.312,3.619,7.413,4.178h2.322
	c1.671-0.246,3.225-0.833,4.678-1.773c1.453-0.956,2.627-2.14,3.561-3.581c0.95-1.497,1.551-3.114,1.778-4.868
	C88.802,49.816,88.602,47.94,87.977,46.082z M84.578,42.398c0.854,1.386,1.512,2.653,1.93,3.809
	c1.138,3.063,0.992,6.052-0.418,8.922c-0.328,0.641-0.699,1.249-1.138,1.758c-0.103,0.125-0.205,0.251-0.308,0.372
	c-1.141,1.261-2.63,2.159-4.455,2.719c-2.853,0.888-5.526,0.577-8.013-0.94c-1.647-0.989-2.911-2.476-3.824-4.442
	c-1.015-2.217-1.261-4.514-0.769-6.905c0.292-1.361,0.933-2.869,1.95-4.552c1.197-1.864,2.089-3.225,2.643-4.073
	c1.182-1.843,2.056-3.25,2.609-4.175c0.913-1.497,1.699-2.945,2.379-4.337c-0.013-0.059,0.049-0.12,0.153-0.148
	c0.057,0.148,0.847,1.52,2.356,4.134c1.02,1.815,1.884,3.283,2.627,4.38C83.772,41.163,84.539,42.319,84.578,42.398z M78.145,58.008
	c-0.334-0.458-0.272-1.12,0.144-1.992c0.41-0.887,1.076-1.72,2.004-2.501c0.892-0.767,1.784-1.279,2.676-1.51
	c0.866-0.251,1.497-0.123,1.8,0.331c0.328,0.438,0.282,1.1-0.148,1.984c-0.431,0.879-1.098,1.697-1.984,2.471
	c-0.928,0.807-1.825,1.307-2.696,1.525C79.072,58.566,78.457,58.462,78.145,58.008"/>
</svg>
