<?xml version="1.0" encoding="utf-8"?>
<!-- Generator: Adobe Illustrator 15.0.2, SVG Export Plug-In . SVG Version: 6.00 Build 0)  -->
<!DOCTYPE svg PUBLIC "-//W3C//DTD SVG 1.0//EN" "http://www.w3.org/TR/2001/REC-SVG-20010904/DTD/svg10.dtd">
<svg version="1.0" id="Layer_1" xmlns="http://www.w3.org/2000/svg" xmlns:xlink="http://www.w3.org/1999/xlink" x="0px" y="0px"
	 width="108px" height="108px" viewBox="0 0 108 108" enable-background="new 0 0 108 108" xml:space="preserve">
<path d="M105.23,52.745H89.39c-1.21-18.546-16.675-33.267-35.522-33.267c-18.848,0-34.314,14.721-35.524,33.267H2.769
	c-0.735,0-1.329,0.595-1.329,1.329s0.594,1.329,1.329,1.329h15.497c0.173,19.489,16.073,35.293,35.601,35.293
	c19.526,0,35.427-15.804,35.6-35.293h15.764c0.735,0,1.329-0.595,1.329-1.329S105.966,52.745,105.23,52.745z M53.867,88.039
	c-18.17,0-32.951-14.784-32.951-32.956c0-18.167,14.781-32.947,32.951-32.947c18.167,0,32.95,14.78,32.95,32.947
	C86.817,73.255,72.034,88.039,53.867,88.039z M38.724,43.845c0.797,0,1.459-0.215,1.98-0.644s0.916-1.036,1.179-1.822
	c0.262-0.784,0.392-1.817,0.392-3.097c0-1.08-0.08-1.939-0.244-2.575c-0.163-0.638-0.39-1.178-0.675-1.622
	c-0.291-0.444-0.654-0.781-1.096-1.018c-0.44-0.236-0.952-0.353-1.536-0.353c-0.794,0-1.454,0.213-1.976,0.639
	s-0.916,1.033-1.181,1.819c-0.265,0.784-0.4,1.822-0.4,3.11c0,2.048,0.361,3.525,1.08,4.431
	C36.847,43.469,37.67,43.845,38.724,43.845z M37.233,34.602c0.369-0.519,0.859-0.779,1.475-0.779c0.623,0,1.147,0.293,1.563,0.885
	c0.421,0.589,0.628,1.781,0.628,3.574c0,1.786-0.207,2.975-0.628,3.569c-0.415,0.595-0.935,0.893-1.547,0.893
	c-0.615,0-1.132-0.296-1.553-0.89c-0.418-0.592-0.628-1.781-0.628-3.572C36.543,36.494,36.774,35.267,37.233,34.602z M47.601,38.485
	h-4.111v-1.347h4.111V38.485z M53.844,42.015c0.446-0.485,0.67-1.129,0.67-1.934c0-0.763-0.216-1.365-0.645-1.807
	c-0.428-0.441-0.988-0.662-1.685-0.662c-0.431,0-0.82,0.099-1.168,0.296c-0.345,0.195-0.617,0.449-0.814,0.761l-1.257-0.164
	l1.054-5.599h5.42v1.28h-4.348l-0.589,2.931c0.653-0.457,1.342-0.685,2.061-0.685c0.95,0,1.755,0.33,2.409,0.989
	s0.98,1.505,0.98,2.541c0,0.986-0.288,1.84-0.861,2.56c-0.701,0.882-1.653,1.324-2.863,1.324c-0.991,0-1.799-0.278-2.427-0.833
	c-0.628-0.556-0.986-1.293-1.074-2.209l1.406-0.12c0.104,0.686,0.343,1.199,0.722,1.544c0.379,0.343,0.839,0.517,1.373,0.517
	C52.852,42.745,53.399,42.5,53.844,42.015z M62.711,43.202c0.521-0.428,0.916-1.036,1.178-1.822
	c0.263-0.784,0.393-1.817,0.393-3.097c0-1.08-0.081-1.939-0.244-2.575c-0.164-0.638-0.39-1.178-0.675-1.622
	c-0.291-0.444-0.654-0.781-1.096-1.018s-0.952-0.353-1.536-0.353c-0.795,0-1.454,0.213-1.976,0.639
	c-0.522,0.426-0.917,1.033-1.182,1.819c-0.265,0.784-0.399,1.822-0.399,3.11c0,2.048,0.36,3.525,1.08,4.431
	c0.6,0.755,1.422,1.132,2.477,1.132C61.527,43.845,62.188,43.63,62.711,43.202z M59.178,41.854
	c-0.418-0.592-0.628-1.781-0.628-3.572c0-1.789,0.23-3.016,0.69-3.681c0.368-0.519,0.859-0.779,1.475-0.779
	c0.622,0,1.146,0.293,1.563,0.885c0.42,0.589,0.628,1.781,0.628,3.574c0,1.786-0.208,2.975-0.628,3.569
	c-0.416,0.595-0.935,0.893-1.547,0.893C60.115,42.745,59.599,42.449,59.178,41.854z M69.197,43.845c0.8,0,1.459-0.215,1.983-0.644
	c0.521-0.428,0.913-1.036,1.178-1.822c0.26-0.784,0.393-1.817,0.393-3.097c0-1.08-0.081-1.939-0.247-2.575
	c-0.161-0.638-0.389-1.178-0.675-1.622c-0.288-0.444-0.651-0.781-1.093-1.018s-0.952-0.353-1.539-0.353
	c-0.794,0-1.451,0.213-1.973,0.639c-0.524,0.426-0.919,1.033-1.184,1.819c-0.265,0.784-0.397,1.822-0.397,3.11
	c0,2.048,0.361,3.525,1.077,4.431C67.323,43.469,68.146,43.845,69.197,43.845z M67.71,34.602c0.366-0.519,0.859-0.779,1.472-0.779
	c0.626,0,1.147,0.293,1.565,0.885c0.418,0.589,0.628,1.781,0.628,3.574c0,1.786-0.21,2.975-0.628,3.569
	c-0.418,0.595-0.935,0.893-1.55,0.893c-0.612,0-1.132-0.296-1.55-0.89c-0.418-0.592-0.628-1.781-0.628-3.572
	C67.02,36.494,67.25,35.267,67.71,34.602z M38.212,50.241h4.216l-4.764,22.915h-4.348l-4.762-22.915h4.326l2.665,15.449
	L38.212,50.241z M49.989,49.764c-2.329,0-4.13,1.069-5.404,3.208c-1.274,2.139-1.913,5.051-1.913,8.735
	c0,3.683,0.639,6.59,1.913,8.727c1.274,2.134,3.075,3.2,5.404,3.2c2.325,0,4.127-1.066,5.409-3.2
	c1.277-2.137,1.916-5.044,1.916-8.727c0-3.684-0.639-6.596-1.916-8.735C54.116,50.833,52.314,49.764,49.989,49.764z M52.219,67.445
	c-0.527,1.345-1.27,2.018-2.22,2.018c-0.96,0-1.702-0.673-2.232-2.018c-0.526-1.342-0.789-3.258-0.789-5.739
	c0-2.474,0.263-4.387,0.789-5.742c0.53-1.353,1.272-2.03,2.232-2.03c0.95,0,1.692,0.677,2.22,2.03
	c0.526,1.355,0.792,3.263,0.792,5.726C53.011,64.183,52.745,66.104,52.219,67.445z M63.305,68.848h5.742v4.309h-9.916V50.241h4.174
	V68.848z M67.027,50.241H79.45v4.309h-4.124v18.606h-4.172V54.55h-4.127V50.241z"/>
</svg>
