<?xml version="1.0" encoding="utf-8"?>
<!-- Generator: Adobe Illustrator 15.0.2, SVG Export Plug-In . SVG Version: 6.00 Build 0)  -->
<!DOCTYPE svg PUBLIC "-//W3C//DTD SVG 1.0//EN" "http://www.w3.org/TR/2001/REC-SVG-20010904/DTD/svg10.dtd">
<svg version="1.0" id="Layer_1" xmlns="http://www.w3.org/2000/svg" xmlns:xlink="http://www.w3.org/1999/xlink" x="0px" y="0px"
	 width="108px" height="108px" viewBox="0 0 108 108" enable-background="new 0 0 108 108" xml:space="preserve">
<path d="M31.629,79.928H16.462l-0.021,7.509L1.44,72.423l15.001-15.01v7.501h15.188c14.842,0,22.343-37.534,44.866-37.501
	l15.014-0.033v-7.503l15.011,15.01L91.509,49.904v-7.508H76.495C61.481,42.396,53.972,79.928,31.629,79.928z M16.441,42.396h15.188
	c5.373,0,9.432,5.056,11.931,8.073l7.964-11.318c-3.16-3.947-10.538-11.771-19.895-11.771H16.441v-7.503L1.44,34.887l15.001,15.017
	V42.396z M106.561,72.423l-15.052-15.01v7.501H76.495c-5.233,0-9.104-4.217-12.005-7.834l-7.998,11.163
	c3.442,3.959,9.67,11.685,20.003,11.685h15.014v7.509L106.561,72.423z"/>
</svg>
