<?xml version="1.0" encoding="utf-8"?>
<!-- Generator: Adobe Illustrator 15.0.2, SVG Export Plug-In . SVG Version: 6.00 Build 0)  -->
<!DOCTYPE svg PUBLIC "-//W3C//DTD SVG 1.0//EN" "http://www.w3.org/TR/2001/REC-SVG-20010904/DTD/svg10.dtd">
<svg version="1.0" id="Layer_1" xmlns="http://www.w3.org/2000/svg" xmlns:xlink="http://www.w3.org/1999/xlink" x="0px" y="0px"
	 width="108px" height="108px" viewBox="0 0 108 108" enable-background="new 0 0 108 108" xml:space="preserve">
<path d="M85.567,58.121c-1.518-4.506-3.938-9.331-7.171-14.532c-1.713-2.799-4.887-7.361-9.521-13.773
	c-4.13-5.776-7.237-10.348-9.208-13.781c-2.982-5.134-5.14-10.026-6.349-14.596c-4.631,9.84-10.151,19.613-16.628,29.333
	c-0.82,1.396-2.857,4.186-5.965,8.505c-2.539,3.55-4.504,6.468-5.844,8.82c-4.122,6.977-6.285,13.9-6.342,20.76
	c-0.193,9.763,2.603,18.085,8.253,24.883c5.578,6.788,13.2,11.104,22.717,12.819h7.11c5.14-0.767,9.901-2.54,14.351-5.459
	c4.439-2.924,8.056-6.54,10.916-10.979c2.918-4.569,4.761-9.52,5.459-14.92C88.105,69.559,87.469,63.838,85.567,58.121z
	 M75.152,46.83c2.607,4.247,4.642,8.122,5.909,11.68c3.494,9.39,3.052,18.537-1.268,27.354c-1.015,1.971-2.162,3.811-3.493,5.396
	c-0.314,0.384-0.634,0.764-0.948,1.145c-3.494,3.87-8.061,6.602-13.653,8.312c-8.758,2.729-16.944,1.784-24.565-2.853
	c-5.075-3.046-8.946-7.621-11.742-13.645c-3.109-6.799-3.871-13.837-2.345-21.144c0.882-4.189,2.861-8.822,5.964-13.965
	c3.684-5.709,6.413-9.893,8.123-12.5c3.622-5.65,6.282-9.967,8.002-12.822c2.794-4.572,5.206-9.014,7.3-13.27
	c-0.064-0.187,0.127-0.378,0.438-0.439c0.2,0.439,2.603,4.628,7.241,12.63c3.11,5.587,5.773,10.09,8.063,13.453
	C72.687,43.022,75.033,46.569,75.152,46.83z M55.418,94.684c-1.018-1.394-0.82-3.425,0.447-6.091
	c1.268-2.729,3.297-5.265,6.151-7.683c2.729-2.354,5.459-3.931,8.191-4.628c2.665-0.767,4.572-0.389,5.528,1.018
	c1.012,1.32,0.884,3.354-0.445,6.087c-1.345,2.671-3.368,5.206-6.101,7.558c-2.854,2.474-5.582,4-8.25,4.692
	C58.275,96.4,56.368,96.089,55.418,94.684"/>
</svg>
