<?xml version="1.0" encoding="utf-8"?>
<!-- Generator: Adobe Illustrator 15.0.2, SVG Export Plug-In . SVG Version: 6.00 Build 0)  -->
<!DOCTYPE svg PUBLIC "-//W3C//DTD SVG 1.0//EN" "http://www.w3.org/TR/2001/REC-SVG-20010904/DTD/svg10.dtd">
<svg version="1.0" id="Layer_1" xmlns="http://www.w3.org/2000/svg" xmlns:xlink="http://www.w3.org/1999/xlink" x="0px" y="0px"
	 width="108px" height="108px" viewBox="0 0 108 108" enable-background="new 0 0 108 108" xml:space="preserve">
<path d="M53.995,1.44C25.015,1.44,1.44,25.019,1.44,53.999c0,28.981,23.575,52.56,52.555,52.56c28.985,0,52.564-23.578,52.564-52.56
	C106.56,25.019,82.98,1.44,53.995,1.44z M53.995,103.497c-27.291,0-49.494-22.205-49.494-49.498S26.705,4.501,53.995,4.501
	c27.296,0,49.503,22.205,49.503,49.498S81.291,103.497,53.995,103.497z M52.959,27.303V13.625c0-0.846,0.685-1.531,1.53-1.531
	c0.847,0,1.531,0.685,1.531,1.531v13.678c0,0.846-0.685,1.53-1.531,1.53C53.644,28.833,52.959,28.148,52.959,27.303z M56.021,81.668
	v13.679c0,0.847-0.685,1.531-1.531,1.531c-0.846,0-1.53-0.685-1.53-1.531V81.668c0-0.847,0.685-1.531,1.53-1.531
	C55.336,80.137,56.021,80.821,56.021,81.668z M96.876,54.488c0,0.846-0.685,1.53-1.53,1.53H81.661c-0.846,0-1.53-0.685-1.53-1.53
	c0-0.847,0.685-1.531,1.53-1.531h13.685C96.191,52.957,96.876,53.642,96.876,54.488z M27.303,56.019H13.629
	c-0.846,0-1.531-0.685-1.531-1.53c0-0.847,0.685-1.531,1.531-1.531h13.674c0.846,0,1.53,0.685,1.53,1.531
	C28.833,55.334,28.148,56.019,27.303,56.019z M74.567,34.411c-0.599-0.598-0.599-1.567,0-2.165l7.731-7.736
	c0.598-0.598,1.566-0.598,2.164,0c0.598,0.596,0.598,1.566,0,2.165l-7.731,7.736c-0.299,0.299-0.69,0.448-1.082,0.448
	S74.866,34.709,74.567,34.411z M34.4,74.561c0.598,0.597,0.598,1.567,0,2.165l-7.723,7.727c-0.299,0.299-0.691,0.449-1.083,0.449
	s-0.783-0.15-1.082-0.449c-0.598-0.596-0.598-1.566,0-2.164l7.722-7.728C32.833,73.963,33.802,73.963,34.4,74.561z M84.463,82.288
	c0.598,0.598,0.598,1.566,0,2.164c-0.299,0.299-0.69,0.449-1.082,0.449s-0.783-0.15-1.082-0.449l-7.731-7.727
	c-0.599-0.597-0.599-1.566,0-2.165c0.598-0.598,1.566-0.598,2.164,0L84.463,82.288z M34.401,32.248
	c0.597,0.598,0.597,1.566-0.003,2.165c-0.297,0.297-0.689,0.447-1.081,0.447s-0.784-0.149-1.083-0.45l-7.723-7.736
	c-0.597-0.598-0.597-1.567,0.003-2.165c0.595-0.595,1.566-0.598,2.165,0.003L34.401,32.248z M74.109,56.989H53.995
	c-0.194,0-0.392-0.038-0.582-0.115c-0.001,0-0.003-0.003-0.004-0.003c-0.188-0.078-0.357-0.191-0.5-0.334
	c-0.039-0.038-0.055-0.091-0.09-0.133c-0.089-0.112-0.181-0.221-0.235-0.355c-0.078-0.183-0.117-0.382-0.118-0.583
	c0-0.003-0.002-0.005-0.002-0.008c0-0.119,0.042-0.226,0.069-0.338c0.018-0.082,0.013-0.164,0.046-0.243l0.005-0.011
	c0-0.002,0.001-0.005,0.003-0.008l15.281-37.174c0.323-0.783,1.222-1.149,1.997-0.834c0.782,0.321,1.156,1.215,0.835,1.997
	l-14.421,35.08h17.83c0.847,0,1.531,0.685,1.531,1.53C75.641,56.305,74.956,56.989,74.109,56.989z"/>
</svg>
