<?xml version="1.0" encoding="utf-8"?>
<!-- Generator: Adobe Illustrator 15.0.2, SVG Export Plug-In . SVG Version: 6.00 Build 0)  -->
<!DOCTYPE svg PUBLIC "-//W3C//DTD SVG 1.0//EN" "http://www.w3.org/TR/2001/REC-SVG-20010904/DTD/svg10.dtd">
<svg version="1.0" id="Layer_1" xmlns="http://www.w3.org/2000/svg" xmlns:xlink="http://www.w3.org/1999/xlink" x="0px" y="0px"
	 width="108px" height="108px" viewBox="0 0 108 108" enable-background="new 0 0 108 108" xml:space="preserve">
<path d="M90.389,37.656c0-0.001,0-0.001,0-0.001c-0.003-9.941-4.024-18.955-10.522-25.506c-0.018-0.021-0.025-0.05-0.046-0.071
	c-0.016-0.015-0.036-0.019-0.052-0.035C73.223,5.495,64.194,1.44,54.236,1.44c-19.932,0-36.146,16.244-36.15,36.214c0,0,0,0,0,0.001
	v0.001c0,0.001,0,0.003,0,0.004c0,14.903,9.036,27.722,21.904,33.275l0.093,12.885c0,0.161,0.056,0.305,0.095,0.454
	c0.025,0.1,0.022,0.209,0.062,0.302c0.074,0.176,0.194,0.32,0.315,0.466c0.041,0.05,0.062,0.112,0.107,0.157
	c0.144,0.145,0.323,0.249,0.508,0.343c0.041,0.021,0.071,0.06,0.117,0.078c0.233,0.1,0.492,0.154,0.764,0.154
	c0.006,0,0.011,0,0.016,0h5.029v18.817c0,1.086,0.882,1.968,1.969,1.968H59.64c1.087,0,1.969-0.882,1.969-1.968V85.774h4.85
	c1.087,0,1.969-0.881,1.969-1.968V70.962c12.898-5.536,21.962-18.376,21.962-33.301C90.389,37.66,90.389,37.658,90.389,37.656
	L90.389,37.656z M71.934,39.624h14.418c-0.446,7.404-3.381,14.13-7.995,19.361l-5.862-5.854c-0.771-0.769-2.017-0.765-2.783,0.001
	c-0.77,0.771-0.77,2.017,0,2.785l5.864,5.859c-2.853,2.539-6.151,4.573-9.773,5.976c-0.057,0.021-0.115,0.037-0.169,0.063
	c-2.963,1.128-6.126,1.823-9.428,2.024V55.35c0-1.087-0.882-1.969-1.969-1.969c-1.086,0-1.968,0.882-1.968,1.969v14.489
	c-7.408-0.452-14.137-3.41-19.363-8.056l5.447-5.447c0.769-0.769,0.769-2.015,0-2.783s-2.015-0.769-2.784,0l-5.442,5.441
	c-4.618-5.233-7.555-11.962-8.004-19.37h14.429c1.087,0,1.969-0.882,1.969-1.968c0-1.087-0.882-1.969-1.969-1.969H22.124
	c0.45-7.404,3.386-14.128,8-19.36l5.036,5.03c0.384,0.383,0.889,0.575,1.392,0.575c0.505,0,1.007-0.192,1.392-0.578
	c0.769-0.769,0.769-2.015,0-2.784L32.9,13.538c5.229-4.649,11.958-7.609,19.368-8.061v26.788c0,1.087,0.882,1.969,1.968,1.969
	c1.087,0,1.969-0.882,1.969-1.969V5.477c7.413,0.452,14.142,3.413,19.37,8.063l-5.203,5.205c-0.769,0.769-0.769,2.016,0,2.784
	c0.385,0.384,0.89,0.577,1.392,0.577c0.505,0,1.008-0.192,1.393-0.577l5.195-5.199c4.613,5.231,7.551,11.956,8,19.358H71.934
	c-1.087,0-1.969,0.882-1.969,1.969C69.965,38.742,70.847,39.624,71.934,39.624z M57.672,102.623h-6.64V85.774h6.64V102.623z
	 M64.489,81.838H44.004l-0.066-9.479c3.269,0.975,6.719,1.517,10.299,1.517c3.563,0,6.998-0.539,10.253-1.506V81.838z"/>
</svg>
