<?xml version="1.0" encoding="utf-8"?>
<!-- Generator: Adobe Illustrator 15.0.2, SVG Export Plug-In . SVG Version: 6.00 Build 0)  -->
<!DOCTYPE svg PUBLIC "-//W3C//DTD SVG 1.0//EN" "http://www.w3.org/TR/2001/REC-SVG-20010904/DTD/svg10.dtd">
<svg version="1.0" id="Layer_1" xmlns="http://www.w3.org/2000/svg" xmlns:xlink="http://www.w3.org/1999/xlink" x="0px" y="0px"
	 width="108px" height="108px" viewBox="0 0 108 108" enable-background="new 0 0 108 108" xml:space="preserve">
<path d="M106.561,53.827c0,8.499-2.563,15.654-7.423,21.593l-9.717-7.829c3.374-3.774,4.994-7.962,4.994-12.55
	c0-6.071-2.292-11.066-6.88-14.977c-4.588-4.051-9.987-6.072-16.331-6.072h-30.36v15.654L12.646,27.244L40.844,5.382v17.275h35.49
	c8.094,0.676,15.112,3.781,20.778,9.308C103.321,38.043,106.561,45.328,106.561,53.827z M66.346,75.283H36.527
	c-6.479,0-12.013-1.891-16.596-5.939c-4.592-3.913-7.02-8.901-7.02-15.109c0-4.995,1.891-9.313,5.399-12.687L9,33.723
	c-4.993,5.665-7.56,12.413-7.56,20.104c0,9.445,3.239,17.274,9.583,23.346c5.53,5.125,11.873,8.232,19.163,8.904
	c0.812,0.135,1.886,0.27,2.832,0.27h33.329v15.924l26.183-20.109L66.346,59.898V75.283z"/>
</svg>
