<?xml version="1.0" encoding="utf-8"?>
<!-- Generator: Adobe Illustrator 15.0.2, SVG Export Plug-In . SVG Version: 6.00 Build 0)  -->
<!DOCTYPE svg PUBLIC "-//W3C//DTD SVG 1.0//EN" "http://www.w3.org/TR/2001/REC-SVG-20010904/DTD/svg10.dtd">
<svg version="1.0" id="Layer_1" xmlns="http://www.w3.org/2000/svg" xmlns:xlink="http://www.w3.org/1999/xlink" x="0px" y="0px"
	 width="108px" height="108px" viewBox="0 0 108 108" enable-background="new 0 0 108 108" xml:space="preserve">
<path d="M48.645,7.46v0.417v7.558v9.21v9.2v9.21v9.202v1.051v8.158v9.247v7.101c-1.465,0.739-2.802,1.71-3.983,2.887
	c-2.955,2.953-4.453,6.562-4.453,10.726c0,4.169,1.5,7.765,4.448,10.679c2.921,2.956,6.518,4.452,10.685,4.452
	c4.164,0,7.77-1.496,10.72-4.446c2.935-2.938,4.421-6.531,4.421-10.685c0-4.146-1.487-7.752-4.434-10.738
	c-1.365-1.331-2.839-2.361-4.387-3.072V53.31V7.575c0-0.02-0.011-0.037-0.011-0.057c0-0.02,0.011-0.038,0.011-0.057
	c0-0.03-0.017-0.055-0.017-0.083c-0.002-0.031,0.011-0.059,0.005-0.089c-0.209-1.596-0.84-2.881-1.909-3.913
	C57.249,0.89,53,0.702,50.536,3.375c-0.999,1.081-1.493,1.301-1.892,3.542 M57.882,5.273c0.646,0.62,0.989,1.341,1.124,2.323V53.31
	H54.78c0.328-0.242,0.554-0.613,0.554-1.051c0-0.734-0.594-1.328-1.328-1.328h-2.705v-1.946h4.964c0.734,0,1.329-0.594,1.329-1.329
	c0-0.734-0.595-1.328-1.329-1.328h-4.964v-1.943h2.705c0.734,0,1.328-0.594,1.328-1.328c0-0.734-0.594-1.329-1.328-1.329h-2.705
	V39.78h4.964c0.734,0,1.329-0.594,1.329-1.328c0-0.734-0.595-1.329-1.329-1.329h-4.964v-1.949h2.705
	c0.734,0,1.328-0.594,1.328-1.328c0-0.734-0.594-1.329-1.328-1.329h-2.705v-1.94h4.964c0.734,0,1.329-0.594,1.329-1.328
	c0-0.735-0.595-1.329-1.329-1.329h-4.964v-1.946h2.705c0.734,0,1.328-0.594,1.328-1.329c0-0.734-0.594-1.329-1.328-1.329h-2.705
	v-1.945h4.964c0.734,0,1.329-0.594,1.329-1.329c0-0.734-0.595-1.328-1.329-1.328h-4.964v-1.951h2.705
	c0.734,0,1.328-0.594,1.328-1.329c0-0.734-0.594-1.328-1.328-1.328h-2.705v-6.23l0.004-0.039c0.002-0.009,0.005-0.016,0.005-0.023
	c0.003-0.02,0.008-0.073,0.012-0.119l0.014-0.125c0.093-0.939,0.432-1.676,1.059-2.3C53.98,3.747,56.344,3.745,57.882,5.273z"/>
</svg>
