<?xml version="1.0" encoding="utf-8"?>
<!-- Generator: Adobe Illustrator 15.0.2, SVG Export Plug-In . SVG Version: 6.00 Build 0)  -->
<!DOCTYPE svg PUBLIC "-//W3C//DTD SVG 1.0//EN" "http://www.w3.org/TR/2001/REC-SVG-20010904/DTD/svg10.dtd">
<svg version="1.0" id="Layer_1" xmlns="http://www.w3.org/2000/svg" xmlns:xlink="http://www.w3.org/1999/xlink" x="0px" y="0px"
	 width="108px" height="108px" viewBox="0 0 108 108" enable-background="new 0 0 108 108" xml:space="preserve">
<path d="M97.451,23.594h-6.34v-4.897c0-1.729-1.402-3.129-3.135-3.129h-9.01c-1.732,0-3.132,1.399-3.132,3.129v4.897h-45.63v-4.897
	c0-1.729-1.402-3.129-3.138-3.129H18.06c-1.735,0-3.135,1.399-3.135,3.129v4.897h-4.379c-4.525,0-9.106,1.632-9.106,4.751V85.85
	c0,3.123,4.581,4.757,9.106,4.757h86.905c4.526,0,9.109-1.634,9.109-4.757V28.345C106.561,25.226,101.978,23.594,97.451,23.594z
	 M103.74,85.85c0,0.497-2.162,1.937-6.289,1.937H10.546c-4.125,0-6.286-1.439-6.286-1.937V28.345c0-0.496,2.161-1.931,6.286-1.931
	h86.905c4.127,0,6.289,1.435,6.289,1.931V85.85z M29.519,36.462v43c0,1.729-1.402,3.132-3.135,3.132h-9.563
	c-1.729,0-3.132-1.402-3.132-3.132v-43c0-1.724,1.402-3.126,3.132-3.126h9.563C28.117,33.336,29.519,34.738,29.519,36.462z
	 M51.27,36.462v43c0,1.729-1.404,3.132-3.132,3.132h-9.565c-1.725,0-3.129-1.402-3.129-3.132v-43c0-1.724,1.404-3.126,3.129-3.126
	h9.565C49.866,33.336,51.27,34.738,51.27,36.462z M73.02,36.462v43c0,1.729-1.401,3.132-3.126,3.132h-9.566
	c-1.729,0-3.132-1.402-3.132-3.132v-43c0-1.724,1.402-3.126,3.132-3.126h9.566C71.618,33.336,73.02,34.738,73.02,36.462z
	 M94.771,53.871v25.591c0,1.729-1.399,3.132-3.129,3.132h-9.561c-1.732,0-3.135-1.402-3.135-3.132V53.871
	c0-1.735,1.402-3.135,3.135-3.135h9.561C93.372,50.736,94.771,52.135,94.771,53.871z"/>
</svg>
