<?xml version="1.0" encoding="utf-8"?>
<!-- Generator: Adobe Illustrator 15.0.2, SVG Export Plug-In . SVG Version: 6.00 Build 0)  -->
<!DOCTYPE svg PUBLIC "-//W3C//DTD SVG 1.0//EN" "http://www.w3.org/TR/2001/REC-SVG-20010904/DTD/svg10.dtd">
<svg version="1.0" id="Layer_1" xmlns="http://www.w3.org/2000/svg" xmlns:xlink="http://www.w3.org/1999/xlink" x="0px" y="0px"
	 width="108px" height="108px" viewBox="0 0 108 108" enable-background="new 0 0 108 108" xml:space="preserve">
<path d="M106.56,53.667c0,26.805-21.809,48.613-48.616,48.613c-14.149,0-27.574-6.153-36.833-16.882
	c-0.816-0.947-0.711-2.379,0.235-3.196c0.949-0.814,2.379-0.71,3.196,0.235c8.396,9.731,20.57,15.312,33.401,15.312
	c24.31,0,44.085-19.775,44.085-44.082c0-24.309-19.775-44.087-44.085-44.087c-12.342,0-23.782,4.968-32.212,13.99
	c-0.853,0.917-2.287,0.962-3.201,0.108c-0.915-0.854-0.964-2.288-0.108-3.202c9.161-9.805,22.107-15.428,35.521-15.428
	C84.751,5.049,106.56,26.859,106.56,53.667z M26.401,74.752h8.436V32.978h-8.436v16.441H9.874V32.978H1.44v41.774h8.434V56.486
	h16.527V74.752z M46.737,71.914c-2.524,2.343-4.215,4.223-5.069,5.64c-0.856,1.417-1.37,2.917-1.54,4.5h15.804v-4.188h-8.954
	c0.236-0.407,0.544-0.824,0.923-1.252c0.38-0.427,1.281-1.293,2.704-2.599c1.423-1.305,2.407-2.305,2.951-3
	c0.825-1.049,1.425-2.052,1.806-3.009c0.381-0.958,0.57-1.966,0.57-3.024c0-1.861-0.663-3.417-1.991-4.669
	c-1.325-1.252-3.148-1.877-5.471-1.877c-2.117,0-3.883,0.54-5.294,1.62c-1.412,1.081-2.252,2.861-2.52,5.343l4.493,0.449
	c0.085-1.315,0.405-2.257,0.962-2.824c0.557-0.566,1.306-0.85,2.247-0.85c0.951,0,1.697,0.271,2.237,0.81
	c0.539,0.541,0.812,1.313,0.812,2.319c0,0.909-0.312,1.828-0.932,2.759C50.016,68.737,48.77,70.021,46.737,71.914z M83.16,66.646
	c-1.379,1.149-3.426,1.724-6.143,1.724c-2.564,0-4.602-0.646-6.111-1.938c-1.511-1.292-2.513-3.315-3.007-6.07l-8.206,0.799
	c0.551,4.673,2.241,8.231,5.071,10.672c2.832,2.441,6.888,3.661,12.169,3.661c3.629,0,6.658-0.509,9.089-1.524
	c2.432-1.017,4.313-2.569,5.643-4.659c1.33-2.089,1.996-4.331,1.996-6.725c0-2.641-0.558-4.858-1.669-6.654
	c-1.11-1.795-2.65-3.21-4.615-4.246c-1.967-1.035-5-2.037-9.104-3.005c-4.104-0.969-6.687-1.9-7.751-2.792
	c-0.836-0.704-1.254-1.549-1.254-2.537c0-1.083,0.446-1.947,1.341-2.593c1.385-1.007,3.305-1.51,5.755-1.51
	c2.374,0,4.155,0.47,5.343,1.411c1.187,0.94,1.961,2.484,2.323,4.631l8.435-0.371c-0.135-3.837-1.524-6.905-4.175-9.204
	c-2.651-2.298-6.599-3.448-11.84-3.448c-3.211,0-5.952,0.484-8.222,1.454c-2.271,0.969-4.007,2.379-5.215,4.231
	c-1.206,1.852-1.808,3.842-1.808,5.97c0,3.305,1.28,6.107,3.845,8.406c1.823,1.634,4.996,3.012,9.519,4.132
	c3.514,0.874,5.766,1.481,6.753,1.823c1.442,0.513,2.456,1.116,3.035,1.81c0.578,0.693,0.868,1.534,0.868,2.521
	C85.225,64.152,84.536,65.496,83.16,66.646z"/>
</svg>
