<?xml version="1.0" encoding="utf-8"?>
<!-- Generator: Adobe Illustrator 15.0.2, SVG Export Plug-In . SVG Version: 6.00 Build 0)  -->
<!DOCTYPE svg PUBLIC "-//W3C//DTD SVG 1.0//EN" "http://www.w3.org/TR/2001/REC-SVG-20010904/DTD/svg10.dtd">
<svg version="1.0" id="Layer_1" xmlns="http://www.w3.org/2000/svg" xmlns:xlink="http://www.w3.org/1999/xlink" x="0px" y="0px"
	 width="108px" height="108px" viewBox="0 0 108 108" enable-background="new 0 0 108 108" xml:space="preserve">
<path d="M70.415,49.031H59.173v-1.309c1.101-0.282,1.836-0.596,2.21-0.941c0.372-0.35,0.616-0.838,0.733-1.479
	c0.118-0.641,0.172-1.614,0.172-2.927V19.331c0-1.224-0.04-2.116-0.132-2.676c-0.088-0.561-0.235-0.991-0.439-1.305
	c-0.204-0.313-0.479-0.56-0.815-0.744c-0.332-0.188-0.915-0.399-1.729-0.627v-1.304h11.242v1.304
	c-0.782,0.19-1.347,0.386-1.692,0.583c-0.345,0.2-0.623,0.439-0.827,0.733c-0.203,0.294-0.358,0.733-0.45,1.32
	c-0.101,0.585-0.147,1.493-0.147,2.716v23.044c0,1.186,0.038,2.058,0.116,2.609c0.083,0.547,0.215,0.981,0.399,1.3
	c0.188,0.323,0.464,0.589,0.831,0.802c0.36,0.213,0.957,0.431,1.771,0.637V49.031z M106.561,30.063c0,3.006-0.346,5.644-1.027,7.923
	c-0.686,2.282-1.681,4.2-2.998,5.742c-1.139,1.354-2.528,2.46-4.183,3.333c-1.367,0.71-2.949,1.215-4.737,1.515
	c-1.793,0.302-4.178,0.455-7.141,0.455h-9.642v-1.309c0.815-0.206,1.398-0.417,1.757-0.609c0.358-0.197,0.628-0.444,0.825-0.744
	c0.192-0.305,0.34-0.74,0.43-1.307c0.085-0.569,0.13-1.466,0.13-2.688V19.331c0-1.242-0.045-2.143-0.13-2.703
	c-0.09-0.56-0.237-0.988-0.439-1.295c-0.206-0.3-0.479-0.542-0.815-0.726c-0.336-0.188-0.924-0.399-1.757-0.627v-1.304h11.663
	c3.357,0,6.104,0.367,8.248,1.107c2.138,0.733,3.944,1.822,5.423,3.256c1.466,1.439,2.568,3.23,3.3,5.373
	C106.192,24.548,106.561,27.103,106.561,30.063z M101.123,30.543c0-3.602-0.516-6.564-1.56-8.882
	c-1.036-2.317-2.502-4.007-4.394-5.074s-4.15-1.6-6.772-1.6c-1.215,0-2.362,0.036-3.438,0.107v31.46
	c0.709,0.065,1.753,0.101,3.138,0.101c1.493,0,2.829-0.121,3.999-0.372c1.17-0.247,2.241-0.632,3.195-1.17
	c0.96-0.533,1.82-1.275,2.591-2.223c0.758-0.953,1.376-2.042,1.856-3.277c0.479-1.232,0.829-2.604,1.053-4.115
	C101.016,33.99,101.123,32.338,101.123,30.543z M26.317,37.424h-0.002c-2.643-4.574-11.148-19.317-13.788-23.889
	C6.375,17.081,1.675,20.209,1.453,28.188c-0.627,22.968,21.607,61.469,41.814,73.023c7.279,4.157,12.589,1.873,18.864-1.748
	c-2.641-4.577-11.15-19.314-13.795-23.894C33.46,84.155,12.724,45.277,26.317,37.424z M27.812,35.649
	c0.85,1.472,2.741,1.974,4.207,1.127l6.836-3.944c1.466-0.852,1.975-2.739,1.127-4.209L26.978,6.105
	c-0.849-1.472-2.743-1.979-4.209-1.129l-6.831,3.942c-1.47,0.847-1.977,2.743-1.132,4.209L27.812,35.649z M62.499,67.629
	c-0.845-1.469-2.738-1.978-4.209-1.128l-6.833,3.947c-1.466,0.847-1.973,2.738-1.123,4.209l12.997,22.52
	c0.854,1.47,2.743,1.981,4.211,1.13l6.83-3.945c1.47-0.847,1.981-2.74,1.13-4.209L62.499,67.629z"/>
</svg>
