<?xml version="1.0" encoding="utf-8"?>
<!-- Generator: Adobe Illustrator 15.0.2, SVG Export Plug-In . SVG Version: 6.00 Build 0)  -->
<!DOCTYPE svg PUBLIC "-//W3C//DTD SVG 1.0//EN" "http://www.w3.org/TR/2001/REC-SVG-20010904/DTD/svg10.dtd">
<svg version="1.0" id="Layer_1" xmlns="http://www.w3.org/2000/svg" xmlns:xlink="http://www.w3.org/1999/xlink" x="0px" y="0px"
	 width="108px" height="108px" viewBox="0 0 108 108" enable-background="new 0 0 108 108" xml:space="preserve">
<path d="M105.477,51.154H89.332c-0.012,0-0.025,0.007-0.037,0.007c-1.092-18.613-16.543-33.435-35.43-33.435
	c-18.88,0-34.325,14.817-35.421,33.428H2.523c-0.601,0-1.083,0.484-1.083,1.083c0,0.599,0.482,1.083,1.083,1.083h15.819
	c0.036,19.557,15.957,35.459,35.522,35.459c19.57,0,35.494-15.902,35.531-35.459h16.08c0.598,0,1.084-0.484,1.084-1.083
	C106.561,51.638,106.074,51.154,105.477,51.154z M53.865,86.613c-18.396,0-33.36-14.966-33.36-33.361s14.964-33.36,33.36-33.36
	c18.4,0,33.369,14.966,33.369,33.36S72.266,86.613,53.865,86.613z M48.94,41.761h-7.239c-0.01-0.323,0.042-0.634,0.157-0.933
	c0.184-0.493,0.478-0.979,0.884-1.458s0.994-1.03,1.76-1.659c1.188-0.975,1.995-1.75,2.411-2.318
	c0.419-0.571,0.628-1.111,0.628-1.618c0-0.533-0.19-0.982-0.571-1.348c-0.38-0.366-0.878-0.55-1.491-0.55
	c-0.647,0-1.164,0.195-1.553,0.584s-0.584,0.927-0.59,1.614l-1.381-0.142c0.093-1.032,0.451-1.817,1.068-2.358
	c0.618-0.54,1.445-0.81,2.486-0.81c1.053,0,1.883,0.292,2.496,0.874c0.613,0.584,0.918,1.305,0.918,2.166
	c0,0.44-0.089,0.87-0.267,1.292c-0.182,0.423-0.478,0.87-0.893,1.337c-0.417,0.47-1.108,1.111-2.073,1.927
	c-0.808,0.679-1.324,1.138-1.555,1.379s-0.417,0.484-0.569,0.728h5.373V41.761z M54.69,41.761h1.346v-2.621h1.479v-1.233h-1.479
	v-7.095h-1.098l-4.997,7.095v1.233h4.749V41.761z M51.263,37.907l3.427-4.938v4.938H51.263z M62.458,41.948
	c0.804,0,1.466-0.216,1.993-0.646c0.525-0.432,0.918-1.041,1.183-1.83c0.264-0.789,0.396-1.828,0.396-3.112
	c0-1.085-0.081-1.948-0.246-2.587c-0.165-0.641-0.391-1.183-0.681-1.629c-0.288-0.446-0.653-0.787-1.096-1.024
	c-0.444-0.237-0.96-0.355-1.548-0.355c-0.795,0-1.456,0.215-1.982,0.643c-0.526,0.429-0.92,1.036-1.187,1.825
	s-0.402,1.832-0.402,3.127c0,2.056,0.364,3.541,1.083,4.453C60.575,41.569,61.404,41.948,62.458,41.948z M60.964,32.663
	c0.368-0.522,0.863-0.785,1.481-0.785c0.626,0,1.151,0.298,1.57,0.891c0.423,0.592,0.632,1.79,0.632,3.592
	c0,1.794-0.209,2.987-0.632,3.585c-0.419,0.597-0.939,0.897-1.557,0.897s-1.136-0.298-1.557-0.893
	c-0.419-0.597-0.63-1.792-0.63-3.59C60.271,34.563,60.503,33.332,60.964,32.663z M47.775,48.383l-4.783,23.024h-4.371l-4.785-23.024
	h4.349l2.676,15.525l2.678-15.525H47.775z M51.595,48.383L46.8,71.407h4.201l0.818-4.701h4.011l0.818,4.701h4.313l-4.796-23.024
	H51.595z M52.516,62.609l1.309-7.359l1.312,7.359H52.516z M72.777,49.148c0.408,0.273,0.736,0.508,0.981,0.705v5.473h-0.427
	c-0.148-0.205-0.369-0.508-0.656-0.903c-0.285-0.398-0.567-0.741-0.844-1.028c-0.316-0.319-0.674-0.599-1.077-0.835
	c-0.402-0.237-0.817-0.355-1.244-0.355c-0.508,0-0.977,0.129-1.411,0.387c-0.434,0.256-0.848,0.715-1.244,1.375
	c-0.357,0.609-0.649,1.407-0.874,2.397c-0.225,0.99-0.336,2.181-0.336,3.571c0,1.402,0.118,2.604,0.353,3.604
	c0.237,0.999,0.544,1.802,0.925,2.412c0.366,0.588,0.783,1.007,1.25,1.261c0.465,0.252,0.918,0.379,1.36,0.379
	c0.434,0,0.853-0.112,1.261-0.334c0.408-0.22,0.785-0.522,1.136-0.903c0.31-0.319,0.58-0.645,0.819-0.975
	c0.238-0.33,0.448-0.628,0.628-0.897h0.381v5.396c-0.254,0.176-0.577,0.4-0.97,0.673c-0.393,0.275-0.761,0.488-1.104,0.643
	c-0.47,0.216-0.914,0.381-1.328,0.495c-0.415,0.112-0.978,0.169-1.687,0.169c-2.285,0-4.081-1.056-5.388-3.169
	c-1.308-2.113-1.963-5.037-1.963-8.769c0-3.7,0.668-6.623,2.008-8.766c1.337-2.145,3.12-3.218,5.354-3.218
	c0.605,0,1.153,0.055,1.642,0.163c0.491,0.108,0.935,0.25,1.341,0.425C71.998,48.666,72.371,48.875,72.777,49.148z"/>
</svg>
