<?xml version="1.0" encoding="utf-8"?>
<!-- Generator: Adobe Illustrator 15.0.2, SVG Export Plug-In . SVG Version: 6.00 Build 0)  -->
<!DOCTYPE svg PUBLIC "-//W3C//DTD SVG 1.0//EN" "http://www.w3.org/TR/2001/REC-SVG-20010904/DTD/svg10.dtd">
<svg version="1.0" id="Layer_1" xmlns="http://www.w3.org/2000/svg" xmlns:xlink="http://www.w3.org/1999/xlink" x="0px" y="0px"
	 width="108px" height="108px" viewBox="0 0 108 108" enable-background="new 0 0 108 108" xml:space="preserve">
<path d="M80.498,48.558c-3.061,0-5.586,2.227-6.086,5.151H60.365c-0.146,0-0.273,0.067-0.366,0.168V12.098
	c0.074,0.042,0.141,0.096,0.231,0.096h13.943c0,0.012-0.004,0.023-0.004,0.035c0,3.42,2.775,6.192,6.193,6.192
	c3.426,0,6.195-2.772,6.195-6.192c0-3.421-2.77-6.193-6.195-6.193c-3.063,0-5.588,2.228-6.09,5.148H60.23
	c-0.091,0-0.158,0.054-0.231,0.096v-4.5c0-0.02-0.019-0.033-0.021-0.054c0.002-0.021,0.021-0.038,0.021-0.059
	c0-0.012-0.011-0.019-0.013-0.031c0-0.012,0.011-0.02,0.009-0.032c-0.179-1.421-0.737-2.565-1.701-3.488
	c-1.128-1.128-2.458-1.675-4.063-1.675c-1.57,0-2.947,0.561-4.1,1.674c-0.854,0.853-1.354,1.859-1.55,3.047h-0.123v0.505v0.426
	v7.686v9.356v4.254H35.8c0-0.011,0.004-0.021,0.004-0.031c0-3.421-2.774-6.198-6.196-6.198c-3.421,0-6.195,2.776-6.195,6.198
	c0,3.415,2.774,6.191,6.195,6.191c3.064,0,5.592-2.231,6.091-5.15h12.76v4.094v9.356v9.353v9.366v9.395v7.75
	c-1.606,0.749-3.05,1.761-4.294,3.01c-2.879,2.878-4.281,6.246-4.281,10.298c0,4.006,1.441,7.459,4.278,10.26
	c2.8,2.838,6.25,4.279,10.26,4.279c4.053,0,7.423-1.398,10.301-4.277c2.816-2.811,4.245-6.264,4.245-10.262
	c0-4.043-1.387-7.41-4.248-10.302c-1.462-1.429-3.049-2.498-4.721-3.184V54.552c0.093,0.101,0.219,0.168,0.366,0.168h13.946
	c0,0.013-0.004,0.025-0.004,0.038c0,3.419,2.773,6.189,6.191,6.189c3.426,0,6.195-2.771,6.195-6.189
	C86.693,51.33,83.924,48.558,80.498,48.558z M49.742,29.399c0.07,0,0.12-0.049,0.181-0.075h5.441c0.279,0,0.505-0.226,0.505-0.505
	c0-0.279-0.226-0.505-0.505-0.505h-5.896V24.64h3.595c0.279,0,0.505-0.226,0.505-0.505c0-0.279-0.226-0.505-0.505-0.505h-3.595
	v-3.672h5.896c0.279,0,0.505-0.226,0.505-0.505c0-0.279-0.226-0.505-0.505-0.505h-5.896v-3.664h3.595
	c0.279,0,0.505-0.226,0.505-0.505c0-0.28-0.226-0.505-0.505-0.505h-3.595v-7.18c0-0.059,0.01-0.12,0.019-0.176
	c0.009-0.073,0.013-0.138,0.017-0.198c0-0.002,0.002-0.003,0.002-0.005c0.109-1.152,0.547-2.095,1.334-2.878
	c0.964-0.933,2.073-1.385,3.391-1.385c1.324,0,2.42,0.451,3.357,1.386c0.802,0.771,1.246,1.685,1.4,2.874v0.068v47.846h-9.52v-1.918
	h3.595c0.279,0,0.505-0.226,0.505-0.505s-0.226-0.505-0.505-0.505h-3.595v-3.658h5.896c0.279,0,0.505-0.226,0.505-0.504
	c0-0.28-0.226-0.505-0.505-0.505h-5.896v-3.674h3.595c0.279,0,0.505-0.226,0.505-0.505s-0.226-0.505-0.505-0.505h-3.595V38.68h5.896
	c0.279,0,0.505-0.226,0.505-0.505s-0.226-0.505-0.505-0.505h-5.896v-3.672h3.595c0.279,0,0.505-0.226,0.505-0.505
	s-0.226-0.505-0.505-0.505h-3.595v-3.589H49.742z"/>
</svg>
