<?xml version="1.0" encoding="utf-8"?>
<!-- Generator: Adobe Illustrator 15.0.2, SVG Export Plug-In . SVG Version: 6.00 Build 0)  -->
<!DOCTYPE svg PUBLIC "-//W3C//DTD SVG 1.0//EN" "http://www.w3.org/TR/2001/REC-SVG-20010904/DTD/svg10.dtd">
<svg version="1.0" id="Layer_1" xmlns="http://www.w3.org/2000/svg" xmlns:xlink="http://www.w3.org/1999/xlink" x="0px" y="0px"
	 width="108px" height="108px" viewBox="0 0 108 108" enable-background="new 0 0 108 108" xml:space="preserve">
<path d="M84.116,90.766c0.729,0.972,0.532,2.35-0.44,3.078c-7.979,5.986-16.962,8.896-27.461,8.896
	c-12.615,0-23.172-4.223-32.273-12.907c-2.081-2.08-3.744-4.163-4.981-6.227c-0.625-1.041-0.287-2.392,0.753-3.017
	c1.044-0.625,2.392-0.287,3.017,0.754c1.053,1.756,2.495,3.555,4.285,5.344c8.206,7.831,17.77,11.655,29.199,11.655
	c9.645,0,17.533-2.547,24.825-8.016C82.007,89.595,83.388,89.795,84.116,90.766z M25.469,22.904l1.545-1.544
	c8.104-8.101,17.655-12.039,29.2-12.039c11.494,0,21.177,4.039,28.818,12.039c6.796,6.798,10.616,14.054,11.679,22.18
	c0.145,1.108,1.089,1.914,2.178,1.914c0.095,0,0.191-0.006,0.287-0.018c1.203-0.158,2.053-1.262,1.895-2.465
	c-1.192-9.125-5.422-17.21-12.892-24.683C79.83,9.544,68.777,4.924,56.214,4.924c-12.771,0-23.339,4.36-32.313,13.331l-1.529,1.527
	c-0.862,0.855-0.869,2.247-0.013,3.109C23.217,23.755,24.609,23.76,25.469,22.904z M36.337,75.095V31.106h-8.252v29.376
	L10.082,31.106H1.44v43.988h8.251V46.41l17.734,28.685H36.337z M80.76,36.388c3.891,4.021,5.836,9.612,5.836,16.773
	c0,7.102-1.93,12.658-5.789,16.668c-3.862,4.011-9.023,6.017-15.485,6.017c-6.541,0-11.742-1.996-15.603-5.986
	c-3.861-3.991-5.792-9.486-5.792-16.488c0-4.48,0.67-8.241,2.011-11.283c1-2.239,2.365-4.25,4.096-6.03
	c1.729-1.781,3.626-3.101,5.687-3.961c2.74-1.16,5.901-1.74,9.481-1.74C71.684,30.356,76.869,32.367,80.76,36.388z M77.414,52.951
	c0-5.042-1.104-8.801-3.314-11.282c-2.211-2.48-5.147-3.721-8.807-3.721c-3.661,0-6.611,1.256-8.853,3.766
	c-2.24,2.51-3.36,6.296-3.36,11.357c0,4.98,1.15,8.756,3.451,11.326c2.299,2.571,5.221,3.856,8.762,3.856
	c3.54,0,6.446-1.275,8.716-3.826C76.279,61.878,77.414,58.052,77.414,52.951z M98.104,77.057c0.399-0.45,1.349-1.362,2.848-2.736
	c1.499-1.375,2.533-2.428,3.109-3.16c0.867-1.104,1.498-2.16,1.899-3.168c0.399-1.007,0.6-2.068,0.6-3.185
	c0-1.959-0.698-3.599-2.096-4.916c-1.396-1.318-3.315-1.977-5.759-1.977c-2.233,0-4.091,0.569-5.576,1.707
	c-1.488,1.139-2.373,3.013-2.652,5.626l4.729,0.474c0.09-1.387,0.43-2.377,1.014-2.974c0.588-0.598,1.374-0.896,2.366-0.896
	c1.003,0,1.788,0.284,2.357,0.854c0.566,0.568,0.854,1.383,0.854,2.441c0,0.957-0.328,1.926-0.981,2.906
	c-0.482,0.708-1.797,2.06-3.936,4.054c-2.658,2.467-4.438,4.446-5.34,5.938c-0.899,1.493-1.441,3.072-1.621,4.739h16.641v-4.409
	h-9.426C97.381,77.946,97.705,77.508,98.104,77.057z"/>
</svg>
