<?xml version="1.0" encoding="utf-8"?>
<!-- Generator: Adobe Illustrator 15.0.2, SVG Export Plug-In . SVG Version: 6.00 Build 0)  -->
<!DOCTYPE svg PUBLIC "-//W3C//DTD SVG 1.0//EN" "http://www.w3.org/TR/2001/REC-SVG-20010904/DTD/svg10.dtd">
<svg version="1.0" id="Layer_1" xmlns="http://www.w3.org/2000/svg" xmlns:xlink="http://www.w3.org/1999/xlink" x="0px" y="0px"
	 width="108px" height="108px" viewBox="0 0 108 108" enable-background="new 0 0 108 108" xml:space="preserve">
<path d="M43.112,31.301c-2.312,0.965-4.435,2.445-6.376,4.44c-1.94,1.997-3.471,4.251-4.591,6.762
	c-1.502,3.409-2.254,7.625-2.254,12.647c0,7.851,2.166,14.012,6.493,18.485c4.328,4.475,10.158,6.711,17.493,6.711
	c7.242,0,13.028-2.247,17.356-6.744c4.328-4.496,6.493-10.726,6.493-18.687c0-8.028-2.181-14.297-6.543-18.804
	c-4.362-4.508-10.177-6.762-17.443-6.762C49.727,29.35,46.185,30.002,43.112,31.301z M63.716,42.033
	c2.477,2.78,3.717,6.997,3.717,12.648c0,5.719-1.272,10.008-3.818,12.866c-2.544,2.86-5.802,4.289-9.771,4.289
	c-3.971,0-7.243-1.44-9.824-4.323c-2.577-2.881-3.868-7.113-3.868-12.697c0-5.674,1.257-9.918,3.77-12.732
	c2.51-2.814,5.819-4.222,9.923-4.222S61.237,39.252,63.716,42.033z M98.962,75.494c0.953,1.186,1.429,2.619,1.429,4.299
	c0,2.437-0.889,4.514-2.67,6.23c-1.781,1.718-3.996,2.577-6.647,2.577c-2.513,0-4.597-0.724-6.25-2.169
	c-1.656-1.446-2.614-3.337-2.881-5.674l5.153-0.624c0.164,1.313,0.605,2.316,1.324,3.012c0.721,0.694,1.593,1.041,2.614,1.041
	c1.1,0,2.024-0.417,2.774-1.25c0.752-0.833,1.128-1.956,1.128-3.371c0-1.338-0.36-2.398-1.078-3.183
	c-0.722-0.782-1.599-1.174-2.634-1.174c-0.682,0-1.496,0.132-2.444,0.398l0.588-4.339c1.439,0.038,2.539-0.274,3.296-0.938
	c0.758-0.662,1.137-1.544,1.137-2.642c0-0.935-0.279-1.68-0.834-2.235c-0.556-0.555-1.295-0.833-2.217-0.833
	c-0.909,0-1.685,0.316-2.33,0.947c-0.643,0.632-1.034,1.553-1.173,2.765L82.342,67.5c0.34-1.68,0.854-3.021,1.544-4.025
	c0.687-1.003,1.647-1.792,2.878-2.367c1.23-0.574,2.609-0.861,4.138-0.861c2.614,0,4.709,0.833,6.289,2.5
	c1.301,1.363,1.951,2.904,1.951,4.622c0,2.437-1.332,4.381-3.996,5.834C96.736,73.542,98.009,74.306,98.962,75.494z M106.56,53.998
	c0,1.2-0.044,2.392-0.12,3.572c-0.097,1.472-1.311,2.585-2.844,2.496c-1.474-0.097-2.592-1.369-2.495-2.844
	c0.071-1.065,0.11-2.142,0.11-3.225c0-26.03-21.18-47.208-47.213-47.208c-26.031,0-47.209,21.178-47.209,47.208
	s21.178,47.208,47.209,47.208c9.465,0,18.592-2.789,26.396-8.063c1.228-0.825,2.888-0.501,3.714,0.719
	c0.827,1.224,0.506,2.886-0.718,3.714c-8.691,5.874-18.854,8.979-29.392,8.979c-28.981,0-52.558-23.576-52.558-52.556
	S25.017,1.44,53.998,1.44C82.98,1.44,106.56,25.017,106.56,53.998z"/>
</svg>
