<?xml version="1.0" encoding="utf-8"?>
<!-- Generator: Adobe Illustrator 15.0.2, SVG Export Plug-In . SVG Version: 6.00 Build 0)  -->
<!DOCTYPE svg PUBLIC "-//W3C//DTD SVG 1.0//EN" "http://www.w3.org/TR/2001/REC-SVG-20010904/DTD/svg10.dtd">
<svg version="1.0" id="Layer_1" xmlns="http://www.w3.org/2000/svg" xmlns:xlink="http://www.w3.org/1999/xlink" x="0px" y="0px"
	 width="108px" height="108px" viewBox="0 0 108 108" enable-background="new 0 0 108 108" xml:space="preserve">
<path d="M106.561,41.472c0-3.146-2.562-5.704-5.711-5.704c-3.146,0-5.703,2.559-5.703,5.704c0,2.646,1.814,4.857,4.259,5.502v12.884
	H86.286c-1.201-16.932-15.324-30.351-32.559-30.351c-17.232,0-31.356,13.419-32.558,30.351H8.507V47.001
	c2.487-0.614,4.345-2.851,4.345-5.529c0-3.146-2.558-5.704-5.702-5.704c-3.149,0-5.71,2.559-5.71,5.704
	c0,2.646,1.817,4.855,4.263,5.501v13.538c0,0.141,0.042,0.269,0.081,0.397c-0.031,0.115-0.071,0.227-0.071,0.352
	c0,0.774,0.628,1.402,1.402,1.402h13.961c0.259,17.8,14.795,32.207,32.652,32.207c17.859,0,32.395-14.406,32.655-32.207h14.212
	c0.627,0,1.176-0.416,1.35-1.018l0.214-0.749c0.034-0.125,0.053-0.254,0.053-0.384V47C104.702,46.386,106.561,44.149,106.561,41.472
	z M4.244,41.472c0-1.599,1.304-2.9,2.906-2.9c1.598,0,2.897,1.301,2.897,2.9c0,1.602-1.3,2.906-2.897,2.906
	C5.548,44.377,4.244,43.074,4.244,41.472z M53.727,92.063c-16.471,0-29.872-13.403-29.872-29.879
	c0-16.472,13.4-29.874,29.872-29.874c16.472,0,29.874,13.401,29.874,29.874C83.601,78.66,70.199,92.063,53.727,92.063z
	 M100.85,44.377c-1.6,0-2.899-1.304-2.899-2.906c0-1.599,1.3-2.9,2.899-2.9c1.604,0,2.906,1.301,2.906,2.9
	C103.756,43.074,102.453,44.377,100.85,44.377z M53.566,58.572c0.237,0.766,0.356,2.005,0.356,3.716V73.76h-3.439V63.505
	c0-1.78-0.119-2.928-0.356-3.447c-0.317-0.676-0.807-1.013-1.468-1.013c-0.481,0-0.935,0.203-1.359,0.608
	c-0.424,0.405-0.73,1-0.919,1.783c-0.188,0.782-0.281,2.018-0.281,3.708v8.616H42.66v-9.832c0-1.747-0.062-2.873-0.185-3.379
	c-0.122-0.507-0.312-0.884-0.569-1.132c-0.256-0.248-0.604-0.372-1.046-0.372c-0.531,0-1.008,0.197-1.432,0.591
	c-0.425,0.395-0.729,0.963-0.913,1.706c-0.185,0.743-0.276,1.977-0.276,3.7v8.718H34.8V55.818h3.171v2.449
	c1.133-1.903,2.485-2.854,4.051-2.854c0.832,0,1.556,0.236,2.167,0.709c0.611,0.473,1.113,1.188,1.506,2.145
	c0.571-0.957,1.187-1.672,1.848-2.145c0.661-0.473,1.367-0.709,2.118-0.709c0.954,0,1.764,0.268,2.424,0.802
	C52.747,56.75,53.242,57.536,53.566,58.572z M62.542,48.993l-6.99,24.767h3.845l1.48-5.626h7.173l1.568,5.626h3.942l-7.186-24.767
	H62.542z M61.99,63.961l2.425-9.191l2.472,9.191H61.99z M47.271,24.207c0.789,0,1.44-0.212,1.958-0.635
	c0.517-0.423,0.903-1.022,1.162-1.797c0.26-0.776,0.39-1.795,0.39-3.057c0-1.067-0.081-1.915-0.241-2.544
	c-0.163-0.628-0.386-1.162-0.668-1.6c-0.285-0.438-0.645-0.773-1.079-1.006c-0.437-0.233-0.942-0.349-1.521-0.349
	c-0.781,0-1.431,0.211-1.947,0.632s-0.906,1.019-1.167,1.794c-0.263,0.775-0.393,1.799-0.393,3.072c0,2.021,0.354,3.479,1.064,4.374
	C45.42,23.835,46.235,24.207,47.271,24.207z M45.803,15.083c0.363-0.513,0.848-0.77,1.454-0.77c0.616,0,1.132,0.291,1.546,0.874
	c0.412,0.582,0.619,1.759,0.619,3.531c0,1.761-0.207,2.936-0.619,3.522c-0.414,0.587-0.924,0.881-1.532,0.881
	c-0.605,0-1.115-0.292-1.529-0.877c-0.413-0.584-0.621-1.76-0.621-3.526C45.121,16.95,45.349,15.739,45.803,15.083z M56.037,19.057
	h-4.061v-1.328h4.061V19.057z M59.533,16.514c-0.515,0.304-0.979,0.531-1.39,0.683V15.92c0.737-0.347,1.384-0.768,1.938-1.263
	c0.553-0.494,0.943-0.974,1.174-1.438h0.853v10.804h-1.322v-8.419C60.467,15.908,60.049,16.211,59.533,16.514z"/>
</svg>
