<?xml version="1.0" encoding="utf-8"?>
<!-- Generator: Adobe Illustrator 15.0.2, SVG Export Plug-In . SVG Version: 6.00 Build 0)  -->
<!DOCTYPE svg PUBLIC "-//W3C//DTD SVG 1.0//EN" "http://www.w3.org/TR/2001/REC-SVG-20010904/DTD/svg10.dtd">
<svg version="1.0" id="Layer_1" xmlns="http://www.w3.org/2000/svg" xmlns:xlink="http://www.w3.org/1999/xlink" x="0px" y="0px"
	 width="108px" height="108px" viewBox="0 0 108 108" enable-background="new 0 0 108 108" xml:space="preserve">
<path d="M1.653,55.322c-0.409-0.653-0.211-1.515,0.443-1.925c17.362-10.875,35.549-10.832,54.052,0.137
	c16.057,9.446,31.861,9.394,48.313-0.161c0.671-0.386,1.523-0.159,1.909,0.506c0.388,0.667,0.16,1.521-0.506,1.909
	c-8.623,5.008-17.261,7.514-25.846,7.514c-8.5,0-16.948-2.455-25.292-7.363C37.191,45.544,19.983,45.487,3.578,55.765
	C2.927,56.173,2.064,55.977,1.653,55.322z M104.459,74.923c-16.425,9.568-32.311,9.582-48.56,0.035
	c-18.35-10.846-36.454-10.851-53.803-0.014c-0.654,0.409-0.853,1.271-0.445,1.926c0.41,0.654,1.271,0.854,1.925,0.444
	c16.395-10.24,33.52-10.222,50.903,0.05c8.474,4.979,17.025,7.468,25.602,7.468c8.593,0,17.208-2.499,25.784-7.496
	c0.666-0.388,0.892-1.243,0.504-1.909C105.981,74.762,105.132,74.533,104.459,74.923z M3.578,34.181
	c16.41-10.277,33.618-10.218,51.148,0.174c8.345,4.912,16.794,7.368,25.294,7.368c8.585,0,17.221-2.506,25.844-7.519
	c0.668-0.387,0.894-1.242,0.506-1.91c-0.389-0.666-1.238-0.893-1.909-0.506C88.009,41.35,72.206,41.4,56.147,31.95
	C37.648,20.983,19.461,20.938,2.096,31.813c-0.654,0.409-0.852,1.271-0.443,1.925C2.064,34.393,2.927,34.59,3.578,34.181z"/>
</svg>
