<?xml version="1.0" encoding="utf-8"?>
<!-- Generator: Adobe Illustrator 15.0.2, SVG Export Plug-In . SVG Version: 6.00 Build 0)  -->
<!DOCTYPE svg PUBLIC "-//W3C//DTD SVG 1.0//EN" "http://www.w3.org/TR/2001/REC-SVG-20010904/DTD/svg10.dtd">
<svg version="1.0" id="Layer_1" xmlns="http://www.w3.org/2000/svg" xmlns:xlink="http://www.w3.org/1999/xlink" x="0px" y="0px"
	 width="108px" height="108px" viewBox="0 0 108 108" enable-background="new 0 0 108 108" xml:space="preserve">
<path d="M31.274,12.469c0-6.093,4.941-11.029,11.031-11.029c6.095,0,11.031,4.936,11.031,11.029c0,6.093-4.936,11.029-11.031,11.029
	C36.215,23.498,31.274,18.562,31.274,12.469z M84.86,82.973c0-9.486,1.615-20.905-4.357-23.846
	c-3.164-1.558-7.074-1.026-11.023-1.026c-3.585,0-7.502,0-11.791,0c-0.745-4.48-1.628-9.109-2.566-13.841
	c-1.132-5.706-1.811-13.678-5.64-16.923c-5.743-4.858-15.437-0.762-16.153,6.667c-0.247,2.581,0.669,5.867,1.283,8.971
	c0.594,2.994,1.263,5.816,1.793,8.46c1.607,7.99,2.038,20.025,8.973,22.052c7.459,2.179,17.756-0.549,27.688,0.508
	c0,3.671,0,9.009,0,14.357c0,8.523-1.647,16.827,4.616,18.208h2.566c5.071-1.232,4.611-6.344,4.611-13.333
	C84.86,89.836,84.86,86.289,84.86,82.973z M43.902,78.128c-1.854-0.277-4.015-1.416-4.868-2.051
	c-4.79-3.521-5.743-13.517-7.182-20.767c-0.435-2.191-1.069-5.522-1.789-8.971c-0.79-3.779-1.557-5.98-4.362-6.151
	c-2.654-0.168-4.614,0.938-4.614,3.839l0.402,3.132c2.662,12.068,2.219,26.82,10.624,34.82c2.546,2.42,6.098,4.853,10.251,5.381
	c0.081,0.01,0.176,0.014,0.259,0.023v16.524c0,0.712,0.576,1.288,1.289,1.288c0.712,0,1.287-0.576,1.287-1.288V87.506
	c2.562,0.02,5.832-0.146,9.477-0.146c4.76,0,11.751,1.084,12.051-4.098C67.213,74.664,50.974,79.204,43.902,78.128z"/>
</svg>
