<?xml version="1.0" encoding="utf-8"?>
<!-- Generator: Adobe Illustrator 15.0.2, SVG Export Plug-In . SVG Version: 6.00 Build 0)  -->
<!DOCTYPE svg PUBLIC "-//W3C//DTD SVG 1.0//EN" "http://www.w3.org/TR/2001/REC-SVG-20010904/DTD/svg10.dtd">
<svg version="1.0" id="Layer_1" xmlns="http://www.w3.org/2000/svg" xmlns:xlink="http://www.w3.org/1999/xlink" x="0px" y="0px"
	 width="108px" height="108px" viewBox="0 0 108 108" enable-background="new 0 0 108 108" xml:space="preserve">
<path d="M105.926,55.809c-6.294,7.247-12.676,10.919-18.975,10.919c-0.114,0-0.229,0-0.342-0.003
	c-6.216-0.131-12.266-3.833-17.98-11c-4.431-5.778-8.942-8.785-13.438-8.975c-4.916-0.203-10.24,2.857-15.926,9.104
	c-6.636,7.321-13.26,10.928-19.785,10.686c-6.153-0.222-12.038-3.867-17.489-10.834c-0.882-1.128-0.684-2.757,0.444-3.639
	c1.125-0.88,2.755-0.685,3.639,0.444c4.466,5.706,9.04,8.683,13.593,8.848c4.919,0.172,10.193-2.848,15.76-8.991
	c6.774-7.444,13.554-11.068,19.981-10.797c6.104,0.257,11.927,3.944,17.307,10.96c4.679,5.868,9.399,8.913,14.002,9.01
	c0.079,0.001,0.154,0.001,0.23,0.001c4.731,0,9.798-3.071,15.063-9.134c0.939-1.081,2.582-1.195,3.655-0.257
	C106.748,53.091,106.864,54.728,105.926,55.809z M45.579,37.205c-0.547,0.462-0.615,1.28-0.151,1.827
	c0.463,0.549,1.278,0.616,1.827,0.153c3.469-2.937,9.216-2.854,12.806,0.185c0.242,0.205,0.541,0.306,0.838,0.306
	c0.367,0,0.733-0.156,0.989-0.458c0.461-0.547,0.396-1.365-0.151-1.828C57.224,33.573,49.979,33.487,45.579,37.205z M40.763,35.688
	C45.731,31.486,50.769,29.7,55.7,30.39c5.198,0.719,8.79,3.961,9.752,5.062c0.073,0.222,0.208,0.427,0.397,0.589
	c0.261,0.219,0.61,0.334,0.955,0.334c0.349-0.001,0.696-0.122,0.934-0.374c0.899-0.954-0.051-1.957-0.562-2.495
	c-4.603-4.856-15.696-10.278-28.089,0.203c-0.547,0.462-0.615,1.281-0.151,1.826C39.399,36.086,40.214,36.153,40.763,35.688z
	 M27.403,70.759c0.547-0.462,0.615-1.279,0.153-1.826c-0.461-0.546-1.278-0.618-1.826-0.153c-3.475,2.935-9.222,2.85-12.809-0.188
	c-0.549-0.465-1.366-0.394-1.827,0.15c-0.463,0.547-0.395,1.364,0.151,1.826c2.297,1.947,5.303,2.925,8.284,2.925
	C22.399,73.492,25.245,72.583,27.403,70.759z M32.221,72.266c-4.964,4.198-9.99,5.977-14.934,5.301
	c-5.198-0.715-8.799-3.961-9.764-5.062c-0.072-0.22-0.205-0.422-0.394-0.581c-0.528-0.446-1.417-0.468-1.887,0.035
	c-0.9,0.952,0.043,1.948,0.549,2.482c2.663,2.813,7.5,5.817,13.506,5.817c4.374,0,9.37-1.594,14.597-6.014
	c0.547-0.462,0.615-1.281,0.152-1.827C33.586,71.87,32.761,71.809,32.221,72.266z M95.482,70.759
	c0.547-0.462,0.615-1.279,0.152-1.826c-0.464-0.547-1.276-0.613-1.828-0.153c-3.466,2.937-9.213,2.848-12.808-0.189
	c-0.542-0.457-1.367-0.395-1.828,0.152c-0.463,0.546-0.395,1.365,0.152,1.827c2.301,1.945,5.307,2.921,8.286,2.921
	C90.48,73.49,93.325,72.583,95.482,70.759z M100.298,72.266c-4.96,4.196-9.982,5.979-14.922,5.302
	c-5.202-0.714-8.81-3.966-9.774-5.065c-0.073-0.218-0.205-0.419-0.393-0.577c-0.526-0.447-1.415-0.466-1.889,0.033
	c-0.898,0.95,0.076,1.98,0.545,2.476c2.663,2.817,7.501,5.826,13.514,5.826c4.372,0,9.369-1.595,14.595-6.015
	c0.547-0.464,0.615-1.281,0.151-1.827C101.662,71.87,100.842,71.809,100.298,72.266z"/>
</svg>
