<?xml version="1.0" encoding="utf-8"?>
<!-- Generator: Adobe Illustrator 15.0.2, SVG Export Plug-In . SVG Version: 6.00 Build 0)  -->
<!DOCTYPE svg PUBLIC "-//W3C//DTD SVG 1.0//EN" "http://www.w3.org/TR/2001/REC-SVG-20010904/DTD/svg10.dtd">
<svg version="1.0" id="Layer_1" xmlns="http://www.w3.org/2000/svg" xmlns:xlink="http://www.w3.org/1999/xlink" x="0px" y="0px"
	 width="108px" height="108px" viewBox="0 0 108 108" enable-background="new 0 0 108 108" xml:space="preserve">
<path d="M42.925,65.576l-5.851,40.2h-6.985l-5.548-40.2h6.812l2.53,28.39l2.415-28.39H42.925z M62.511,105.776h-6.746l-0.787-7.958
	h-4.52l-0.725,7.958h-6.328l4.403-40.2h10.006L62.511,105.776z M54.439,92.222l-1.566-19.167l-1.867,19.167H54.439z M81.914,97.582
	c0,5.982-2.858,8.978-8.562,8.978c-5.508,0-8.256-2.913-8.256-8.741V72.877c0-2.582,0.78-4.56,2.35-5.973
	c1.567-1.401,3.636-2.108,6.206-2.108c1.726,0,3.316,0.407,4.761,1.209c1.609,0.918,2.632,2.16,3.078,3.732
	c0.278,1.007,0.423,2.527,0.423,4.581v4.944h-6.631c0-0.728,0-1.787,0-3.2c0.036-1.441,0.058-2.524,0.058-3.253
	c0-1.646-0.624-2.473-1.866-2.473c-1.086,0-1.631,0.845-1.631,2.54v25.121c0,2.087,0.581,3.134,1.747,3.134
	c0.885,0,1.429-0.459,1.628-1.377c0.043-0.245,0.064-1.05,0.064-2.421v-6.869h6.631V97.582z M32.76,15.339v1.851H22.394
	c-0.016-0.463,0.061-0.91,0.224-1.337c0.263-0.707,0.688-1.401,1.27-2.087s1.42-1.477,2.519-2.376
	c1.704-1.398,2.857-2.506,3.457-3.321c0.6-0.817,0.899-1.59,0.899-2.318c0-0.764-0.275-1.406-0.819-1.931
	c-0.545-0.524-1.258-0.786-2.136-0.786c-0.928,0-1.668,0.278-2.225,0.834c-0.558,0.557-0.839,1.328-0.845,2.312l-1.979-0.204
	c0.135-1.476,0.646-2.603,1.529-3.375c0.885-0.774,2.072-1.161,3.562-1.161c1.506,0,2.699,0.416,3.574,1.251
	c0.878,0.835,1.315,1.87,1.315,3.103c0,0.629-0.125,1.246-0.382,1.852c-0.257,0.607-0.686,1.245-1.279,1.916
	c-0.597,0.671-1.585,1.591-2.971,2.761c-1.154,0.97-1.897,1.628-2.225,1.974s-0.6,0.695-0.814,1.043H32.76z M40.125,17.19v-3.756
	H33.32v-1.766l7.157-10.165h1.575v10.165h2.117v1.766h-2.117v3.756H40.125z M40.125,11.669V4.596l-4.911,7.073H40.125z
	 M45.046,12.483v-1.937h5.917v1.937H45.046z M51.683,13.081l2.022-0.171c0.149,0.985,0.499,1.726,1.043,2.222
	c0.548,0.496,1.206,0.744,1.974,0.744c0.928,0,1.714-0.351,2.356-1.05s0.961-1.626,0.961-2.781c0-1.099-0.307-1.966-0.924-2.601
	c-0.618-0.635-1.427-0.952-2.424-0.952c-0.621,0-1.182,0.141-1.68,0.422c-0.499,0.282-0.894,0.647-1.179,1.097l-1.808-0.236
	l1.521-8.057h7.8v1.839h-6.261L54.24,7.774c0.942-0.656,1.931-0.984,2.965-0.984c1.368,0,2.524,0.474,3.467,1.423
	s1.411,2.168,1.411,3.66c0,1.42-0.413,2.647-1.239,3.681c-1.007,1.27-2.381,1.905-4.122,1.905c-1.426,0-2.592-0.399-3.491-1.198
	C52.328,15.46,51.811,14.401,51.683,13.081z M62.991,9.454c0-1.854,0.193-3.347,0.572-4.478c0.383-1.13,0.949-2.002,1.701-2.616
	c0.753-0.613,1.702-0.919,2.843-0.919c0.842,0,1.579,0.168,2.216,0.508c0.633,0.338,1.159,0.828,1.572,1.466
	s0.737,1.417,0.974,2.333c0.235,0.917,0.352,2.153,0.352,3.707c0,1.841-0.187,3.326-0.566,4.457
	c-0.379,1.131-0.942,2.006-1.694,2.623c-0.753,0.617-1.705,0.926-2.853,0.926c-1.512,0-2.701-0.542-3.564-1.626
	C63.509,14.525,62.991,12.4,62.991,9.454z M64.972,9.454c0,2.577,0.303,4.29,0.905,5.142s1.347,1.279,2.23,1.279
	c0.885,0,1.628-0.429,2.23-1.285c0.604-0.855,0.903-2.567,0.903-5.136c0-2.583-0.3-4.297-0.903-5.146
	c-0.603-0.849-1.352-1.273-2.252-1.273c-0.884,0-1.591,0.375-2.12,1.123C65.305,5.113,64.972,6.879,64.972,9.454z M74.304,9.454
	c0-1.854,0.193-3.347,0.572-4.478c0.383-1.13,0.948-2.002,1.701-2.616C77.33,1.746,78.278,1.44,79.42,1.44
	c0.842,0,1.579,0.168,2.216,0.508c0.633,0.338,1.159,0.828,1.572,1.466s0.737,1.417,0.973,2.333
	c0.236,0.917,0.353,2.153,0.353,3.707c0,1.841-0.187,3.326-0.566,4.457c-0.379,1.131-0.942,2.006-1.695,2.623
	c-0.752,0.617-1.704,0.926-2.852,0.926c-1.512,0-2.702-0.542-3.564-1.626C74.821,14.525,74.304,12.4,74.304,9.454z M76.283,9.454
	c0,2.577,0.304,4.29,0.906,5.142s1.347,1.279,2.23,1.279c0.885,0,1.628-0.429,2.23-1.285c0.604-0.855,0.903-2.567,0.903-5.136
	c0-2.583-0.3-4.297-0.903-5.146c-0.603-0.849-1.353-1.273-2.252-1.273c-0.884,0-1.591,0.375-2.12,1.123
	C76.617,5.113,76.283,6.879,76.283,9.454z M98.859,43.299c1.169-1.276,1.083-3.257-0.192-4.426
	c-1.279-1.167-3.259-1.082-4.428,0.194c-6.493,7.088-12.879,10.682-18.983,10.682c-0.016,0-0.034,0-0.053,0
	c-6-0.02-12.202-3.525-18.426-10.411C48.399,30.004,39.89,25.44,31.396,25.441c-8.216,0.113-16.251,4.726-23.884,13.713
	c-1.12,1.319-0.959,3.297,0.359,4.417c1.317,1.118,3.295,0.96,4.417-0.36c6.409-7.547,12.867-11.416,19.193-11.503
	c0.07-0.001,0.144-0.001,0.217-0.001c6.509,0,13.378,3.975,20.422,11.825c7.463,8.259,15.223,12.458,23.065,12.484
	c0.024,0,0.046,0,0.073,0C83.189,56.016,91.13,51.738,98.859,43.299z"/>
</svg>
