<?xml version="1.0" encoding="utf-8"?>
<!-- Generator: Adobe Illustrator 15.0.2, SVG Export Plug-In . SVG Version: 6.00 Build 0)  -->
<!DOCTYPE svg PUBLIC "-//W3C//DTD SVG 1.0//EN" "http://www.w3.org/TR/2001/REC-SVG-20010904/DTD/svg10.dtd">
<svg version="1.0" id="Layer_1" xmlns="http://www.w3.org/2000/svg" xmlns:xlink="http://www.w3.org/1999/xlink" x="0px" y="0px"
	 width="108px" height="108px" viewBox="0 0 108 108" enable-background="new 0 0 108 108" xml:space="preserve">
<path d="M59.821,80.133V15.97c0-0.018-0.009-0.033-0.011-0.051c0.002-0.017,0.011-0.033,0.011-0.051
	c0-0.026-0.014-0.047-0.014-0.073c-0.002-0.025,0.007-0.048,0.005-0.074c-0.183-1.443-0.755-2.612-1.736-3.559
	c-2.271-2.265-5.98-2.298-8.366,0.002c-0.723,0.725-1.217,1.576-1.479,2.533H48v1.171v0.391v6.914v8.431v8.43v8.426v8.43v8.43v8.468
	v6.525c-1.353,0.684-2.58,1.573-3.662,2.654c-2.735,2.737-4.066,5.938-4.066,9.787c0,3.803,1.37,7.085,4.06,9.744
	c2.66,2.696,5.939,4.063,9.75,4.063c3.801,0,7.092-1.365,9.784-4.057c2.676-2.675,4.034-5.955,4.034-9.75
	c0-3.788-1.356-7.079-4.043-9.796C62.603,81.729,61.249,80.781,59.821,80.133z M53.912,12.789c1.008,0,1.804,0.327,2.524,1.044
	c0.602,0.582,0.922,1.25,1.043,2.15v43.081h-7.138V58.06h2.521c0.646,0,1.171-0.523,1.171-1.171s-0.524-1.171-1.171-1.171h-2.521
	v-1.871h4.59c0.647,0,1.171-0.524,1.171-1.171c0-0.647-0.523-1.171-1.171-1.171h-4.59v-1.875h2.521c0.646,0,1.171-0.524,1.171-1.171
	c0-0.647-0.524-1.171-1.171-1.171h-2.521v-1.871h4.59c0.647,0,1.171-0.524,1.171-1.171c0-0.647-0.523-1.171-1.171-1.171h-4.59
	v-1.871h2.521c0.646,0,1.171-0.524,1.171-1.171c0-0.647-0.524-1.171-1.171-1.171h-2.521v-1.871h4.59
	c0.647,0,1.171-0.524,1.171-1.171c0-0.647-0.523-1.171-1.171-1.171h-4.59v-1.875h2.521c0.646,0,1.171-0.524,1.171-1.171
	c0-0.647-0.524-1.171-1.171-1.171h-2.521v-1.871h4.59c0.647,0,1.171-0.524,1.171-1.171c0-0.647-0.523-1.171-1.171-1.171h-4.59
	v-1.875h2.521c0.646,0,1.171-0.524,1.171-1.171c0-0.647-0.524-1.171-1.171-1.171h-2.521v-5.743l0.009-0.093c0-0.001,0-0.002,0-0.003
	c0-0.006,0.002-0.029,0.002-0.04l0.015-0.149c0.08-0.867,0.399-1.553,0.985-2.141C52.082,13.13,52.919,12.789,53.912,12.789z
	 M31.868,17.976c-0.674-1.093-1.918-2.886-3.736-5.397c-1.622-2.267-2.836-4.062-3.611-5.407c-1.169-2.02-2.018-3.934-2.491-5.731
	c-1.82,3.865-3.984,7.698-6.527,11.511c-0.32,0.546-1.116,1.642-2.339,3.339c-0.995,1.393-1.766,2.537-2.292,3.46
	c-1.619,2.738-2.463,5.457-2.491,8.145c-0.075,3.84,1.02,7.097,3.239,9.766c2.191,2.665,5.185,4.359,8.916,5.03h2.79
	c2.015-0.297,3.888-0.995,5.631-2.141c1.742-1.144,3.163-2.568,4.281-4.309c1.148-1.795,1.868-3.737,2.146-5.855
	c0.297-2.214,0.053-4.458-0.702-6.701C34.087,21.917,33.141,20.025,31.868,17.976z M32.418,34.571
	c-0.4,0.771-0.847,1.496-1.373,2.118c-0.123,0.146-0.247,0.299-0.37,0.448c-1.372,1.514-3.163,2.591-5.356,3.261
	c-3.438,1.07-6.653,0.7-9.643-1.121c-1.99-1.194-3.508-2.989-4.604-5.352c-1.224-2.667-1.521-5.429-0.926-8.297
	c0.353-1.647,1.125-3.46,2.344-5.48c1.446-2.244,2.516-3.883,3.186-4.908c1.42-2.214,2.47-3.911,3.138-5.029
	c1.098-1.791,2.044-3.538,2.864-5.208c-0.021-0.071,0.055-0.151,0.178-0.174c0.073,0.174,1.021,1.818,2.841,4.958
	c1.219,2.191,2.262,3.959,3.158,5.278c1.772,2.694,2.689,4.087,2.742,4.186c1.027,1.669,1.821,3.188,2.317,4.583
	C34.286,27.518,34.11,31.11,32.418,34.571z M30.821,31.209c0.397,0.526,0.35,1.317-0.177,2.388c-0.521,1.047-1.319,2.044-2.39,2.969
	c-1.116,0.97-2.191,1.566-3.241,1.839c-1.042,0.302-1.786,0.176-2.161-0.371c-0.402-0.549-0.324-1.345,0.172-2.393
	c0.496-1.07,1.295-2.067,2.415-3.014c1.07-0.924,2.146-1.542,3.216-1.82C29.703,30.509,30.448,30.66,30.821,31.209z M100.118,55.409
	c-0.597-1.769-1.539-3.657-2.811-5.702c-0.678-1.098-1.922-2.886-3.739-5.4c-1.62-2.271-2.837-4.064-3.611-5.407
	c-1.169-2.024-2.016-3.936-2.493-5.734c-1.816,3.861-3.982,7.701-6.525,11.509c-0.32,0.551-1.116,1.647-2.34,3.344
	c-0.997,1.391-1.768,2.534-2.292,3.454c-1.619,2.745-2.463,5.462-2.49,8.151c-0.078,3.835,1.018,7.095,3.238,9.766
	c2.191,2.662,5.183,4.354,8.913,5.032h2.793c2.017-0.307,3.886-1.002,5.631-2.146c1.745-1.148,3.165-2.566,4.283-4.312
	c1.148-1.791,1.866-3.734,2.144-5.853C101.113,59.894,100.871,57.657,100.118,55.409z M97.854,66.293
	c-0.397,0.777-0.846,1.496-1.372,2.123c-0.121,0.15-0.244,0.297-0.37,0.445c-1.372,1.521-3.163,2.592-5.354,3.264
	c-3.439,1.07-6.655,0.7-9.643-1.12c-1.992-1.194-3.513-2.992-4.608-5.354c-1.224-2.667-1.519-5.427-0.922-8.3
	c0.353-1.638,1.123-3.458,2.343-5.478c1.442-2.239,2.516-3.881,3.188-4.901c1.421-2.219,2.468-3.911,3.136-5.036
	c1.101-1.791,2.043-3.541,2.861-5.201c-0.019-0.078,0.058-0.153,0.181-0.178c0.073,0.178,1.022,1.816,2.841,4.958
	c1.219,2.191,2.262,3.961,3.158,5.281c1.771,2.692,2.692,4.087,2.745,4.183c1.021,1.67,1.817,3.19,2.314,4.584
	C99.723,59.249,99.547,62.835,97.854,66.293z M96.26,62.936c0.394,0.523,0.346,1.319-0.176,2.391
	c-0.524,1.049-1.32,2.04-2.391,2.968c-1.118,0.968-2.193,1.567-3.24,1.839c-1.043,0.296-1.789,0.177-2.164-0.375
	c-0.4-0.546-0.324-1.342,0.172-2.392c0.496-1.073,1.294-2.065,2.415-3.015c1.072-0.922,2.143-1.539,3.216-1.818
	C95.139,62.24,95.887,62.382,96.26,62.936z"/>
</svg>
