<?xml version="1.0" encoding="utf-8"?>
<!-- Generator: Adobe Illustrator 15.0.2, SVG Export Plug-In . SVG Version: 6.00 Build 0)  -->
<!DOCTYPE svg PUBLIC "-//W3C//DTD SVG 1.0//EN" "http://www.w3.org/TR/2001/REC-SVG-20010904/DTD/svg10.dtd">
<svg version="1.0" id="Layer_1" xmlns="http://www.w3.org/2000/svg" xmlns:xlink="http://www.w3.org/1999/xlink" x="0px" y="0px"
	 width="108px" height="108px" viewBox="0 0 108 108" enable-background="new 0 0 108 108" xml:space="preserve">
<path d="M78.7,49.64c0.659,0.885,1.105,1.783,1.105,2.764c0,1.116-0.446,2.11-1.105,2.775c-0.781,0.768-1.669,1.108-2.775,1.108
	h-8.303l-5.65-5.537l-5.09,7.753l11.622,22.704c0.335,0.443,0.67,0.997,0.774,1.658c0.111,0.446,0.226,0.773,0.226,1.326
	c0,1.451-0.551,2.658-1.545,3.655c-1.002,1.118-2.216,1.549-3.659,1.549s-2.658-0.431-3.654-1.549
	c-0.219-0.106-0.333-0.213-0.439-0.437c-0.451-0.561-0.781-1.217-0.888-1.89l-9.635-18.597l-3.216,12.401H27.749
	c-1.334-0.117-2.544-0.561-3.546-1.552c-0.991-0.994-1.438-2.215-1.438-3.665c0-1.428,0.446-2.647,1.438-3.645
	c0.886-0.888,1.882-1.438,3.104-1.438h1.438h10.52l3.444-14.18l5.638-9.521h-5.638l-4.656,5.754l-0.888,1.007
	c-0.662,0.646-1.553,0.986-2.544,0.986c-1.002,0-2.004-0.34-2.777-1.217c-0.769-0.665-1.105-1.659-1.105-2.658
	c0-0.667,0.114-1.217,0.337-1.768l0.888-1.111l6.863-9.523H55.49c-1.436-1.439-2.206-3.422-2.206-5.526
	c0-2.217,0.773-4.096,2.211-5.648c1.661-1.552,3.546-2.326,5.653-2.326c2.098,0,4.094,0.773,5.536,2.326
	c1.55,1.552,2.442,3.431,2.442,5.648c0,2.107-0.893,4.093-2.442,5.534c-1.054,1.132-2.403,1.901-3.867,2.241l8.237,9.485h4.763
	h0.108C77.031,48.531,77.919,48.98,78.7,49.64z M20.122,26.834c-3.769,4.237-5.778,9.213-5.952,14.608
	c-0.076,0.442-0.084,1.034-0.084,1.47c0,5.192,1.48,9.913,4.4,14.028c0.26,0.365,0.669,0.559,1.085,0.559
	c0.267,0,0.535-0.079,0.769-0.245C20.938,56.83,21.078,56,20.654,55.4c-2.595-3.656-3.91-7.858-3.91-12.488
	c0-0.301-0.008-0.711,0.063-1.198c0.171-4.939,1.954-9.352,5.3-13.113c0.488-0.549,0.438-1.389-0.109-1.876
	C21.448,26.237,20.608,26.285,20.122,26.834z M87.878,26.834c-0.485-0.549-1.326-0.594-1.877-0.109
	c-0.548,0.489-0.595,1.329-0.106,1.876c3.33,3.739,5.137,8.156,5.368,13.067v1.243c0,4.623-1.316,8.825-3.909,12.49
	c-0.423,0.6-0.283,1.429,0.316,1.854c0.233,0.165,0.501,0.244,0.769,0.244c0.415,0,0.825-0.196,1.085-0.561
	c2.917-4.125,4.396-8.843,4.396-14.026l-0.002-1.306C93.655,36.009,91.626,31.039,87.878,26.834z M8.986,20.93
	c-4.836,5.952-7.353,12.922-7.45,20.462C1.44,41.845,1.44,42.265,1.44,42.601c0,7.335,2.021,13.933,6.006,19.609
	c0.258,0.369,0.669,0.566,1.088,0.566c0.264,0,0.53-0.078,0.762-0.241c0.601-0.422,0.746-1.25,0.324-1.851
	c-3.665-5.221-5.523-11.305-5.523-18.083c0-0.254,0-0.475,0.067-0.91c0.116-7.186,2.432-13.606,6.885-19.084
	c0.462-0.57,0.376-1.407-0.193-1.87C10.288,20.276,9.45,20.362,8.986,20.93z M99.01,20.93c-0.465-0.571-1.303-0.654-1.868-0.192
	c-0.569,0.462-0.657,1.299-0.192,1.869c4.436,5.455,6.774,11.88,6.953,19.062v0.932c0,6.792-1.858,12.875-5.523,18.082
	c-0.42,0.6-0.277,1.429,0.322,1.851c0.233,0.165,0.501,0.243,0.766,0.243c0.418,0,0.828-0.196,1.088-0.564
	c3.983-5.662,6.006-12.26,6.006-19.611v-0.964C106.366,33.818,103.827,26.852,99.01,20.93z"/>
</svg>
