<?xml version="1.0" encoding="utf-8"?>
<!-- Generator: Adobe Illustrator 15.0.2, SVG Export Plug-In . SVG Version: 6.00 Build 0)  -->
<!DOCTYPE svg PUBLIC "-//W3C//DTD SVG 1.0//EN" "http://www.w3.org/TR/2001/REC-SVG-20010904/DTD/svg10.dtd">
<svg version="1.0" id="Layer_1" xmlns="http://www.w3.org/2000/svg" xmlns:xlink="http://www.w3.org/1999/xlink" x="0px" y="0px"
	 width="108px" height="108px" viewBox="0 0 108 108" enable-background="new 0 0 108 108" xml:space="preserve">
<path d="M78.218,52.92c0.657,0.662,1.533,1.027,2.465,1.027c0.701,0,1.372-0.206,1.941-0.591l0.064,0.034l22.858-22.784
	c1.351-1.361,1.351-3.57-0.002-4.927L82.329,2.427c-1.321-1.314-3.612-1.317-4.925-0.003L55.011,24.743
	c-0.659,0.657-1.021,1.531-1.024,2.461c-0.002,0.932,0.36,1.808,1.019,2.467l4.829,4.836l-3.169,3.167l-1.554-1.557
	c-0.152-0.151-0.422-0.333-0.844-0.333c-0.452,0-1.101,0.294-1.841,0.75c-3.208-3.048-5.76-4.313-6.422-4.606
	c-0.511-0.406-1.713-0.564-7.224,4.948c-1.542,1.54-5.128,5.265-5.126,6.611l0.039,0.485l0.141,0.139
	c0.309,0.697,1.576,3.229,4.584,6.406c-0.458,0.743-0.754,1.393-0.754,1.845c0,0.421,0.182,0.69,0.332,0.839l1.555,1.558
	l-4.089,4.083l-4.83-4.84c-1.314-1.314-3.605-1.32-4.93-0.004L2.459,77.173c-1.357,1.358-1.358,3.568-0.003,4.923l23.215,23.257
	c0.66,0.659,1.536,1.021,2.465,1.021c0.7,0,1.369-0.206,1.939-0.59l0.064,0.032l23.707-23.632c0.661-0.663,1.023-1.542,1.021-2.476
	c-0.002-0.928-0.365-1.798-1.021-2.448L43.525,66.918l4.088-4.088l3.238,3.243c0,0.001,0,0.001,0,0.001l0,0l0.635,0.636l1.195-1.192
	c0.006,0.008,0.009,0.021,0.016,0.029c0.368,0.683,2.891,5.11,8.898,11.203c-4.853,7.388-7.002,14.363-4.992,16.381
	c0.026,0.026,0.064,0.034,0.091,0.058c0.013,0.014,0.01,0.04,0.024,0.054l1.896,1.904l0.001-0.001c0,0.001,0,0.002,0.001,0.003
	c0.039,0.038,0.112,0.074,0.165,0.113c0.035,0.045,0.065,0.11,0.1,0.144c0.172,0.173,0.479,0.378,0.974,0.378
	c2.67,0,12.229-8.294,20.246-16.236l3.104,3.109c-0.164,0.425-0.258,0.877-0.258,1.346c0,1.004,0.392,1.946,1.098,2.652
	c0.708,0.71,1.65,1.101,2.655,1.101c1,0,1.94-0.39,2.65-1.097c0.708-0.709,1.1-1.651,1.1-2.651c0-1.004-0.39-1.946-1.1-2.651
	c-1.111-1.113-2.867-1.342-4.259-0.709l-3.044-3.049c7.75-7.863,15.612-16.965,15.612-19.558c0-0.492-0.206-0.801-0.377-0.972
	c-0.05-0.049-0.138-0.097-0.212-0.146c-0.024-0.034-0.022-0.086-0.053-0.116l0.002-0.001l-1.898-1.903
	c-0.032-0.032-0.067-0.062-0.101-0.092c-0.007-0.007-0.007-0.016-0.015-0.022c-0.507-0.505-1.305-0.762-2.374-0.762
	c-3.086,0-8.413,2.087-14.008,5.735c-6.134-6.072-10.582-8.598-11.208-8.937c-0.004-0.002-0.01-0.003-0.014-0.006l1.195-1.193
	l-3.87-3.876l3.167-3.169L78.218,52.92z M55.791,27.207c0.002-0.448,0.177-0.87,0.494-1.188L78.678,3.7
	c0.315-0.316,0.736-0.49,1.184-0.49c0.451,0,0.874,0.175,1.192,0.493l23.214,23.25c0.653,0.655,0.653,1.723,0.004,2.378
	L82.337,51.195l-0.01-0.004l-0.459,0.461c-0.635,0.634-1.733,0.637-2.371-0.004L56.282,28.395
	C55.964,28.077,55.79,27.655,55.791,27.207z M59.249,40.236l3.083-3.08l2.922,2.925l-3.085,3.08L59.249,40.236z M61.034,35.857
	l0.022,0.023l-3.081,3.08l-0.023-0.023L61.034,35.857z M35.513,43.441c0.351-0.682,1.888-2.64,4.543-5.291
	c2.729-2.729,4.659-4.199,5.304-4.535c0.626,0.292,2.809,1.418,5.556,3.968c-2.457,1.868-5.261,4.623-6.035,5.396
	c-0.775,0.773-3.534,3.573-5.408,6.026C36.923,46.25,35.8,44.064,35.513,43.441z M40.828,56.035l0.018,0.018l-4.087,4.085
	l-0.02-0.02L40.828,56.035z M38.032,61.415l4.087-4.085l2.926,2.931l-4.093,4.082L38.032,61.415z M52.572,78.539
	c0.315,0.313,0.49,0.729,0.491,1.176c0.002,0.451-0.174,0.876-0.492,1.195l-22.785,22.714l-0.002-0.002l-0.46,0.457
	c-0.64,0.635-1.743,0.632-2.377-0.001L3.731,80.822c-0.652-0.653-0.651-1.718,0.003-2.373l23.242-23.173
	c0.32-0.316,0.743-0.492,1.192-0.492c0.45,0,0.873,0.175,1.189,0.492l4.831,4.84l-0.027,0.027l1.294,1.296l0,0l2.755,2.758
	l4.017,4.021l0.022-0.022L52.572,78.539z M42.25,65.641l-0.022-0.022l4.093-4.083l0.018,0.019L42.25,65.641z M40.855,53.458
	l-0.025,0.025l-1.294-1.296c0.397-0.924,2.475-3.796,6.62-7.931c4.174-4.169,7.06-6.24,7.934-6.611l11.561,11.579
	c-1.779,0.926-4.422,3.13-7.919,6.625c-0.983,0.982-5.163,5.226-6.669,7.882l-2.173-2.177l0.024-0.024L40.855,53.458z
	 M93.866,56.393c0.031,0.219-0.002,0.524-0.098,0.902c-4.638,2.635-13.407,10.806-18.619,16.008
	c-3.488,3.483-12.944,13.168-15.895,18.519c-0.339,0.088-0.649,0.147-0.901,0.147c-0.051,0-0.087-0.01-0.132-0.014
	c0.631-1.957,6.257-9.241,16.306-19.275C84.635,62.589,91.956,56.967,93.866,56.393z M78.259,77.703
	c-6.116,6.024-11.558,10.239-15.355,12.452c2.562-3.379,6.997-8.481,13.146-14.666L78.259,77.703z M78.001,73.547
	c5.88-5.784,10.735-9.978,13.997-12.444c-2.063,3.502-5.9,8.593-11.799,14.645L78.001,73.547z M60.826,93.185
	c0.046-0.018,0.086-0.029,0.132-0.048c-0.053,0.03-0.11,0.066-0.16,0.095C60.805,93.217,60.818,93.199,60.826,93.185z
	 M95.085,58.996c0.005-0.002,0.011-0.007,0.016-0.01c-0.013,0.022-0.03,0.049-0.042,0.072
	C95.065,59.038,95.078,59.016,95.085,58.996z M87.045,58.829c-3.914,3.136-8.812,7.602-13.793,12.575
	c-3.305,3.302-11.975,12.173-15.389,17.646c0.95-4.287,4.834-12.62,12.636-20.408c7.539-7.529,15.722-11.585,20.245-12.567
	C89.763,56.728,88.555,57.62,87.045,58.829z M88.077,82.632c0.366,0.366,0.569,0.855,0.569,1.375s-0.203,1.009-0.569,1.376
	c-0.739,0.735-2.019,0.735-2.757-0.003c-0.366-0.367-0.568-0.855-0.568-1.377c0-0.521,0.202-1.01,0.568-1.377
	c0.368-0.365,0.856-0.566,1.376-0.566C87.218,82.06,87.707,82.262,88.077,82.632z M66.579,52.422
	c0.572,0.316,4.792,2.759,10.517,8.371c-2.674,1.866-5.367,4.071-7.871,6.571c-2.495,2.49-4.715,5.18-6.598,7.857
	c-5.602-5.736-8.03-9.962-8.342-10.528c0.094-0.323,0.491-1.012,1.189-1.966l9.133-9.117C65.565,52.912,66.255,52.515,66.579,52.422
	z M63.466,44.461l-0.023-0.024l3.085-3.08l0.021,0.02L63.466,44.461z M68.612,16.896L58.282,27.21l6.929,6.944l10.332-10.321
	L68.612,16.896z M60.832,27.212l7.778-7.766l4.381,4.386l-7.779,7.77L60.832,27.212z M91.837,38.527l10.329-10.318l-6.934-6.938
	L84.904,31.59L91.837,38.527z M99.615,28.208l-7.778,7.769l-4.382-4.385l7.777-7.769L99.615,28.208z M86.689,12.708l-6.93-6.941
	L69.425,16.084l6.929,6.941L86.689,12.708z M79.756,8.317l4.383,4.389l-7.781,7.769l-4.383-4.389L79.756,8.317z M84.098,30.773
	l10.325-10.314l-6.922-6.94L77.164,23.837L84.098,30.773z M91.872,20.457l-7.774,7.766l-4.383-4.384l7.783-7.769L91.872,20.457z
	 M76.354,24.645L66.02,34.959l6.925,6.939l10.334-10.314L76.354,24.645z M68.571,34.961l7.78-7.766l4.378,4.387l-7.779,7.766
	L68.571,34.961z M91.022,39.339l-6.932-6.941L73.762,42.715l6.928,6.938L91.022,39.339z M84.091,34.948l4.381,4.389l-7.778,7.766
	l-4.382-4.385L84.091,34.948z M24.758,76.158L14.433,86.47l6.924,6.94l10.331-10.318L24.758,76.158z M16.984,86.472l7.772-7.764
	l4.38,4.382l-7.778,7.768L16.984,86.472z M25.573,75.339l6.931,6.941L42.83,71.967l-6.92-6.943L25.573,75.339z M32.505,79.73
	l-4.382-4.389l7.783-7.765l4.375,4.387L32.505,79.73z M22.168,94.219l6.927,6.938l10.332-10.311l-6.924-6.94L22.168,94.219z
	 M29.097,98.606l-4.378-4.386l7.781-7.763l4.377,4.385L29.097,98.606z M35.098,64.215l-6.933-6.94L17.836,67.586l6.929,6.943
	L35.098,64.215z M28.163,59.826l4.384,4.387l-7.78,7.766l-4.38-4.391L28.163,59.826z M40.243,90.031l10.332-10.315l-6.93-6.936
	L33.313,83.092L40.243,90.031z M48.024,79.715l-7.78,7.766l-4.38-4.388l7.78-7.762L48.024,79.715z M17.021,68.403L6.691,78.714
	l6.931,6.945l10.329-10.315L17.021,68.403z M9.242,78.716l7.778-7.763l4.38,4.39l-7.776,7.766L9.242,78.716z"/>
</svg>
