<?xml version="1.0" encoding="utf-8"?>
<!-- Generator: Adobe Illustrator 15.0.2, SVG Export Plug-In . SVG Version: 6.00 Build 0)  -->
<!DOCTYPE svg PUBLIC "-//W3C//DTD SVG 1.0//EN" "http://www.w3.org/TR/2001/REC-SVG-20010904/DTD/svg10.dtd">
<svg version="1.0" id="Layer_1" xmlns="http://www.w3.org/2000/svg" xmlns:xlink="http://www.w3.org/1999/xlink" x="0px" y="0px"
	 width="108px" height="108px" viewBox="0 0 108 108" enable-background="new 0 0 108 108" xml:space="preserve">
<path d="M54.007,6.966L1.44,98h105.12L54.007,6.966z M77.731,70.184c-0.251-7.835-6.564-14.151-14.4-14.408V29.375l23.56,40.809
	H77.731z M63.331,76.029c2.569-0.234,4.6-2.245,4.868-4.803h6.399C74.31,77.3,69.413,82.172,63.331,82.423V76.029z M68.207,70.184
	c-0.232-2.597-2.279-4.644-4.876-4.88v-6.399c6.11,0.252,11.025,5.168,11.271,11.279H68.207z M62.288,65.311
	c-2.562,0.264-4.573,2.299-4.803,4.873h-6.399c0.246-6.089,5.123-10.991,11.202-11.275V65.311z M57.493,71.227
	c0.266,2.536,2.26,4.533,4.795,4.796v6.396c-6.05-0.283-10.91-5.142-11.198-11.192H57.493z M63.331,85.552
	c7.807-0.256,14.103-6.528,14.396-14.325h9.764l13.65,23.646H63.331V85.552z M62.288,27.568V55.78
	c-7.804,0.288-14.081,6.59-14.331,14.404H21.115l32.892-56.961L62.288,27.568z M20.514,71.227h27.447
	c0.294,7.775,6.552,14.033,14.327,14.321v9.324H6.86L20.514,71.227z"/>
</svg>
