<?xml version="1.0" encoding="utf-8"?>
<!-- Generator: Adobe Illustrator 15.0.2, SVG Export Plug-In . SVG Version: 6.00 Build 0)  -->
<!DOCTYPE svg PUBLIC "-//W3C//DTD SVG 1.0//EN" "http://www.w3.org/TR/2001/REC-SVG-20010904/DTD/svg10.dtd">
<svg version="1.0" id="Layer_1" xmlns="http://www.w3.org/2000/svg" xmlns:xlink="http://www.w3.org/1999/xlink" x="0px" y="0px"
	 width="108px" height="108px" viewBox="0 0 108 108" enable-background="new 0 0 108 108" xml:space="preserve">
<path d="M106.561,93.223c0,0.62-0.502,1.121-1.122,1.121H2.562c-0.62,0-1.122-0.501-1.122-1.121s0.502-1.122,1.122-1.122h102.876
	C106.059,92.101,106.561,92.603,106.561,93.223z M52.265,44.487c5.173,0,10.409-1.801,14.284-5.333
	c0.687-0.625,0.736-1.69,0.109-2.377c-0.627-0.688-1.69-0.737-2.378-0.11c-6.045,5.513-16.019,6.019-22.23,1.131
	c-0.733-0.577-1.79-0.448-2.363,0.282c-0.575,0.73-0.448,1.789,0.281,2.363C43.413,43.154,47.815,44.487,52.265,44.487z
	 M51.379,75.347c13.686,0,27.552-4.767,37.802-14.111c0.688-0.625,0.736-1.69,0.112-2.377c-0.629-0.687-1.694-0.735-2.378-0.11
	c-17.895,16.309-47.466,17.79-65.925,3.297c-0.732-0.575-1.789-0.446-2.363,0.283c-0.574,0.732-0.447,1.789,0.284,2.363
	C28.01,71.836,39.627,75.347,51.379,75.347z M51.955,60.354c9.588,0,19.298-3.337,26.475-9.88c0.688-0.625,0.736-1.69,0.111-2.377
	c-0.629-0.686-1.691-0.734-2.379-0.109c-12.181,11.106-32.318,12.114-44.886,2.256c-0.73-0.574-1.792-0.447-2.362,0.285
	c-0.574,0.731-0.447,1.789,0.285,2.362C35.576,57.895,43.72,60.354,51.955,60.354z M51.947,29.408c5.087,0,9.211-4.124,9.211-9.211
	c0-5.088-4.124-9.212-9.211-9.212s-9.211,4.124-9.211,9.212C42.736,25.284,46.86,29.408,51.947,29.408z"/>
</svg>
