<?xml version="1.0" encoding="utf-8"?>
<!-- Generator: Adobe Illustrator 15.0.2, SVG Export Plug-In . SVG Version: 6.00 Build 0)  -->
<!DOCTYPE svg PUBLIC "-//W3C//DTD SVG 1.1//EN" "http://www.w3.org/Graphics/SVG/1.1/DTD/svg11.dtd">
<svg version="1.1" id="Layer_1" xmlns="http://www.w3.org/2000/svg" xmlns:xlink="http://www.w3.org/1999/xlink" x="0px" y="0px"
	 width="108px" height="108px" viewBox="0 0 108 108" enable-background="new 0 0 108 108" xml:space="preserve">
<g>
	<path d="M34.111,54.084h1.759h1.001h10.254l2.13-8.217l6.404,12.357c0.078,0.459,0.297,0.924,0.617,1.32
		c0.09,0.18,0.189,0.281,0.361,0.367c0.676,0.74,1.533,1.1,2.619,1.1c1.104,0,1.969-0.367,2.641-1.119
		c0.742-0.74,1.119-1.629,1.119-2.641c0-0.328-0.057-0.551-0.117-0.785l-0.039-0.154c-0.068-0.41-0.254-0.809-0.549-1.191
		l-5.498-10.736l-0.039-0.079l0,0l-2.415-4.714l3.325-5.068l3.785,3.708h5.791c0.824,0,1.467-0.258,2.025-0.811
		c0.52-0.521,0.816-1.261,0.816-2.032c0-0.645-0.254-1.283-0.826-2.039c-0.633-0.543-1.293-0.807-2.016-0.807h-3.277l-5.436-6.267
		c0.932-0.271,1.797-0.768,2.473-1.493c1.104-1.024,1.736-2.459,1.736-3.938c0-1.512-0.582-2.861-1.727-4.004
		c-0.994-1.072-2.393-1.663-3.939-1.663c-1.488,0-2.836,0.556-4.02,1.663c-1.044,1.12-1.573,2.468-1.573,4.004
		c0,1.376,0.479,2.637,1.325,3.622H41.639l-4.773,6.623l-0.604,0.764l-0.026,0.043c-0.165,0.417-0.243,0.824-0.243,1.282
		c0,0.808,0.292,1.508,0.808,1.951c0.521,0.585,1.226,0.895,2.036,0.895c0.739,0,1.389-0.255,1.89-0.746l0.61-0.691l3.15-3.895
		h3.482l-3.721,6.285l-2.355,9.663H33.81c-0.824,0-1.563,0.343-2.26,1.046c-0.703,0.705-1.045,1.564-1.045,2.632
		c0,1.078,0.342,1.944,1.045,2.646C32.211,53.627,33.043,53.993,34.111,54.084z"/>
	<path d="M28.488,38.69c0.144,0,0.288-0.044,0.414-0.133c0.32-0.229,0.396-0.673,0.167-0.995c-1.809-2.545-2.728-5.474-2.728-8.708
		c0-0.217-0.004-0.513,0.045-0.828c0.114-3.445,1.357-6.523,3.694-9.149c0.261-0.294,0.235-0.746-0.06-1.007
		c-0.293-0.259-0.743-0.235-1.008,0.06c-2.563,2.88-3.928,6.261-4.043,9.948c-0.052,0.288-0.056,0.684-0.056,0.977
		c0,3.536,1.006,6.744,2.992,9.536C28.045,38.585,28.264,38.69,28.488,38.69z"/>
	<path d="M78,28.003v0.852c0,3.232-0.916,6.162-2.721,8.708c-0.227,0.322-0.15,0.767,0.17,0.995c0.127,0.088,0.27,0.132,0.414,0.132
		c0.223,0,0.443-0.104,0.582-0.302c1.979-2.792,2.982-6,2.982-9.534l-0.002-0.883c-0.172-3.802-1.549-7.182-4.098-10.041
		c-0.26-0.295-0.713-0.321-1.006-0.059c-0.295,0.262-0.32,0.712-0.059,1.006C76.588,21.488,77.844,24.569,78,28.003z"/>
	<path d="M20.898,42.32c0.143,0,0.285-0.042,0.411-0.13c0.322-0.227,0.398-0.673,0.173-0.995c-2.548-3.616-3.838-7.84-3.838-12.553
		c0-0.169-0.005-0.334,0.042-0.627c0.077-4.993,1.686-9.452,4.779-13.25c0.25-0.306,0.204-0.755-0.103-1.004
		c-0.304-0.248-0.754-0.205-1.004,0.102c-3.301,4.054-5.019,8.808-5.087,14.003c-0.051,0.258-0.056,0.516-0.056,0.776
		c0,5.013,1.379,9.514,4.098,13.375C20.454,42.214,20.673,42.32,20.898,42.32z"/>
	<path d="M86.699,28.003v0.639c0,4.724-1.291,8.949-3.836,12.553c-0.229,0.322-0.15,0.767,0.172,0.994
		c0.123,0.089,0.268,0.131,0.41,0.131c0.223,0,0.443-0.104,0.582-0.303c2.721-3.851,4.1-8.35,4.1-13.375v-0.655
		c-0.125-5.331-1.857-10.083-5.148-14.125c-0.25-0.307-0.699-0.35-1.004-0.102c-0.307,0.249-0.352,0.698-0.104,1.004
		C84.957,18.553,86.582,23.014,86.699,28.003z"/>
	<path d="M57.574,44.306l0.365,0.713l6.156,0.003l-3.99,4.229l0.346,0.673l4.625-4.901l19.029,0.007l-8.525,9.434l-12.818-0.027
		l0.156,0.305c0.346,0.463,0.563,0.949,0.633,1.398l0.039,0.152c0.066,0.254,0.139,0.541,0.139,0.961
		c0,1.207-0.447,2.268-1.301,3.117c-0.805,0.9-1.873,1.357-3.172,1.357c-1.236,0-2.27-0.418-3.064-1.244
		c-0.223-0.137-0.387-0.311-0.518-0.547c-0.344-0.443-0.588-0.961-0.697-1.473l-1.263-2.438l-7.934,8.41H26.729l8.962-9.148h17.641
		l-0.37-0.713h-5.227l-0.059,0.225h-0.552l-11.95-0.004L1.44,89.229h66.869l28.912-33.941h0.326v-0.383l9.014-10.581L57.574,44.306z
		 M46.087,65.148h19.836L55.795,76.359H35.513L46.087,65.148z M26.363,64.811v0.338h18.744L34.532,76.359H15.046L26.363,64.811z
		 M3.137,88.514l11.211-11.441h19.511L23.065,88.514H3.137z M24.046,88.514l10.793-11.441H55.15L44.811,88.514H24.046z
		 M67.979,88.514H45.774l10.337-11.441h21.615L67.979,88.514z M78.334,76.359H56.758l10.129-11.211h20.998L78.334,76.359z
		 M88.492,64.436H67.531l8.268-9.148h20.484L88.492,64.436z M96.893,54.574H76.441l8.627-9.543l19.947,0.007L96.893,54.574z"/>
</g>
</svg>
