<?xml version="1.0" encoding="utf-8"?>
<!-- Generator: Adobe Illustrator 15.0.2, SVG Export Plug-In . SVG Version: 6.00 Build 0)  -->
<!DOCTYPE svg PUBLIC "-//W3C//DTD SVG 1.0//EN" "http://www.w3.org/TR/2001/REC-SVG-20010904/DTD/svg10.dtd">
<svg version="1.0" id="Layer_1" xmlns="http://www.w3.org/2000/svg" xmlns:xlink="http://www.w3.org/1999/xlink" x="0px" y="0px"
	 width="108px" height="108px" viewBox="0 0 108 108" enable-background="new 0 0 108 108" xml:space="preserve">
<path d="M32.629,62.509c0,0.957-0.775,1.733-1.733,1.733h-9.241c-0.957,0-1.733-0.776-1.733-1.733s0.776-1.733,1.733-1.733h9.241
	C31.854,60.776,32.629,61.552,32.629,62.509z M12.414,60.776H3.173c-0.958,0-1.733,0.776-1.733,1.733s0.775,1.733,1.733,1.733h9.241
	c0.957,0,1.733-0.776,1.733-1.733S13.371,60.776,12.414,60.776z M49.379,60.776h-9.241c-0.958,0-1.733,0.776-1.733,1.733
	s0.775,1.733,1.733,1.733h9.241c0.957,0,1.732-0.776,1.732-1.733S50.336,60.776,49.379,60.776z M67.862,60.776h-9.241
	c-0.957,0-1.733,0.776-1.733,1.733s0.776,1.733,1.733,1.733h9.241c0.957,0,1.732-0.776,1.732-1.733S68.819,60.776,67.862,60.776z
	 M104.828,60.776h-9.242c-0.956,0-1.732,0.776-1.732,1.733s0.776,1.733,1.732,1.733h9.242c0.956,0,1.732-0.776,1.732-1.733
	S105.784,60.776,104.828,60.776z M86.345,60.776h-9.241c-0.957,0-1.732,0.776-1.732,1.733s0.775,1.733,1.732,1.733h9.241
	c0.957,0,1.733-0.776,1.733-1.733S87.302,60.776,86.345,60.776z M58.621,49.155h9.241c0.957,0,1.732-0.775,1.732-1.732
	c0-0.958-0.775-1.733-1.732-1.733h-9.241c-0.957,0-1.733,0.775-1.733,1.733C56.888,48.38,57.664,49.155,58.621,49.155z
	 M77.104,49.155h9.241c0.957,0,1.733-0.775,1.733-1.732c0-0.958-0.776-1.733-1.733-1.733h-9.241c-0.957,0-1.732,0.775-1.732,1.733
	C75.371,48.38,76.146,49.155,77.104,49.155z M95.586,49.155h9.242c0.956,0,1.732-0.775,1.732-1.732c0-0.958-0.776-1.733-1.732-1.733
	h-9.242c-0.956,0-1.732,0.775-1.732,1.733C93.854,48.38,94.63,49.155,95.586,49.155z M3.173,49.155h9.241
	c0.957,0,1.733-0.775,1.733-1.732c0-0.958-0.776-1.733-1.733-1.733H3.173c-0.958,0-1.733,0.775-1.733,1.733
	C1.44,48.38,2.215,49.155,3.173,49.155z M21.655,49.155h9.241c0.958,0,1.733-0.775,1.733-1.732c0-0.958-0.775-1.733-1.733-1.733
	h-9.241c-0.957,0-1.733,0.775-1.733,1.733C19.922,48.38,20.698,49.155,21.655,49.155z M40.138,49.155h9.241
	c0.957,0,1.732-0.775,1.732-1.732c0-0.958-0.775-1.733-1.732-1.733h-9.241c-0.958,0-1.733,0.775-1.733,1.733
	C38.405,48.38,39.181,49.155,40.138,49.155z"/>
</svg>
