<?xml version="1.0" encoding="utf-8"?>
<!-- Generator: Adobe Illustrator 15.0.2, SVG Export Plug-In . SVG Version: 6.00 Build 0)  -->
<!DOCTYPE svg PUBLIC "-//W3C//DTD SVG 1.0//EN" "http://www.w3.org/TR/2001/REC-SVG-20010904/DTD/svg10.dtd">
<svg version="1.0" id="Layer_1" xmlns="http://www.w3.org/2000/svg" xmlns:xlink="http://www.w3.org/1999/xlink" x="0px" y="0px"
	 width="108px" height="108px" viewBox="0 0 108 108" enable-background="new 0 0 108 108" xml:space="preserve">
<path d="M105.477,51.151H89.335c-0.015,0-0.027,0.007-0.042,0.008C88.201,32.544,72.754,17.723,53.87,17.723
	c-18.883,0-34.326,14.817-35.424,33.429H2.523c-0.599,0-1.083,0.484-1.083,1.083s0.484,1.083,1.083,1.083h15.821
	C18.38,72.879,34.299,88.783,53.87,88.783c19.57,0,35.489-15.904,35.525-35.466h16.082c0.598,0,1.083-0.484,1.083-1.083
	S106.074,51.151,105.477,51.151z M53.87,86.617c-18.396,0-33.364-14.968-33.364-33.365c0-18.396,14.967-33.363,33.364-33.363
	c18.396,0,33.362,14.967,33.362,33.363C87.231,71.649,72.266,86.617,53.87,86.617z M42.213,41.966c0.8,0,1.464-0.216,1.989-0.645
	c0.526-0.432,0.922-1.041,1.185-1.83c0.265-0.79,0.398-1.828,0.398-3.112c0-1.085-0.084-1.948-0.248-2.587
	c-0.165-0.641-0.391-1.183-0.679-1.629c-0.29-0.446-0.656-0.787-1.1-1.024c-0.442-0.237-0.958-0.355-1.544-0.355
	c-0.797,0-1.459,0.215-1.984,0.643c-0.524,0.43-0.922,1.037-1.188,1.826c-0.267,0.789-0.398,1.832-0.398,3.126
	c0,2.056,0.36,3.541,1.083,4.453C40.326,41.587,41.155,41.966,42.213,41.966z M40.72,32.681c0.368-0.522,0.858-0.785,1.477-0.785
	c0.628,0,1.151,0.298,1.574,0.891c0.419,0.592,0.631,1.79,0.631,3.592c0,1.794-0.212,2.987-0.631,3.585
	c-0.423,0.597-0.939,0.897-1.557,0.897s-1.138-0.299-1.559-0.893c-0.421-0.597-0.63-1.792-0.63-3.59
	C40.024,34.581,40.254,33.35,40.72,32.681z M51.132,36.58H47v-1.352h4.131V36.58z M54.69,34.139
	c-0.524,0.309-0.999,0.54-1.415,0.694v-1.299c0.751-0.353,1.409-0.783,1.972-1.286c0.563-0.501,0.962-0.99,1.195-1.464h0.867V41.78
	h-1.346v-8.567C55.64,33.521,55.215,33.83,54.69,34.139z M64.324,41.966c0.8,0,1.464-0.216,1.989-0.645
	c0.526-0.432,0.922-1.041,1.185-1.83c0.265-0.79,0.398-1.828,0.398-3.112c0-1.085-0.085-1.948-0.248-2.587
	c-0.166-0.641-0.392-1.183-0.679-1.629c-0.29-0.446-0.656-0.787-1.1-1.024c-0.442-0.237-0.958-0.355-1.544-0.355
	c-0.797,0-1.459,0.215-1.984,0.643c-0.524,0.43-0.922,1.037-1.189,1.826c-0.266,0.789-0.397,1.832-0.397,3.126
	c0,2.056,0.359,3.541,1.083,4.453C62.437,41.587,63.266,41.966,64.324,41.966z M62.831,32.681c0.368-0.522,0.858-0.785,1.476-0.785
	c0.628,0,1.151,0.298,1.574,0.891c0.419,0.592,0.63,1.79,0.63,3.592c0,1.794-0.211,2.987-0.63,3.585
	c-0.423,0.597-0.939,0.897-1.557,0.897s-1.138-0.299-1.559-0.893c-0.421-0.597-0.63-1.792-0.63-3.59
	C62.134,34.581,62.365,33.35,62.831,32.681z M41.705,48.397h4.235l-4.785,23.025h-4.369l-4.783-23.025h4.345l2.678,15.525
	L41.705,48.397z M57.436,50.208c-0.634-0.609-1.375-1.062-2.216-1.362c-0.847-0.299-1.993-0.449-3.44-0.449h-4.729v23.025h4.774
	c1.263,0,2.321-0.129,3.175-0.387c0.855-0.256,1.655-0.736,2.393-1.438c1-0.948,1.788-2.272,2.359-3.973
	c0.571-1.701,0.858-3.598,0.858-5.69c0-2.226-0.275-4.161-0.825-5.805C59.234,52.481,58.451,51.176,57.436,50.208z M55.919,63.792
	c-0.258,1.036-0.671,1.853-1.238,2.449c-0.375,0.394-0.755,0.645-1.145,0.76c-0.387,0.112-1.013,0.169-1.872,0.169h-0.423V52.634
	h0.705c0.679,0,1.2,0.065,1.563,0.194c0.362,0.129,0.696,0.333,1.003,0.609c0.643,0.599,1.102,1.447,1.379,2.545
	c0.275,1.098,0.415,2.399,0.415,3.903C56.307,61.454,56.175,62.755,55.919,63.792z M73.026,49.163
	c0.408,0.273,0.737,0.508,0.982,0.705v5.473h-0.427c-0.149-0.205-0.369-0.508-0.656-0.903c-0.286-0.398-0.567-0.741-0.845-1.028
	c-0.315-0.32-0.672-0.599-1.076-0.835c-0.402-0.237-0.816-0.356-1.244-0.356c-0.508,0-0.978,0.129-1.411,0.388
	c-0.434,0.255-0.849,0.715-1.244,1.375c-0.358,0.609-0.649,1.406-0.874,2.396c-0.224,0.99-0.336,2.181-0.336,3.571
	c0,1.403,0.118,2.604,0.353,3.605c0.237,0.999,0.544,1.802,0.925,2.412c0.366,0.588,0.783,1.007,1.25,1.261
	c0.465,0.251,0.918,0.379,1.36,0.379c0.434,0,0.853-0.112,1.261-0.334c0.408-0.22,0.784-0.522,1.136-0.903
	c0.31-0.319,0.58-0.645,0.818-0.975c0.239-0.33,0.448-0.628,0.629-0.897h0.381v5.396c-0.254,0.176-0.578,0.4-0.97,0.672
	c-0.393,0.275-0.761,0.489-1.104,0.643c-0.47,0.216-0.914,0.381-1.329,0.495c-0.414,0.112-0.977,0.169-1.686,0.169
	c-2.285,0-4.081-1.055-5.388-3.169c-1.307-2.113-1.963-5.037-1.963-8.769c0-3.7,0.668-6.624,2.008-8.767
	c1.337-2.145,3.12-3.218,5.354-3.218c0.605,0,1.153,0.055,1.642,0.164c0.491,0.107,0.935,0.249,1.341,0.425
	C72.248,48.68,72.621,48.89,73.026,49.163z"/>
</svg>
