<?xml version="1.0" encoding="utf-8"?>
<!-- Generator: Adobe Illustrator 15.0.2, SVG Export Plug-In . SVG Version: 6.00 Build 0)  -->
<!DOCTYPE svg PUBLIC "-//W3C//DTD SVG 1.0//EN" "http://www.w3.org/TR/2001/REC-SVG-20010904/DTD/svg10.dtd">
<svg version="1.0" id="Layer_1" xmlns="http://www.w3.org/2000/svg" xmlns:xlink="http://www.w3.org/1999/xlink" x="0px" y="0px"
	 width="108px" height="108px" viewBox="0 0 108 108" enable-background="new 0 0 108 108" xml:space="preserve">
<path d="M105.477,51.154H89.334c-0.016,0-0.025,0.007-0.041,0.008c-1.09-18.615-16.539-33.437-35.424-33.437
	c-18.88,0-34.325,14.817-35.421,33.428H2.523c-0.599,0-1.083,0.484-1.083,1.083s0.484,1.083,1.083,1.083h15.823
	c0.036,19.557,15.957,35.459,35.522,35.459c19.567,0,35.491-15.902,35.526-35.459h16.082c0.6,0,1.084-0.484,1.084-1.083
	S106.076,51.154,105.477,51.154z M53.869,86.613c-18.396,0-33.36-14.966-33.36-33.361c0-18.395,14.965-33.36,33.36-33.36
	c18.399,0,33.364,14.966,33.364,33.36C87.232,71.647,72.268,86.613,53.869,86.613z M45.788,41.948c0.802,0,1.464-0.216,1.991-0.645
	c0.526-0.432,0.92-1.041,1.183-1.83c0.266-0.789,0.397-1.828,0.397-3.112c0-1.085-0.083-1.948-0.245-2.587
	c-0.165-0.641-0.394-1.183-0.682-1.629s-0.656-0.787-1.098-1.024c-0.442-0.237-0.959-0.355-1.547-0.355
	c-0.795,0-1.457,0.216-1.984,0.643c-0.524,0.429-0.92,1.037-1.187,1.826s-0.399,1.832-0.399,3.126c0,2.056,0.361,3.542,1.083,4.453
	C43.903,41.569,44.732,41.948,45.788,41.948z M44.294,32.663c0.368-0.522,0.861-0.785,1.479-0.785c0.628,0,1.151,0.298,1.572,0.891
	s0.63,1.79,0.63,3.592c0,1.794-0.209,2.987-0.63,3.586c-0.421,0.596-0.939,0.896-1.558,0.896c-0.617,0-1.138-0.298-1.557-0.893
	c-0.421-0.597-0.631-1.792-0.631-3.59C43.6,34.563,43.832,33.332,44.294,32.663z M54.707,36.562h-4.129V35.21h4.129V36.562z
	 M60.981,40.111c0.448-0.488,0.673-1.136,0.673-1.942c0-0.768-0.216-1.373-0.647-1.815c-0.43-0.444-0.994-0.667-1.692-0.667
	c-0.432,0-0.823,0.1-1.172,0.296c-0.347,0.197-0.622,0.451-0.821,0.766l-1.263-0.165l1.06-5.625h5.445v1.284h-4.368l-0.59,2.945
	c0.657-0.459,1.348-0.688,2.068-0.688c0.956,0,1.765,0.33,2.42,0.992c0.658,0.664,0.986,1.515,0.986,2.555
	c0,0.992-0.288,1.847-0.867,2.57c-0.7,0.887-1.659,1.329-2.875,1.329c-0.997,0-1.809-0.279-2.439-0.835
	c-0.63-0.559-0.99-1.297-1.079-2.219l1.413-0.119c0.104,0.686,0.348,1.204,0.729,1.549c0.38,0.347,0.84,0.52,1.377,0.52
	C59.985,40.843,60.533,40.598,60.981,40.111z M41.701,48.383h4.235l-4.783,23.024h-4.368L32,48.383h4.347l2.677,15.525
	L41.701,48.383z M57.433,50.194c-0.635-0.609-1.375-1.062-2.219-1.362c-0.844-0.298-1.991-0.449-3.439-0.449h-4.729v23.024h4.774
	c1.261,0,2.318-0.129,3.176-0.387c0.854-0.256,1.652-0.736,2.393-1.438c1-0.948,1.785-2.272,2.356-3.973
	c0.573-1.701,0.858-3.598,0.858-5.69c0-2.226-0.274-4.161-0.824-5.805C59.231,52.468,58.449,51.163,57.433,50.194z M55.917,63.777
	c-0.258,1.037-0.673,1.853-1.239,2.45c-0.373,0.394-0.754,0.645-1.143,0.759c-0.39,0.112-1.014,0.169-1.872,0.169h-0.426V52.62
	h0.707c0.679,0,1.199,0.065,1.562,0.195c0.363,0.129,0.697,0.332,1.002,0.609c0.644,0.599,1.104,1.447,1.38,2.545
	c0.274,1.098,0.414,2.399,0.414,3.903C56.301,61.439,56.172,62.74,55.917,63.777z M73.023,49.149
	c0.408,0.272,0.734,0.507,0.98,0.704v5.473h-0.426c-0.15-0.205-0.367-0.508-0.656-0.903c-0.285-0.397-0.568-0.74-0.844-1.028
	c-0.314-0.32-0.672-0.599-1.076-0.836c-0.404-0.237-0.818-0.355-1.245-0.355c-0.507,0-0.979,0.129-1.41,0.387
	c-0.434,0.256-0.849,0.715-1.244,1.375c-0.359,0.609-0.651,1.407-0.876,2.397s-0.334,2.181-0.334,3.571
	c0,1.402,0.118,2.604,0.351,3.605c0.237,0.998,0.546,1.802,0.927,2.411c0.364,0.588,0.783,1.007,1.248,1.261
	c0.466,0.251,0.921,0.378,1.362,0.378c0.432,0,0.852-0.112,1.26-0.334c0.406-0.22,0.785-0.523,1.137-0.903
	c0.307-0.32,0.578-0.646,0.818-0.976c0.238-0.33,0.449-0.628,0.627-0.897h0.381v5.396c-0.254,0.176-0.576,0.4-0.969,0.673
	c-0.393,0.275-0.76,0.489-1.105,0.643c-0.469,0.216-0.91,0.381-1.326,0.495c-0.414,0.112-0.977,0.169-1.686,0.169
	c-2.284,0-4.082-1.056-5.39-3.169s-1.961-5.037-1.961-8.769c0-3.7,0.668-6.624,2.008-8.767c1.337-2.145,3.12-3.217,5.354-3.217
	c0.605,0,1.154,0.055,1.642,0.163s0.936,0.25,1.338,0.425C72.246,48.667,72.615,48.876,73.023,49.149z"/>
</svg>
