<?xml version="1.0" encoding="utf-8"?>
<!-- Generator: Adobe Illustrator 15.0.2, SVG Export Plug-In . SVG Version: 6.00 Build 0)  -->
<!DOCTYPE svg PUBLIC "-//W3C//DTD SVG 1.0//EN" "http://www.w3.org/TR/2001/REC-SVG-20010904/DTD/svg10.dtd">
<svg version="1.0" id="Layer_1" xmlns="http://www.w3.org/2000/svg" xmlns:xlink="http://www.w3.org/1999/xlink" x="0px" y="0px"
	 width="108px" height="108px" viewBox="0 0 108 108" enable-background="new 0 0 108 108" xml:space="preserve">
<path d="M19.025,18.306c-1.732,5.686-3.116,13.323-2.74,18.996l-4.154-6.443c-7.55,14.046-7.55,30.802,0,44.849l4.155-6.443
	c-0.375,5.673,1.008,13.311,2.739,18.996c-5.02-3.181-12.016-6.544-17.585-7.688l7.589-2.379c-8.637-15.547-8.637-34.275,0-49.819
	l-7.589-2.38C7.009,24.849,14.004,21.486,19.025,18.306z M98.971,28.372l7.59-2.38c-5.57-1.144-12.566-4.506-17.587-7.686
	c1.732,5.686,3.118,13.322,2.742,18.996l4.152-6.443c7.554,14.046,7.554,30.801,0,44.849l-4.154-6.443
	c0.376,5.674-1.008,13.311-2.74,18.996c5.021-3.181,12.017-6.542,17.585-7.687l-7.588-2.38
	C107.61,62.645,107.61,43.917,98.971,28.372z M80.627,53.105c0,7.505-6.105,13.61-13.61,13.61H40.98
	c-7.503,0-13.608-6.105-13.608-13.61s6.105-13.611,13.608-13.611h26.037C74.521,39.495,80.627,45.601,80.627,53.105z M76.702,53.105
	c0-5.341-4.344-9.687-9.685-9.687H40.98c-5.34,0-9.684,4.345-9.684,9.687s4.344,9.687,9.684,9.687h26.037
	C72.358,62.792,76.702,58.447,76.702,53.105z"/>
</svg>
