<?xml version="1.0" encoding="utf-8"?>
<!-- Generator: Adobe Illustrator 15.0.2, SVG Export Plug-In . SVG Version: 6.00 Build 0)  -->
<!DOCTYPE svg PUBLIC "-//W3C//DTD SVG 1.0//EN" "http://www.w3.org/TR/2001/REC-SVG-20010904/DTD/svg10.dtd">
<svg version="1.0" id="Layer_1" xmlns="http://www.w3.org/2000/svg" xmlns:xlink="http://www.w3.org/1999/xlink" x="0px" y="0px"
	 width="108px" height="108px" viewBox="0 0 108 108" enable-background="new 0 0 108 108" xml:space="preserve">
<path d="M103.413,95.99v10.57H64.649v-8.427C76.906,89.706,87.48,73.309,87.48,52.472c0-18.848-11.186-40.146-33.095-40.146
	c-21.766,0-33.871,20.072-33.871,40.453c0,19.302,10.729,37.692,22.986,45.355v8.427H4.587V95.99h22.372v-0.463
	C16.689,86.949,6.728,71.472,6.572,51.704C6.572,22.132,27.264,1.44,54.69,1.44c28.652,0,46.577,21.609,46.577,48.884
	c0,21.303-10.116,36.471-20.375,45.204v0.463H103.413z"/>
</svg>
