<?xml version="1.0" encoding="utf-8"?>
<!-- Generator: Adobe Illustrator 15.0.2, SVG Export Plug-In . SVG Version: 6.00 Build 0)  -->
<!DOCTYPE svg PUBLIC "-//W3C//DTD SVG 1.1//EN" "http://www.w3.org/Graphics/SVG/1.1/DTD/svg11.dtd">
<svg version="1.1" id="Layer_1" xmlns="http://www.w3.org/2000/svg" xmlns:xlink="http://www.w3.org/1999/xlink" x="0px" y="0px"
	 width="108px" height="108px" viewBox="0 0 108 108" enable-background="new 0 0 108 108" xml:space="preserve">
<path d="M10.706,87.085h86.589c2.133,0,3.858-1.726,3.858-3.862c0-2.121-1.726-3.854-3.858-3.854H58.608v-5.982
	C76.691,71.455,90.83,56.109,90.83,37.52c0-19.896-16.185-36.08-36.08-36.08S18.671,17.625,18.671,37.52
	c0,18.589,14.139,33.935,32.222,35.866v5.982H10.706c-2.129,0-3.858,1.733-3.858,3.854C6.848,85.359,8.577,87.085,10.706,87.085z
	 M26.383,37.52c0-15.642,12.726-28.363,28.367-28.363c15.643,0,28.367,12.721,28.367,28.363S70.393,65.883,54.75,65.883
	C39.108,65.883,26.383,53.162,26.383,37.52z M101.153,102.706c0,2.129-1.726,3.854-3.858,3.854H10.706
	c-2.129,0-3.858-1.726-3.858-3.854c0-2.128,1.729-3.861,3.858-3.861h86.589C99.428,98.845,101.153,100.578,101.153,102.706z
	 M52.079,40.492c-1.666-1.666-1.535-3.921,0.135-5.587l17.244-13.208l1.777,1.776L57.667,40.357
	C56.005,42.023,53.741,42.157,52.079,40.492z"/>
</svg>
