<?xml version="1.0" encoding="utf-8"?>
<!-- Generator: Adobe Illustrator 15.0.2, SVG Export Plug-In . SVG Version: 6.00 Build 0)  -->
<!DOCTYPE svg PUBLIC "-//W3C//DTD SVG 1.0//EN" "http://www.w3.org/TR/2001/REC-SVG-20010904/DTD/svg10.dtd">
<svg version="1.0" id="Layer_1" xmlns="http://www.w3.org/2000/svg" xmlns:xlink="http://www.w3.org/1999/xlink" x="0px" y="0px"
	 width="108px" height="108px" viewBox="0 0 108 108" enable-background="new 0 0 108 108" xml:space="preserve">
<path d="M79.388,18.733L42.522,1.564c-0.177-0.082-0.366-0.125-0.561-0.125c-1.44,0-2.336,0.893-2.336,2.331v13.825h-8.765
	c-1.441,0-2.336,0.897-2.336,2.341v71.15c0,1.445,0.896,2.344,2.336,2.344h8.765v10.783c0,1.446,0.896,2.346,2.336,2.346
	c0.163,0,0.324-0.029,0.475-0.088l36.865-14.145c0.514-0.197,0.854-0.69,0.854-1.24v-71.15
	C80.155,19.421,79.857,18.951,79.388,18.733z M46.494,52.138c0-1.199,0.395-2.204,1.179-3.141c0.695-0.856,1.624-1.342,2.715-1.342
	c1.018,0,1.946,0.485,2.721,1.342c0.695,0.937,1.079,1.942,1.079,3.141c0,1.277-0.384,2.339-1.079,3.216
	c-0.774,0.924-1.703,1.332-2.721,1.332c-1.091,0-2.02-0.408-2.715-1.332C46.889,54.477,46.494,53.415,46.494,52.138z M31.188,20.254
	h8.438v70.519l-8.443-0.004L31.188,20.254z"/>
</svg>
