<?xml version="1.0" encoding="utf-8"?>
<!-- Generator: Adobe Illustrator 15.0.2, SVG Export Plug-In . SVG Version: 6.00 Build 0)  -->
<!DOCTYPE svg PUBLIC "-//W3C//DTD SVG 1.0//EN" "http://www.w3.org/TR/2001/REC-SVG-20010904/DTD/svg10.dtd">
<svg version="1.0" id="Layer_1" xmlns="http://www.w3.org/2000/svg" xmlns:xlink="http://www.w3.org/1999/xlink" x="0px" y="0px"
	 width="108px" height="108px" viewBox="0 0 108 108" enable-background="new 0 0 108 108" xml:space="preserve">
<path d="M35.623,6.415c-0.778,0.458-1.479,0.8-2.099,1.029V5.516c1.115-0.521,2.09-1.156,2.925-1.904
	c0.833-0.745,1.425-1.47,1.772-2.171h1.284v16.306h-1.994V5.041C37.031,5.499,36.402,5.957,35.623,6.415z M49.61,10.867h-6.126
	v2.006h6.126V10.867z M60.964,16.384c-0.797,0-1.479-0.255-2.044-0.771c-0.564-0.513-0.924-1.278-1.079-2.296l-2.094,0.177
	c0.133,1.365,0.666,2.461,1.601,3.29c0.934,0.826,2.14,1.241,3.616,1.241c1.802,0,3.224-0.658,4.265-1.974
	c0.856-1.069,1.285-2.339,1.285-3.809c0-1.545-0.486-2.806-1.462-3.789C64.078,7.47,62.88,6.98,61.463,6.98
	c-1.071,0-2.093,0.339-3.068,1.017l0.875-4.363h6.48V1.73h-8.076l-1.572,8.34l1.872,0.244c0.295-0.464,0.702-0.844,1.218-1.136
	c0.518-0.29,1.098-0.438,1.739-0.438c1.033,0,1.87,0.331,2.509,0.986c0.64,0.658,0.958,1.557,0.958,2.693
	c0,1.197-0.331,2.157-0.997,2.882C62.737,16.021,61.924,16.384,60.964,16.384z M69.063,16.34c-1.071-1.351-1.606-3.554-1.606-6.604
	c0-1.919,0.197-3.464,0.592-4.636c0.395-1.171,0.982-2.073,1.762-2.708s1.758-0.954,2.941-0.954c0.871,0,1.635,0.177,2.293,0.528
	c0.656,0.351,1.199,0.855,1.627,1.516c0.428,0.661,0.764,1.467,1.008,2.415c0.244,0.951,0.367,2.229,0.367,3.838
	c0,1.907-0.195,3.444-0.588,4.615c-0.393,1.171-0.977,2.076-1.756,2.713s-1.764,0.959-2.951,0.959
	C71.186,18.024,69.955,17.462,69.063,16.34z M69.504,9.737c0,2.667,0.314,4.441,0.938,5.322c0.625,0.884,1.395,1.325,2.311,1.325
	c0.914,0,1.684-0.443,2.309-1.331c0.625-0.884,0.936-2.658,0.936-5.316c0-2.673-0.311-4.447-0.936-5.329
	c-0.625-0.878-1.402-1.316-2.332-1.316c-0.914,0-1.646,0.386-2.193,1.163C69.848,5.243,69.504,7.073,69.504,9.737z M9.274,38.346
	h89.722c0.82,0,1.484-0.664,1.484-1.484c0-0.821-0.664-1.484-1.484-1.484H9.274c-0.82,0-1.484,0.664-1.484,1.484
	C7.79,37.682,8.454,38.346,9.274,38.346z M30.744,51.562c0-0.82-0.664-1.484-1.484-1.484H9.274c-0.82,0-1.484,0.664-1.484,1.484
	s0.664,1.484,1.484,1.484h19.985C30.08,53.046,30.744,52.382,30.744,51.562z M98.896,50.078H78.912c-0.82,0-1.484,0.664-1.484,1.484
	s0.664,1.484,1.484,1.484h19.984c0.82,0,1.484-0.664,1.484-1.484S99.717,50.078,98.896,50.078z M44.279,50.078
	c-0.82,0-1.484,0.664-1.484,1.484s0.664,1.484,1.484,1.484h19.987c0.82,0,1.484-0.664,1.484-1.484s-0.664-1.484-1.484-1.484H44.279z
	 M36.453,95.669l-3.669-21.275h-5.957l6.556,31.552h5.988l6.556-31.552h-5.804L36.453,95.669z M64.897,82.247
	c0.752,2.253,1.129,4.905,1.129,7.956c0,2.867-0.392,5.467-1.176,7.798c-0.782,2.331-1.859,4.146-3.231,5.444
	c-1.014,0.962-2.106,1.62-3.277,1.971c-1.173,0.354-2.624,0.531-4.353,0.531h-6.542V74.394h6.479c1.985,0,3.557,0.205,4.714,0.614
	c1.156,0.412,2.171,1.032,3.04,1.867C63.072,78.203,64.145,79.992,64.897,82.247z M60.129,90.138c0-2.061-0.189-3.844-0.567-5.348
	c-0.379-1.505-1.01-2.667-1.889-3.487c-0.421-0.38-0.879-0.658-1.375-0.835c-0.497-0.177-1.21-0.267-2.142-0.267H53.19v19.918h0.582
	c1.178,0,2.032-0.078,2.564-0.232c0.533-0.156,1.056-0.501,1.567-1.04c0.778-0.817,1.343-1.937,1.697-3.357
	C59.953,94.069,60.129,92.286,60.129,90.138z M81.518,74.585c-0.553-0.241-1.166-0.436-1.834-0.583
	c-0.672-0.147-1.422-0.224-2.25-0.224c-3.063,0-5.506,1.47-7.34,4.409c-1.832,2.937-2.749,6.943-2.749,12.014
	c0,5.113,0.895,9.12,2.688,12.016c1.791,2.896,4.254,4.343,7.385,4.343c0.973,0,1.742-0.078,2.311-0.232
	c0.568-0.156,1.174-0.382,1.82-0.678c0.471-0.212,0.975-0.505,1.512-0.882c0.537-0.374,0.98-0.681,1.328-0.922v-7.395h-0.521
	c-0.246,0.368-0.533,0.776-0.861,1.229c-0.326,0.453-0.699,0.899-1.119,1.337c-0.482,0.521-1,0.937-1.559,1.237
	c-0.559,0.305-1.133,0.458-1.729,0.458c-0.604,0-1.227-0.174-1.865-0.519c-0.639-0.348-1.211-0.922-1.711-1.728
	c-0.521-0.835-0.943-1.937-1.268-3.305c-0.322-1.371-0.484-3.018-0.484-4.939c0-1.906,0.154-3.538,0.461-4.894
	c0.309-1.356,0.707-2.45,1.197-3.285c0.543-0.904,1.111-1.533,1.705-1.884c0.594-0.354,1.238-0.53,1.936-0.53
	c0.582,0,1.15,0.162,1.703,0.486c0.553,0.325,1.045,0.708,1.475,1.146c0.379,0.395,0.766,0.864,1.158,1.409
	c0.395,0.542,0.695,0.956,0.898,1.237h0.584v-7.499c-0.338-0.27-0.785-0.592-1.344-0.966C82.488,75.069,81.979,74.782,81.518,74.585
	z"/>
</svg>
