<?xml version="1.0" encoding="utf-8"?>
<!-- Generator: Adobe Illustrator 15.0.2, SVG Export Plug-In . SVG Version: 6.00 Build 0)  -->
<!DOCTYPE svg PUBLIC "-//W3C//DTD SVG 1.1//EN" "http://www.w3.org/Graphics/SVG/1.1/DTD/svg11.dtd">
<svg version="1.1" id="Layer_1" xmlns="http://www.w3.org/2000/svg" xmlns:xlink="http://www.w3.org/1999/xlink" x="0px" y="0px"
	 width="108px" height="108px" viewBox="0 0 108 108" enable-background="new 0 0 108 108" xml:space="preserve">
<path d="M82.199,48.043c0.034-0.229,0.053-0.461,0.053-0.693c0-0.227-0.017-0.454-0.048-0.674c0-0.001,0-0.003,0-0.005
	c-0.405-2.824-3.223-5.111-8.617-6.993c-1.221-0.425-2.527-0.791-3.866-1.121L76.151,25l-13.185,6.068L75.214,1.44L52.282,13.049
	l-8.843,24.504c-0.005,0-0.01-0.001-0.015-0.001c-3.271,0.466-6.307,1.182-9.028,2.126c-5.054,1.766-7.832,3.884-8.498,6.475
	c0,0,0,0,0,0c-0.1,0.392-0.15,0.793-0.15,1.196c0,0.313,0.032,0.625,0.097,0.932l-0.073,4.839c-0.015,0.16-0.023,0.325-0.023,0.489
	c0,0.099,0.002,0.196,0.009,0.299c0,0.012,0.001,0.023,0.002,0.035c0.206,2.978,3.033,5.374,8.639,7.323
	c2.78,0.971,5.894,1.701,9.253,2.171l-4.876,11.525l8.763-2.356l-8.208,33.954l26.969-43.435c2.617-0.459,5.062-1.08,7.288-1.859
	c5.222-1.811,8.024-4.005,8.57-6.712c0.063-0.307,0.096-0.625,0.096-0.945c0-0.27-0.023-0.542-0.067-0.81L82.199,48.043z
	 M67.911,43.606c1.72,0.497,3.014,1.082,3.875,1.752c-1.502-0.445-3.106-0.807-4.76-1.119l0.365-0.771
	C67.563,43.515,67.742,43.558,67.911,43.606z M66.139,46.107c2.297,0.411,4.465,0.947,6.446,1.614
	c-0.065,0.067-0.137,0.134-0.215,0.201c-0.842,0.71-2.343,1.381-4.463,1.995c-1.24,0.361-2.585,0.663-4.006,0.907L66.139,46.107z
	 M55.305,15.726l12.578-6.37L55.846,38.464l12.495-5.746l-8.845,18.65c-1.741,0.143-3.579,0.221-5.511,0.221
	c-0.558,0-1.087-0.022-1.63-0.034l3.398-8.364l-11.517,3.209L55.305,15.726z M41.035,44.215c-0.016,0.002-0.03-0.003-0.045,0
	c-1.835,0.343-3.593,0.773-5.246,1.283c0.699-0.551,1.983-1.217,4.318-1.892c0.427-0.124,0.869-0.24,1.319-0.351L41.035,44.215z
	 M40.232,46.441l-1.143,3.163c-1.589-0.527-2.771-1.089-3.472-1.679c-0.08-0.068-0.152-0.136-0.22-0.204
	C36.906,47.216,38.541,46.8,40.232,46.441z M49.406,48.851l-1.019,2.511c-0.132-0.011-0.277-0.015-0.408-0.027
	c-1.75-0.158-3.392-0.401-4.936-0.708L49.406,48.851z M45.102,69.385l2.254-5.549c2.122,0.175,4.336,0.274,6.645,0.274
	c2.614,0,5.12-0.118,7.484-0.342L48.463,84.744l4.208-17.404L45.102,69.385z M80.173,52.883c0,0.001,0,0.002,0,0.002l-0.008,1.36
	c-0.439,1.859-2.938,3.629-7.241,5.124c-2.893,1.01-6.172,1.748-9.75,2.192c-2.829,0.356-5.916,0.537-9.174,0.537
	c-3.599,0-6.988-0.22-10.07-0.653c-3.229-0.452-6.213-1.15-8.871-2.079c-4.609-1.603-7.129-3.516-7.29-5.528l0.015-0.635
	c0-0.004,0-0.007,0-0.011l0.025-1.68c1.435,1.309,3.597,2.454,6.589,3.495c3.443,1.199,7.385,2.03,11.714,2.465
	c2.472,0.25,5.125,0.378,7.889,0.378c2.101,0,4.146-0.074,6.083-0.22c0.334-0.025,0.667-0.053,0.994-0.083
	c2.331-0.205,4.565-0.523,6.642-0.948c2.072-0.42,4.047-0.956,5.867-1.592c2.993-1.04,5.156-2.183,6.591-3.488L80.173,52.883z
	 M80.188,47.869c-0.119,0.647-0.49,1.288-1.099,1.906c-1.183,1.203-3.256,2.324-6.165,3.333c-1.736,0.607-3.622,1.118-5.606,1.521
	c-2.004,0.409-4.162,0.717-6.417,0.915c-0.322,0.03-0.646,0.056-0.969,0.081c-1.886,0.144-3.88,0.214-5.932,0.214
	c-2.695,0-5.281-0.124-7.688-0.367c-4.172-0.418-7.96-1.214-11.254-2.363c-2.9-1.009-4.972-2.13-6.155-3.332
	c-0.541-0.552-0.893-1.124-1.045-1.699l0.021-1.531c0.538-1.797,3.017-3.512,7.179-4.967c2.304-0.799,4.862-1.417,7.601-1.861
	l-0.471,1.305c-0.024,0.003-0.048-0.005-0.072,0c-0.903,0.19-1.782,0.41-2.613,0.651c-3.876,1.12-5.93,2.461-6.464,4.211
	c-0.091,0.286-0.136,0.583-0.136,0.883c0,0.191,0.02,0.388,0.063,0.589c0.003,0.017,0.006,0.033,0.011,0.049
	c0.011,0.05,0.023,0.1,0.036,0.142c0.181,0.687,0.62,1.33,1.307,1.912c0.901,0.76,2.249,1.433,4.086,2.044l-0.167,0.463l0.864-0.241
	c0.133,0.041,0.26,0.082,0.397,0.122c2.452,0.714,5.244,1.215,8.299,1.489c1.932,0.177,4.013,0.266,6.188,0.266
	c2.992,0,5.796-0.169,8.327-0.501c2.218-0.288,4.29-0.71,6.155-1.253c2.426-0.702,4.127-1.482,5.208-2.395
	c0.725-0.626,1.177-1.315,1.343-2.049c0.029-0.127,0.034-0.254,0.016-0.378c-0.307-2.384-2.516-4.186-6.565-5.352
	c-0.064-0.019-0.136-0.035-0.2-0.054l0.573-1.209c1.422,0.337,2.801,0.721,4.083,1.167c4.433,1.547,6.946,3.381,7.276,5.308
	L80.188,47.869z"/>
</svg>
