<?xml version="1.0" encoding="utf-8"?>
<!-- Generator: Adobe Illustrator 15.0.2, SVG Export Plug-In . SVG Version: 6.00 Build 0)  -->
<!DOCTYPE svg PUBLIC "-//W3C//DTD SVG 1.0//EN" "http://www.w3.org/TR/2001/REC-SVG-20010904/DTD/svg10.dtd">
<svg version="1.0" id="Layer_1" xmlns="http://www.w3.org/2000/svg" xmlns:xlink="http://www.w3.org/1999/xlink" x="0px" y="0px"
	 width="108px" height="108px" viewBox="0 0 108 108" enable-background="new 0 0 108 108" xml:space="preserve">
<path d="M103.46,51.225L57.292,5.058c-2.033-2.029-5.879-3.618-8.811-3.618l-24.69,0.152c-2.891,0.021-6.751,1.632-8.786,3.67
	L5.27,15.003c-2.048,2.043-3.664,5.906-3.678,8.793L1.44,48.478c-0.015,2.897,1.575,6.766,3.617,8.809l46.166,46.171
	c2.001,2.001,4.673,3.103,7.519,3.103c2.845,0,5.515-1.102,7.518-3.104l37.202-37.2C107.603,62.116,107.603,55.374,103.46,51.225z
	 M100.841,63.637L63.64,100.839c-2.604,2.602-7.195,2.602-9.799,0L7.675,54.667c-1.358-1.358-2.542-4.242-2.532-6.169l0.152-24.683
	c0.01-1.931,1.22-4.823,2.593-6.192l9.737-9.745c1.361-1.362,4.255-2.57,6.189-2.583l24.722-0.152c1.916,0,4.783,1.185,6.136,2.534
	l46.168,46.165C103.539,56.546,103.539,60.94,100.841,63.637z M35.535,16.661c-2.522-2.519-5.874-3.905-9.437-3.905
	c-3.562,0-6.911,1.386-9.434,3.905c-2.521,2.52-3.91,5.87-3.91,9.434c0,3.565,1.389,6.916,3.909,9.435
	c2.52,2.521,5.869,3.91,9.433,3.91s6.914-1.389,9.434-3.91C40.731,30.328,40.734,21.864,35.535,16.661z M30.37,30.365
	c-2.321,2.317-6.355,2.316-8.673-0.001c-1.157-1.155-1.794-2.693-1.794-4.332c0-1.639,0.637-3.178,1.794-4.334
	c1.157-1.157,2.698-1.795,4.335-1.795c1.639,0,3.18,0.638,4.338,1.794c1.157,1.157,1.794,2.697,1.794,4.335
	C32.164,27.67,31.527,29.209,30.37,30.365z M83.599,61.581c0.723,0.724,0.723,1.896,0,2.619c-0.362,0.361-0.835,0.542-1.31,0.542
	s-0.947-0.181-1.31-0.542L50.917,34.139c-0.724-0.724-0.724-1.895,0-2.619c0.723-0.723,1.895-0.723,2.618,0L83.599,61.581z
	 M73.565,71.619c0.724,0.724,0.724,1.896,0,2.619c-0.362,0.361-0.835,0.542-1.31,0.542s-0.947-0.181-1.31-0.542L40.885,44.174
	c-0.724-0.724-0.724-1.896,0-2.619c0.724-0.724,1.896-0.724,2.618,0L73.565,71.619z M63.532,81.655c0.724,0.723,0.724,1.895,0,2.618
	c-0.362,0.361-0.834,0.543-1.31,0.543c-0.475,0-0.947-0.182-1.31-0.543L30.852,54.208c-0.724-0.724-0.724-1.896,0-2.619
	c0.724-0.724,1.896-0.724,2.619,0L63.532,81.655z"/>
</svg>
