<?xml version="1.0" encoding="utf-8"?>
<!-- Generator: Adobe Illustrator 15.0.2, SVG Export Plug-In . SVG Version: 6.00 Build 0)  -->
<!DOCTYPE svg PUBLIC "-//W3C//DTD SVG 1.0//EN" "http://www.w3.org/TR/2001/REC-SVG-20010904/DTD/svg10.dtd">
<svg version="1.0" id="Layer_1" xmlns="http://www.w3.org/2000/svg" xmlns:xlink="http://www.w3.org/1999/xlink" x="0px" y="0px"
	 width="108px" height="108px" viewBox="0 0 108 108" enable-background="new 0 0 108 108" xml:space="preserve">
<path d="M44.307,106.276l-6.201-36.87c-1.99,0.522-4.042,0.786-6.136,0.786c-13.239,0-24.012-10.67-24.012-23.774
	c0-12.247,9.399-22.352,21.431-23.637C30.679,10.877,40.897,1.578,53.263,1.578c12.367,0,22.577,9.299,23.871,21.204
	c12.031,1.285,21.431,11.39,21.431,23.637c0,13.104-10.776,23.774-24.016,23.774c-2.084,0-4.124-0.264-6.107-0.779l-6.237,36.677
	l-3.396,0.606l4.946-44.884l3.418,1.47c2.328,0.999,4.809,1.514,7.376,1.514c10.24,0,18.567-8.247,18.567-18.378
	c0-10.134-8.327-18.377-18.567-18.377h-2.726v-2.698c0-10.131-8.328-18.374-18.56-18.374c-10.236,0-18.561,8.243-18.561,18.374
	v2.698H31.97c-10.232,0-18.561,8.243-18.561,18.377c0,10.131,8.329,18.378,18.561,18.378c2.56,0,5.041-0.515,7.369-1.507
	l3.354-1.434l5.646,44.799L44.307,106.276z M56.45,53.021h-5.808l1.863,47.04h1.673L56.45,53.021z"/>
</svg>
