<?xml version="1.0" encoding="utf-8"?>
<!-- Generator: Adobe Illustrator 15.0.2, SVG Export Plug-In . SVG Version: 6.00 Build 0)  -->
<!DOCTYPE svg PUBLIC "-//W3C//DTD SVG 1.0//EN" "http://www.w3.org/TR/2001/REC-SVG-20010904/DTD/svg10.dtd">
<svg version="1.0" id="Layer_1" xmlns="http://www.w3.org/2000/svg" xmlns:xlink="http://www.w3.org/1999/xlink" x="0px" y="0px"
	 width="108px" height="108px" viewBox="0 0 108 108" enable-background="new 0 0 108 108" xml:space="preserve">
<path d="M0.949,43.297c-0.75-1.2-0.388-2.781,0.811-3.533c13.487-8.453,27.554-10.42,41.8-5.853c1.347,0.432,2.09,1.875,1.657,3.222
	c-0.431,1.348-1.888,2.091-3.219,1.658c-12.74-4.086-25.366-2.302-37.516,5.316c-0.424,0.263-0.895,0.39-1.357,0.39
	C2.27,44.498,1.437,44.072,0.949,43.297z M103.387,39.721c-12.243,7.11-23.999,8.756-35.926,5.039
	c-1.364-0.429-2.787,0.328-3.209,1.683c-0.42,1.351,0.331,2.786,1.682,3.207c4.561,1.421,9.147,2.132,13.757,2.132
	c8.73,0,17.524-2.549,26.271-7.631c1.225-0.71,1.637-2.278,0.928-3.502C106.183,39.427,104.621,39.013,103.387,39.721z
	 M106.89,62.032c0.709,1.221,0.297,2.791-0.924,3.503c-8.708,5.074-17.481,7.617-26.221,7.617c-4.612,0-9.222-0.708-13.802-2.13
	c-1.792-0.557-3.598-1.248-5.404-2.03v6.625c1.435,0.628,2.799,1.568,4.055,2.798c2.615,2.646,3.883,5.719,3.883,9.404
	c0,3.652-1.304,6.806-3.875,9.372c-2.629,2.628-5.706,3.905-9.404,3.905c-3.657,0-6.811-1.316-9.369-3.91
	c-2.589-2.552-3.903-5.706-3.903-9.367c0-3.694,1.278-6.769,3.907-9.397c1.08-1.085,2.318-1.972,3.682-2.637v-6.593v-5.918
	c-2.521-1.247-5.033-2.302-7.513-3.099c-12.713-4.092-25.33-2.302-37.522,5.319c-1.208,0.749-2.782,0.384-3.529-0.816
	c-0.75-1.201-0.388-2.78,0.813-3.53c13.534-8.456,27.602-10.42,41.807-5.851c1.968,0.634,3.957,1.413,5.944,2.302v-3.727v-1.281
	v-8.28v-8.287v-8.279v-8.28v-6.799l0.032-0.508l0.126-0.503l0.083-0.223c0.23-0.973,0.63-1.848,1.357-2.579
	c2.216-2.13,5.685-2.102,7.797-0.002c0.917,0.882,1.451,1.975,1.625,3.327c0.003,0.02-0.016,0.035-0.016,0.055
	c0.002,0.022,0.021,0.034,0.021,0.053s-0.019,0.035-0.019,0.056c0,0.02,0.019,0.032,0.019,0.051v41.479v9.479
	c2.316,1.12,4.634,2.064,6.926,2.777c11.995,3.719,23.743,2.077,35.919-5.022C104.614,60.397,106.18,60.813,106.89,62.032z
	 M58.832,12.373c-0.126-0.951-0.481-1.686-1.118-2.299c-0.76-0.756-1.61-1.102-2.686-1.102c-1.057,0-1.948,0.359-2.721,1.102
	c-0.627,0.628-0.964,1.361-1.055,2.289l-0.029,0.306v5.944h2.771c0.471,0,0.854,0.382,0.854,0.854c0,0.472-0.383,0.854-0.854,0.854
	h-2.771v2.436h4.807c0.47,0,0.854,0.382,0.854,0.854c0,0.473-0.384,0.854-0.854,0.854h-4.807v2.428h2.771
	c0.471,0,0.854,0.382,0.854,0.854c0,0.472-0.383,0.854-0.854,0.854h-2.771v2.435h4.807c0.47,0,0.854,0.382,0.854,0.854
	s-0.384,0.854-0.854,0.854h-4.807v2.428h2.771c0.471,0,0.854,0.382,0.854,0.854c0,0.472-0.383,0.854-0.854,0.854h-2.771v2.435h4.807
	c0.47,0,0.854,0.382,0.854,0.854s-0.384,0.854-0.854,0.854h-4.807v2.435h2.771c0.471,0,0.854,0.382,0.854,0.854
	c0,0.472-0.383,0.854-0.854,0.854h-2.771v2.435h4.807c0.47,0,0.854,0.382,0.854,0.854c0,0.473-0.384,0.854-0.854,0.854h-4.807v2.429
	h2.771c0.471,0,0.854,0.382,0.854,0.854c0,0.473-0.383,0.855-0.854,0.855h-2.771v0.426h7.609V12.394V12.373z M3.125,23.075
	c0.463,0,0.933-0.127,1.357-0.391c12.153-7.609,24.776-9.394,37.516-5.316c1.354,0.433,2.788-0.314,3.219-1.658
	c0.433-1.347-0.31-2.79-1.657-3.222c-14.256-4.566-28.313-2.596-41.8,5.853c-1.199,0.752-1.561,2.332-0.811,3.531
	C1.437,22.649,2.27,23.075,3.125,23.075z M65.934,28.23c4.556,1.422,9.147,2.132,13.753,2.132c8.734,0,17.525-2.551,26.274-7.635
	c1.225-0.711,1.637-2.279,0.928-3.503c-0.71-1.219-2.269-1.636-3.503-0.927c-12.243,7.115-24.002,8.758-35.926,5.042
	c-1.347-0.43-2.787,0.329-3.209,1.684C63.832,26.372,64.583,27.81,65.934,28.23z"/>
</svg>
