<?xml version="1.0" encoding="utf-8"?>
<!-- Generator: Adobe Illustrator 15.0.2, SVG Export Plug-In . SVG Version: 6.00 Build 0)  -->
<!DOCTYPE svg PUBLIC "-//W3C//DTD SVG 1.1//EN" "http://www.w3.org/Graphics/SVG/1.1/DTD/svg11.dtd">
<svg version="1.1" id="Layer_1" xmlns="http://www.w3.org/2000/svg" xmlns:xlink="http://www.w3.org/1999/xlink" x="0px" y="0px"
	 width="108px" height="108px" viewBox="0 0 108 108" enable-background="new 0 0 108 108" xml:space="preserve">
<g>
	<path d="M99.006,85.551c-1.207-1.184-2.519-2.074-3.9-2.654V62.436v-39.43c0-0.018-0.018-0.031-0.02-0.048
		c0.002-0.018,0.02-0.031,0.02-0.051c0-0.014-0.014-0.021-0.016-0.035c0-0.013,0.013-0.024,0.011-0.038
		c-0.158-1.224-0.64-2.208-1.464-3c-0.973-0.962-2.118-1.431-3.498-1.431c-1.349,0-2.533,0.48-3.526,1.433
		c-0.712,0.711-1.131,1.541-1.316,2.508h-0.121v0.563v0.359v6.421v7.823v7.823v7.828v7.823v1.453v6.369v7.859v6.381
		c-1.314,0.623-2.508,1.467-3.553,2.51c-2.434,2.436-3.618,5.285-3.618,8.705c0,3.393,1.22,6.316,3.617,8.682
		c2.374,2.402,5.296,3.619,8.678,3.619c3.429,0,6.276-1.182,8.711-3.617c2.384-2.379,3.593-5.301,3.593-8.684
		C102.603,90.85,101.43,88.002,99.006,85.551z M93.979,23.005v39.43h-7.676v-0.889h2.861c0.311,0,0.563-0.254,0.563-0.564
		s-0.253-0.563-0.563-0.563h-2.861v-2.783h4.782c0.311,0,0.563-0.254,0.563-0.564c0-0.309-0.253-0.563-0.563-0.563h-4.782v-2.787
		h2.861c0.311,0,0.563-0.254,0.563-0.563c0-0.311-0.253-0.563-0.563-0.563h-2.861V49.81h4.782c0.311,0,0.563-0.253,0.563-0.564
		c0-0.311-0.253-0.563-0.563-0.563h-4.782v-2.786h2.861c0.311,0,0.563-0.253,0.563-0.564c0-0.31-0.253-0.563-0.563-0.563h-2.861
		v-2.782h4.782c0.311,0,0.563-0.253,0.563-0.563c0-0.31-0.253-0.564-0.563-0.564h-4.782v-2.786h2.861
		c0.311,0,0.563-0.253,0.563-0.564c0-0.31-0.253-0.563-0.563-0.563h-2.861v-2.782h4.782c0.311,0,0.563-0.253,0.563-0.563
		s-0.253-0.564-0.563-0.564h-4.782V30.25h2.861c0.311,0,0.563-0.253,0.563-0.563c0-0.311-0.253-0.564-0.563-0.564h-2.861v-5.857
		v-0.097c0-0.011,0.014-0.022,0.014-0.033c0.006-0.063,0.01-0.117,0.013-0.172c0-0.002,0.001-0.002,0.001-0.005
		c0.088-0.926,0.439-1.686,1.07-2.317c0.779-0.749,1.676-1.112,2.738-1.112c1.083,0,1.944,0.352,2.713,1.112
		c0.643,0.616,0.999,1.358,1.127,2.322V23.005z"/>
	<path d="M21.966,7.408c-3.518,3.954-5.393,8.598-5.555,13.631c-0.071,0.411-0.079,0.966-0.079,1.373
		c0,4.844,1.381,9.25,4.106,13.09c0.243,0.341,0.624,0.521,1.012,0.521c0.249,0,0.5-0.074,0.717-0.229
		c0.559-0.396,0.689-1.17,0.293-1.729c-2.421-3.413-3.649-7.334-3.649-11.654c0-0.281-0.007-0.664,0.059-1.119
		c0.159-4.608,1.823-8.727,4.946-12.235c0.456-0.514,0.409-1.298-0.101-1.751C23.203,6.85,22.418,6.896,21.966,7.408z"/>
	<path d="M11.573,1.897C7.06,7.451,4.711,13.956,4.621,20.994c-0.09,0.42-0.09,0.814-0.09,1.128c0,6.844,1.886,13,5.604,18.296
		c0.241,0.346,0.625,0.53,1.016,0.53c0.246,0,0.495-0.074,0.711-0.225c0.561-0.394,0.696-1.166,0.303-1.728
		c-3.42-4.872-5.154-10.549-5.154-16.874c0-0.237,0-0.446,0.062-0.85c0.108-6.708,2.271-12.698,6.425-17.81
		c0.431-0.532,0.351-1.313-0.18-1.746C12.788,1.287,12.006,1.367,11.573,1.897z"/>
	<path d="M74.04,27.65h-0.101h-4.445l-7.688-8.851c1.367-0.317,2.627-1.035,3.608-2.093c1.445-1.343,2.279-3.196,2.279-5.163
		c0-2.069-0.831-3.823-2.279-5.271c-1.346-1.449-3.207-2.17-5.165-2.17c-1.965,0-3.725,0.724-5.275,2.17
		c-1.342,1.449-2.063,3.203-2.063,5.271c0,1.963,0.719,3.815,2.059,5.157H39.42l-6.405,8.887l-0.829,1.038
		c-0.207,0.514-0.315,1.027-0.315,1.649c0,0.934,0.315,1.861,1.032,2.48c0.722,0.819,1.657,1.136,2.592,1.136
		c0.924,0,1.755-0.316,2.374-0.92l0.828-0.939l4.345-5.37h5.262l-5.262,8.884L39.83,46.778h-9.817h-1.343
		c-1.14,0-2.069,0.513-2.896,1.341c-0.926,0.932-1.342,2.069-1.342,3.402c0,1.353,0.417,2.493,1.342,3.42
		c0.935,0.926,2.064,1.338,3.309,1.447h17.469l3-11.571l8.99,17.354c0.102,0.627,0.409,1.238,0.829,1.762
		c0.1,0.211,0.206,0.313,0.411,0.41c0.929,1.041,2.063,1.443,3.409,1.443c1.347,0,2.48-0.402,3.414-1.443
		c0.928-0.93,1.44-2.059,1.44-3.41c0-0.516-0.105-0.822-0.21-1.238c-0.096-0.619-0.409-1.133-0.721-1.549L56.269,36.96l4.751-7.234
		l5.272,5.167h7.748c1.031,0,1.86-0.317,2.591-1.033c0.612-0.622,1.029-1.55,1.029-2.591c0-0.917-0.417-1.753-1.029-2.578
		C75.9,28.074,75.071,27.656,74.04,27.65z"/>
</g>
</svg>
