<?xml version="1.0" encoding="utf-8"?>
<!-- Generator: Adobe Illustrator 15.0.2, SVG Export Plug-In . SVG Version: 6.00 Build 0)  -->
<!DOCTYPE svg PUBLIC "-//W3C//DTD SVG 1.1//EN" "http://www.w3.org/Graphics/SVG/1.1/DTD/svg11.dtd">
<svg version="1.1" id="Layer_1" xmlns="http://www.w3.org/2000/svg" xmlns:xlink="http://www.w3.org/1999/xlink" x="0px" y="0px"
	 width="108px" height="108px" viewBox="0 0 108 108" enable-background="new 0 0 108 108" xml:space="preserve">
<g>
	<path d="M86.852,81.507c-1.438-1.41-3.003-2.473-4.651-3.165V53.945V6.929c0-0.021-0.021-0.037-0.023-0.058
		C82.18,6.849,82.2,6.833,82.2,6.81c0-0.016-0.016-0.026-0.018-0.042c0-0.016,0.016-0.029,0.013-0.045
		c-0.188-1.459-0.762-2.633-1.745-3.577c-1.16-1.147-2.525-1.707-4.171-1.707c-1.609,0-3.021,0.572-4.205,1.708
		c-0.849,0.848-1.35,1.837-1.569,2.99H70.36V6.81v0.428v7.657v9.328v9.328v9.334v9.328v1.732v7.596v9.371v7.608
		c-1.567,0.742-2.991,1.748-4.236,2.991c-2.902,2.905-4.314,6.303-4.314,10.381c0,4.045,1.454,7.531,4.313,10.352
		c2.831,2.865,6.314,4.315,10.349,4.315c4.087,0,7.483-1.408,10.386-4.312c2.842-2.838,4.284-6.321,4.284-10.355
		C91.141,87.826,89.741,84.432,86.852,81.507z M71.705,52.885h3.411c0.37,0,0.672-0.303,0.672-0.672
		c0-0.371-0.302-0.672-0.672-0.672h-3.411v-3.318h5.702c0.37,0,0.672-0.302,0.672-0.672c0-0.369-0.302-0.671-0.672-0.671h-5.702
		v-3.323h3.411c0.37,0,0.672-0.303,0.672-0.672c0-0.371-0.302-0.672-0.672-0.672h-3.411V38.89h5.702c0.37,0,0.672-0.302,0.672-0.672
		s-0.302-0.672-0.672-0.672h-5.702v-3.322h3.411c0.37,0,0.672-0.302,0.672-0.672c0-0.37-0.302-0.672-0.672-0.672h-3.411v-3.317
		h5.702c0.37,0,0.672-0.302,0.672-0.672c0-0.37-0.302-0.672-0.672-0.672h-5.702v-3.322h3.411c0.37,0,0.672-0.302,0.672-0.672
		c0-0.37-0.302-0.672-0.672-0.672h-3.411v-3.318h5.702c0.37,0,0.672-0.301,0.672-0.672c0-0.37-0.302-0.672-0.672-0.672h-5.702
		v-3.322h3.411c0.37,0,0.672-0.302,0.672-0.672c0-0.37-0.302-0.672-0.672-0.672h-3.411V7.238V7.123c0-0.013,0.016-0.026,0.016-0.039
		c0.008-0.076,0.013-0.139,0.016-0.205c0-0.002,0.002-0.002,0.002-0.005c0.104-1.105,0.522-2.01,1.276-2.763
		c0.928-0.893,1.997-1.326,3.265-1.326c1.291,0,2.318,0.419,3.233,1.326c0.767,0.735,1.192,1.619,1.345,2.769v0.05v47.017h-9.152
		V52.885z"/>
	<path d="M27.496,80.878H24.99L13.574,97.087v2.814h10.851v5.989h3.071v-5.989h3.378v-2.814h-3.378V80.878z M24.425,97.087h-7.829
		l7.829-11.278V97.087z"/>
	<path d="M54.964,80.878h-3.601l-5.031,6.638c-0.765,0.989-1.422,1.939-1.98,2.848c-0.396-0.715-1.068-1.737-2.014-3.07
		l-4.536-6.415h-3.94l8.53,11.979l-9.675,13.034h3.975l6.278-8.719c0.24-0.342,0.638-0.966,1.196-1.876
		c0.372,0.6,0.736,1.158,1.092,1.671l6.294,8.924h4.094l-9.469-13.224L54.964,80.878z"/>
</g>
</svg>
