<?xml version="1.0" encoding="utf-8"?>
<!-- Generator: Adobe Illustrator 15.0.2, SVG Export Plug-In . SVG Version: 6.00 Build 0)  -->
<!DOCTYPE svg PUBLIC "-//W3C//DTD SVG 1.1//EN" "http://www.w3.org/Graphics/SVG/1.1/DTD/svg11.dtd">
<svg version="1.1" id="Layer_1" xmlns="http://www.w3.org/2000/svg" xmlns:xlink="http://www.w3.org/1999/xlink" x="0px" y="0px"
	 width="108px" height="108px" viewBox="0 0 108 108" enable-background="new 0 0 108 108" xml:space="preserve">
<g>
	<g>
		<path d="M82.445,60.928H70.765c-1.29,0-2.336,1.046-2.336,2.336s1.046,2.336,2.336,2.336h11.681c1.29,0,2.336-1.046,2.336-2.336
			S83.735,60.928,82.445,60.928z"/>
		<path d="M15.869,60.928H4.189c-1.29,0-2.336,1.046-2.336,2.336S2.899,65.6,4.189,65.6h11.68c1.29,0,2.336-1.046,2.336-2.336
			S17.159,60.928,15.869,60.928z"/>
		<path d="M40.396,63.264c0-1.29-1.046-2.336-2.336-2.336h-11.68c-1.29,0-2.336,1.046-2.336,2.336s1.046,2.336,2.336,2.336h11.68
			C39.351,65.6,40.396,64.554,40.396,63.264z"/>
		<path d="M104.637,60.928h-11.68c-1.29,0-2.336,1.046-2.336,2.336s1.046,2.336,2.336,2.336h11.68c1.29,0,2.336-1.046,2.336-2.336
			S105.927,60.928,104.637,60.928z"/>
		<path d="M26.381,51.797h11.68c1.29,0,2.336-1.046,2.336-2.336s-1.046-2.336-2.336-2.336h-11.68c-1.29,0-2.336,1.046-2.336,2.336
			S25.091,51.797,26.381,51.797z"/>
		<path d="M92.957,51.797h11.68c1.29,0,2.336-1.046,2.336-2.336s-1.046-2.336-2.336-2.336h-11.68c-1.29,0-2.336,1.046-2.336,2.336
			S91.667,51.797,92.957,51.797z"/>
		<path d="M15.869,47.125H4.189c-1.29,0-2.336,1.046-2.336,2.336s1.046,2.336,2.336,2.336h11.68c1.29,0,2.336-1.046,2.336-2.336
			S17.159,47.125,15.869,47.125z"/>
		<path d="M82.445,47.125H70.765c-1.29,0-2.336,1.046-2.336,2.336s1.046,2.336,2.336,2.336h11.681c1.29,0,2.336-1.046,2.336-2.336
			S83.735,47.125,82.445,47.125z"/>
		<path d="M60.253,51.797c1.29,0,2.336-1.046,2.336-2.336c0-0.462-0.138-0.891-0.369-1.252l12.365-14.876
			c0.824-0.992,0.688-2.465-0.304-3.29c-0.989-0.824-2.465-0.689-3.289,0.303L57.045,47.125h-8.472c-1.29,0-2.336,1.046-2.336,2.336
			s1.046,2.336,2.336,2.336h4.588L31.422,77.95c-0.825,0.992-0.689,2.465,0.303,3.289c0.436,0.363,0.965,0.54,1.492,0.54
			c0.67,0,1.336-0.288,1.798-0.843l12.85-15.458c0.225,0.071,0.459,0.121,0.708,0.121h11.68c1.29,0,2.336-1.046,2.336-2.336
			s-1.046-2.336-2.336-2.336h-8.606l7.589-9.13H60.253z"/>
	</g>
</g>
</svg>
