<?xml version="1.0" encoding="utf-8"?>
<!-- Generator: Adobe Illustrator 15.0.2, SVG Export Plug-In . SVG Version: 6.00 Build 0)  -->
<!DOCTYPE svg PUBLIC "-//W3C//DTD SVG 1.0//EN" "http://www.w3.org/TR/2001/REC-SVG-20010904/DTD/svg10.dtd">
<svg version="1.0" id="Layer_1" xmlns="http://www.w3.org/2000/svg" xmlns:xlink="http://www.w3.org/1999/xlink" x="0px" y="0px"
	 width="108px" height="108px" viewBox="0 0 108 108" enable-background="new 0 0 108 108" xml:space="preserve">
<path fill="#231F20" d="M84.092,86.856H13.627c-6.72,0-12.188-5.467-12.188-12.188V36.372c0-6.72,5.468-12.186,12.188-12.186h70.464
	c6.72,0,12.187,5.466,12.187,12.186v38.297C96.278,81.39,90.812,86.856,84.092,86.856z M13.627,28.39
	c-4.402,0-7.983,3.581-7.983,7.982v38.297c0,4.401,3.581,7.983,7.983,7.983h70.464c4.401,0,7.982-3.582,7.982-7.983V36.372
	c0-4.401-3.581-7.982-7.982-7.982H13.627z M106.561,58.42v-5.796c0-4.576-3.722-8.298-8.296-8.298v4.205
	c2.256,0,4.092,1.835,4.092,4.093v5.796c0,2.256-1.836,4.091-4.092,4.091v4.204C102.839,66.715,106.561,62.993,106.561,58.42z
	 M54.917,53.104l29.001,9.327L47.729,39.714l-1.924,16.454L14.368,47.61l35.155,22.675L54.917,53.104z"/>
</svg>
