<?xml version="1.0" encoding="utf-8"?>
<!-- Generator: Adobe Illustrator 15.0.2, SVG Export Plug-In . SVG Version: 6.00 Build 0)  -->
<!DOCTYPE svg PUBLIC "-//W3C//DTD SVG 1.0//EN" "http://www.w3.org/TR/2001/REC-SVG-20010904/DTD/svg10.dtd">
<svg version="1.0" id="Layer_1" xmlns="http://www.w3.org/2000/svg" xmlns:xlink="http://www.w3.org/1999/xlink" x="0px" y="0px"
	 width="108px" height="108px" viewBox="0 0 108 108" enable-background="new 0 0 108 108" xml:space="preserve">
<path d="M12.338,86.324h29.704v13.183H12.338V86.324z M48.62,11.175v95.384H5.76V11.175h8.021V1.44h26.819v9.735H48.62z
	 M16.536,4.464v6.711h21.306V4.464H16.536z M45.864,103.535V14.2H8.517v89.335H45.864z M65.338,99.507h29.704V86.324H65.338V99.507z
	 M101.62,11.175v95.384H58.76V11.175h8.021V1.44h26.818v9.735H101.62z M69.536,4.464v6.711h21.307V4.464H69.536z M98.864,103.535
	V14.2H61.517v89.335H98.864z"/>
</svg>
