<?xml version="1.0" encoding="utf-8"?>
<!-- Generator: Adobe Illustrator 15.0.2, SVG Export Plug-In . SVG Version: 6.00 Build 0)  -->
<!DOCTYPE svg PUBLIC "-//W3C//DTD SVG 1.0//EN" "http://www.w3.org/TR/2001/REC-SVG-20010904/DTD/svg10.dtd">
<svg version="1.0" id="Layer_1" xmlns="http://www.w3.org/2000/svg" xmlns:xlink="http://www.w3.org/1999/xlink" x="0px" y="0px"
	 width="108px" height="108px" viewBox="0 0 108 108" enable-background="new 0 0 108 108" xml:space="preserve">
<path d="M106.561,85.563l-4.94-3.013V11.175h-8.021V1.44H66.78v9.735H58.76v45.241l-10.14-6.184V11.175h-8.021V1.44H13.78v9.735
	H5.76v12.923l-2.208-1.346L1.44,26.86l4.32,2.634v77.065h42.86V55.628l10.14,6.184v44.748h42.86V87.945l2.829,1.726L106.561,85.563z
	 M16.536,4.464h21.306v6.711H16.536V4.464z M8.517,14.2h37.347v34.353L8.517,25.779V14.2z M45.864,103.535H8.517v-72.36
	l37.347,22.773V103.535z M69.536,4.464h21.307v6.711H69.536V4.464z M61.517,14.2h37.348v66.669L61.517,58.097V14.2z M98.864,103.535
	H61.517V63.492l37.348,22.773V103.535z"/>
</svg>
