<?xml version="1.0" encoding="utf-8"?>
<!-- Generator: Adobe Illustrator 15.0.2, SVG Export Plug-In . SVG Version: 6.00 Build 0)  -->
<!DOCTYPE svg PUBLIC "-//W3C//DTD SVG 1.0//EN" "http://www.w3.org/TR/2001/REC-SVG-20010904/DTD/svg10.dtd">
<svg version="1.0" id="Layer_1" xmlns="http://www.w3.org/2000/svg" xmlns:xlink="http://www.w3.org/1999/xlink" x="0px" y="0px"
	 width="100.197px" height="79.409px" viewBox="0 0 100.197 79.409" enable-background="new 0 0 100.197 79.409"
	 xml:space="preserve">
<path d="M79.036,69.877H11.992c-6.394,0-11.596-5.201-11.596-11.596V21.844c0-6.394,5.202-11.595,11.596-11.595h67.044
	c6.394,0,11.595,5.201,11.595,11.595v36.438C90.63,64.676,85.429,69.877,79.036,69.877z M11.992,14.249
	c-4.188,0-7.596,3.407-7.596,7.595v36.438c0,4.188,3.407,7.596,7.596,7.596h67.044c4.188,0,7.595-3.408,7.595-7.596V21.844
	c0-4.188-3.407-7.595-7.595-7.595H11.992z M100.414,42.821v-5.514c0-4.354-3.541-7.895-7.894-7.895v4
	c2.146,0,3.894,1.747,3.894,3.895v5.514c0,2.146-1.747,3.893-3.894,3.893v4C96.873,50.713,100.414,47.172,100.414,42.821z
	 M50.884,37.551l26.181,3.912L42.833,27.082l0.669,14.379l-28.163-2.908l33.34,14.491L50.884,37.551z"/>
</svg>
