<?xml version="1.0" encoding="utf-8"?>
<!-- Generator: Adobe Illustrator 15.0.2, SVG Export Plug-In . SVG Version: 6.00 Build 0)  -->
<!DOCTYPE svg PUBLIC "-//W3C//DTD SVG 1.0//EN" "http://www.w3.org/TR/2001/REC-SVG-20010904/DTD/svg10.dtd">
<svg version="1.0" id="Layer_1" xmlns="http://www.w3.org/2000/svg" xmlns:xlink="http://www.w3.org/1999/xlink" x="0px" y="0px"
	 width="108px" height="108px" viewBox="0 0 108 108" enable-background="new 0 0 108 108" xml:space="preserve">
<path d="M99.313,37.396h-2.286v-1.878c0-3.996-3.251-7.248-7.247-7.248H18.221c-3.997,0-7.248,3.251-7.248,7.248v1.878H8.688
	c-3.997,0-7.248,3.251-7.248,7.248v27.738c0,3.996,3.251,7.248,7.248,7.248h90.625c3.996,0,7.247-3.252,7.247-7.248V44.643
	C106.56,40.647,103.309,37.396,99.313,37.396z M13.968,35.517c0-2.345,1.908-4.252,4.253-4.252h71.558
	c2.345,0,4.252,1.908,4.252,4.252v1.878H13.968V35.517z M103.565,72.381c0,2.346-1.908,4.254-4.253,4.254H8.688
	c-2.345,0-4.253-1.908-4.253-4.254V44.643c0-2.345,1.908-4.252,4.253-4.252h90.625c2.345,0,4.253,1.908,4.253,4.252V72.381z
	 M44.686,72.026H8.831V45h35.854V72.026z"/>
</svg>
