<?xml version="1.0" encoding="utf-8"?>
<!-- Generator: Adobe Illustrator 15.0.2, SVG Export Plug-In . SVG Version: 6.00 Build 0)  -->
<!DOCTYPE svg PUBLIC "-//W3C//DTD SVG 1.0//EN" "http://www.w3.org/TR/2001/REC-SVG-20010904/DTD/svg10.dtd">
<svg version="1.0" id="Layer_1" xmlns="http://www.w3.org/2000/svg" xmlns:xlink="http://www.w3.org/1999/xlink" x="0px" y="0px"
	 width="108px" height="108px" viewBox="0 0 108 108" enable-background="new 0 0 108 108" xml:space="preserve">
<path d="M106.561,85.563l-9.731-5.934h2.483c3.996,0,7.247-3.252,7.247-7.248V44.643c0-3.996-3.251-7.248-7.247-7.248h-2.286v-1.878
	c0-3.996-3.251-7.248-7.247-7.248H18.221c-1.402,0-2.708,0.407-3.818,1.099L3.552,22.752L1.44,26.86l10.007,6.102
	c-0.301,0.796-0.474,1.655-0.474,2.555v1.878H8.688c-3.997,0-7.248,3.251-7.248,7.248v27.738c0,3.996,3.251,7.248,7.248,7.248H87.98
	l16.469,10.042L106.561,85.563z M99.313,40.391c2.345,0,4.253,1.908,4.253,4.252v27.738c0,2.346-1.908,4.254-4.253,4.254h-7.394
	l-59.44-36.244H99.313z M18.221,31.265h71.558c2.345,0,4.252,1.908,4.252,4.252v1.878H27.567l-9.954-6.069
	C17.813,31.297,18.013,31.265,18.221,31.265z M18.718,37.396h-4.75v-1.878c0-0.327,0.045-0.642,0.115-0.948L18.718,37.396z
	 M8.688,76.635c-2.345,0-4.253-1.908-4.253-4.254V44.643c0-2.345,1.908-4.252,4.253-4.252H23.63l59.44,36.244H8.688z"/>
</svg>
