<?xml version="1.0" encoding="utf-8"?>
<!-- Generator: Adobe Illustrator 15.0.2, SVG Export Plug-In . SVG Version: 6.00 Build 0)  -->
<!DOCTYPE svg PUBLIC "-//W3C//DTD SVG 1.0//EN" "http://www.w3.org/TR/2001/REC-SVG-20010904/DTD/svg10.dtd">
<svg version="1.0" id="Layer_1" xmlns="http://www.w3.org/2000/svg" xmlns:xlink="http://www.w3.org/1999/xlink" x="0px" y="0px"
	 width="108px" height="108px" viewBox="0 0 108 108" enable-background="new 0 0 108 108" xml:space="preserve">
<path fill="#1B1C1F" d="M87.793,53.766c-0.032,9.905-3.916,19.208-10.944,26.19c-1.082,1.075-2.746,1.211-3.974,0.405
	c-0.182-0.119-0.353-0.26-0.511-0.419c-1.237-1.246-1.229-3.251,0.013-4.488c5.823-5.789,9.049-13.496,9.072-21.708
	c0.024-8.211-3.148-15.94-8.938-21.765c-1.235-1.243-1.229-3.252,0.013-4.487c1.243-1.233,3.251-1.23,4.489,0.015
	C83.996,34.534,87.824,43.86,87.793,53.766z M89.087,10.963c-1.239-1.247-3.246-1.249-4.487-0.015
	c-1.246,1.236-1.248,3.244-0.015,4.488c20.937,21.065,20.829,55.235-0.234,76.171c-1.243,1.234-1.249,3.243-0.015,4.486
	c0.16,0.159,0.334,0.302,0.512,0.418c1.23,0.806,2.896,0.676,3.976-0.402C112.369,72.706,112.486,34.509,89.087,10.963z
	 M36.582,20.624L58.715,2.44v102.538L36.576,87.069L14.19,86.723C7.176,86.724,1.44,80.988,1.44,73.937V33.41
	c0-7.051,5.736-12.787,12.787-12.787H36.582z M38.304,25.43H14.227c-4.4,0-7.98,3.58-7.98,7.98v40.526c0,4.4,3.58,7.98,7.98,7.98
	l24.083,0.371l15.599,12.619V12.61L38.304,25.43z"/>
</svg>
