<?xml version="1.0" encoding="utf-8"?>
<!-- Generator: Adobe Illustrator 15.0.2, SVG Export Plug-In . SVG Version: 6.00 Build 0)  -->
<!DOCTYPE svg PUBLIC "-//W3C//DTD SVG 1.0//EN" "http://www.w3.org/TR/2001/REC-SVG-20010904/DTD/svg10.dtd">
<svg version="1.0" id="Layer_1" xmlns="http://www.w3.org/2000/svg" xmlns:xlink="http://www.w3.org/1999/xlink" x="0px" y="0px"
	 width="108px" height="108px" viewBox="0 0 108 108" enable-background="new 0 0 108 108" xml:space="preserve">
<path d="M74.055,73.224c-0.014-0.07-0.031-0.138-0.05-0.206L60.87,20.213c-0.256-1.032-1.183-1.756-2.247-1.756h-7.191
	c-1.063,0-1.989,0.725-2.246,1.756l-20.761,83.474c-0.171,0.691-0.017,1.423,0.423,1.984c0.438,0.561,1.111,0.89,1.824,0.89h10.567
	c0.614,0,1.203-0.242,1.636-0.679l12.142-12.144l12.164,12.144c0.435,0.437,1.022,0.679,1.637,0.679h10.566
	c0.714,0,1.387-0.328,1.825-0.89s0.594-1.293,0.422-1.984L74.055,73.224z M53.243,23.087h3.571l4.716,18.964H48.525L53.243,23.087z
	 M40.278,101.931h-6.646l5.896-23.705l12.197,12.216L40.278,101.931z M54.999,87.165L40.833,72.979l6.541-26.297h15.307
	l6.529,26.251L54.999,87.165z M69.778,101.931l-11.496-11.5l12.233-12.251l5.906,23.751H69.778z M40.302,24.517
	c-3.09-3.391-3.362-8.998-0.606-12.501c0.27-0.343,0.768-0.403,1.112-0.132c0.343,0.27,0.403,0.768,0.132,1.111
	c-2.299,2.922-2.06,7.612,0.532,10.455c0.294,0.323,0.271,0.824-0.052,1.118c-0.152,0.139-0.342,0.207-0.533,0.207
	C40.672,24.775,40.458,24.688,40.302,24.517z M29.917,35.162c-8.168-8.963-8.897-23.789-1.626-33.049
	c0.27-0.343,0.768-0.403,1.112-0.133c0.343,0.27,0.403,0.767,0.133,1.111c-6.815,8.68-6.119,22.588,1.55,31.004
	c0.295,0.323,0.271,0.824-0.051,1.118c-0.152,0.139-0.343,0.207-0.534,0.207C30.287,35.42,30.073,35.333,29.917,35.162z
	 M34.978,30.104c-5.72-6.275-6.229-16.661-1.136-23.153c0.27-0.344,0.768-0.404,1.111-0.134c0.344,0.27,0.404,0.767,0.134,1.111
	c-4.637,5.911-4.161,15.381,1.061,21.11c0.295,0.323,0.271,0.824-0.052,1.118c-0.152,0.138-0.342,0.207-0.533,0.207
	C35.348,30.362,35.134,30.275,34.978,30.104z M68.584,13.41c-0.295-0.323-0.271-0.824,0.052-1.118
	c0.322-0.295,0.822-0.272,1.117,0.051c3.091,3.391,3.362,8.998,0.606,12.501c-0.156,0.198-0.388,0.302-0.622,0.302
	c-0.172,0-0.344-0.055-0.489-0.169c-0.344-0.27-0.403-0.768-0.133-1.111C71.414,20.943,71.176,16.253,68.584,13.41z M81.764,34.747
	c-0.155,0.198-0.389,0.302-0.623,0.302c-0.171,0-0.344-0.055-0.488-0.169c-0.344-0.27-0.403-0.767-0.134-1.111
	c6.815-8.68,6.119-22.588-1.551-31.004c-0.294-0.323-0.271-0.824,0.053-1.118c0.321-0.293,0.822-0.271,1.118,0.052
	C88.306,10.66,89.035,25.486,81.764,34.747z M73.907,7.822c-0.294-0.323-0.271-0.824,0.053-1.118
	c0.322-0.294,0.822-0.271,1.117,0.051c5.72,6.275,6.23,16.661,1.136,23.153c-0.155,0.199-0.388,0.303-0.623,0.303
	c-0.17,0-0.342-0.055-0.487-0.169c-0.345-0.27-0.404-0.768-0.134-1.111C79.605,23.021,79.13,13.551,73.907,7.822z"/>
</svg>
