<?xml version="1.0" encoding="utf-8"?>
<!-- Generator: Adobe Illustrator 15.0.2, SVG Export Plug-In . SVG Version: 6.00 Build 0)  -->
<!DOCTYPE svg PUBLIC "-//W3C//DTD SVG 1.0//EN" "http://www.w3.org/TR/2001/REC-SVG-20010904/DTD/svg10.dtd">
<svg version="1.0" id="Layer_1" xmlns="http://www.w3.org/2000/svg" xmlns:xlink="http://www.w3.org/1999/xlink" x="0px" y="0px"
	 width="108px" height="108px" viewBox="0 0 108 108" enable-background="new 0 0 108 108" xml:space="preserve">
<path d="M106.56,99.808V105H1.44V2.365h4.817v97.442H106.56z M63.728,67.573v25.963h15.71V59.49L66.884,70.247L63.728,67.573z
	 M66.884,60.449l38.605-33.04l0.196-11.375L66.884,48.28L45.184,29.905L10.826,58.083v12.172l34.357-28.173L66.884,60.449z
	 M90.131,93.536h15.719V36.885L90.131,50.342V93.536z M37.313,58.317v35.219H53.04V58.529l-7.857-6.652L37.313,58.317z
	 M26.634,93.536V67.083L10.916,79.976v13.561H26.634z"/>
</svg>
