<?xml version="1.0" encoding="utf-8"?>
<!-- Generator: Adobe Illustrator 15.0.2, SVG Export Plug-In . SVG Version: 6.00 Build 0)  -->
<!DOCTYPE svg PUBLIC "-//W3C//DTD SVG 1.0//EN" "http://www.w3.org/TR/2001/REC-SVG-20010904/DTD/svg10.dtd">
<svg version="1.0" id="Layer_1" xmlns="http://www.w3.org/2000/svg" xmlns:xlink="http://www.w3.org/1999/xlink" x="0px" y="0px"
	 width="108px" height="108px" viewBox="0 0 108 108" enable-background="new 0 0 108 108" xml:space="preserve">
<path d="M90.774,30.163l5-6.226v76.822c0,2.854-2.315,5.168-5.171,5.168H6.608c-2.854,0-5.168-2.314-5.168-5.168V16.763
	c0-2.855,2.314-5.169,5.168-5.169h70.983l-6.39,5H6.608c-0.093,0-0.168,0.076-0.168,0.169v83.996c0,0.093,0.076,0.168,0.168,0.168
	h83.995c0.094,0,0.171-0.075,0.171-0.168V30.163z M70.264,28.663C58.668,40.435,49.171,52.555,41.777,65.027l-2.035-4.596
	c-4.114-9.146-7.855-13.718-11.224-13.718c-3.938,0-8.271,2.494-12.996,7.482c2.8,0.963,5.327,2.911,7.581,5.841
	c2.254,2.934,4.693,7.463,7.319,13.588l1.837,4.266c1.926,4.684,3.172,8.053,3.742,10.109c1.443-1.357,4.177-3.436,8.204-6.236
	l4.856-3.281c6.04-12.734,14.791-26.43,26.254-41.089c11.465-14.658,21.88-25.51,31.244-32.556l-2.297-3.282
	C93.192,7.856,81.858,16.894,70.264,28.663z"/>
</svg>
