<?xml version="1.0" encoding="utf-8"?>
<!-- Generator: Adobe Illustrator 15.0.2, SVG Export Plug-In . SVG Version: 6.00 Build 0)  -->
<!DOCTYPE svg PUBLIC "-//W3C//DTD SVG 1.0//EN" "http://www.w3.org/TR/2001/REC-SVG-20010904/DTD/svg10.dtd">
<svg version="1.0" id="Layer_1" xmlns="http://www.w3.org/2000/svg" xmlns:xlink="http://www.w3.org/1999/xlink" x="0px" y="0px"
	 width="108px" height="108px" viewBox="0 0 108 108" enable-background="new 0 0 108 108" xml:space="preserve">
<path d="M97.422,78.546h9.138v4.19H90.186c0-1.52,0.379-3.044,1.523-4.569c0.757-1.525,2.663-3.429,5.33-5.713
	c2.284-1.904,3.046-3.43,3.808-4.187c0.766-1.146,1.14-1.906,1.14-3.051c0-0.759-0.374-1.526-0.757-2.284
	c-0.766-0.379-1.523-0.759-2.672-0.759c-0.757,0-1.901,0.38-2.28,0.759c-0.383,0.758-0.762,1.904-0.762,3.051l-4.951-0.388
	c0.378-2.663,1.522-4.568,2.663-5.326c1.522-1.145,3.429-1.903,5.33-1.903c2.672,0,4.578,0.759,5.718,1.903
	c1.523,1.138,2.284,2.663,2.284,4.567c0,1.146-0.383,2.284-0.761,3.431c0,0.757-0.762,2.282-1.906,3.429
	c-0.379,0.379-1.523,1.517-2.663,2.663c-1.523,1.523-2.672,2.282-3.051,3.048C97.801,77.788,97.422,78.167,97.422,78.546z
	 M80.282,35.506c3.812,3.81,5.713,9.521,5.713,16.381c0,7.238-1.901,12.95-5.713,16.76c-3.808,3.808-8.761,5.713-15.233,5.713
	c-6.86,0-11.81-1.905-15.617-5.713c-3.81-3.81-5.714-9.521-5.714-16.381c0-4.567,0.762-8.375,1.904-11.046
	c1.142-2.284,2.667-4.567,4.192-6.092c1.903-1.525,3.425-3.042,5.711-4.188c2.663-1.146,5.716-1.525,9.523-1.525
	C71.141,29.414,76.475,31.32,80.282,35.506z M76.853,51.887c0-4.954-1.144-8.761-3.428-11.425c-1.903-2.284-4.951-3.429-8.376-3.429
	c-3.808,0-6.86,1.145-8.762,3.429c-2.284,2.664-3.431,6.471-3.431,11.425s1.146,8.762,3.431,11.046
	c2.282,2.663,5.33,3.808,8.762,3.808c3.425,0,6.473-0.757,8.376-3.429C75.709,61.027,76.853,57.22,76.853,51.887z M33.055,70.931
	c3.045-2.284,5.334-5.714,6.472-10.661l-8.376-2.672c-0.764,3.43-1.906,5.714-3.808,7.239c-1.525,1.146-3.429,1.903-6.092,1.903
	c-3.053,0-5.716-0.757-7.617-3.429c-1.906-2.284-3.053-6.092-3.053-11.806c0-4.952,1.146-8.764,3.053-11.044
	c2.282-2.284,4.564-3.429,7.994-3.429c2.287,0,4.19,0.379,5.715,1.902c1.901,1.146,2.663,3.05,3.427,5.334l8.376-2.284
	c-0.757-3.429-2.284-5.713-4.186-7.615c-3.431-3.431-7.617-4.956-12.952-4.956c-6.092,0-11.427,2.285-14.855,6.092
	c-3.808,3.81-5.713,9.521-5.713,17.14c0,6.479,1.906,12.191,5.713,16c3.429,3.808,8.383,5.713,14.475,5.713
	C25.818,74.359,29.626,73.598,33.055,70.931z M81.639,89.756c-7.222,5.415-15.035,7.938-24.59,7.938
	c-11.324,0-20.799-3.788-28.929-11.546c-1.769-1.769-3.196-3.55-4.244-5.294c-0.619-1.031-1.956-1.365-2.988-0.746
	c-1.032,0.618-1.366,1.957-0.747,2.988c1.23,2.049,2.879,4.112,4.935,6.168c9.016,8.604,19.475,12.786,31.973,12.786
	c10.4,0,19.298-2.882,27.202-8.811c0.964-0.721,1.159-2.086,0.437-3.049C83.966,89.229,82.601,89.029,81.639,89.756z M26.599,22.956
	l1.521-1.522C36.147,13.41,45.611,9.509,57.049,9.509c11.386,0,20.979,4,28.547,11.924c6.731,6.732,10.516,13.92,11.569,21.974
	c0.142,1.098,1.078,1.896,2.156,1.896c0.094,0,0.189-0.006,0.285-0.018c1.191-0.156,2.033-1.25,1.876-2.442
	c-1.181-9.043-5.371-17.054-12.771-24.454C80.443,9.73,69.494,5.152,57.049,5.152c-12.651,0-23.122,4.318-32.013,13.205
	l-1.517,1.519c-0.851,0.851-0.851,2.229,0,3.08C24.37,23.807,25.749,23.807,26.599,22.956z"/>
</svg>
