<?xml version="1.0" encoding="utf-8"?>
<!-- Generator: Adobe Illustrator 15.0.2, SVG Export Plug-In . SVG Version: 6.00 Build 0)  -->
<!DOCTYPE svg PUBLIC "-//W3C//DTD SVG 1.1//EN" "http://www.w3.org/Graphics/SVG/1.1/DTD/svg11.dtd">
<svg version="1.1" id="Layer_1" xmlns="http://www.w3.org/2000/svg" xmlns:xlink="http://www.w3.org/1999/xlink" x="0px" y="0px"
	 width="108px" height="108px" viewBox="0 0 108 108" enable-background="new 0 0 108 108" xml:space="preserve">
<g>
	<path d="M4.16,55.444c8.971-6.796,17.999-6.75,27.61,0.137c5.203,3.7,10.442,5.598,15.155,5.598c2.576,0,4.995-0.567,7.163-1.718
		c0.828-0.439,1.144-1.467,0.705-2.294c-0.439-0.828-1.468-1.142-2.294-0.703c-4.887,2.595-11.9,1.232-18.758-3.645
		c-10.822-7.754-21.464-7.783-31.628-0.079c-0.747,0.566-0.895,1.629-0.328,2.376C2.348,55.861,3.41,56.011,4.16,55.444z"/>
	<path d="M59.775,67.369c-8.856,6.242-17.42,6.248-26.176,0.031c-10.734-7.672-21.327-7.666-31.484,0.002
		c-0.747,0.564-0.896,1.629-0.332,2.377c0.562,0.746,1.625,0.893,2.376,0.332c8.964-6.77,17.95-6.753,27.472,0.051
		c4.965,3.527,9.977,5.289,15,5.289c5.033,0,10.079-1.77,15.1-5.309c0.766-0.539,0.949-1.598,0.408-2.363
		C61.602,67.013,60.541,66.83,59.775,67.369z"/>
	<path d="M4.16,40.748c8.971-6.791,17.999-6.746,27.608,0.135c4.867,3.465,9.854,5.218,14.835,5.218c0.26,0,0.519-0.005,0.776-0.014
		c0.938-0.035,1.668-0.822,1.634-1.758c-0.035-0.937-0.878-1.67-1.756-1.633c-4.511,0.176-9.025-1.375-13.518-4.574
		c-10.819-7.748-21.459-7.777-31.627-0.08c-0.747,0.566-0.895,1.629-0.328,2.376C2.348,41.165,3.41,41.313,4.16,40.748z"/>
	<path d="M106.561,43.424c0-6.563-2.658-12.513-6.947-16.833c-0.01-0.009-0.012-0.021-0.021-0.031
		c-0.004-0.006-0.012-0.006-0.018-0.012c-4.314-4.325-10.273-7.005-16.846-7.005c-13.139,0-23.826,10.713-23.826,23.881
		c0,9.724,5.838,18.093,14.178,21.814l0.063,8.082c0.002,0.131,0.047,0.246,0.076,0.369c0.023,0.094,0.023,0.195,0.059,0.283
		c0.047,0.111,0.131,0.197,0.197,0.293c0.059,0.08,0.098,0.176,0.168,0.244c0.082,0.082,0.189,0.131,0.285,0.193
		c0.086,0.057,0.156,0.129,0.254,0.17c0.201,0.084,0.424,0.133,0.656,0.133c0.004,0,0.01,0,0.014,0h2.832V86.76
		c0,0.939,0.758,1.697,1.695,1.697h6.848c0.939,0,1.697-0.758,1.697-1.697V75.006h2.719c0.938,0,1.695-0.76,1.695-1.697v-8.052
		C100.703,61.547,106.561,53.164,106.561,43.424z M94.848,53.141c-0.662-0.661-1.736-0.663-2.398,0.001
		c-0.662,0.663-0.662,1.736,0,2.398l3.49,3.486c-1.727,1.473-3.703,2.651-5.854,3.487c-0.055,0.019-0.107,0.034-0.16,0.059
		c-1.736,0.657-3.578,1.091-5.5,1.25v-8.948c0-0.938-0.76-1.697-1.697-1.697s-1.695,0.759-1.695,1.697v8.948
		c-4.369-0.362-8.35-2.102-11.51-4.792l3.219-3.216c0.662-0.661,0.662-1.736,0-2.399c-0.664-0.663-1.736-0.663-2.4,0l-3.211,3.211
		c-2.668-3.163-4.391-7.142-4.75-11.507h8.896c0.938,0,1.695-0.759,1.695-1.696c0-0.937-0.758-1.696-1.695-1.696h-8.896
		c0.359-4.367,2.082-8.347,4.75-11.51l2.947,2.945c0.33,0.332,0.766,0.497,1.199,0.497s0.867-0.166,1.199-0.497
		c0.662-0.663,0.662-1.737,0-2.398l-2.953-2.951c3.16-2.69,7.141-4.429,11.51-4.792v16.907c0,0.937,0.758,1.696,1.695,1.696
		s1.697-0.76,1.697-1.696V23.022c4.369,0.363,8.35,2.102,11.51,4.794l-3.059,3.057c-0.662,0.663-0.662,1.737,0,2.399
		c0.332,0.332,0.766,0.497,1.199,0.497s0.867-0.166,1.199-0.496l3.057-3.054c2.668,3.163,4.391,7.142,4.75,11.508h-8.895
		c-0.938,0-1.697,0.76-1.697,1.696c0,0.937,0.76,1.696,1.697,1.696h8.895c-0.359,4.363-2.082,8.341-4.748,11.502L94.848,53.141z
		 M84.531,85.064h-3.455V75.006h3.455V85.064z M88.945,71.611H76.521l-0.037-5.17c1.994,0.544,4.08,0.86,6.244,0.86
		c2.154,0,4.23-0.313,6.217-0.853V71.611z"/>
</g>
</svg>
