<?xml version="1.0" encoding="utf-8"?>
<!-- Generator: Adobe Illustrator 15.0.2, SVG Export Plug-In . SVG Version: 6.00 Build 0)  -->
<!DOCTYPE svg PUBLIC "-//W3C//DTD SVG 1.0//EN" "http://www.w3.org/TR/2001/REC-SVG-20010904/DTD/svg10.dtd">
<svg version="1.0" id="Layer_1" xmlns="http://www.w3.org/2000/svg" xmlns:xlink="http://www.w3.org/1999/xlink" x="0px" y="0px"
	 width="108px" height="108px" viewBox="0 0 108 108" enable-background="new 0 0 108 108" xml:space="preserve">
<path d="M85.627,32.333c0-5.479-4.171-9.936-9.298-9.936H31.672c-5.127,0-9.298,4.457-9.298,9.936v43.382
	c0,5.479,4.171,9.936,9.298,9.936h44.657c5.127,0,9.298-4.457,9.298-9.936V32.333z M81.52,75.715c0,3.214-2.329,5.828-5.19,5.828
	H31.672c-2.863,0-5.191-2.614-5.191-5.828V32.333c0-3.214,2.329-5.828,5.191-5.828h44.657c2.861,0,5.19,2.614,5.19,5.828V75.715z
	 M51.946,17.225V3.494c0-1.134,0.919-2.054,2.054-2.054s2.054,0.919,2.054,2.054v13.731c0,1.134-0.919,2.054-2.054,2.054
	S51.946,18.359,51.946,17.225z M56.054,90.776v13.73c0,1.135-0.919,2.054-2.054,2.054s-2.054-0.919-2.054-2.054v-13.73
	c0-1.135,0.919-2.055,2.054-2.055S56.054,89.642,56.054,90.776z M85.813,22.188c-0.803-0.802-0.803-2.103,0-2.904l9.709-9.709
	c0.802-0.802,2.102-0.802,2.903,0c0.803,0.802,0.803,2.103,0,2.904l-9.709,9.709c-0.4,0.401-0.926,0.602-1.451,0.602
	S86.214,22.588,85.813,22.188z M22.187,85.813c0.802,0.802,0.802,2.103,0,2.904l-9.709,9.709c-0.401,0.401-0.927,0.603-1.452,0.603
	s-1.051-0.201-1.452-0.603c-0.802-0.802-0.802-2.102,0-2.903l9.709-9.71C20.084,85.011,21.385,85.011,22.187,85.813z M98.426,95.523
	c0.803,0.802,0.803,2.102,0,2.903c-0.4,0.401-0.926,0.603-1.451,0.603c-0.526,0-1.052-0.201-1.452-0.603l-9.709-9.709
	c-0.803-0.802-0.803-2.103,0-2.904c0.802-0.802,2.102-0.802,2.903,0L98.426,95.523z M9.573,12.479c-0.802-0.802-0.802-2.103,0-2.904
	c0.801-0.802,2.102-0.802,2.904,0l9.709,9.709c0.802,0.802,0.802,2.103,0,2.904c-0.401,0.401-0.927,0.602-1.452,0.602
	s-1.051-0.201-1.452-0.602L9.573,12.479z M106.56,54c0,1.134-0.919,2.054-2.054,2.054H90.776c-1.135,0-2.054-0.919-2.054-2.054
	s0.919-2.054,2.054-2.054h13.729C105.641,51.946,106.56,52.866,106.56,54z M17.225,56.054H3.494c-1.134,0-2.054-0.919-2.054-2.054
	s0.919-2.054,2.054-2.054h13.731c1.134,0,2.054,0.919,2.054,2.054S18.359,56.054,17.225,56.054z M35.486,44.602l-6.585,16.906h3.621
	l1.396-3.84h6.758l1.476,3.84h3.713l-6.769-16.906H35.486z M34.967,54.819l2.283-6.273l2.33,6.273H34.967z M58.643,52.524
	c0.73-0.331,1.309-0.826,1.735-1.488c0.426-0.661,0.64-1.388,0.64-2.179c0-0.73-0.173-1.39-0.52-1.978
	c-0.346-0.589-0.778-1.06-1.297-1.413c-0.52-0.354-1.107-0.586-1.765-0.698c-0.657-0.111-1.655-0.167-2.992-0.167h-6.758v16.906
	h5.755c2.176-0.016,3.547-0.054,4.117-0.115c0.906-0.1,1.67-0.367,2.289-0.802c0.618-0.434,1.106-1.015,1.464-1.741
	c0.358-0.727,0.536-1.475,0.536-2.243c0-0.977-0.277-1.826-0.83-2.549C60.464,53.335,59.672,52.824,58.643,52.524z M51.1,47.416
	h1.961c1.607,0,2.579,0.019,2.918,0.058c0.568,0.069,0.996,0.267,1.285,0.593c0.288,0.327,0.433,0.752,0.433,1.275
	c0,0.546-0.167,0.985-0.501,1.32c-0.336,0.334-0.795,0.536-1.379,0.605c-0.322,0.039-1.148,0.058-2.479,0.058H51.1V47.416z
	 M57.841,57.881c-0.319,0.357-0.733,0.582-1.24,0.674c-0.33,0.069-1.11,0.104-2.341,0.104H51.1v-4.521h2.756
	c1.553,0,2.563,0.081,3.027,0.242c0.465,0.162,0.82,0.419,1.067,0.773c0.246,0.354,0.368,0.784,0.368,1.292
	C58.318,57.045,58.16,57.523,57.841,57.881z M75.548,55.292l3.31,1.049c-0.508,1.845-1.352,3.216-2.531,4.111
	c-1.181,0.896-2.678,1.343-4.492,1.343c-2.244,0-4.09-0.767-5.535-2.3c-1.445-1.534-2.168-3.631-2.168-6.291
	c0-2.813,0.727-4.999,2.18-6.556c1.453-1.557,3.363-2.335,5.731-2.335c2.067,0,3.748,0.611,5.04,1.834
	c0.769,0.722,1.345,1.76,1.729,3.113l-3.378,0.807c-0.2-0.876-0.617-1.568-1.252-2.076c-0.634-0.507-1.404-0.761-2.312-0.761
	c-1.253,0-2.27,0.45-3.05,1.349s-1.171,2.356-1.171,4.371c0,2.137,0.385,3.66,1.152,4.566c0.77,0.907,1.77,1.361,2.999,1.361
	c0.907,0,1.688-0.288,2.341-0.865C74.795,57.437,75.263,56.53,75.548,55.292z"/>
</svg>
