<?xml version="1.0" encoding="utf-8"?>
<!-- Generator: Adobe Illustrator 15.0.2, SVG Export Plug-In . SVG Version: 6.00 Build 0)  -->
<!DOCTYPE svg PUBLIC "-//W3C//DTD SVG 1.0//EN" "http://www.w3.org/TR/2001/REC-SVG-20010904/DTD/svg10.dtd">
<svg version="1.0" id="Layer_1" xmlns="http://www.w3.org/2000/svg" xmlns:xlink="http://www.w3.org/1999/xlink" x="0px" y="0px"
	 width="108px" height="108px" viewBox="0 0 108 108" enable-background="new 0 0 108 108" xml:space="preserve">
<path d="M6.828,25.639c-4.503-4.5-4.503-11.801,0-16.295c4.496-4.509,11.807-4.509,16.31,0l22.445,22.428l2.947,2.964
	c0.06,0.061,0.104,0.141,0.158,0.2l-3.72,3.732L18.327,12.022c-0.642-0.641-1.686-0.641-2.337,0c-0.651,0.646-0.651,1.69,0,2.321
	l26.639,26.651l-4.151,4.159L11.849,18.509c-0.648-0.647-1.697-0.647-2.333,0c-0.649,0.639-0.649,1.686,0,2.331l26.64,26.635
	l-3.73,3.724c-0.069-0.06-0.133-0.092-0.201-0.166l-2.812-2.812L6.828,25.639z M84.532,81.497l-15.2-15.19l-5.531,5.54
	l15.185,15.194l1.435,6.771l18.463,12.164l2.291-2.301l2.285-2.286L91.298,82.932L84.532,81.497z M91.917,42.384
	c0,0-24.621,12.158-31.111,18.645L22.06,101.657c0,0-7.33,9.251-16.586,0c-9.071-9.08-0.009-16.585-0.009-16.585l44.958-36.147
	c10.383-10.392,13.417-30.719,15.576-37.21c2.163-6.496,4.33-6.924,14.279-9.088c9.95-2.161,19.471,3.893,19.471,3.893L83.63,13.55
	l-1.19,5.082l2.458,5.947l4.981,4l16.683-9.215c0,0-4.412,14.778-15.462,20.202L91.917,42.384z M18.59,88.531
	c-2.545-2.541-6.678-2.541-9.225,0.009c-2.547,2.548-2.547,6.674-0.001,9.22c2.546,2.556,6.681,2.556,9.226,0
	C21.143,95.208,21.143,91.083,18.59,88.531z"/>
</svg>
