<?xml version="1.0" encoding="utf-8"?>
<!-- Generator: Adobe Illustrator 15.0.2, SVG Export Plug-In . SVG Version: 6.00 Build 0)  -->
<!DOCTYPE svg PUBLIC "-//W3C//DTD SVG 1.0//EN" "http://www.w3.org/TR/2001/REC-SVG-20010904/DTD/svg10.dtd">
<svg version="1.0" id="Layer_1" xmlns="http://www.w3.org/2000/svg" xmlns:xlink="http://www.w3.org/1999/xlink" x="0px" y="0px"
	 width="108px" height="108px" viewBox="0 0 108 108" enable-background="new 0 0 108 108" xml:space="preserve">
<path fill="#010101" d="M104.374,50.848H57.828v-8.432h15.957V9.821H36.466v32.595h15.45v8.432H3.627
	c-1.208,0-2.187,0.979-2.187,2.187s0.979,2.187,2.187,2.187H22.85v9.148H6.262v32.595H43.58V64.37H28.762v-9.148H81.74v8.75H64.9
	v32.595h37.318V63.972H87.653v-8.75h16.721c1.208,0,2.186-0.979,2.186-2.187S105.582,50.848,104.374,50.848z M37.746,70.204v20.927
	h-25.65V70.204H37.746z M42.3,36.582V15.655h25.649v20.927H42.3z M96.383,69.806v20.927H70.735V69.806H96.383z"/>
</svg>
