<?xml version="1.0" encoding="utf-8"?>
<!-- Generator: Adobe Illustrator 15.0.2, SVG Export Plug-In . SVG Version: 6.00 Build 0)  -->
<!DOCTYPE svg PUBLIC "-//W3C//DTD SVG 1.0//EN" "http://www.w3.org/TR/2001/REC-SVG-20010904/DTD/svg10.dtd">
<svg version="1.0" id="Layer_1" xmlns="http://www.w3.org/2000/svg" xmlns:xlink="http://www.w3.org/1999/xlink" x="0px" y="0px"
	 width="108px" height="108px" viewBox="0 0 108 108" enable-background="new 0 0 108 108" xml:space="preserve">
<path d="M95.526,3.6H12.47C7.56,3.6,3.6,7.567,3.6,12.482v83.045c0,4.874,3.959,8.873,8.87,8.873h83.056
	c4.875,0,8.876-3.999,8.876-8.873V12.482C104.402,7.567,100.401,3.6,95.526,3.6z M96.123,95.527c0,0.315-0.28,0.596-0.597,0.596
	H12.47c-0.347,0-0.593-0.28-0.593-0.596V12.482c0-0.35,0.246-0.605,0.593-0.605h83.056c0.316,0,0.597,0.255,0.597,0.605V95.527z
	 M84.621,39.103V82.83c0,2.807-2.596,5.051-5.788,5.051H68.767V59.296h-4.911v28.585h-7.396V59.296h-4.916v28.585h-7.821V59.296
	h-4.91v28.585h-9.681c-3.195,0-5.751-2.245-5.751-5.051V39.103c0-2.81,2.596-5.055,5.751-5.055h7.05V23.004
	c0-1.618,1.473-2.88,3.297-2.88h28.375c1.822,0,3.296,1.262,3.296,2.88v11.044h7.682C82.025,34.048,84.621,36.293,84.621,39.103z"/>
</svg>
