<?xml version="1.0" encoding="utf-8"?>
<!-- Generator: Adobe Illustrator 15.0.2, SVG Export Plug-In . SVG Version: 6.00 Build 0)  -->
<!DOCTYPE svg PUBLIC "-//W3C//DTD SVG 1.0//EN" "http://www.w3.org/TR/2001/REC-SVG-20010904/DTD/svg10.dtd">
<svg version="1.0" id="Layer_1" xmlns="http://www.w3.org/2000/svg" xmlns:xlink="http://www.w3.org/1999/xlink" x="0px" y="0px"
	 width="108px" height="108px" viewBox="0 0 108 108" enable-background="new 0 0 108 108" xml:space="preserve">
<path fill="#231F20" d="M45.309,106.004H34.755c-0.938,0-1.81-0.313-2.523-0.908c-0.759-0.637-1.198-1.49-1.252-2.422l-1.152-7.411
	c-0.738-0.27-1.451-0.554-2.134-0.852l-5.704,4.259c-0.703,0.566-1.555,0.866-2.469,0.866c-0.991,0-1.895-0.372-2.618-1.076
	c-4.071-3.665-6.712-6.372-8.069-8.269c-0.494-0.638-0.754-1.422-0.754-2.268s0.286-1.651,0.83-2.343
	c0.498-0.735,1.295-1.788,2.434-3.212c0.696-0.869,1.283-1.631,1.757-2.276c-0.427-0.883-0.798-1.767-1.112-2.64l-7.409-1.09
	c-0.972-0.137-1.814-0.673-2.367-1.504c-0.397-0.592-0.652-1.258-0.751-1.967L1.44,72.604V62.05c0-0.881,0.314-1.724,0.907-2.437
	c0.596-0.715,1.283-1.152,2.041-1.303l7.71-1.189c0.287-0.756,0.617-1.518,0.987-2.279c-1.167-1.568-2.601-3.388-4.278-5.43
	c-0.643-0.748-0.983-1.575-0.983-2.427c0-0.783,0.274-1.563,0.815-2.318c0.952-1.269,2.545-3.011,4.9-5.365
	c3.341-3.342,4.766-4.013,5.982-4.013c0.786,0,1.584,0.248,2.373,0.737l0.181,0.126l5.513,4.297c0.69-0.326,1.396-0.623,2.111-0.887
	c0.464-3.699,0.902-6.261,1.334-7.802c0.394-1.764,1.812-2.855,3.721-2.855h10.554c0.809,0,1.567,0.231,2.254,0.688
	c0.846,0.565,1.38,1.45,1.511,2.496l1.089,7.473c0.759,0.28,1.482,0.58,2.166,0.901l5.683-4.263
	c1.274-1.156,3.278-1.209,4.842-0.103l0.212,0.174c4.197,3.907,6.841,6.642,8.079,8.362c0.494,0.643,0.757,1.426,0.757,2.267
	c0,0.803-0.24,1.584-0.691,2.262l-0.079,0.11l-4.245,5.542c0.397,0.859,0.754,1.713,1.07,2.555l7.443,1.095
	c0.901,0.129,1.704,0.586,2.315,1.321c0.616,0.742,0.905,1.642,0.824,2.553v10.438c0,0.813-0.233,1.574-0.691,2.261
	c-0.552,0.827-1.393,1.361-2.371,1.5l-7.596,1.167c-0.301,0.821-0.612,1.584-0.933,2.286c1.019,1.415,2.419,3.211,4.171,5.361
	c0.679,0.718,1.038,1.606,1.038,2.574c0,0.956-0.335,1.799-0.946,2.411c-0.943,1.282-2.507,3.01-4.771,5.271
	c-3.262,3.262-4.727,3.931-5.925,3.931l-0.125-0.003c-0.811-0.015-1.594-0.286-2.327-0.809l-5.602-4.361
	c-0.719,0.332-1.448,0.633-2.182,0.9c-0.461,3.719-0.87,6.278-1.249,7.802C48.568,104.907,47.177,106.004,45.309,106.004z
	 M35.059,101.845h9.981c0.379-1.619,0.799-4.416,1.268-8.378l0.159-1.346l1.296-0.398c1.348-0.414,2.69-0.966,3.99-1.643
	l1.184-0.617l7.502,5.846c0.37-0.216,1.267-0.849,3.061-2.642c2.071-2.069,3.527-3.671,4.336-4.764
	c-2.231-2.738-3.918-4.943-5.012-6.557l-0.699-1.028l0.575-1.103c0.573-1.096,1.132-2.453,1.658-4.034l0.402-1.206l9.628-1.48
	l-0.009-9.979l-9.534-1.403l-0.402-1.214c-0.474-1.424-1.094-2.905-1.846-4.406l-0.579-1.164l5.661-7.391
	c-0.783-1.05-2.672-3.165-7.198-7.393l-7.76,5.818l-1.175-0.639c-1.125-0.614-2.437-1.162-3.897-1.634l-1.232-0.396l-1.403-9.642
	l-10.025,0.01c-0.403,1.527-0.846,4.315-1.319,8.295l-0.159,1.343l-1.293,0.398c-1.339,0.414-2.644,0.961-3.877,1.628l-1.195,0.647
	l-7.523-5.861l0,0c-0.374,0.222-1.287,0.873-3.142,2.728c-2.05,2.052-3.506,3.625-4.334,4.686c2.07,2.524,3.763,4.701,5.062,6.505
	l0.761,1.057l-0.617,1.145c-0.727,1.35-1.308,2.691-1.724,3.989l-0.393,1.225l-9.635,1.481v9.982l9.581,1.407l0.377,1.275
	c0.413,1.393,1.017,2.836,1.795,4.289l0.59,1.098l-0.692,1.038c-0.603,0.904-1.498,2.097-2.66,3.55
	c-1.07,1.338-1.829,2.339-2.253,2.969c1.198,1.617,3.635,4.084,7.247,7.341L27.2,89.59l1.135,0.545
	c1.213,0.581,2.563,1.122,4.013,1.604l1.203,0.4L35.059,101.845z M40.032,81.661c-3.905,0-7.293-1.407-10.067-4.183
	c-2.776-2.777-4.184-6.163-4.184-10.065c0.132-3.929,1.528-7.279,4.149-10.032c2.667-2.799,6.066-4.219,10.102-4.219
	c4.035,0,7.433,1.42,10.099,4.219c2.633,2.765,4,6.126,4.066,9.997c0.063,3.918-1.316,7.317-4.099,10.101
	C47.325,80.254,43.936,81.661,40.032,81.661z M40.032,57.321c-2.893,0-5.213,0.957-7.091,2.93c-1.923,2.019-2.906,4.386-3.002,7.233
	c0.001,2.727,0.971,5.057,2.967,7.054c1.994,1.995,4.325,2.964,7.126,2.964c2.8,0,5.131-0.969,7.125-2.964
	c1.984-1.985,2.928-4.305,2.88-7.091c-0.048-2.832-1.003-5.187-2.916-7.198C45.244,58.278,42.923,57.321,40.032,57.321z
	 M78.306,42.509l-5.114-2.701c-0.453-0.24-0.794-0.616-0.989-1.088c-0.204-0.503-0.199-1.026,0.015-1.491l1.337-3.887
	c-0.289-0.32-0.562-0.639-0.813-0.959l-3.855,0.604c-0.483,0.095-0.974,0.021-1.417-0.214c-0.481-0.253-0.823-0.665-0.993-1.191
	c-1.034-2.817-1.619-4.803-1.791-6.071c-0.076-0.436-0.004-0.883,0.214-1.293c0.216-0.407,0.562-0.725,1.002-0.921
	c0.428-0.227,1.085-0.534,2-0.932c0.562-0.243,1.039-0.462,1.434-0.653c0.023-0.537,0.067-1.061,0.14-1.563l-3.312-2.425
	c-0.436-0.315-0.708-0.791-0.763-1.334c-0.04-0.389,0.006-0.777,0.141-1.146l0.063-0.145l2.703-5.112
	c0.224-0.429,0.592-0.756,1.064-0.95c0.47-0.193,0.915-0.229,1.319-0.108l4.041,1.397c0.332-0.293,0.687-0.576,1.061-0.853
	c-0.163-1.058-0.391-2.307-0.683-3.725c-0.119-0.525-0.072-1.015,0.146-1.427c0.199-0.38,0.532-0.687,0.985-0.913
	c0.787-0.372,2.006-0.808,3.75-1.347c2.475-0.763,3.338-0.723,3.923-0.412c0.382,0.201,0.706,0.525,0.963,0.963l0.055,0.108
	l1.572,3.493c0.418,0.019,0.834,0.056,1.25,0.111c1.17-1.673,2.037-2.802,2.644-3.438c0.643-0.752,1.608-0.92,2.533-0.431
	l5.113,2.703c0.39,0.206,0.699,0.512,0.914,0.909c0.268,0.491,0.299,1.056,0.096,1.596l-1.385,3.9
	c0.295,0.33,0.566,0.661,0.816,0.99l3.846-0.61c0.911-0.233,1.896,0.254,2.372,1.19l0.058,0.137c1.034,2.967,1.613,4.97,1.772,6.119
	c0.075,0.439,0.001,0.884-0.214,1.293c-0.205,0.388-0.521,0.707-0.913,0.918l-0.065,0.034l-3.475,1.598
	c-0.029,0.518-0.075,1.023-0.138,1.511l3.327,2.436c0.402,0.293,0.675,0.72,0.782,1.233c0.109,0.518,0.02,1.026-0.254,1.447
	l-2.674,5.058c-0.206,0.394-0.513,0.703-0.911,0.918c-0.48,0.26-1.024,0.304-1.533,0.121l-3.978-1.38
	c-0.358,0.32-0.702,0.61-1.038,0.868c0.131,0.947,0.35,2.176,0.649,3.666c0.144,0.522,0.091,1.043-0.157,1.512
	c-0.245,0.464-0.624,0.787-1.075,0.927c-0.784,0.38-1.986,0.817-3.662,1.333c-2.416,0.743-3.296,0.695-3.876,0.387l-0.059-0.034
	c-0.389-0.215-0.7-0.546-0.923-0.986L84.748,38.7c-0.431-0.022-0.862-0.063-1.286-0.121c-1.175,1.684-2.028,2.819-2.603,3.46
	C80.166,42.81,79.21,42.987,78.306,42.509z M74.403,37.87l4.836,2.556c0.598-0.688,1.518-1.935,2.76-3.733l0.421-0.612l0.729,0.139
	c0.761,0.145,1.553,0.221,2.354,0.226l0.733,0.004l2.137,4.753c0.234-0.011,0.832-0.087,2.158-0.495
	c1.534-0.476,2.649-0.876,3.323-1.2c-0.383-1.897-0.635-3.396-0.752-4.457l-0.075-0.68l0.561-0.387
	c0.561-0.383,1.175-0.898,1.836-1.529l0.504-0.481l5.043,1.747l2.551-4.836l-4.26-3.12l0.117-0.692
	c0.133-0.81,0.212-1.687,0.232-2.607l0.018-0.711l4.634-2.132c-0.109-0.708-0.483-2.218-1.593-5.425l-5.25,0.835l-0.407-0.611
	c-0.387-0.586-0.883-1.188-1.47-1.789l-0.493-0.508l1.786-5.03L91.977,4.53c-0.586,0.637-1.514,1.874-2.763,3.681l-0.419,0.61
	l-0.729-0.139C87.312,8.54,86.54,8.472,85.77,8.481l-0.743,0.007L82.88,3.723c0,0,0,0,0.001-0.001
	c-0.237,0.012-0.845,0.094-2.22,0.518c-1.519,0.468-2.627,0.857-3.298,1.16c0.354,1.752,0.619,3.241,0.787,4.447l0.096,0.707
	l-0.592,0.396c-0.696,0.467-1.322,0.969-1.855,1.491l-0.505,0.494l-5.046-1.75L67.69,16.02l4.283,3.134l-0.143,0.716
	c-0.158,0.78-0.235,1.632-0.23,2.537l0.006,0.682l-0.602,0.327c-0.522,0.283-1.262,0.631-2.196,1.039
	c-0.862,0.375-1.483,0.665-1.852,0.861c0.167,1.09,0.715,2.91,1.631,5.411l5.146-0.805l0.411,0.555
	c0.438,0.591,0.953,1.2,1.532,1.803l0.479,0.502L74.403,37.87z M81.979,29.365c-1.891-1-3.17-2.548-3.804-4.603
	c-0.636-2.057-0.451-4.057,0.55-5.947c1.07-1.871,2.604-3.137,4.577-3.797c2.009-0.674,4.018-0.492,5.975,0.541
	c1.954,1.033,3.237,2.59,3.813,4.629c0.565,2.013,0.368,3.991-0.592,5.883c-0.971,1.916-2.511,3.209-4.57,3.844
	C85.874,30.55,83.872,30.364,81.979,29.365z M88.212,17.574c-1.4-0.741-2.771-0.87-4.187-0.396
	c-1.448,0.486-2.529,1.382-3.305,2.736c-0.697,1.323-0.826,2.698-0.372,4.177c0.459,1.478,1.341,2.542,2.695,3.261
	c1.356,0.717,2.733,0.843,4.213,0.388c1.468-0.455,2.52-1.337,3.211-2.698c0.699-1.385,0.842-2.77,0.429-4.233
	C90.49,19.371,89.612,18.314,88.212,17.574z"/>
</svg>
