<?xml version="1.0" encoding="utf-8"?>
<!-- Generator: Adobe Illustrator 15.0.2, SVG Export Plug-In . SVG Version: 6.00 Build 0)  -->
<!DOCTYPE svg PUBLIC "-//W3C//DTD SVG 1.0//EN" "http://www.w3.org/TR/2001/REC-SVG-20010904/DTD/svg10.dtd">
<svg version="1.0" id="Layer_1" xmlns="http://www.w3.org/2000/svg" xmlns:xlink="http://www.w3.org/1999/xlink" x="0px" y="0px"
	 width="108px" height="108px" viewBox="0 0 108 108" enable-background="new 0 0 108 108" xml:space="preserve">
<path d="M78.355,56.466c0-13.426-10.922-24.348-24.348-24.348S29.66,43.04,29.66,56.466v32.68H18.027v15.749h71.961V89.146H78.355
	V56.466z M33.664,56.466c0-11.218,9.126-20.344,20.344-20.344s20.344,9.126,20.344,20.344v32.68H33.664V56.466z M85.984,93.149
	v7.741H22.031v-7.741h7.628h48.696H85.984z M51.998,26.481V4.442c0-1.105,0.896-2.002,2.002-2.002s2.002,0.896,2.002,2.002v22.04
	c0,1.105-0.896,2.002-2.002,2.002S51.998,27.587,51.998,26.481z M106.561,55c0,1.105-0.896,2.002-2.002,2.002H82.518
	c-1.105,0-2.002-0.896-2.002-2.002s0.896-2.002,2.002-2.002h22.041C105.664,52.998,106.561,53.894,106.561,55z M25.482,57.001H3.442
	c-1.105,0-2.002-0.896-2.002-2.002s0.896-2.002,2.002-2.002h22.04c1.105,0,2.002,0.896,2.002,2.002S26.587,57.001,25.482,57.001z
	 M72.75,36.25c-0.782-0.781-0.782-2.049,0-2.831l15.585-15.585c0.782-0.782,2.049-0.782,2.831,0s0.782,2.049,0,2.831L75.581,36.25
	c-0.392,0.391-0.903,0.586-1.416,0.586C73.653,36.837,73.141,36.642,72.75,36.25z M16.835,20.666c-0.782-0.782-0.782-2.049,0-2.831
	c0.781-0.782,2.049-0.782,2.831,0L35.25,33.419c0.782,0.781,0.782,2.049,0,2.831c-0.391,0.391-0.903,0.586-1.416,0.586
	s-1.024-0.195-1.415-0.586L16.835,20.666z"/>
</svg>
