<?xml version="1.0" encoding="utf-8"?>
<!-- Generator: Adobe Illustrator 15.0.2, SVG Export Plug-In . SVG Version: 6.00 Build 0)  -->
<!DOCTYPE svg PUBLIC "-//W3C//DTD SVG 1.0//EN" "http://www.w3.org/TR/2001/REC-SVG-20010904/DTD/svg10.dtd">
<svg version="1.0" id="Layer_1" xmlns="http://www.w3.org/2000/svg" xmlns:xlink="http://www.w3.org/1999/xlink" x="0px" y="0px"
	 width="108px" height="108px" viewBox="0 0 108 108" enable-background="new 0 0 108 108" xml:space="preserve">
<path d="M88.971,21.73l11.267-13.122l-6.726,15.846L88.971,21.73z M83.838,25.667L90.566,9.82l-11.27,13.123L83.838,25.667z
	 M105.752,103.685c0,1.591-2.823,2.876-6.299,2.876H8.458c-3.482,0-6.297-1.285-6.297-2.876c0-1.585,2.817-2.876,6.297-2.876H20.58
	L2.16,89.79L50.951,8.193l54.801,32.746l-32.818,59.869h26.52C102.929,100.806,105.752,102.094,105.752,103.685z M73.917,94.458
	l-1.332,6.351h0.08L73.917,94.458z M97.422,42.981l-34.99,13.038l2.461,14.503c0.018,0.079,0,0.163,0.012,0.226
	c0,0.123-0.001,0.225-0.018,0.348c-0.018,0.129-0.058,0.239-0.092,0.352c-0.04,0.087-0.067,0.198-0.126,0.289
	c-0.061,0.108-0.151,0.19-0.228,0.289c-0.069,0.071-0.13,0.171-0.207,0.228c-0.107,0.082-0.229,0.146-0.36,0.21
	c-0.077,0.014-0.127,0.087-0.206,0.104L49.737,77.25l1.159,23.559H65.93l31.563-57.79L97.422,42.981z M56.003,18.235l5.776,33.95
	l31.438-11.726L56.003,18.235z M11.23,86.363l49.802-16.765l-8.821-51.797L11.23,86.363z M32.371,100.809h14.754l-1.071-22.312
	L13.393,89.511l18.862,11.271L32.371,100.809z M87.474,1.44l-11.27,13.122l4.541,2.726L87.474,1.44z"/>
</svg>
