<?xml version="1.0" encoding="utf-8"?>
<!-- Generator: Adobe Illustrator 15.0.2, SVG Export Plug-In . SVG Version: 6.00 Build 0)  -->
<!DOCTYPE svg PUBLIC "-//W3C//DTD SVG 1.0//EN" "http://www.w3.org/TR/2001/REC-SVG-20010904/DTD/svg10.dtd">
<svg version="1.0" id="Layer_1" xmlns="http://www.w3.org/2000/svg" xmlns:xlink="http://www.w3.org/1999/xlink" x="0px" y="0px"
	 width="108px" height="108px" viewBox="0 0 108 108" enable-background="new 0 0 108 108" xml:space="preserve">
<g>
</g>
<path d="M77.976,43.235c2.064-3,3.1-6.232,3.1-9.699c0-4.009-1.384-7.715-4.161-11.119c-2.776-3.393-6.537-6.083-11.302-8.072
	s-9.963-2.982-15.592-2.982s-10.827,0.994-15.592,2.982c-4.766,1.988-8.537,4.679-11.303,8.072
	c-2.223,2.725-3.544,5.646-3.989,8.759H7.72c-1.71,0-3.184,0.62-4.423,1.857C2.06,34.273,1.44,35.749,1.44,37.458v50.597
	c0,1.712,0.62,3.186,1.857,4.425c1.239,1.238,2.712,1.856,4.423,1.856h25.299c1.651,0,3.125-0.618,4.422-1.856
	c1.299-1.239,1.946-2.713,1.946-4.425V59.556c1.979-1.184,3.846-2.542,5.596-4.084c0.606,0.057,1.194,0.091,1.785,0.129v26.678
	h59.791V43.235H77.976z M74.072,47.576h24.459L77.94,68.172c-0.756,0.628-1.86,0.569-2.484,0.061L61.414,54.19
	c1.434-0.406,2.836-0.884,4.198-1.453C68.917,51.359,71.728,49.634,74.072,47.576z M16.478,37.458h2.982
	c0.134,0.538,0.303,1.068,0.492,1.594h-3.474c-0.53,0-0.795-0.267-0.795-0.798C15.682,37.723,15.947,37.458,16.478,37.458z
	 M23.201,90.798c-0.827,0.768-1.769,1.148-2.831,1.148s-1.977-0.381-2.743-1.148c-0.767-0.765-1.15-1.681-1.15-2.743
	c0.118-1.176,0.5-2.122,1.15-2.829c0.648-0.708,1.563-1.091,2.743-1.15c1.178-0.056,2.124,0.325,2.831,1.15
	c0.708,0.827,1.09,1.769,1.15,2.829C24.409,89.117,24.026,90.033,23.201,90.798z M34.169,81.245
	c-0.353,0.297-0.736,0.441-1.15,0.441H7.72c-0.413,0-0.767-0.144-1.061-0.441c-0.296-0.294-0.442-0.677-0.442-1.15V45.418
	c0-0.471,0.146-0.854,0.442-1.148c0.294-0.296,0.648-0.443,1.061-0.443h14.799c2.03,2.79,4.757,5.156,8.18,7.107l-0.929,2.615
	c-0.292,0.778-0.605,1.47-0.94,2.042c-0.324,0.583-0.703,1.167-1.113,1.74c-0.411,0.583-0.767,1.037-1.059,1.372l-1.243,1.362
	c-0.54,0.583-0.886,0.973-1.059,1.178l-0.735,0.94c-0.129,0.119-0.173,0.227-0.129,0.302c0.043,0.087,0.021,0.216-0.065,0.378
	c-0.076,0.162-0.076,0.292,0,0.368v0.065c0.086,0.377,0.27,0.68,0.562,0.929c0.292,0.249,0.605,0.378,0.929,0.378h0.184
	c1.491-0.173,2.799-0.411,3.922-0.746c1.943-0.504,3.8-1.146,5.588-1.899v18.137C34.67,80.568,34.523,80.95,34.169,81.245z
	 M43.558,50.815l-1.491,1.296c-0.861,0.75-1.764,1.439-2.687,2.1c-1.509,1.077-3.098,2.036-4.765,2.872
	c-0.693,0.348-1.391,0.688-2.111,0.993c1.069-1.902,1.88-3.89,2.42-5.964l0.929-3.35l-1.241-0.724l0,0l-1.741-1.016
	c-1.708-0.958-3.187-2.025-4.458-3.196c-0.482-0.444-0.933-0.903-1.355-1.376c-0.022-0.025-0.042-0.05-0.064-0.075
	c-0.412-0.468-0.797-0.948-1.147-1.447c-0.222-0.316-0.428-0.634-0.618-0.955c-0.004-0.006-0.007-0.013-0.011-0.02
	c-0.187-0.315-0.361-0.633-0.521-0.952l0,0c-0.255-0.51-0.473-1.025-0.653-1.545c-0.22-0.629-0.385-1.266-0.497-1.909
	c-0.002-0.011-0.004-0.021-0.006-0.032c-0.05-0.292-0.086-0.585-0.113-0.879c-0.003-0.038-0.011-0.074-0.014-0.111
	c-0.028-0.328-0.042-0.657-0.042-0.988c-0.005-0.4,0.01-0.796,0.046-1.189c0-0.007,0.002-0.014,0.003-0.021
	c0.036-0.386,0.091-0.769,0.166-1.149l0,0c0.447-2.267,1.596-4.419,3.449-6.458c2.485-2.734,5.737-4.906,9.746-6.526
	c4.02-1.61,8.429-2.42,13.237-2.42c4.797,0,9.217,0.81,13.226,2.42c4.02,1.621,7.272,3.792,9.758,6.526s3.706,5.673,3.662,8.817
	c-0.042,3.155-1.264,6.094-3.662,8.828c-0.261,0.298-0.538,0.586-0.819,0.871l0,0c-0.41,0.414-0.842,0.813-1.294,1.2
	c-0.026,0.022-0.056,0.044-0.081,0.066c-0.396,0.333-0.809,0.654-1.236,0.967c-0.111,0.081-0.225,0.161-0.338,0.241
	c-0.367,0.258-0.747,0.508-1.137,0.752c-0.125,0.078-0.247,0.158-0.374,0.234c-0.508,0.305-1.03,0.601-1.576,0.881
	c-0.915,0.47-1.883,0.904-2.903,1.305c-1.773,0.702-3.609,1.243-5.501,1.64l0,0c-1.73,0.364-3.509,0.602-5.337,0.711l0,0
	c-0.453,0.027-0.908,0.046-1.367,0.057l0,0c-0.339,0.009-0.677,0.022-1.02,0.022c-0.558,0-1.142-0.03-1.728-0.063
	c-0.498-0.031-1.002-0.071-1.518-0.121c-0.429-0.042-0.846-0.072-1.292-0.129L43.558,50.815z M51.04,55.698
	c1.85-0.041,3.654-0.184,5.409-0.443l7.259,7.226L51.04,75.148V55.698z M54.314,77.937l12.395-12.395l5.733,5.671
	c1.115,1.171,2.536,1.765,4.222,1.765c1.674,0,3.111-0.587,4.275-1.747l5.685-5.685l12.393,12.39H54.314z M102.291,75.148
	L89.623,62.48l12.668-12.609V75.148z"/>
</svg>
