<?xml version="1.0" encoding="utf-8"?>
<!-- Generator: Adobe Illustrator 15.0.2, SVG Export Plug-In . SVG Version: 6.00 Build 0)  -->
<!DOCTYPE svg PUBLIC "-//W3C//DTD SVG 1.0//EN" "http://www.w3.org/TR/2001/REC-SVG-20010904/DTD/svg10.dtd">
<svg version="1.0" id="Layer_1" xmlns="http://www.w3.org/2000/svg" xmlns:xlink="http://www.w3.org/1999/xlink" x="0px" y="0px"
	 width="108px" height="108px" viewBox="0 0 108 108" enable-background="new 0 0 108 108" xml:space="preserve">
<path d="M54.147,6.13c26.399,0,47.877,21.477,47.877,47.876s-21.478,47.877-47.877,47.877S6.271,80.406,6.271,54.007
	S27.748,6.13,54.147,6.13 M54.147,2.13c-28.65,0-51.876,23.226-51.876,51.876c0,28.651,23.226,51.877,51.876,51.877
	c28.651,0,51.877-23.226,51.877-51.877C106.024,25.356,82.799,2.13,54.147,2.13L54.147,2.13z M98.264,62.775H9.735l-0.039-0.203
	C9.149,59.732,8.873,56.849,8.873,54c0-2.841,0.276-5.72,0.821-8.557l0.039-0.203h88.535l0.038,0.203
	c0.545,2.837,0.821,5.716,0.821,8.557c0,2.847-0.277,5.73-0.824,8.572L98.264,62.775z M10.148,62.275h87.702
	c0.516-2.745,0.776-5.528,0.776-8.275c0-2.742-0.26-5.52-0.773-8.26H10.146C9.633,48.48,9.373,51.258,9.373,54
	C9.373,56.749,9.633,59.532,10.148,62.275z M86.576,22.775H21.423l0.418-0.425C30.397,13.659,41.817,8.872,54,8.872
	c12.184,0,23.604,4.787,32.157,13.478L86.576,22.775z M22.623,22.275h62.754C76.967,13.949,65.849,9.372,54,9.372
	C42.152,9.372,31.034,13.949,22.623,22.275z M88.764,82.775H19.236l-0.075-0.091c-4.164-5.052-7.121-10.814-8.79-17.131
	l-0.083-0.313H97.71l-0.082,0.313c-1.668,6.315-4.625,12.079-8.789,17.131L88.764,82.775z M19.472,82.275h69.055
	c4.011-4.89,6.88-10.45,8.532-16.535H10.939C12.593,71.825,15.462,77.386,19.472,82.275z M54,99.128
	c-12.175,0-23.59-4.781-32.143-13.462l-0.419-0.426h65.125l-0.42,0.426C77.59,94.347,66.175,99.128,54,99.128z M22.638,85.74
	C31.047,94.056,42.16,98.628,54,98.628c11.839,0,22.952-4.572,31.362-12.888H22.638z M97.715,42.775H10.284l0.083-0.314
	c1.665-6.313,4.62-12.077,8.782-17.13l0.075-0.091h69.553l0.075,0.091c4.161,5.054,7.115,10.817,8.781,17.13L97.715,42.775z
	 M10.935,42.275h86.13c-1.65-6.083-4.517-11.643-8.524-16.535H19.46C15.452,30.632,12.585,36.193,10.935,42.275z"/>
</svg>
