<?xml version="1.0" encoding="utf-8"?>
<!-- Generator: Adobe Illustrator 15.0.2, SVG Export Plug-In . SVG Version: 6.00 Build 0)  -->
<!DOCTYPE svg PUBLIC "-//W3C//DTD SVG 1.0//EN" "http://www.w3.org/TR/2001/REC-SVG-20010904/DTD/svg10.dtd">
<svg version="1.0" id="Layer_1" xmlns="http://www.w3.org/2000/svg" xmlns:xlink="http://www.w3.org/1999/xlink" x="0px" y="0px"
	 width="108px" height="108px" viewBox="0 0 108 108" enable-background="new 0 0 108 108" xml:space="preserve">
<path d="M54.147,6.13c26.399,0,47.877,21.477,47.877,47.876s-21.478,47.877-47.877,47.877S6.271,80.406,6.271,54.007
	S27.748,6.13,54.147,6.13 M54.147,2.13c-28.65,0-51.876,23.226-51.876,51.876c0,28.651,23.226,51.877,51.876,51.877
	c28.651,0,51.877-23.226,51.877-51.877C106.024,25.356,82.799,2.13,54.147,2.13L54.147,2.13z M54.147,10.694
	c-9.05,0-17.449,2.78-24.397,7.526L54,51.539l24.351-33.457C71.44,13.418,63.112,10.694,54.147,10.694z M80.779,19.862L56.492,53.35
	l39.234,12.786c1.121-3.851,1.733-7.917,1.733-12.129C97.46,40.131,90.928,27.789,80.779,19.862z M13.469,68.913
	c5.896,16.086,21.063,27.689,39.025,28.364l-0.035-40.996L13.469,68.913z M55.506,97.285c18.061-0.558,33.337-12.158,39.287-28.287
	L55.541,56.281L55.506,97.285z M27.328,20.011c-10.041,7.932-16.493,20.207-16.493,33.996c0,4.18,0.604,8.217,1.709,12.04
	L51.507,53.35L27.328,20.011z"/>
</svg>
