<?xml version="1.0" encoding="utf-8"?>
<!-- Generator: Adobe Illustrator 15.0.2, SVG Export Plug-In . SVG Version: 6.00 Build 0)  -->
<!DOCTYPE svg PUBLIC "-//W3C//DTD SVG 1.0//EN" "http://www.w3.org/TR/2001/REC-SVG-20010904/DTD/svg10.dtd">
<svg version="1.0" id="Layer_1" xmlns="http://www.w3.org/2000/svg" xmlns:xlink="http://www.w3.org/1999/xlink" x="0px" y="0px"
	 width="108px" height="108px" viewBox="0 0 108 108" enable-background="new 0 0 108 108" xml:space="preserve">
<path d="M106.024,54.007c0-28.65-23.226-51.876-51.877-51.876c-18.878,0-35.396,10.086-44.472,25.161L4.55,24.183l-2.075,4.012
	l5.045,3.06c-3.359,6.87-5.25,14.589-5.25,22.752c0,28.651,23.226,51.877,51.876,51.877c17.105,0,32.272-8.282,41.723-21.051
	l7.773,4.714l2.073-4.013l-7.322-4.44C103.231,73.209,106.024,63.936,106.024,54.007z M54.147,6.13
	c26.399,0,47.877,21.477,47.877,47.876c0,9.158-2.589,17.721-7.066,25.003L13.111,29.375C21.495,15.459,36.751,6.13,54.147,6.13z
	 M54.147,101.884c-26.399,0-47.876-21.478-47.876-47.877c0-7.396,1.687-14.404,4.694-20.663l81.453,49.396
	C83.674,94.356,69.774,101.884,54.147,101.884z"/>
</svg>
