<?xml version="1.0" encoding="utf-8"?>
<!-- Generator: Adobe Illustrator 15.0.2, SVG Export Plug-In . SVG Version: 6.00 Build 0)  -->
<!DOCTYPE svg PUBLIC "-//W3C//DTD SVG 1.0//EN" "http://www.w3.org/TR/2001/REC-SVG-20010904/DTD/svg10.dtd">
<svg version="1.0" id="Layer_1" xmlns="http://www.w3.org/2000/svg" xmlns:xlink="http://www.w3.org/1999/xlink" x="0px" y="0px"
	 width="108px" height="108px" viewBox="0 0 108 108" enable-background="new 0 0 108 108" xml:space="preserve">
<path d="M54.147,6.13c26.399,0,47.877,21.477,47.877,47.876s-21.478,47.877-47.877,47.877S6.271,80.406,6.271,54.007
	S27.748,6.13,54.147,6.13 M54.147,2.13c-28.65,0-51.876,23.226-51.876,51.876c0,28.651,23.226,51.877,51.876,51.877
	c28.651,0,51.877-23.226,51.877-51.877C106.024,25.356,82.799,2.13,54.147,2.13L54.147,2.13z M9.123,54
	c0,2.916,0.288,5.764,0.819,8.525h88.116c0.531-2.762,0.819-5.609,0.819-8.525c0-2.911-0.287-5.753-0.816-8.51H9.939
	C9.41,48.247,9.123,51.089,9.123,54z M86.576,22.775H21.423l0.418-0.425C30.397,13.659,41.817,8.872,54,8.872
	c12.184,0,23.604,4.787,32.157,13.478L86.576,22.775z M22.623,22.275h62.754C76.967,13.949,65.849,9.372,54,9.372
	C42.152,9.372,31.034,13.949,22.623,22.275z M88.646,82.525c4.049-4.911,7.067-10.699,8.74-17.035H10.613
	c1.674,6.336,4.692,12.124,8.741,17.035H88.646z M22.035,85.49C30.174,93.752,41.486,98.878,54,98.878s23.825-5.126,31.965-13.388
	H22.035z M19.342,25.49c-4.045,4.912-7.062,10.7-8.733,17.035h86.782c-1.671-6.335-4.688-12.123-8.732-17.035H19.342z"/>
</svg>
