<?xml version="1.0" encoding="utf-8"?>
<!-- Generator: Adobe Illustrator 15.0.2, SVG Export Plug-In . SVG Version: 6.00 Build 0)  -->
<!DOCTYPE svg PUBLIC "-//W3C//DTD SVG 1.0//EN" "http://www.w3.org/TR/2001/REC-SVG-20010904/DTD/svg10.dtd">
<svg version="1.0" id="Layer_1" xmlns="http://www.w3.org/2000/svg" xmlns:xlink="http://www.w3.org/1999/xlink" x="0px" y="0px"
	 width="108px" height="108px" viewBox="0 0 108 108" enable-background="new 0 0 108 108" xml:space="preserve">
<g>
	<path d="M97.46,54.007c0,4.212-0.612,8.278-1.733,12.129L56.492,53.35l24.287-33.487C90.928,27.789,97.46,40.131,97.46,54.007z
		 M55.506,97.285c18.061-0.558,33.337-12.158,39.287-28.287L55.541,56.281L55.506,97.285z M54.147,6.13
		c-26.399,0-47.876,21.477-47.876,47.876s21.477,47.877,47.876,47.877s47.877-21.478,47.877-47.877S80.547,6.13,54.147,6.13
		 M54.147,2.13c28.651,0,51.877,23.226,51.877,51.876c0,28.651-23.226,51.877-51.877,51.877c-28.65,0-51.876-23.226-51.876-51.877
		C2.271,25.356,25.497,2.13,54.147,2.13L54.147,2.13z"/>
</g>
</svg>
