<?xml version="1.0" encoding="utf-8"?>
<!-- Generator: Adobe Illustrator 15.0.2, SVG Export Plug-In . SVG Version: 6.00 Build 0)  -->
<!DOCTYPE svg PUBLIC "-//W3C//DTD SVG 1.0//EN" "http://www.w3.org/TR/2001/REC-SVG-20010904/DTD/svg10.dtd">
<svg version="1.0" id="Layer_2" xmlns="http://www.w3.org/2000/svg" xmlns:xlink="http://www.w3.org/1999/xlink" x="0px" y="0px"
	 width="108px" height="108px" viewBox="0 0 108 108" enable-background="new 0 0 108 108" xml:space="preserve">
<path fill="#231F20" d="M104.19,17.105L90.893,3.808c-1.526-1.527-3.557-2.368-5.716-2.368c-2.16,0-4.19,0.841-5.717,2.368
	L9.262,74.006L1.44,106.56l32.553-7.821l70.197-70.2C107.343,25.386,107.343,20.257,104.19,17.105z M16.369,73.821L72.428,17.76
	l17.811,17.81l-56.06,56.061L16.369,73.821z M13.392,77.764l16.843,16.844L8.065,99.935L13.392,77.764z M100.73,25.078l-7.032,7.032
	L75.889,14.3l7.031-7.032c1.206-1.204,3.306-1.206,4.513,0l13.298,13.297C101.974,21.81,101.974,23.834,100.73,25.078z"/>
</svg>
