<?xml version="1.0" encoding="utf-8"?>
<!-- Generator: Adobe Illustrator 15.0.2, SVG Export Plug-In . SVG Version: 6.00 Build 0)  -->
<!DOCTYPE svg PUBLIC "-//W3C//DTD SVG 1.0//EN" "http://www.w3.org/TR/2001/REC-SVG-20010904/DTD/svg10.dtd">
<svg version="1.0" id="Layer_1" xmlns="http://www.w3.org/2000/svg" xmlns:xlink="http://www.w3.org/1999/xlink" x="0px" y="0px"
	 width="101.936px" height="80.381px" viewBox="0 0 101.936 80.381" enable-background="new 0 0 101.936 80.381"
	 xml:space="preserve">
<path d="M101.936,80.213H18.507V69.256c0-2.787,2.207-6.418,18.572-12.193c4.968-1.797,8.353-3.594,10.046-5.338
	c1.553-1.598,2.308-3.768,2.308-6.635c0-0.521-0.245-1.445-1.41-2.879c-1.434-1.757-2.479-4.115-3.106-7.005
	c-0.063-0.355-0.123-0.442-0.124-0.443c-0.218-0.183-0.364-0.239-0.416-0.254c-1.32-0.377-2.028-1.618-2.445-2.519
	c-0.502-1.072-0.812-2.492-0.943-4.333l-0.005-0.142c0-1.232,0.208-2.245,0.638-3.097c0.241-0.48,0.484-0.866,0.745-1.172
	c-0.375-2.421-0.665-4.606-0.865-6.507c-0.267-3.595,1.038-7.241,3.873-10.898c2.925-3.766,7.92-5.675,14.848-5.675
	c6.92,0,11.938,1.903,14.917,5.657c2.921,3.684,4.198,7.361,3.8,10.929l-0.863,6.336c0.77,0.835,1.385,2.199,1.385,4.426
	l-0.005,0.143c-0.132,1.835-0.44,3.253-0.944,4.335c-0.416,0.896-1.122,2.135-2.44,2.515c-0.056,0.016-0.201,0.072-0.431,0.27
	c0,0.002-0.055,0.095-0.095,0.335c-0.512,3.064-1.552,5.502-3.094,7.245c-0.943,1.066-1.441,2.012-1.441,2.732
	c0,2.855,0.775,5.02,2.372,6.613c1.757,1.76,5.125,3.564,10.011,5.369c16.338,5.766,18.544,9.396,18.544,12.184V80.213z
	 M22.507,76.213h75.429v-6.957c0-0.113-0.181-2.873-15.902-8.422c-5.535-2.043-9.282-4.102-11.481-6.301
	c-2.351-2.35-3.543-5.527-3.543-9.443c0-1.738,0.823-3.549,2.446-5.382c1.035-1.172,1.757-2.941,2.144-5.256
	c0.193-1.156,0.678-2.068,1.439-2.714c0.501-0.432,1.037-0.757,1.594-0.965c0.057-0.087,0.143-0.234,0.25-0.465
	c0.198-0.425,0.456-1.264,0.577-2.862c-0.011-1.228-0.285-1.629-0.337-1.652l-1.37-0.61l1.217-8.922
	c0.271-2.434-0.725-5.125-2.965-7.952c-2.181-2.749-6.146-4.143-11.783-4.143c-5.629,0-9.561,1.389-11.687,4.127
	c-2.21,2.85-3.236,5.572-3.05,8.089c0.215,2.036,0.551,4.501,0.994,7.268l0.161,1.004l-1.308,1.306
	c-0.034,0.059-0.08,0.141-0.138,0.255c-0.077,0.154-0.203,0.512-0.211,1.233c0.12,1.601,0.377,2.435,0.573,2.853
	c0.109,0.237,0.195,0.385,0.252,0.473c0.554,0.208,1.092,0.533,1.604,0.971c0.754,0.642,1.237,1.554,1.431,2.707
	c0.474,2.175,1.248,3.968,2.281,5.234c1.554,1.913,2.309,3.681,2.309,5.405c0,3.904-1.157,7.074-3.438,9.422
	c-2.149,2.213-5.934,4.279-11.57,6.316c-15.737,5.555-15.917,8.314-15.917,8.428V76.213z M19.764,62.119
	c-0.219,0-0.44-0.044-0.648-0.137c-0.584-0.256-0.961-0.835-0.961-1.473v-8.438H1.61c-0.889,0-1.61-0.721-1.61-1.61V34.55
	c0-0.889,0.721-1.61,1.61-1.61h16.545v-8.437c0-0.638,0.377-1.216,0.961-1.474c0.584-0.258,1.265-0.146,1.735,0.286l19.672,18.003
	c0.333,0.305,0.523,0.736,0.523,1.188s-0.19,0.883-0.523,1.188L20.851,61.698C20.548,61.975,20.159,62.119,19.764,62.119z
	 M3.219,48.852h16.545c0.889,0,1.609,0.722,1.609,1.609v6.394l15.678-14.349L21.374,28.159v6.392c0,0.889-0.721,1.61-1.609,1.61
	H3.219V48.852z"/>
</svg>
