<?xml version="1.0" encoding="utf-8"?>
<!-- Generator: Adobe Illustrator 15.0.2, SVG Export Plug-In . SVG Version: 6.00 Build 0)  -->
<!DOCTYPE svg PUBLIC "-//W3C//DTD SVG 1.0//EN" "http://www.w3.org/TR/2001/REC-SVG-20010904/DTD/svg10.dtd">
<svg version="1.0" id="Layer_1" xmlns="http://www.w3.org/2000/svg" xmlns:xlink="http://www.w3.org/1999/xlink" x="0px" y="0px"
	 width="108px" height="108px" viewBox="0 0 108 108" enable-background="new 0 0 108 108" xml:space="preserve">
<path d="M42.97,31.594c-1.865-2.261-4.109-3.992-6.738-5.191c-2.632-1.197-5.476-1.796-8.537-1.796
	c-6.125,0-10.683,2.429-13.677,7.287l-0.101-5.99H1.44v72.377h12.779v-29.65c3.658,5.127,8.517,7.688,14.575,7.688
	c3.195,0,6.039-0.616,8.537-1.847c2.495-1.23,4.608-2.978,6.339-5.241c1.729-2.262,3.045-4.941,3.942-8.035
	c0.897-3.097,1.35-6.506,1.35-10.233c0-4.126-0.536-7.82-1.598-11.082C46.295,36.62,44.833,33.857,42.97,31.594z M24.601,65.237
	c-7.254,0-10.881-5.323-10.881-15.973c0-4.193,1.048-7.587,3.145-10.183c2.097-2.596,4.706-3.893,7.837-3.893
	c3.259,0,5.921,1.381,7.987,4.143c2.06,2.763,3.095,6.339,3.095,10.731C35.783,60.18,32.053,65.237,24.601,65.237z M106.561,8.732
	v66.289H92.585v-29.75H66.728v29.75H52.853V8.732h13.875V33.69h25.857V8.732H106.561z"/>
</svg>
