<?xml version="1.0" encoding="utf-8"?>
<!-- Generator: Adobe Illustrator 15.0.2, SVG Export Plug-In . SVG Version: 6.00 Build 0)  -->
<!DOCTYPE svg PUBLIC "-//W3C//DTD SVG 1.0//EN" "http://www.w3.org/TR/2001/REC-SVG-20010904/DTD/svg10.dtd">
<svg version="1.0" id="Layer_1" xmlns="http://www.w3.org/2000/svg" xmlns:xlink="http://www.w3.org/1999/xlink" x="0px" y="0px"
	 width="108px" height="108px" viewBox="0 0 108 108" enable-background="new 0 0 108 108" xml:space="preserve">
<path d="M47.213,47.55c-0.084-0.109-0.161-0.27-0.144-0.366c0.027-0.141,0.139-0.224,0.242-0.307
	c0.068-0.083,0.223-0.114,0.312-0.097c0.152,0.024,0.238,0.092,0.364,0.207c0.036,0.101,0.061,0.207,0.04,0.349
	c-0.014,0.094-0.086,0.238-0.149,0.324c-0.155,0.073-0.264,0.103-0.405,0.079C47.373,47.721,47.242,47.654,47.213,47.55z
	 M45.726,46.424c0.159-0.072,0.214-0.163,0.241-0.31c0.018-0.098-0.01-0.245-0.137-0.363c-0.03-0.104-0.164-0.171-0.264-0.188
	c-0.14-0.025-0.242,0.012-0.36,0.084c-0.159,0.075-0.177,0.223-0.193,0.313c-0.022,0.149-0.043,0.245,0.085,0.361
	c0.084,0.114,0.172,0.176,0.313,0.198C45.511,46.534,45.657,46.512,45.726,46.424z M43.859,44.898
	c0.027-0.15-0.055-0.26-0.089-0.362c-0.08-0.108-0.214-0.182-0.31-0.195c-0.146-0.025-0.253,0.005-0.411,0.082
	c-0.063,0.084-0.13,0.175-0.15,0.318c-0.012,0.094,0.012,0.247,0.043,0.351c0.134,0.122,0.216,0.18,0.366,0.206
	c0.089,0.008,0.239-0.009,0.353-0.091C43.723,45.122,43.846,44.987,43.859,44.898z M41.697,43.663
	c0.023-0.147,0.042-0.24-0.036-0.349c-0.127-0.118-0.214-0.181-0.363-0.209c-0.096-0.015-0.243,0.01-0.31,0.1
	c-0.161,0.075-0.219,0.161-0.244,0.308c-0.014,0.089,0.008,0.243,0.133,0.359c0.04,0.103,0.17,0.175,0.266,0.192
	c0.15,0.024,0.255-0.01,0.405-0.086C41.661,43.902,41.684,43.759,41.697,43.663z M39.082,42.847c0.1,0.012,0.247-0.012,0.311-0.097
	c0.158-0.076,0.228-0.161,0.248-0.301c0.017-0.096-0.011-0.25-0.136-0.37c-0.032-0.106-0.173-0.174-0.265-0.185
	c-0.145-0.027-0.247,0.005-0.406,0.079c-0.064,0.084-0.138,0.219-0.151,0.318c-0.022,0.144,0.007,0.241,0.048,0.342
	C38.85,42.76,38.942,42.825,39.082,42.847z M36.929,41.617c0.142,0.019,0.244-0.01,0.407-0.085c0.062-0.091,0.132-0.223,0.146-0.315
	c0.027-0.149-0.011-0.251-0.041-0.353c-0.127-0.12-0.218-0.183-0.356-0.205c-0.096-0.017-0.246,0.01-0.312,0.099
	c-0.11,0.079-0.222,0.158-0.239,0.301c-0.023,0.092,0.052,0.255,0.129,0.364C36.697,41.526,36.834,41.6,36.929,41.617z M34.863,40.4
	c0.096,0.012,0.252-0.012,0.312-0.098c0.157-0.079,0.226-0.161,0.25-0.308c0.01-0.093-0.016-0.243-0.144-0.368
	c-0.033-0.101-0.161-0.169-0.262-0.19c-0.139-0.019-0.247,0.012-0.359,0.089c-0.156,0.076-0.18,0.219-0.195,0.315
	c-0.022,0.146-0.036,0.243,0.087,0.359C34.634,40.31,34.722,40.375,34.863,40.4z M32.759,39.174c0.093,0.014,0.24-0.01,0.352-0.093
	c0.064-0.085,0.187-0.214,0.203-0.311c0.022-0.142-0.059-0.253-0.091-0.356c-0.084-0.113-0.217-0.181-0.308-0.198
	c-0.154-0.028-0.259,0.01-0.409,0.079c-0.066,0.087-0.13,0.183-0.148,0.32c-0.016,0.098,0.005,0.248,0.039,0.354
	C32.526,39.086,32.608,39.15,32.759,39.174z M30.6,37.932c0.146,0.031,0.252,0,0.404-0.079c0.113-0.077,0.137-0.221,0.15-0.315
	c0.021-0.142,0.034-0.24-0.041-0.353c-0.127-0.115-0.219-0.18-0.355-0.202c-0.103-0.017-0.248,0.007-0.315,0.096
	c-0.153,0.072-0.217,0.164-0.249,0.306c-0.007,0.094,0.012,0.245,0.142,0.363C30.367,37.853,30.504,37.921,30.6,37.932z
	 M28.535,36.722c0.098,0.017,0.246-0.009,0.314-0.094c0.159-0.075,0.225-0.164,0.243-0.305c0.014-0.099-0.005-0.25-0.139-0.366
	c-0.027-0.103-0.169-0.178-0.264-0.191c-0.146-0.021-0.246,0.007-0.403,0.082c-0.062,0.089-0.137,0.223-0.154,0.322
	c-0.022,0.137,0.016,0.247,0.047,0.349C28.311,36.638,28.394,36.696,28.535,36.722z M26.374,35.49
	c0.15,0.022,0.25-0.005,0.411-0.081c0.062-0.089,0.137-0.226,0.146-0.316c0.029-0.146-0.007-0.255-0.034-0.357
	c-0.13-0.118-0.219-0.18-0.364-0.202c-0.098-0.017-0.241,0.01-0.306,0.096c-0.117,0.082-0.223,0.157-0.247,0.304
	c-0.019,0.098,0.055,0.25,0.13,0.363C26.148,35.406,26.283,35.478,26.374,35.49z M24.317,34.274c0.095,0.017,0.25-0.01,0.312-0.098
	c0.161-0.074,0.227-0.161,0.243-0.303c0.018-0.096-0.009-0.247-0.135-0.363c-0.04-0.109-0.164-0.178-0.268-0.195
	c-0.142-0.027-0.241,0.01-0.36,0.092c-0.159,0.073-0.177,0.214-0.195,0.31c-0.024,0.142-0.034,0.234,0.089,0.357
	C24.089,34.182,24.171,34.253,24.317,34.274z M22.208,33.052c0.1,0.01,0.243-0.012,0.361-0.092c0.06-0.091,0.176-0.217,0.189-0.315
	c0.026-0.137-0.056-0.25-0.08-0.359c-0.084-0.109-0.223-0.18-0.312-0.202c-0.146-0.021-0.249,0.017-0.41,0.087
	c-0.063,0.094-0.127,0.179-0.15,0.32c-0.014,0.096,0.01,0.25,0.042,0.349C21.973,32.967,22.066,33.028,22.208,33.052z M20.61,31.41
	c-0.021,0.1-0.043,0.245-0.154,0.325c-0.159,0.072-0.262,0.103-0.407,0.082c-0.085-0.016-0.207-0.085-0.247-0.178
	c-0.671,1.1-1.569,2.065-2.699,2.88c-1.668,1.237-3.557,1.867-5.603,1.867c-0.563,0-1.147-0.048-1.735-0.143
	c-2.011-0.324-3.715-1.129-5.065-2.393c-0.482-0.46-0.963-1.011-1.36-1.559c-1.602-2.223-2.193-4.706-1.763-7.384
	c0.281-1.768,0.93-3.285,1.926-4.508c0.562-0.775,1.281-1.471,2.107-2.028c2.141-1.581,4.637-2.186,7.324-1.75
	c2.697,0.431,4.86,1.779,6.425,4.005c1.621,2.254,2.194,4.689,1.746,7.434c-0.164,1.015-0.501,1.933-0.925,2.8
	c0.009,0,0.021-0.003,0.028-0.002c0.138,0.019,0.229,0.081,0.356,0.207C20.649,31.174,20.633,31.271,20.61,31.41z M17.931,21.643
	c-1.288-1.833-3.061-2.937-5.275-3.291c-0.48-0.078-0.954-0.117-1.41-0.117c-1.684,0-3.196,0.514-4.626,1.569
	c-0.687,0.463-1.259,1.016-1.729,1.664c-0.829,1.02-1.352,2.256-1.585,3.718c-0.359,2.236,0.115,4.225,1.453,6.08
	c0.33,0.455,0.747,0.934,1.144,1.313c1.086,1.015,2.481,1.669,4.141,1.937c2.279,0.37,4.25-0.093,6.025-1.409
	c1.868-1.348,2.946-3.087,3.306-5.324C19.749,25.483,19.29,23.534,17.931,21.643z M38.737,76.752
	c1.361,2.113,1.864,4.38,1.455,6.925c-0.435,2.684-1.781,4.856-4.006,6.459c-1.783,1.253-3.633,1.86-5.663,1.86
	c-0.588,0.061-1.138-0.049-1.724-0.143c-2.021-0.329-3.71-1.134-5.023-2.394c-0.518-0.462-0.989-1.046-1.367-1.515
	c-1.625-2.32-2.216-4.806-1.793-7.434c0.278-1.689,0.924-3.198,1.921-4.485c0.552-0.782,1.274-1.479,2.124-2.042
	c2.123-1.579,4.625-2.183,7.314-1.749c2.668,0.423,4.746,1.704,6.357,3.886c0.012,0.002,0.022-0.009,0.034-0.007
	c0.095,0.018,0.232,0.091,0.26,0.191c0.131,0.123,0.159,0.274,0.143,0.366C38.765,76.705,38.747,76.726,38.737,76.752z M37.01,77.26
	c-1.338-1.862-3.075-2.94-5.312-3.295c-0.482-0.078-0.956-0.117-1.413-0.117c-1.685,0-3.196,0.513-4.618,1.57
	c-0.707,0.47-1.273,1.016-1.722,1.65c-0.84,1.085-1.37,2.328-1.6,3.726c-0.354,2.19,0.125,4.187,1.463,6.1
	c0.395,0.485,0.756,0.921,1.158,1.281c1.074,1.03,2.451,1.679,4.114,1.949c2.243,0.363,4.208-0.094,6.09-1.416
	c1.85-1.333,2.93-3.072,3.291-5.31C38.833,81.099,38.372,79.147,37.01,77.26z M40.192,74.544c-0.097-0.014-0.246,0.009-0.311,0.099
	c-0.111,0.076-0.22,0.158-0.243,0.304c-0.018,0.094,0.057,0.251,0.135,0.364c0.031,0.104,0.168,0.178,0.264,0.194
	c0.147,0.02,0.246-0.007,0.407-0.083c0.065-0.088,0.134-0.225,0.147-0.324c0.023-0.142-0.004-0.246-0.04-0.349
	C40.431,74.633,40.337,74.567,40.192,74.544z M42.111,72.99c-0.141-0.022-0.24,0.011-0.354,0.086
	c-0.161,0.075-0.182,0.219-0.204,0.312c-0.019,0.144-0.034,0.239,0.1,0.362c0.073,0.109,0.166,0.171,0.307,0.198
	c0.096,0.011,0.251-0.012,0.308-0.103c0.161-0.068,0.223-0.161,0.246-0.298c0.013-0.103-0.003-0.253-0.133-0.369
	C42.346,73.076,42.214,73.004,42.111,72.99z M43.989,71.43c-0.146-0.025-0.257,0.006-0.407,0.079
	c-0.063,0.093-0.13,0.18-0.146,0.318c-0.021,0.098,0.005,0.246,0.035,0.355c0.131,0.12,0.22,0.178,0.365,0.204
	c0.092,0.012,0.241-0.013,0.355-0.091c0.064-0.086,0.182-0.219,0.198-0.312c0.018-0.144-0.058-0.257-0.091-0.355
	C44.215,71.518,44.082,71.44,43.989,71.43z M45.813,69.856c-0.096-0.018-0.25,0.007-0.309,0.097c-0.16,0.07-0.224,0.159-0.246,0.304
	c-0.017,0.096,0.009,0.246,0.13,0.362c0.038,0.103,0.175,0.183,0.269,0.195c0.143,0.023,0.241-0.013,0.406-0.086
	c0.116-0.075,0.133-0.223,0.148-0.316c0.029-0.148,0.039-0.239-0.032-0.349C46.044,69.941,45.952,69.88,45.813,69.856z
	 M47.734,68.299c-0.142-0.021-0.246,0.014-0.41,0.082c-0.057,0.091-0.134,0.227-0.149,0.322c-0.021,0.142,0.011,0.243,0.045,0.346
	c0.125,0.123,0.217,0.188,0.355,0.208c0.096,0.014,0.253-0.01,0.309-0.103c0.164-0.066,0.224-0.157,0.249-0.298
	c0.02-0.099-0.003-0.244-0.137-0.369C47.966,68.392,47.828,68.316,47.734,68.299z M49.511,66.717
	c-0.1-0.014-0.248,0.017-0.309,0.106c-0.162,0.07-0.221,0.157-0.244,0.301c-0.02,0.097,0.003,0.248,0.137,0.368
	c0.023,0.103,0.164,0.171,0.26,0.19c0.144,0.019,0.246-0.009,0.404-0.082c0.112-0.079,0.137-0.224,0.15-0.32
	c0.027-0.144,0.039-0.243-0.043-0.349C49.739,66.811,49.656,66.742,49.511,66.717z M51.429,65.167
	c-0.139-0.022-0.243,0.005-0.404,0.084c-0.062,0.085-0.137,0.222-0.147,0.318c-0.027,0.14,0.007,0.25,0.036,0.349
	c0.13,0.115,0.221,0.183,0.361,0.209c0.101,0.014,0.25-0.012,0.308-0.099c0.163-0.07,0.226-0.158,0.25-0.305
	c0.009-0.092-0.007-0.243-0.141-0.37C51.663,65.25,51.524,65.184,51.429,65.167z M78.497,37.141c-0.13-0.118-0.214-0.18-0.359-0.202
	c-0.096-0.012-0.248,0.01-0.308,0.092c-0.164,0.072-0.223,0.159-0.246,0.308c-0.018,0.096,0.01,0.246,0.133,0.362
	c0.031,0.108,0.173,0.175,0.264,0.192c0.144,0.025,0.25-0.014,0.411-0.081c0.105-0.077,0.13-0.226,0.148-0.316
	C78.563,37.347,78.576,37.254,78.497,37.141z M76.834,39.23c0.024-0.144-0.01-0.245-0.044-0.351
	c-0.125-0.12-0.218-0.178-0.357-0.202c-0.098-0.021-0.245,0.001-0.31,0.092c-0.113,0.08-0.223,0.166-0.243,0.306
	c-0.016,0.098,0.053,0.255,0.133,0.361c0.035,0.108,0.168,0.182,0.262,0.195c0.149,0.021,0.252-0.01,0.411-0.087
	C76.749,39.461,76.817,39.331,76.834,39.23z M74.822,40.426c-0.144-0.021-0.246,0.011-0.4,0.083
	c-0.071,0.089-0.13,0.174-0.152,0.321c-0.016,0.096,0.009,0.243,0.04,0.353c0.126,0.115,0.212,0.183,0.362,0.202
	c0.096,0.017,0.243-0.007,0.312-0.098c0.153-0.07,0.229-0.209,0.243-0.305c0.023-0.146-0.013-0.241-0.141-0.368
	C75.059,40.512,74.92,40.443,74.822,40.426z M72.965,43.122c0.099,0.018,0.246-0.014,0.314-0.097
	c0.159-0.074,0.223-0.166,0.243-0.303c0.014-0.098-0.011-0.247-0.137-0.37c-0.033-0.103-0.168-0.178-0.264-0.188
	c-0.15-0.022-0.254,0.01-0.357,0.086c-0.161,0.075-0.187,0.219-0.199,0.316c-0.025,0.142-0.039,0.238,0.084,0.357
	C72.733,43.033,72.817,43.098,72.965,43.122z M71.254,44.857c0.15,0.029,0.255-0.01,0.407-0.079c0.071-0.092,0.13-0.181,0.152-0.322
	c0.019-0.099-0.006-0.248-0.042-0.349c-0.124-0.118-0.212-0.183-0.362-0.212c-0.087-0.008-0.239,0.017-0.307,0.104
	c-0.11,0.077-0.229,0.207-0.246,0.305c-0.022,0.137,0.059,0.25,0.137,0.361C71.033,44.771,71.165,44.843,71.254,44.857z
	 M85.646,62.157c-0.093-0.017-0.245,0.01-0.359,0.091c-0.109,0.08-0.178,0.219-0.197,0.31c-0.025,0.149,0.011,0.253,0.091,0.363
	c0.075,0.109,0.218,0.181,0.312,0.193c0.139,0.025,0.253-0.005,0.357-0.087c0.108-0.082,0.177-0.167,0.198-0.315
	c0.014-0.096-0.012-0.243-0.092-0.356C85.874,62.243,85.791,62.18,85.646,62.157z M83.448,61.168
	c-0.144-0.027-0.246,0.005-0.362,0.092c-0.106,0.07-0.166,0.166-0.195,0.303c-0.01,0.099,0.011,0.248,0.093,0.357
	c0.078,0.113,0.167,0.178,0.31,0.2c0.098,0.014,0.251-0.012,0.357-0.094c0.111-0.075,0.185-0.212,0.202-0.306
	c0.021-0.141-0.007-0.249-0.096-0.358C83.682,61.254,83.548,61.179,83.448,61.168z M81.266,60.121
	c-0.106-0.01-0.252,0.011-0.363,0.093c-0.112,0.082-0.171,0.164-0.194,0.308c-0.014,0.098,0.007,0.257,0.087,0.365
	c0.079,0.104,0.219,0.178,0.308,0.193c0.147,0.021,0.247-0.007,0.361-0.089c0.109-0.079,0.182-0.212,0.198-0.31
	c0.027-0.142-0.01-0.248-0.089-0.359C81.495,60.21,81.398,60.147,81.266,60.121z M79.067,59.131
	c-0.103-0.017-0.247,0.008-0.361,0.09c-0.109,0.079-0.183,0.214-0.193,0.312c-0.029,0.147,0.009,0.248,0.087,0.356
	c0.079,0.115,0.209,0.181,0.313,0.202c0.141,0.022,0.244-0.014,0.361-0.092c0.105-0.082,0.164-0.167,0.191-0.31
	c0.01-0.098-0.007-0.248-0.086-0.357C79.302,59.216,79.209,59.153,79.067,59.131z M76.877,58.085
	c-0.144-0.017-0.248,0.014-0.36,0.096c-0.11,0.079-0.168,0.163-0.199,0.312c-0.014,0.091,0.011,0.246,0.093,0.356
	c0.078,0.114,0.168,0.173,0.314,0.198c0.093,0.014,0.247-0.014,0.356-0.091c0.109-0.08,0.181-0.215,0.198-0.313
	c0.022-0.14-0.011-0.246-0.091-0.356C77.106,58.174,76.975,58.103,76.877,58.085z M74.629,57.086
	c-0.091-0.01-0.244,0.007-0.306,0.103c-0.161,0.068-0.225,0.156-0.247,0.301c-0.014,0.092,0.011,0.25,0.139,0.366
	c0.032,0.103,0.17,0.171,0.266,0.192c0.144,0.021,0.246-0.009,0.403-0.082c0.113-0.081,0.134-0.226,0.152-0.322
	c0.022-0.144,0.036-0.236-0.043-0.349C74.863,57.177,74.774,57.11,74.629,57.086z M15.718,23.025c0.916,1.206,1.26,2.615,1.01,4.171
	c-0.261,1.571-1.03,2.801-2.289,3.664c-0.996,0.724-2.049,1.083-3.198,1.083c-0.297,0-0.602-0.025-0.914-0.075
	c-1.499-0.24-2.68-0.982-3.605-2.27c-0.912-1.207-1.256-2.615-1.009-4.169c0.26-1.568,1.029-2.799,2.289-3.667
	c1.226-0.885,2.563-1.204,4.108-0.955C13.64,21.051,14.821,21.776,15.718,23.025z M14.31,24.066c-0.633-0.88-1.416-1.36-2.477-1.529
	c-0.239-0.039-0.472-0.058-0.696-0.058c-0.774,0-1.45,0.228-2.127,0.715c-0.892,0.615-1.386,1.412-1.569,2.516
	c-0.17,1.074,0.056,2.008,0.69,2.849c0.66,0.918,1.443,1.414,2.474,1.579c0.219,0.035,0.43,0.053,0.636,0.053
	c0.767,0,1.482-0.25,2.188-0.762c0.894-0.613,1.386-1.408,1.57-2.515C15.174,25.823,14.955,24.917,14.31,24.066z M34.806,78.647
	c0.887,1.228,1.211,2.629,0.962,4.165c-0.251,1.54-0.999,2.771-2.225,3.657c-1.003,0.721-2.096,1.086-3.252,1.086
	c-0.288,0-0.58-0.023-0.875-0.07c-1.517-0.248-2.744-1.013-3.653-2.273c-0.914-1.275-1.253-2.683-1.01-4.186
	c0.238-1.493,1.004-2.719,2.274-3.64c1.233-0.889,2.64-1.212,4.177-0.959C32.707,76.665,33.92,77.412,34.806,78.647z M33.384,79.671
	c-0.612-0.855-1.417-1.35-2.459-1.515c-0.249-0.04-0.487-0.061-0.721-0.061c-0.783,0-1.487,0.231-2.15,0.711
	c-0.892,0.646-1.405,1.463-1.57,2.498c-0.17,1.046,0.061,1.988,0.702,2.884c0.636,0.882,1.456,1.396,2.51,1.567
	c0.974,0.157,1.949-0.079,2.822-0.707c0.848-0.612,1.345-1.436,1.521-2.517C34.213,81.457,33.999,80.521,33.384,79.671z
	 M101.036,61.729c0.924,1.207,1.258,2.582,0.994,4.164c-0.245,1.553-1.04,2.807-2.3,3.62c-0.987,0.711-2.043,1.067-3.194,1.067
	c-0.292,0-0.594-0.023-0.899-0.072c-1.49-0.245-2.667-0.988-3.6-2.272c-0.892-1.167-1.258-2.637-1.02-4.124
	c0.251-1.53,0.994-2.723,2.269-3.653c1.242-0.932,2.59-1.271,4.139-1.011C98.977,59.696,100.16,60.442,101.036,61.729z
	 M99.616,62.753c-0.635-0.928-1.388-1.403-2.474-1.576c-0.24-0.039-0.468-0.06-0.688-0.06c-0.77,0-1.445,0.239-2.125,0.75
	c-0.908,0.662-1.407,1.462-1.582,2.525c-0.161,1.004,0.086,1.998,0.694,2.796c0.671,0.922,1.453,1.421,2.474,1.59
	c0.209,0.032,0.418,0.049,0.621,0.049c0.771,0,1.494-0.248,2.207-0.762c0.876-0.568,1.39-1.386,1.558-2.454
	C100.487,64.497,100.274,63.618,99.616,62.753z M106.422,66.697c-0.445,2.717-1.795,4.905-4.014,6.505
	c-1.721,1.239-3.622,1.867-5.651,1.867c-0.551,0-1.12-0.047-1.69-0.14c-2.01-0.318-3.702-1.125-5.026-2.396
	c-0.442-0.445-0.979-0.983-1.391-1.56c-1.608-2.211-2.2-4.716-1.755-7.438c0.269-1.682,0.893-3.189,1.857-4.475
	c0.698-0.845,1.401-1.489,2.175-2.002c2.114-1.579,4.619-2.19,7.315-1.758c2.705,0.438,4.862,1.787,6.417,4.008
	C106.261,61.462,106.858,63.955,106.422,66.697z M103.238,60.336c-1.306-1.866-3.025-2.939-5.275-3.304
	c-0.472-0.076-0.942-0.114-1.394-0.114c-1.674,0-3.233,0.53-4.635,1.576c-0.669,0.444-1.246,0.975-1.806,1.652
	c-0.766,1.023-1.282,2.27-1.505,3.671c-0.371,2.277,0.101,4.283,1.445,6.133c0.31,0.431,0.708,0.842,1.199,1.334
	c1.047,1.005,2.423,1.653,4.075,1.916c2.218,0.36,4.233-0.117,6.04-1.419c1.854-1.338,2.938-3.093,3.309-5.363
	C105.057,64.131,104.581,62.14,103.238,60.336z M82.48,32.329c-0.885-1.23-1.208-2.635-0.96-4.175
	c0.241-1.532,0.988-2.762,2.219-3.653c1.261-0.904,2.652-1.25,4.18-1.012c1.463,0.238,2.707,1.025,3.6,2.276
	c0.885,1.215,1.21,2.618,0.958,4.165c-0.243,1.535-0.989,2.765-2.219,3.654c-0.96,0.695-2.029,1.047-3.177,1.047c0,0,0,0-0.002,0
	c-0.31,0-0.626-0.025-0.946-0.077C84.586,34.299,83.359,33.551,82.48,32.329z M83.902,31.306c0.606,0.844,1.428,1.34,2.511,1.519
	c0.223,0.035,0.447,0.054,0.666,0.054c0.002,0,0.002,0,0.002,0c0.781,0,1.486-0.233,2.15-0.714c0.85-0.615,1.346-1.438,1.516-2.513
	c0.176-1.085-0.038-2.021-0.65-2.862c-0.628-0.881-1.452-1.407-2.455-1.57c-0.214-0.034-0.428-0.051-0.637-0.051
	c-0.802,0-1.534,0.246-2.242,0.753c-0.847,0.614-1.344,1.436-1.513,2.508C83.072,29.528,83.281,30.441,83.902,31.306z
	 M80.492,36.625c-0.188-0.188-0.351-0.369-0.517-0.551c-0.073,0.069-0.202,0.097-0.287,0.088c-0.145-0.029-0.231-0.092-0.363-0.209
	c-0.027-0.106-0.058-0.208-0.037-0.352c0.012-0.066,0.06-0.142,0.101-0.216c-0.096-0.123-0.207-0.251-0.291-0.368
	c-1.598-2.276-2.188-4.777-1.759-7.438c0.26-1.602,0.898-3.091,1.897-4.428c0.508-0.66,1.188-1.315,2.084-2.015
	c2.31-1.623,4.705-2.174,7.411-1.737c2.662,0.434,4.762,1.723,6.412,3.939c1.59,2.2,2.2,4.756,1.772,7.402
	c-0.428,2.655-1.773,4.843-4,6.505c-1.755,1.262-3.589,1.872-5.62,1.872c-0.56,0-1.143-0.048-1.732-0.144
	C83.539,38.651,81.832,37.86,80.492,36.625z M80.528,34.007c0.292,0.41,0.699,0.879,1.175,1.354c1.06,0.974,2.459,1.615,4.139,1.884
	c2.273,0.364,4.2-0.088,6.039-1.412c1.862-1.39,2.948-3.149,3.308-5.37c0.355-2.208-0.136-4.257-1.456-6.087
	c-1.36-1.823-3.09-2.889-5.281-3.245c-0.491-0.08-0.976-0.12-1.44-0.12c-1.656,0-3.178,0.502-4.648,1.534
	c-0.732,0.573-1.326,1.144-1.731,1.667c-0.83,1.114-1.345,2.311-1.563,3.649C78.709,30.085,79.187,32.095,80.528,34.007z
	 M61.8,46.856c-2.161-0.346-4.146,0.143-5.849,1.417c-1.779,1.238-2.861,2.964-3.213,5.13c-0.352,2.195,0.127,4.188,1.407,5.899
	c1.24,1.777,2.964,2.856,5.122,3.207c0.478,0.078,0.945,0.116,1.4,0.116c1.652,0,3.146-0.496,4.562-1.517
	c1.749-1.252,2.812-2.995,3.161-5.176c0.349-2.147-0.114-4.118-1.374-5.857C65.717,48.272,64.013,47.219,61.8,46.856z
	 M74.672,54.768l-6.141,11.874c-0.145,0.279-0.429,0.46-0.742,0.473l-13.295,0.544c-0.012,0-0.024,0-0.036,0
	c-0.299,0-0.576-0.151-0.738-0.404l-7.167-11.22c-0.169-0.265-0.184-0.6-0.037-0.879l3.248-6.192
	c-0.047,0.008-0.096,0.013-0.132,0.006c-0.142-0.021-0.231-0.084-0.355-0.206c-0.038-0.106-0.068-0.205-0.052-0.349
	c0.021-0.096,0.093-0.231,0.157-0.314c0.157-0.076,0.264-0.106,0.405-0.086c0.095,0.01,0.229,0.089,0.262,0.185
	c0.033,0.031,0.043,0.066,0.063,0.099l2.577-4.912c0.145-0.275,0.423-0.453,0.732-0.468l13.308-0.645
	c0.342-0.007,0.613,0.141,0.781,0.406l1.938,3.049c0.132-0.057,0.236-0.095,0.355-0.075c0.1,0.017,0.232,0.092,0.264,0.193
	c0.133,0.113,0.168,0.219,0.144,0.363c-0.018,0.094-0.091,0.231-0.25,0.301c-0.002,0.003-0.009,0.004-0.012,0.007l4.685,7.377
	C74.8,54.16,74.813,54.492,74.672,54.768z M72.884,54.411L66.305,44.05l-12.297,0.595L48.304,55.52l6.621,10.368l12.284-0.503
	L72.884,54.411z"/>
</svg>
