<?xml version="1.0" encoding="utf-8"?>
<!-- Generator: Adobe Illustrator 15.0.2, SVG Export Plug-In . SVG Version: 6.00 Build 0)  -->
<!DOCTYPE svg PUBLIC "-//W3C//DTD SVG 1.0//EN" "http://www.w3.org/TR/2001/REC-SVG-20010904/DTD/svg10.dtd">
<svg version="1.0" id="Layer_1" xmlns="http://www.w3.org/2000/svg" xmlns:xlink="http://www.w3.org/1999/xlink" x="0px" y="0px"
	 width="108px" height="108px" viewBox="0 0 108 108" enable-background="new 0 0 108 108" xml:space="preserve">
<path d="M78.979,7.928c0.461-0.46,0.461-1.208,0-1.668l-2.313-2.313c-0.462-0.461-1.209-0.461-1.669,0L59.968,18.975l-6.659-6.659
	c-0.461-0.461-1.207-0.461-1.668,0l-5.474,5.475c-0.461,0.461-0.462,1.208,0,1.668l4.292,4.292L39.445,44.098l-4.625-4.625
	c-0.462-0.461-1.208-0.461-1.669,0l-2.871,2.871c-0.46,0.46-0.461,1.207,0,1.668l6.975,6.975l-5.516,5.516
	c-0.461,0.461-0.462,1.208-0.001,1.668L32.566,59C20.255,70.324,9.284,84.469,17.916,103.703c0.267,0.594,0.965,0.86,1.56,0.593
	c0.597-0.264,0.859-0.965,0.593-1.559c-8.038-17.912,2.46-31.309,14.168-42.068l4.272,4.272
	c-7.898,7.453-20.949,20.617-12.299,35.573c0.326,0.563,1.047,0.757,1.611,0.431c0.566-0.32,0.758-1.046,0.43-1.61
	c-7.221-12.487,2.153-23.409,11.927-32.724l1.629,1.629c0.461,0.46,1.208,0.46,1.669-0.001l5.516-5.516l5.784,5.784
	c0.461,0.461,1.208,0.461,1.668,0l2.871-2.871c0.461-0.461,0.461-1.207,0-1.667l-3.535-3.536L75.637,48.93l3.399,3.399
	c0.461,0.461,1.208,0.461,1.67-0.001l5.475-5.474c0.46-0.461,0.46-1.208,0-1.668l-6.771-6.77l15.03-15.028
	c0.459-0.46,0.459-1.207,0-1.668l-2.316-2.315c-0.462-0.461-1.207-0.46-1.668,0L75.427,34.433L63.951,22.956L78.979,7.928z
	 M61.636,20.643L75.83,6.449l0.646,0.645L62.282,21.288L61.636,20.643z M47.324,61.055l-4.682,4.682l-8.4-8.4l4.683-4.682
	L47.324,61.055z M56.813,64.802l-1.202,1.203L32.784,43.177l1.203-1.202L56.813,64.802z M73.911,47.203L54.054,58.706L41.186,45.838
	L52.2,25.493L73.911,47.203z M83.677,46.021l-3.806,3.805L48.669,18.624l3.806-3.805L83.677,46.021z M91.289,21.908l0.646,0.646
	L77.741,36.748l-0.646-0.647L91.289,21.908z"/>
</svg>
