<?xml version="1.0" encoding="utf-8"?>
<!-- Generator: Adobe Illustrator 15.0.2, SVG Export Plug-In . SVG Version: 6.00 Build 0)  -->
<!DOCTYPE svg PUBLIC "-//W3C//DTD SVG 1.1//EN" "http://www.w3.org/Graphics/SVG/1.1/DTD/svg11.dtd">
<svg version="1.1" id="Layer_1" xmlns="http://www.w3.org/2000/svg" xmlns:xlink="http://www.w3.org/1999/xlink" x="0px" y="0px"
	 width="108px" height="108px" viewBox="0 0 108 108" enable-background="new 0 0 108 108" xml:space="preserve">
<path d="M27.604,56.4h4.8v4.795h4.8V66H13.202v-4.805h4.8v-9.599h9.619V56.4H27.604z M90.016,99.584h4.797v-4.797h-4.797V99.584z
	 M32.404,56.4h4.8v-4.804h-4.8V56.4z M99.598,99.584h4.803v-4.797h-4.803V99.584z M42.006,104.408h9.6v-4.824h-9.6V104.408z
	 M85.213,104.408v-4.824H80.41v4.824H85.213z M66.01,104.408h4.801v-9.621H66.01V104.408z M27.604,41.998v4.795h14.402v-4.795
	H27.604z M22.802,46.793v-4.795h-9.6v9.599h4.8v-4.804H22.802z M37.205,37.194H3.6V3.591h33.604V37.194z M32.404,8.388h-24v24.007
	h24V8.388z M13.202,94.787h14.402v-14.4H13.202V94.787z M61.211,89.988v4.799h4.799v-4.799H61.211z M27.604,13.19H13.202v14.405
	h14.402V13.19z M104.4,3.591v33.603h-33.59V3.591H104.4z M99.598,8.388H75.613v24.007h23.984V8.388z M3.6,70.785h33.604v33.605H3.6
	V70.785z M8.404,99.584h24V75.582h-24V99.584z M8.404,41.998H3.6V66h4.804V41.998z M70.811,66v4.785h4.803V66H70.811z
	 M56.408,85.199v-4.813h-4.802v4.813h-9.6v9.604h9.6v4.799h4.802v-9.596h4.803v-4.807H56.408z M42.006,22.792h9.6v-4.798h-9.6
	V22.792z M80.41,61.195h9.605V66h4.797V51.597h-4.797v-9.599h-4.803V56.4H70.811v4.795h4.803V66h4.797V61.195z M85.213,75.582H80.41
	v-4.797h-4.797v9.602H61.211v4.813h9.6v9.604h4.803v4.799h4.797v-9.596h19.203v-4.807h-14.4V75.582z M85.213,75.582h4.803V66h-4.803
	V75.582z M46.809,75.582v-4.797h4.798V66h4.802v-4.805h4.803V51.58h14.402v-9.6h-4.803v4.801H66.01V27.577h-4.799v-9.6h4.799V3.591
	h-4.799v9.599h-4.818V3.591H42.006v9.599h4.802V8.388h4.781v9.605h4.803v14.402h4.818v4.799h-4.818v9.599H51.59v-9.599h-4.781
	v-4.799h-4.802v9.602h4.802v4.795h-4.802v14.402h4.802v-9.599h4.781v9.599h-4.781V66h-4.802v14.387h9.583v-4.805H46.809z
	 M99.598,80.387v-4.805h-9.582v4.805H99.598z M94.797,13.19H80.41v14.405h14.387V13.19z M56.408,75.582h9.602v-4.797h-4.799V66
	h-4.803V75.582z M66.01,66v-4.805h-4.799V66H66.01z M94.797,46.793h9.604v-4.795h-9.604V46.793z M99.598,85.199h4.803v-4.813h-4.803
	V85.199z M99.598,56.4h4.803v-4.804h-4.803V56.4z M56.408,32.396h-4.802v4.799h4.802V32.396z M56.408,32.396"/>
</svg>
