<?xml version="1.0" encoding="utf-8"?>
<!-- Generator: Adobe Illustrator 15.0.2, SVG Export Plug-In . SVG Version: 6.00 Build 0)  -->
<!DOCTYPE svg PUBLIC "-//W3C//DTD SVG 1.0//EN" "http://www.w3.org/TR/2001/REC-SVG-20010904/DTD/svg10.dtd">
<svg version="1.0" id="Layer_1" xmlns="http://www.w3.org/2000/svg" xmlns:xlink="http://www.w3.org/1999/xlink" x="0px" y="0px"
	 width="108px" height="108px" viewBox="0 0 108 108" enable-background="new 0 0 108 108" xml:space="preserve">
<g>
</g>
<path d="M16.695,89.391c0.5,0.082,0.997,0.123,1.475,0.123c1.695,0,3.261-0.518,4.654-1.539c1.78-1.307,2.904-3.11,3.345-5.381
	c0.194-1.173,0.131-2.339-0.188-3.467c-0.258-0.908-0.634-1.734-1.123-2.466l18.589-22.815c0.586,0.222,1.224,0.416,1.938,0.582
	c1.678,0.219,3.296-0.006,4.811-0.667L61.55,66.808c-0.579,0.906-0.967,1.944-1.158,3.108c-0.308,2.273,0.179,4.341,1.447,6.146
	c1.276,1.821,3.077,2.934,5.353,3.307c2.271,0.378,4.342-0.104,6.13-1.417c1.779-1.303,2.903-3.106,3.346-5.38
	c0.234-1.427,0.106-2.82-0.378-4.143c-0.413-1.119-1.04-2.103-1.868-2.934l19.604-33.64l0.861,0.199
	c2.273,0.31,4.335-0.185,6.11-1.459c1.786-1.281,2.881-3.083,3.254-5.355c0.374-2.271-0.082-4.342-1.354-6.155
	c-1.271-1.812-3.06-2.952-5.358-3.398c-2.273-0.307-4.354,0.198-6.163,1.496c-1.814,1.303-2.956,3.105-3.395,5.379
	c-0.235,1.435-0.105,2.816,0.388,4.107c0.417,1.087,1.018,2.044,1.79,2.854L70.534,63.26l-0.666-0.163
	c-1.738-0.286-3.41-0.043-4.957,0.718L53.585,50.799c0.64-0.949,1.061-2.017,1.254-3.194c0.307-2.273-0.184-4.329-1.459-6.11
	c-1.285-1.787-3.087-2.881-5.357-3.254c-2.262-0.37-4.34,0.085-6.153,1.355c-1.814,1.273-2.955,3.062-3.398,5.357
	c-0.313,2.263,0.18,4.296,1.464,6.051l-18.537,22.75c-0.642-0.306-1.324-0.52-2.046-0.639c-2.271-0.311-4.334,0.185-6.112,1.459
	c-1.785,1.282-2.88,3.083-3.254,5.354c-0.373,2.27,0.083,4.341,1.356,6.157C12.617,87.905,14.419,89.016,16.695,89.391z
	 M64.896,70.59c0.178-1.086,0.659-1.898,1.471-2.481c0.599-0.429,1.248-0.637,1.985-0.637c0.26,0,0.533,0.027,0.813,0.079
	c1.089,0.207,1.905,0.704,2.491,1.518c0.579,0.809,0.763,1.71,0.564,2.756c-0.199,1.06-0.694,1.86-1.512,2.445
	c-0.681,0.489-1.422,0.726-2.268,0.726c-0.182,0-0.368-0.011-0.489-0.022c-1.063-0.227-1.867-0.737-2.456-1.56
	C64.912,72.603,64.716,71.679,64.896,70.59z M92.569,23.271c0.179-1.088,0.66-1.899,1.471-2.481
	c0.623-0.446,1.302-0.663,2.076-0.663c0.239,0,0.491,0.021,0.747,0.064c1.087,0.178,1.898,0.66,2.481,1.472
	c0.577,0.805,0.761,1.721,0.559,2.796c-0.207,1.092-0.704,1.907-1.52,2.492c-0.679,0.487-1.421,0.724-2.268,0.724
	c-0.183,0-0.37-0.011-0.492-0.022c-1.062-0.226-1.865-0.735-2.454-1.56C92.588,25.283,92.391,24.36,92.569,23.271z M14.39,80.654
	c0.174-1.059,0.653-1.855,1.465-2.436c0.621-0.445,1.301-0.662,2.077-0.662c0.239,0,0.49,0.021,0.746,0.063
	c1.086,0.179,1.898,0.66,2.481,1.471c0.582,0.813,0.781,1.722,0.606,2.779c-0.174,1.056-0.653,1.853-1.464,2.436
	c-0.671,0.481-1.423,0.715-2.299,0.715c-0.2,0-0.406-0.013-0.547-0.026c-1.063-0.228-1.867-0.739-2.458-1.563
	C14.415,82.621,14.216,81.713,14.39,80.654z M47.359,42.563c1.085,0.179,1.897,0.66,2.48,1.469c0.577,0.809,0.76,1.725,0.558,2.801
	c-0.206,1.089-0.703,1.904-1.52,2.491c-0.679,0.487-1.421,0.724-2.268,0.724c-0.182,0-0.369-0.011-0.491-0.022
	c-1.063-0.226-1.866-0.736-2.457-1.561c-0.582-0.809-0.778-1.731-0.599-2.822c0.179-1.087,0.661-1.899,1.472-2.481
	c0.622-0.445,1.301-0.662,2.077-0.662C46.851,42.5,47.103,42.521,47.359,42.563z M106.56,93.709v5.915H1.44V9.411h5.649v84.298
	H106.56z"/>
</svg>
