<?xml version="1.0" encoding="utf-8"?>
<!-- Generator: Adobe Illustrator 15.0.2, SVG Export Plug-In . SVG Version: 6.00 Build 0)  -->
<!DOCTYPE svg PUBLIC "-//W3C//DTD SVG 1.0//EN" "http://www.w3.org/TR/2001/REC-SVG-20010904/DTD/svg10.dtd">
<svg version="1.0" id="Layer_2" xmlns="http://www.w3.org/2000/svg" xmlns:xlink="http://www.w3.org/1999/xlink" x="0px" y="0px"
	 width="108px" height="108px" viewBox="0 0 108 108" enable-background="new 0 0 108 108" xml:space="preserve">
<path fill="none" d="M25.013,48.029h59.611v11.929H25.013V48.029z M53.999,1.44C25.018,1.44,1.44,25.018,1.44,54
	c0,28.982,23.578,52.561,52.559,52.561c28.981,0,52.562-23.578,52.562-52.561C106.561,25.018,82.98,1.44,53.999,1.44z
	 M53.999,100.598C28.306,100.598,7.404,79.693,7.404,54c0-25.693,20.902-46.597,46.595-46.597c25.694,0,46.597,20.903,46.597,46.596
	C100.596,79.693,79.691,100.598,53.999,100.598z"/>
</svg>
