<?xml version="1.0" encoding="utf-8"?>
<!-- Generator: Adobe Illustrator 15.0.2, SVG Export Plug-In . SVG Version: 6.00 Build 0)  -->
<!DOCTYPE svg PUBLIC "-//W3C//DTD SVG 1.0//EN" "http://www.w3.org/TR/2001/REC-SVG-20010904/DTD/svg10.dtd">
<svg version="1.0" id="Layer_1" xmlns="http://www.w3.org/2000/svg" xmlns:xlink="http://www.w3.org/1999/xlink" x="0px" y="0px"
	 width="77.436px" height="80.381px" viewBox="0 0 77.436 80.381" enable-background="new 0 0 77.436 80.381" xml:space="preserve">
<path d="M21.16,80.388H6.441c-1.724,0-3.293-0.656-4.538-1.898C0.657,77.239,0,75.671,0,73.948V6.434C0,4.63,0.674,3.045,1.948,1.85
	C3.181,0.694,4.662,0.07,6.353-0.005L21.16-0.007c1.726,0,3.295,0.657,4.539,1.901c1.267,1.266,1.896,2.866,1.818,4.626
	l0.002,20.856l-1.279,0.494c-1.352,0.523-2.434,1.351-3.308,2.532c-0.843,1.137-1.253,2.415-1.253,3.909v11.757
	c0,1.438,0.41,2.69,1.252,3.826c0.886,1.197,1.985,2.059,3.361,2.636l1.227,0.515v20.902c0,1.722-0.597,3.233-1.774,4.491
	C24.547,79.715,22.962,80.388,21.16,80.388z M6.441,3.993c-0.64,0.03-1.227,0.277-1.757,0.774C4.211,5.211,4,5.725,4,6.434v67.515
	c0,0.677,0.226,1.205,0.732,1.712c0.503,0.502,1.031,0.728,1.709,0.728H21.16c0.708,0,1.223-0.211,1.667-0.684
	c0.471-0.504,0.692-1.063,0.692-1.756V55.626c-1.493-0.83-2.768-1.952-3.802-3.35c-1.352-1.823-2.038-3.912-2.038-6.207V34.312
	c0-2.351,0.686-4.467,2.039-6.291c1.034-1.397,2.309-2.502,3.801-3.296V6.434c0.03-0.732-0.17-1.233-0.648-1.711
	c-0.505-0.504-1.032-0.729-1.711-0.729H6.441z M13.659,74.475c-1.805-0.001-2.879-0.85-3.463-1.562
	c-0.761-0.934-1.187-2.033-1.271-3.271c-0.094-1.44,0.415-2.708,1.471-3.67c0.965-0.879,2.17-1.344,3.484-1.344l0.303,0.023
	c1.002,0.153,1.965,0.535,2.864,1.136c1.293,0.862,1.896,2.267,1.698,3.952c-0.161,1.345-0.602,2.431-1.311,3.232
	c-0.807,0.902-1.959,1.403-3.433,1.492C13.88,74.471,13.769,74.475,13.659,74.475z M13.737,68.634
	c-0.254,0.023-0.449,0.114-0.647,0.295c-0.141,0.129-0.188,0.216-0.173,0.448c0.027,0.402,0.147,0.723,0.377,1.006
	c0.021,0.026,0.075,0.092,0.365,0.092l0.109-0.004c0.526-0.031,0.677-0.156,0.678-0.158c0.066-0.074,0.244-0.341,0.328-1.043
	c0.01-0.085,0.01-0.146,0.008-0.185C14.43,68.856,14.088,68.71,13.737,68.634z M52.049,65.732c-0.657,0-1.328-0.146-1.995-0.435
	c-1.945-0.841-3.017-2.471-3.017-4.59v-9.76H28.479c-1.349,0-2.549-0.487-3.47-1.408c-0.889-0.889-1.403-2.045-1.486-3.343
	l-0.004-0.128V34.312c0-1.389,0.54-2.613,1.561-3.539c0.94-0.855,2.038-1.333,3.26-1.418l0.14-0.005h18.558v-9.76
	c0-2.052,1.061-3.663,2.985-4.535c0.724-0.298,1.384-0.435,2.028-0.435c1.254,0,2.436,0.519,3.417,1.499l20.56,20.559
	c0.922,0.925,1.408,2.125,1.408,3.471s-0.486,2.545-1.405,3.468L55.469,64.177C54.263,65.455,52.94,65.732,52.049,65.732z
	 M27.52,45.994c0.036,0.386,0.18,0.579,0.318,0.718c0.142,0.142,0.306,0.236,0.642,0.236h22.558v13.76
	c0,0.516,0.13,0.713,0.604,0.918c0.391,0.168,0.595,0.151,0.96-0.236L73.2,40.792c0.141-0.142,0.236-0.306,0.236-0.642
	c0-0.336-0.096-0.501-0.239-0.645L52.641,18.949c-0.329-0.328-0.519-0.328-0.59-0.328c-0.119,0-0.273,0.037-0.444,0.107
	c-0.478,0.218-0.569,0.445-0.569,0.862v13.76H28.564c-0.292,0.032-0.539,0.151-0.794,0.384c-0.185,0.167-0.25,0.318-0.25,0.577
	V45.994z M14.107,62.715c-0.112,0-0.227-0.003-0.344-0.011c-1.429-0.083-2.584-0.556-3.433-1.402
	c-0.847-0.849-1.318-1.973-1.406-3.346c-0.091-1.493,0.418-2.786,1.474-3.745c0.927-0.844,2.078-1.306,3.336-1.339
	c0.151-0.018,0.302-0.026,0.452-0.026c0.791,0,1.981,0.249,3.165,1.433c1.399,1.396,1.528,2.854,1.388,3.833
	c-0.159,1.094-0.556,2.084-1.183,2.948C17.003,61.818,15.959,62.715,14.107,62.715z M14.181,56.848l-0.3,0.022
	c-0.327,0-0.556,0.087-0.791,0.301c-0.093,0.084-0.195,0.177-0.173,0.536c0.016,0.253,0.071,0.596,0.242,0.766
	c0.127,0.127,0.434,0.215,0.839,0.239l0.109,0.003c0.178,0,0.244-0.029,0.244-0.029c0.213-0.313,0.364-0.696,0.429-1.144
	c0.006-0.039,0.022-0.156-0.255-0.434C14.33,56.913,14.212,56.859,14.181,56.848z"/>
</svg>
