<?xml version="1.0" encoding="utf-8"?>
<!-- Generator: Adobe Illustrator 15.0.2, SVG Export Plug-In . SVG Version: 6.00 Build 0)  -->
<!DOCTYPE svg PUBLIC "-//W3C//DTD SVG 1.0//EN" "http://www.w3.org/TR/2001/REC-SVG-20010904/DTD/svg10.dtd">
<svg version="1.0" id="Layer_1" xmlns="http://www.w3.org/2000/svg" xmlns:xlink="http://www.w3.org/1999/xlink" x="0px" y="0px"
	 width="81.922px" height="80.381px" viewBox="0 0 81.922 80.381" enable-background="new 0 0 81.922 80.381" xml:space="preserve">
<path d="M30.361,70.314c-0.272,0-0.547-0.056-0.806-0.17c-0.726-0.319-1.194-1.037-1.194-1.83V54.619H2c-1.104,0-2-0.896-2-2V27.764
	c0-1.104,0.896-2,2-2h26.361V12.068c0-0.793,0.469-1.511,1.194-1.83c0.723-0.32,1.569-0.181,2.156,0.354l30.73,28.123
	c0.414,0.379,0.649,0.914,0.649,1.476s-0.235,1.097-0.649,1.476L31.712,69.79C31.336,70.134,30.852,70.314,30.361,70.314z M4,50.619
	h26.361c1.104,0,2,0.896,2,2v11.154l25.768-23.582L32.361,16.609v11.154c0,1.104-0.896,2-2,2H4V50.619z M81.922,65.381V15
	c0-8.271-6.729-15-15-15h-19.23c-1.657,0-3,1.343-3,3s1.343,3,3,3h19.23c4.963,0,9,4.037,9,9v50.381c0,4.963-4.037,9-9,9h-19.23
	c-1.657,0-3,1.343-3,3s1.343,3,3,3h19.23C75.193,80.381,81.922,73.652,81.922,65.381z"/>
</svg>
