<?xml version="1.0" encoding="utf-8"?>
<!-- Generator: Adobe Illustrator 15.0.2, SVG Export Plug-In . SVG Version: 6.00 Build 0)  -->
<!DOCTYPE svg PUBLIC "-//W3C//DTD SVG 1.0//EN" "http://www.w3.org/TR/2001/REC-SVG-20010904/DTD/svg10.dtd">
<svg version="1.0" id="Layer_1" xmlns="http://www.w3.org/2000/svg" xmlns:xlink="http://www.w3.org/1999/xlink" x="0px" y="0px"
	 width="74.941px" height="80.381px" viewBox="0 0 74.941 80.381" enable-background="new 0 0 74.941 80.381" xml:space="preserve">
<path d="M68.522,80.388H53.754c-1.726,0-3.296-0.657-4.539-1.901c-1.244-1.243-1.901-2.813-1.901-4.538V51.813l6.845-6.756
	c1.361-1.402,2.037-2.991,2.037-4.826c0-1.834-0.677-3.423-2.067-4.857l-6.814-6.814V6.434c0-1.723,0.657-3.292,1.899-4.538
	c1.249-1.246,2.818-1.903,4.541-1.903h14.721c1.749,0,3.305,0.673,4.5,1.947c1.155,1.233,1.778,2.714,1.855,4.403l0.002,67.605
	c0,1.803-0.673,3.387-1.946,4.582c-1.229,1.154-2.682,1.779-4.317,1.855L68.522,80.388z M51.314,53.485v20.463
	c0,0.678,0.225,1.205,0.729,1.71s1.032,0.729,1.711,0.729h14.668c0.657-0.039,1.207-0.286,1.725-0.772
	c0.475-0.445,0.686-0.959,0.686-1.667V6.434c-0.031-0.64-0.278-1.227-0.775-1.758c-0.442-0.472-0.931-0.683-1.582-0.683H53.754
	c-0.678,0-1.205,0.226-1.712,0.731c-0.503,0.503-0.729,1.032-0.729,1.709v20.469l5.664,5.665c2.143,2.208,3.218,4.78,3.218,7.664
	c0,2.886-1.075,5.457-3.196,7.643L51.314,53.485z M60.709,74.535L60.709,74.535c-0.836,0-2.069-0.259-3.203-1.492
	c-0.938-1.024-1.433-2.23-1.433-3.491c0-1.294,0.515-2.494,1.489-3.47c1.012-1.011,2.255-1.503,3.61-1.404
	c1.188,0.086,2.258,0.513,3.183,1.269c1.072,0.878,1.639,2.125,1.639,3.605c0,1.44-0.539,2.692-1.56,3.618
	c-0.932,0.846-2.057,1.307-3.263,1.34C61.016,74.527,60.862,74.535,60.709,74.535z M60.846,68.666c-0.073,0-0.21,0-0.456,0.246
	c-0.277,0.277-0.316,0.472-0.316,0.64c0,0.174,0.043,0.42,0.38,0.787c0.117,0.128,0.218,0.196,0.256,0.196l0.324-0.023
	c0.196,0,0.419-0.037,0.712-0.303c0.126-0.114,0.249-0.26,0.249-0.657c0-0.369-0.099-0.45-0.171-0.509
	c-0.281-0.23-0.579-0.35-0.935-0.375L60.846,68.666z M28.855,65.76c-0.646,0-1.311-0.132-1.979-0.394l-0.132-0.057
	c-1.849-0.88-2.867-2.485-2.867-4.52v-9.76H5.319c-1.387,0-2.61-0.539-3.537-1.56c-0.853-0.938-1.331-2.034-1.419-3.256L0.358,46.07
	v-11.76c0-1.293,0.515-2.493,1.49-3.469c0.992-0.99,2.211-1.475,3.533-1.409h18.497v-9.76c0-2.124,1.044-3.741,2.94-4.552
	c0.692-0.3,1.394-0.455,2.076-0.455c0.896,0,2.223,0.274,3.454,1.579l20.518,20.517c0.921,0.921,1.408,2.121,1.408,3.47
	c0,1.352-0.487,2.552-1.409,3.472L32.307,64.261C31.327,65.241,30.133,65.76,28.855,65.76z M28.399,61.666
	c0.174,0.063,0.327,0.094,0.456,0.094c0.096,0,0.296,0,0.624-0.327l20.559-20.559c0.143-0.143,0.236-0.305,0.236-0.643
	c0-0.336-0.095-0.5-0.236-0.642L29.479,19.031c-0.346-0.365-0.514-0.365-0.585-0.365c-0.09,0-0.249,0.022-0.493,0.128
	c-0.358,0.154-0.523,0.289-0.523,0.878v13.76L5.177,33.428c-0.125-0.008-0.256-0.001-0.5,0.243c-0.279,0.28-0.318,0.473-0.318,0.64
	v11.672c0.033,0.295,0.153,0.543,0.385,0.798c0.169,0.188,0.314,0.25,0.576,0.25h22.559v13.76
	C27.877,61.254,27.996,61.461,28.399,61.666z M61.034,62.753l-0.282-0.02c-1.088-0.155-2.081-0.555-2.949-1.186
	c-0.789-0.574-1.729-1.678-1.729-3.674c0-1.937,0.89-3.073,1.636-3.686c0.933-0.759,2-1.185,3.18-1.271
	c0.116-0.008,0.223-0.012,0.329-0.012c1.222,0,2.357,0.488,3.284,1.412c0.978,0.979,1.492,2.208,1.492,3.556
	c0,1.387-0.539,2.61-1.56,3.536C63.469,62.288,62.292,62.753,61.034,62.753z M61.218,56.906l-0.048,0.002
	c-0.346,0.025-0.644,0.146-0.93,0.378c-0.046,0.038-0.167,0.137-0.167,0.588c0,0.249,0.041,0.409,0.081,0.438
	c0.299,0.217,0.629,0.36,1.005,0.434c0.165-0.019,0.354-0.085,0.585-0.296c0.188-0.17,0.25-0.315,0.25-0.576
	c0-0.243-0.055-0.46-0.319-0.726C61.432,56.906,61.293,56.906,61.218,56.906z"/>
</svg>
