<?xml version="1.0" encoding="utf-8"?>
<!-- Generator: Adobe Illustrator 15.0.2, SVG Export Plug-In . SVG Version: 6.00 Build 0)  -->
<!DOCTYPE svg PUBLIC "-//W3C//DTD SVG 1.0//EN" "http://www.w3.org/TR/2001/REC-SVG-20010904/DTD/svg10.dtd">
<svg version="1.0" id="Layer_1" xmlns="http://www.w3.org/2000/svg" xmlns:xlink="http://www.w3.org/1999/xlink" x="0px" y="0px"
	 width="84.921px" height="80.381px" viewBox="0 0 84.921 80.381" enable-background="new 0 0 84.921 80.381" xml:space="preserve">
<path d="M52.189,70.313c-0.271,0-0.547-0.056-0.805-0.17c-0.727-0.319-1.195-1.037-1.195-1.83V54.618h-26.36c-1.104,0-2-0.896-2-2
	V27.763c0-1.104,0.896-2,2-2h26.36V12.067c0-0.793,0.469-1.511,1.195-1.83c0.723-0.321,1.568-0.181,2.156,0.354l30.73,28.123
	c0.414,0.379,0.648,0.914,0.648,1.476s-0.234,1.097-0.648,1.476l-30.73,28.123C53.164,70.133,52.68,70.313,52.189,70.313z
	 M25.829,50.618h26.36c1.105,0,2,0.896,2,2v11.154L79.957,40.19L54.189,16.608v11.154c0,1.104-0.895,2-2,2h-26.36V50.618z
	 M37.23,77.382c0-1.657-1.343-3-3-3H15c-4.963,0-9-4.037-9-9V15.001c0-4.963,4.037-9,9-9h19.23c1.657,0,3-1.343,3-3s-1.343-3-3-3H15
	c-8.271,0-15,6.729-15,15v50.381c0,8.271,6.729,15,15,15h19.23C35.888,80.382,37.23,79.039,37.23,77.382z"/>
</svg>
