<?xml version="1.0" encoding="utf-8"?>
<!-- Generator: Adobe Illustrator 15.0.2, SVG Export Plug-In . SVG Version: 6.00 Build 0)  -->
<!DOCTYPE svg PUBLIC "-//W3C//DTD SVG 1.0//EN" "http://www.w3.org/TR/2001/REC-SVG-20010904/DTD/svg10.dtd">
<svg version="1.0" id="Layer_1" xmlns="http://www.w3.org/2000/svg" xmlns:xlink="http://www.w3.org/1999/xlink" x="0px" y="0px"
	 width="108px" height="108px" viewBox="0 0 108 108" enable-background="new 0 0 108 108" xml:space="preserve">
<path d="M98.57,33.859l-0.028-22.044c0.014-0.091,0.028-0.289,0.028-0.381c0-3.536-4.238-5.825-14.165-7.66
	C76.079,2.226,65.892,1.44,54.126,1.44c-11.764,0-21.958,0.785-30.3,2.334c-8.855,1.634-13.058,3.62-13.923,6.508
	c-0.019,0.041-0.025,0.084-0.041,0.126c-0.031,0.114-0.092,0.219-0.112,0.336c-0.027,0.134-0.067,0.552-0.067,0.689
	c0,0.15,0.01,0.301,0.028,0.454v21.493c-0.018,0.151-0.028,0.304-0.028,0.454c0,0.097,0.02,0.21,0.028,0.311
	c0.01,0.126,0.011,0.242,0.035,0.388c0.021,0.116,0.08,0.221,0.111,0.334c0.02,0.054,0.029,0.107,0.053,0.159
	c0.402,1.258,1.392,2.34,3.138,3.287c-1.763,0.953-2.756,2.05-3.146,3.331c-0.019,0.042-0.025,0.085-0.041,0.129
	c-0.035,0.126-0.097,0.245-0.119,0.375c-0.038,0.223-0.059,0.42-0.059,0.65c0,0.155,0.01,0.313,0.028,0.458v21.479
	c-0.018,0.144-0.028,0.296-0.028,0.467c0,0.247,0.027,0.492,0.063,0.689c0.021,0.116,0.08,0.222,0.111,0.337
	c0.02,0.052,0.029,0.106,0.052,0.156c0.402,1.265,1.393,2.351,3.139,3.296c-1.77,0.956-2.762,2.056-3.149,3.334
	c-0.017,0.036-0.022,0.075-0.037,0.112c-0.034,0.127-0.097,0.246-0.119,0.378c-0.021,0.123-0.06,0.53-0.06,0.654
	c0,0.171,0.01,0.322,0.028,0.469v21.478c-0.018,0.146-0.028,0.303-0.028,0.458c0,0.11,0.02,0.207,0.028,0.307v0.007
	c0,0.002,0.001,0.005,0.001,0.006c0.01,0.126,0.013,0.255,0.035,0.387c0.02,0.104,0.076,0.197,0.104,0.299
	c0.024,0.071,0.041,0.143,0.073,0.21c0.938,2.867,5.138,4.826,13.902,6.45c8.353,1.546,18.548,2.329,30.3,2.329
	c11.756,0,21.943-0.783,30.279-2.329c9.865-1.834,14.101-4.105,14.165-7.637V74.162c0-1.992-1.407-3.418-3.366-4.482
	c1.937-1.057,3.332-2.471,3.366-4.446V42.801c0-1.997-1.404-3.423-3.36-4.486C97.138,37.257,98.53,35.84,98.57,33.859z
	 M24.609,8.006c8.085-1.5,18.017-2.262,29.517-2.262c11.502,0,21.425,0.761,29.495,2.262c8.082,1.494,10.086,2.946,10.546,3.423
	c-0.44,0.461-2.401,1.924-10.546,3.429c-8.094,1.502-18.019,2.265-29.495,2.265c-11.475,0-21.406-0.763-29.517-2.265
	c-8.245-1.526-10.151-3.014-10.539-3.408C14.479,11.002,16.392,9.524,24.609,8.006z M23.825,19.091
	c8.368,1.551,18.564,2.337,30.301,2.337c11.74,0,21.928-0.786,30.279-2.337c4.367-0.807,7.573-1.706,9.852-2.752l0.036,17.334
	c-0.006,0.011-0.658,1.194-5.938,2.565l-0.003,0.001c-1.385,0.352-2.957,0.699-4.73,1.023c-8.084,1.501-18.007,2.262-29.495,2.262
	c-11.484,0-21.416-0.761-29.518-2.262c-1.772-0.328-3.346-0.67-4.731-1.021c-0.001,0-0.001-0.001-0.001-0.001
	c-4.718-1.236-5.721-2.371-5.86-2.367V33.53l-0.041-17.186C16.248,17.387,19.455,18.282,23.825,19.091z M94.156,42.817
	c-0.496,0.495-2.554,1.93-10.535,3.408c-8.084,1.5-18.007,2.262-29.495,2.262c-11.484,0-21.416-0.761-29.517-2.262
	c-8.233-1.525-10.144-3.006-10.537-3.407c0.294-0.316,1.451-1.226,5.307-2.274c1.333,0.325,2.793,0.645,4.445,0.95
	c8.358,1.55,18.553,2.334,30.301,2.334c11.75,0,21.938-0.785,30.274-2.333c1.647-0.301,3.11-0.624,4.447-0.952
	C92.665,41.583,93.854,42.482,94.156,42.817z M83.621,100c-8.079,1.496-18.003,2.256-29.495,2.256
	c-11.49,0-21.421-0.76-29.517-2.256c-8.752-1.623-10.361-3.197-10.594-3.338v-0.398l-0.041-17.186
	c2.273,1.044,5.48,1.939,9.852,2.749c8.368,1.546,18.563,2.329,30.3,2.329c11.74,0,21.927-0.783,30.279-2.329
	c4.375-0.811,7.584-1.714,9.865-2.762l0.025,17.338C94.26,96.477,93.271,98.204,83.621,100z M14.071,74.187
	c0.293-0.315,1.449-1.224,5.308-2.28c1.332,0.331,2.789,0.649,4.448,0.965c8.383,1.544,18.577,2.327,30.299,2.327
	c11.725,0,21.911-0.783,30.291-2.33c1.64-0.313,3.1-0.631,4.431-0.963c3.865,1.056,5.022,1.942,5.311,2.275
	c-0.481,0.488-2.52,1.926-10.537,3.414c-8.094,1.496-18.017,2.256-29.495,2.256c-11.477,0-21.407-0.76-29.517-2.256
	C16.376,76.068,14.464,74.583,14.071,74.187z M88.352,67.601c-1.387,0.361-2.974,0.7-4.728,1.037
	c-8.111,1.496-18.035,2.256-29.498,2.256c-11.461,0-21.392-0.76-29.508-2.255c-1.778-0.338-3.354-0.677-4.741-1.037
	c-0.002-0.001-0.004-0.003-0.005-0.003c-4.731-1.229-5.696-2.233-5.856-2.324v-0.379l-0.041-17.187
	c2.273,1.044,5.48,1.939,9.85,2.748c8.358,1.55,18.553,2.335,30.301,2.335c11.75,0,21.938-0.785,30.279-2.335
	c4.375-0.81,7.584-1.711,9.865-2.759l0.025,17.339C94.29,65.049,93.626,66.226,88.352,67.601z"/>
</svg>
