<?xml version="1.0" encoding="utf-8"?>
<!-- Generator: Adobe Illustrator 15.0.2, SVG Export Plug-In . SVG Version: 6.00 Build 0)  -->
<!DOCTYPE svg PUBLIC "-//W3C//DTD SVG 1.0//EN" "http://www.w3.org/TR/2001/REC-SVG-20010904/DTD/svg10.dtd">
<svg version="1.0" id="Layer_1" xmlns="http://www.w3.org/2000/svg" xmlns:xlink="http://www.w3.org/1999/xlink" x="0px" y="0px"
	 width="108px" height="108px" viewBox="0 0 108 108" enable-background="new 0 0 108 108" xml:space="preserve">
<g>
</g>
<path d="M54.05,34.508c-5.503,0-10.136,1.935-13.771,5.751c-3.573,3.752-5.476,8.32-5.656,13.675c0,5.319,1.919,9.936,5.703,13.722
	c3.783,3.783,8.4,5.702,13.725,5.702c5.321,0,9.939-1.919,13.721-5.702c3.794-3.795,5.676-8.428,5.589-13.77
	c-0.092-5.276-1.955-9.86-5.543-13.627C64.181,36.443,59.549,34.508,54.05,34.508z M63.763,63.648
	c-2.719,2.719-5.896,4.041-9.713,4.041c-3.819,0-6.997-1.321-9.714-4.041c-2.722-2.723-4.044-5.899-4.046-9.617
	c0.132-3.882,1.471-7.108,4.093-9.861c2.561-2.687,5.723-3.993,9.667-3.993c3.941,0,7.104,1.306,9.665,3.992
	c2.607,2.742,3.908,5.951,3.975,9.813C67.753,57.779,66.467,60.941,63.763,63.648z M105.418,43.533
	c-0.832-1.002-1.927-1.625-3.157-1.801L92.114,40.24c-0.43-1.148-0.916-2.312-1.459-3.483l5.788-7.553l0.106-0.15
	c0.616-0.923,0.942-1.989,0.942-3.082c0-1.148-0.356-2.215-1.031-3.092c-1.688-2.344-5.291-6.073-11.012-11.398l-0.291-0.237
	c-2.131-1.509-4.863-1.437-6.6,0.139l-7.748,5.811c-0.932-0.438-1.917-0.847-2.95-1.229L66.376,5.779
	c-0.179-1.426-0.907-2.632-2.061-3.402c-0.937-0.622-1.971-0.937-3.073-0.937H46.854c-2.603,0-4.535,1.488-5.072,3.893
	c-0.589,2.102-1.187,5.593-1.818,10.636c-0.977,0.36-1.938,0.763-2.879,1.208l-7.516-5.857l-0.248-0.172
	c-1.075-0.667-2.163-1.005-3.235-1.005c-1.657,0-3.599,0.915-8.153,5.47c-3.21,3.209-5.383,5.585-6.68,7.314
	c-0.738,1.029-1.112,2.092-1.112,3.16c0,1.16,0.464,2.29,1.34,3.308c2.287,2.784,4.242,5.265,5.832,7.401
	c-0.504,1.04-0.954,2.079-1.345,3.108L5.458,41.525c-1.034,0.206-1.97,0.803-2.782,1.776c-0.809,0.971-1.237,2.121-1.237,3.323
	V61.01l0.027,0.393c0.136,0.968,0.483,1.874,1.025,2.683c0.752,1.133,1.901,1.862,3.226,2.05l10.1,1.484
	c0.428,1.191,0.934,2.395,1.516,3.6c-0.646,0.88-1.446,1.917-2.396,3.103c-1.552,1.94-2.639,3.376-3.318,4.379
	c-0.74,0.941-1.13,2.041-1.13,3.193s0.355,2.221,1.028,3.09c1.849,2.587,5.449,6.277,11,11.272c0.986,0.96,2.218,1.467,3.568,1.467
	c1.246,0,2.409-0.407,3.367-1.179l7.775-5.806c0.932,0.405,1.903,0.794,2.909,1.16l1.57,10.104c0.074,1.271,0.673,2.433,1.707,3.301
	c0.972,0.811,2.161,1.238,3.439,1.238h14.388c2.547,0,4.443-1.495,5.072-4.005c0.517-2.076,1.074-5.565,1.703-10.635
	c1.001-0.364,1.994-0.774,2.974-1.228l7.637,5.945c1,0.712,2.067,1.082,3.172,1.103l0.171,0.004c1.632,0,3.631-0.912,8.076-5.357
	c3.089-3.085,5.22-5.44,6.506-7.187c0.833-0.835,1.288-1.983,1.288-3.287c0-1.32-0.488-2.531-1.413-3.51
	c-2.388-2.931-4.298-5.38-5.686-7.308c0.436-0.958,0.86-1.998,1.271-3.117l10.355-1.591c1.332-0.189,2.479-0.918,3.231-2.046
	c0.623-0.934,0.941-1.972,0.941-3.082V47.013C106.653,45.771,106.259,44.544,105.418,43.533z M87.758,62.88l-0.547,1.644
	c-0.718,2.155-1.479,4.006-2.261,5.5l-0.784,1.503l0.952,1.402c1.492,2.199,3.791,5.205,6.834,8.938
	c-1.103,1.49-3.089,3.672-5.913,6.494c-2.443,2.445-3.666,3.307-4.17,3.602l-10.229-7.97l-1.614,0.842
	c-1.771,0.922-3.6,1.674-5.438,2.239l-1.767,0.543l-0.217,1.834c-0.639,5.401-1.212,9.215-1.729,11.422H47.27L45.213,87.64
	l-1.64-0.546c-1.976-0.657-3.816-1.394-5.471-2.186l-1.547-0.742L26.173,91.92c-4.925-4.441-8.246-7.803-9.88-10.007
	c0.58-0.86,1.613-2.224,3.072-4.048c1.584-1.98,2.805-3.607,3.626-4.838l0.943-1.416l-0.804-1.497
	c-1.062-1.979-1.885-3.948-2.447-5.847l-0.515-1.738L7.109,60.61V47.003l13.134-2.021l0.536-1.669
	c0.567-1.769,1.358-3.598,2.35-5.437l0.842-1.561l-1.037-1.44c-1.77-2.459-4.078-5.427-6.9-8.868
	c1.128-1.446,3.113-3.592,5.908-6.386c2.529-2.529,3.774-3.417,4.282-3.721c0.001,0,0.001,0,0.001,0.002l10.255,7.99l1.63-0.882
	c1.682-0.91,3.46-1.657,5.286-2.22l1.762-0.542l0.218-1.832c0.646-5.425,1.249-9.226,1.799-11.307L60.84,7.096l1.912,13.143
	l1.681,0.542c1.991,0.642,3.778,1.391,5.314,2.227l1.602,0.871l10.576-7.933c6.17,5.762,8.746,8.647,9.813,10.077l-7.718,10.075
	l0.789,1.585c1.026,2.047,1.872,4.067,2.516,6.006l0.55,1.657l12.996,1.912l0.013,13.604L87.758,62.88z"/>
</svg>
