<?xml version="1.0" encoding="utf-8"?>
<!-- Generator: Adobe Illustrator 15.0.2, SVG Export Plug-In . SVG Version: 6.00 Build 0)  -->
<!DOCTYPE svg PUBLIC "-//W3C//DTD SVG 1.0//EN" "http://www.w3.org/TR/2001/REC-SVG-20010904/DTD/svg10.dtd">
<svg version="1.0" id="Layer_1" xmlns="http://www.w3.org/2000/svg" xmlns:xlink="http://www.w3.org/1999/xlink" x="0px" y="0px"
	 width="108px" height="108px" viewBox="0 0 108 108" enable-background="new 0 0 108 108" xml:space="preserve">
<path d="M2.16,84.47h15.37v20.308H2.16V84.47z M17.78,84.22H1.91v20.808h15.87V84.22z M2.41,84.72h14.87v19.808H2.41V84.72z
	 M24.238,104.777h15.369V64.161H24.238V104.777z M39.856,63.911H23.988v41.116h15.869V63.911z M24.488,64.411h14.869v40.116H24.488
	V64.411z M61.934,43.247H46.065v61.781h15.869V43.247z M46.565,43.747h14.869v60.781H46.565V43.747z M84.013,23.294h-15.87v81.733
	h15.87V23.294z M68.643,23.794h14.87v80.733h-14.87V23.794z M106.09,2.63H90.221v102.397h15.869V2.63z M90.721,3.13h14.869v101.397
	H90.721V3.13z"/>
</svg>
