<?xml version="1.0" encoding="utf-8"?>
<!-- Generator: Adobe Illustrator 15.0.2, SVG Export Plug-In . SVG Version: 6.00 Build 0)  -->
<!DOCTYPE svg PUBLIC "-//W3C//DTD SVG 1.0//EN" "http://www.w3.org/TR/2001/REC-SVG-20010904/DTD/svg10.dtd">
<svg version="1.0" id="Layer_1" xmlns="http://www.w3.org/2000/svg" xmlns:xlink="http://www.w3.org/1999/xlink" x="0px" y="0px"
	 width="108px" height="108px" viewBox="0 0 108 108" enable-background="new 0 0 108 108" xml:space="preserve">
<path d="M17.78,105.027H1.91V84.22h15.87V105.027z M2.41,104.527h14.87V84.72H2.41V104.527z M39.856,105.027H23.988V63.911h15.869
	V105.027z M24.488,104.527h14.869V64.411H24.488V104.527z M61.934,105.027H46.065V43.247h15.869V105.027z M46.565,104.527h14.869
	V43.747H46.565V104.527z M84.013,105.027h-15.87V23.294h15.87V105.027z M68.643,104.527h14.87V23.794h-14.87V104.527z
	 M106.09,105.027H90.221V2.63h15.869V105.027z M90.721,104.527h14.869V3.13H90.721V104.527z"/>
</svg>
