<?xml version="1.0" encoding="utf-8"?>
<!-- Generator: Adobe Illustrator 15.0.2, SVG Export Plug-In . SVG Version: 6.00 Build 0)  -->
<!DOCTYPE svg PUBLIC "-//W3C//DTD SVG 1.0//EN" "http://www.w3.org/TR/2001/REC-SVG-20010904/DTD/svg10.dtd">
<svg version="1.0" id="Layer_1" xmlns="http://www.w3.org/2000/svg" xmlns:xlink="http://www.w3.org/1999/xlink" x="0px" y="0px"
	 width="108px" height="108px" viewBox="0 0 108 108" enable-background="new 0 0 108 108" xml:space="preserve">
<path d="M101.297,15.734c-3.514-4.292-8.271-7.696-14.3-10.211C80.969,3.007,74.393,1.75,67.271,1.75
	c-7.123,0-13.697,1.257-19.726,3.773c-6.029,2.515-10.799,5.919-14.299,10.211c-2.458,3.013-4.041,6.218-4.78,9.606H9.386
	c-2.165,0-4.029,0.784-5.596,2.349c-1.566,1.567-2.35,3.434-2.35,5.596v64.012c0,2.166,0.784,4.03,2.35,5.598
	c1.567,1.567,3.431,2.35,5.596,2.35h32.007c2.088,0,3.951-0.782,5.593-2.35c1.644-1.567,2.463-3.432,2.463-5.598V65.027
	c4.167-1.94,7.991-4.425,11.452-7.475c2.201,0.205,4.32,0.314,6.371,0.314c7.122,0,13.698-1.258,19.726-3.773
	c6.029-2.516,10.786-5.919,14.3-10.226c3.513-4.292,5.263-8.981,5.263-14.066C106.56,24.729,104.81,20.041,101.297,15.734z
	 M20.464,33.286h7.834c0.119,0.68,0.278,1.351,0.464,2.016h-8.298c-0.671,0-1.007-0.336-1.007-1.009
	C19.458,33.622,19.793,33.286,20.464,33.286z M28.97,100.77c-1.046,0.971-2.238,1.453-3.581,1.453s-2.5-0.482-3.47-1.453
	c-0.971-0.969-1.455-2.128-1.455-3.472c0.15-1.488,0.634-2.685,1.455-3.58c0.82-0.894,1.977-1.38,3.47-1.454
	c1.491-0.072,2.687,0.411,3.581,1.454c0.896,1.047,1.379,2.238,1.455,3.58C30.499,98.642,30.014,99.801,28.97,100.77z
	 M42.845,88.683c-0.445,0.375-0.931,0.558-1.453,0.558H9.386c-0.523,0-0.97-0.184-1.343-0.558c-0.375-0.374-0.56-0.857-0.56-1.455
	V43.357c0-0.596,0.185-1.08,0.56-1.453c0.373-0.375,0.82-0.562,1.343-0.562h22.09c0.169,0.268,0.33,0.537,0.512,0.802
	c2.612,3.828,6.235,7.041,10.841,9.666l-1.176,3.308c-0.369,0.984-0.766,1.859-1.189,2.584c-0.411,0.738-0.889,1.476-1.408,2.201
	c-0.52,0.738-0.971,1.313-1.34,1.736l-1.572,1.722c-0.684,0.738-1.122,1.23-1.34,1.49l-0.929,1.189
	c-0.164,0.15-0.218,0.287-0.164,0.383c0.054,0.109,0.027,0.273-0.082,0.478c-0.097,0.206-0.097,0.369,0,0.465v0.082
	c0.109,0.478,0.341,0.861,0.71,1.175c0.37,0.314,0.766,0.479,1.176,0.479h0.232c1.887-0.218,3.541-0.52,4.962-0.943
	c0.914-0.237,1.811-0.499,2.698-0.779v19.847C43.481,87.826,43.294,88.31,42.845,88.683z M96.348,40.97
	c-3.035,3.458-7.149,6.206-12.344,8.243c-5.182,2.05-10.759,3.076-16.733,3.076c-1.791,0-3.691-0.136-5.742-0.396l-2.433-0.232
	l-1.887,1.641c-3.563,3.105-7.557,5.594-11.935,7.473c1.266-2.309,2.241-4.715,2.894-7.223l1.176-4.238l-0.055-0.032l0.061-0.218
	l-3.772-2.2c-3.829-2.146-6.782-4.717-8.886-7.71c-2.089-2.977-3.127-6.088-3.13-9.336c0-0.045,0.003-0.089,0.004-0.134
	c-0.001-0.307,0.016-0.611,0.034-0.915c0.091-1.165,0.323-2.307,0.692-3.427h-0.083c0.722-2.33,2.048-4.562,3.987-6.694
	c3.144-3.459,7.258-6.207,12.33-8.257c5.085-2.037,10.663-3.062,16.746-3.062c6.07,0,11.661,1.025,16.733,3.062
	c5.085,2.051,9.2,4.798,12.344,8.257c3.145,3.458,4.688,7.177,4.634,11.155C100.927,33.793,99.383,37.512,96.348,40.97z
	 M53.767,33.612c0,3.263-2.483,6.035-7.825,6.035c-2.223,0-4.418-0.606-5.515-1.213l0.895-3.609c1.155,0.606,3.003,1.213,4.88,1.213
	c2.021,0,3.089-0.837,3.089-2.108c0-1.213-0.924-1.906-3.263-2.714c-3.234-1.155-5.371-2.945-5.371-5.775
	c0-3.321,2.801-5.833,7.363-5.833c2.224,0,3.812,0.433,4.967,0.982l-0.981,3.522c-0.751-0.375-2.166-0.924-4.042-0.924
	c-1.906,0-2.83,0.895-2.83,1.877c0,1.242,1.068,1.79,3.609,2.743C52.179,29.078,53.767,30.868,53.767,33.612z M76.778,19.896
	l1.039,19.462h-4.273l-0.318-7.45c-0.086-2.338-0.173-5.169-0.173-7.998h-0.059c-0.635,2.483-1.443,5.255-2.193,7.536l-2.368,7.595
	h-3.436l-2.079-7.508c-0.636-2.31-1.271-5.082-1.762-7.623h-0.058c-0.087,2.627-0.203,5.63-0.318,8.056l-0.375,7.392h-4.072
	l1.242-19.462h5.861l1.906,6.497c0.635,2.252,1.212,4.678,1.645,6.959h0.117c0.519-2.252,1.183-4.822,1.848-6.988l2.05-6.468H76.778
	z M93.781,33.612c0,3.263-2.483,6.035-7.826,6.035c-2.224,0-4.417-0.606-5.515-1.213l0.895-3.609
	c1.155,0.606,3.003,1.213,4.881,1.213c2.021,0,3.089-0.837,3.089-2.108c0-1.213-0.924-1.906-3.263-2.714
	c-3.234-1.155-5.371-2.945-5.371-5.775c0-3.321,2.802-5.833,7.363-5.833c2.224,0,3.812,0.433,4.967,0.982l-0.981,3.522
	c-0.751-0.375-2.165-0.924-4.042-0.924c-1.906,0-2.831,0.895-2.831,1.877c0,1.242,1.069,1.79,3.61,2.743
	C92.192,29.078,93.781,30.868,93.781,33.612z"/>
</svg>
