<?xml version="1.0" encoding="utf-8"?>
<!-- Generator: Adobe Illustrator 15.0.2, SVG Export Plug-In . SVG Version: 6.00 Build 0)  -->
<!DOCTYPE svg PUBLIC "-//W3C//DTD SVG 1.0//EN" "http://www.w3.org/TR/2001/REC-SVG-20010904/DTD/svg10.dtd">
<svg version="1.0" id="Layer_1" xmlns="http://www.w3.org/2000/svg" xmlns:xlink="http://www.w3.org/1999/xlink" x="0px" y="0px"
	 width="108px" height="108px" viewBox="0 0 108 108" enable-background="new 0 0 108 108" xml:space="preserve">
<path d="M42.028,53.164c-0.567-0.909-1.598-2.4-3.115-4.492c-1.343-1.887-2.354-3.377-2.999-4.496
	c-0.97-1.679-1.675-3.271-2.075-4.766c-1.51,3.214-3.311,6.401-5.426,9.569c-0.266,0.456-0.926,1.369-1.943,2.778
	c-0.831,1.156-1.468,2.111-1.907,2.875c-1.345,2.28-2.048,4.536-2.069,6.774c-0.066,3.189,0.844,5.903,2.693,8.12
	c1.824,2.216,4.311,3.621,7.409,4.182h2.322c1.675-0.247,3.231-0.825,4.682-1.779c1.449-0.955,2.632-2.134,3.563-3.583
	c0.953-1.491,1.55-3.105,1.782-4.868c0.247-1.841,0.04-3.708-0.586-5.572C43.869,56.437,43.085,54.864,42.028,53.164z
	 M42.479,66.957c-0.333,0.645-0.705,1.244-1.137,1.763c-0.106,0.122-0.208,0.248-0.314,0.373c-1.137,1.258-2.626,2.155-4.448,2.713
	c-2.86,0.89-5.534,0.578-8.02-0.932c-1.656-0.999-2.921-2.487-3.832-4.456c-1.017-2.214-1.263-4.513-0.762-6.896
	c0.291-1.368,0.93-2.879,1.947-4.557c1.196-1.862,2.088-3.231,2.647-4.077c1.183-1.849,2.054-3.256,2.605-4.188
	c0.918-1.491,1.704-2.94,2.381-4.328c-0.013-0.063,0.047-0.122,0.154-0.143c0.059,0.143,0.845,1.51,2.36,4.121
	c1.012,1.822,1.882,3.294,2.626,4.393c1.47,2.232,2.234,3.393,2.282,3.476c0.852,1.388,1.51,2.651,1.923,3.811
	C44.036,61.097,43.888,64.079,42.479,66.957z M41.155,64.163c0.325,0.434,0.285,1.095-0.146,1.985
	c-0.439,0.871-1.098,1.7-1.989,2.468c-0.93,0.806-1.822,1.303-2.691,1.533c-0.873,0.245-1.491,0.145-1.805-0.312
	c-0.333-0.453-0.266-1.118,0.146-1.989c0.413-0.892,1.078-1.719,2.008-2.506c0.892-0.764,1.784-1.284,2.674-1.51
	C40.224,63.581,40.843,63.705,41.155,64.163z M82.236,65.388c-0.566-0.911-1.598-2.4-3.115-4.492
	c-1.343-1.887-2.354-3.379-3.001-4.496c-0.97-1.681-1.673-3.273-2.072-4.766c-1.511,3.212-3.313,6.401-5.427,9.569
	c-0.267,0.456-0.924,1.367-1.943,2.776c-0.831,1.158-1.468,2.111-1.907,2.877c-1.345,2.28-2.049,4.536-2.069,6.774
	c-0.066,3.188,0.845,5.9,2.694,8.118c1.822,2.215,4.31,3.622,7.407,4.184h2.321c1.677-0.249,3.232-0.827,4.682-1.782
	c1.449-0.954,2.632-2.132,3.567-3.581c0.951-1.492,1.549-3.105,1.78-4.868c0.247-1.843,0.042-3.708-0.586-5.571
	C84.077,68.659,83.294,67.088,82.236,65.388z M82.685,79.181c-0.33,0.645-0.703,1.241-1.137,1.763
	c-0.106,0.122-0.205,0.245-0.312,0.373c-1.138,1.259-2.625,2.152-4.45,2.712c-2.86,0.89-5.533,0.578-8.019-0.931
	c-1.656-0.998-2.921-2.489-3.832-4.455c-1.018-2.214-1.263-4.513-0.763-6.897c0.291-1.367,0.93-2.879,1.947-4.555
	c1.198-1.864,2.088-3.233,2.647-4.077c1.185-1.849,2.056-3.256,2.605-4.189c0.918-1.489,1.705-2.94,2.382-4.327
	c-0.016-0.063,0.046-0.122,0.152-0.143c0.061,0.143,0.844,1.508,2.361,4.119c1.012,1.824,1.883,3.296,2.628,4.395
	c1.469,2.232,2.233,3.393,2.282,3.476c0.849,1.386,1.506,2.651,1.921,3.811C84.244,73.321,84.096,76.302,82.685,79.181z
	 M81.361,76.387c0.327,0.434,0.285,1.096-0.145,1.985c-0.438,0.871-1.099,1.7-1.989,2.469c-0.932,0.807-1.821,1.301-2.692,1.532
	c-0.871,0.244-1.491,0.145-1.803-0.313c-0.331-0.452-0.267-1.116,0.145-1.987c0.414-0.892,1.08-1.719,2.008-2.508
	c0.894-0.765,1.784-1.284,2.674-1.511C80.43,75.805,81.05,75.927,81.361,76.387z M105.589,35.456
	c-8.628,5.011-17.268,7.516-25.855,7.516c-8.503,0-16.956-2.456-25.3-7.37C37.286,25.438,20.46,25.376,4.421,35.423
	c-0.913,0.569-2.114,0.294-2.684-0.617c-0.57-0.912-0.295-2.113,0.617-2.685c17.373-10.88,35.562-10.837,54.06,0.127
	c15.684,9.236,31.132,9.182,47.22-0.161c0.932-0.544,2.121-0.223,2.663,0.707C106.837,33.725,106.519,34.916,105.589,35.456z"/>
</svg>
