<?xml version="1.0" encoding="utf-8"?>
<!-- Generator: Adobe Illustrator 15.0.2, SVG Export Plug-In . SVG Version: 6.00 Build 0)  -->
<!DOCTYPE svg PUBLIC "-//W3C//DTD SVG 1.0//EN" "http://www.w3.org/TR/2001/REC-SVG-20010904/DTD/svg10.dtd">
<svg version="1.0" id="Layer_1" xmlns="http://www.w3.org/2000/svg" xmlns:xlink="http://www.w3.org/1999/xlink" x="0px" y="0px"
	 width="108px" height="108px" viewBox="0 0 108 108" enable-background="new 0 0 108 108" xml:space="preserve">
<path d="M11.785,44.627c-0.047-1.031,0.749-1.905,1.78-1.953c4.471-0.207,8.526-3.863,9.041-8.148
	c0.123-1.024,1.063-1.746,2.077-1.632c1.024,0.122,1.755,1.053,1.632,2.077c-0.721,6.017-6.363,11.148-12.576,11.436
	c-0.029,0.001-0.06,0.002-0.088,0.002C12.658,46.409,11.832,45.628,11.785,44.627z M14.668,51.673
	c-0.264-0.121-0.56-0.171-0.864-0.168c-0.991,0.045-1.898,0.884-1.907,1.875c-0.019,1.851,1.97,1.98,2.624,2.021
	c0.356,0.023,0.726,0.036,1.108,0.036c7.055,0,18.189-4.133,20.092-19.951c0.123-1.024-0.607-1.955-1.631-2.078
	c-1.025-0.118-1.954,0.608-2.078,1.631c-0.751,6.251-3.103,10.844-6.986,13.649C20.906,51.664,16.178,51.799,14.668,51.673z
	 M13.414,65.289c0.029,0,0.06-0.001,0.089-0.001C29.277,64.552,43.6,51.556,45.432,36.316c0.123-1.024-0.607-1.954-1.632-2.078
	c-1.019-0.113-1.954,0.608-2.077,1.632C40.098,49.379,27.361,60.901,13.33,61.554c-1.031,0.048-1.827,0.922-1.78,1.953
	C11.596,64.509,12.423,65.289,13.414,65.289z M61.654,51.622c5.975,0.524,11.235,5.988,11.726,12.183
	c0.078,0.978,0.896,1.72,1.86,1.72c0.05,0,0.099-0.001,0.15-0.005c1.028-0.082,1.795-0.981,1.715-2.011
	c-0.63-7.931-7.415-14.934-15.125-15.609c-1.026-0.099-1.935,0.67-2.023,1.698C59.866,50.625,60.626,51.531,61.654,51.622z
	 M61.926,39.142c8.573,0.75,14.936,3.798,18.916,9.062c4.182,5.531,4.516,11.978,4.388,13.938c-0.142,0.291-0.209,0.623-0.182,0.969
	c0.078,0.975,0.938,1.882,1.912,1.882c0.013,0,0.025,0,0.038-0.001c1.879-0.045,1.941-2.038,1.971-2.995
	c0.282-8.979-5.028-24.682-26.717-26.578c-1.024-0.105-1.935,0.671-2.023,1.699C60.137,38.146,60.899,39.053,61.926,39.142z
	 M62.604,26.239c18.229,1.6,34.272,18.229,35.762,37.069c0.079,0.978,0.896,1.721,1.861,1.721c0.049,0,0.099-0.002,0.149-0.005
	c1.029-0.082,1.796-0.982,1.715-2.011c-1.627-20.577-19.195-38.743-39.161-40.495c-1.028-0.102-1.935,0.669-2.024,1.697
	C60.816,25.243,61.577,26.148,62.604,26.239z M104.692,78.136H3.308c-1.032,0-1.868,0.837-1.868,1.868
	c0,1.032,0.836,1.868,1.868,1.868h101.384c1.032,0,1.868-0.836,1.868-1.868C106.561,78.973,105.725,78.136,104.692,78.136z
	 M51.312,74.484c2.054,0,3.717-1.76,3.717-3.93c0-2.177-1.663-3.937-3.717-3.937c-2.048,0-3.711,1.76-3.711,3.937
	C47.601,72.725,49.264,74.484,51.312,74.484z"/>
</svg>
