<?xml version="1.0" encoding="utf-8"?>
<!-- Generator: Adobe Illustrator 15.0.2, SVG Export Plug-In . SVG Version: 6.00 Build 0)  -->
<!DOCTYPE svg PUBLIC "-//W3C//DTD SVG 1.0//EN" "http://www.w3.org/TR/2001/REC-SVG-20010904/DTD/svg10.dtd">
<svg version="1.0" id="Layer_2" xmlns="http://www.w3.org/2000/svg" xmlns:xlink="http://www.w3.org/1999/xlink" x="0px" y="0px"
	 width="108px" height="108px" viewBox="0 0 108 108" enable-background="new 0 0 108 108" xml:space="preserve">
<path d="M89.311,21.812l5.199,0.624l-10.095,84.125H24.129l-9.961-84.129l5.201-0.616l9.414,79.508H79.77L89.311,21.812z
	 M51.656,21.6v75.273h5.236V21.6H51.656z M37.972,21.45l-5.228,0.3l4.32,75.273l5.228-0.301L37.972,21.45z M70.445,21.45
	l-4.32,75.272l5.229,0.301l4.32-75.273L70.445,21.45z M94.005,7.462H65.748c0.039-0.258,0.079-0.517,0.079-0.786
	c0-2.892-2.345-5.236-5.236-5.236H48.088c-2.892,0-5.236,2.345-5.236,5.236c0,0.269,0.04,0.527,0.079,0.786H14.674
	c-2.892,0-5.236,2.344-5.236,5.236c0,2.892,2.345,5.236,5.236,5.236h79.331c2.893,0,5.236-2.345,5.236-5.236
	C99.241,9.806,96.897,7.462,94.005,7.462z"/>
</svg>
