<?xml version="1.0" encoding="utf-8"?>
<!-- Generator: Adobe Illustrator 15.0.2, SVG Export Plug-In . SVG Version: 6.00 Build 0)  -->
<!DOCTYPE svg PUBLIC "-//W3C//DTD SVG 1.0//EN" "http://www.w3.org/TR/2001/REC-SVG-20010904/DTD/svg10.dtd">
<svg version="1.0" id="Layer_1" xmlns="http://www.w3.org/2000/svg" xmlns:xlink="http://www.w3.org/1999/xlink" x="0px" y="0px"
	 width="108px" height="108px" viewBox="0 0 108 108" enable-background="new 0 0 108 108" xml:space="preserve">
<path d="M41.204,45.795c0.045-5.697-4.653-10.523-10.342-10.633c-5.936-0.125-10.782,4.652-10.782,10.556
	c0,4.688,3.075,8.616,7.292,9.997v4.016c0,2.467,1.155,4.79,3.132,6.269l20.327,15.317c-5.217,1.504-9.032,6.313-9.032,12.015
	c0,6.91,5.595,12.509,12.509,12.509c6.91,0,12.508-5.599,12.508-12.509c0-5.755-3.892-10.602-9.186-12.06v-5.904l18.665-12.969
	c2.11-1.467,3.38-3.88,3.38-6.45v-5.553h2.133c3.092,0,5.607-2.512,5.607-5.609v-9.111c0-3.098-2.516-5.609-5.607-5.609H71.015
	c-3.095,0-5.61,2.511-5.61,5.609v9.111c0,3.097,2.516,5.609,5.61,5.609h2.129v6.248l-15.513,10.77V26.319h5.482
	c3.93,0,6.352-4.298,4.321-7.664L59.11,4.87c-2.167-3.593-7.358-3.613-9.57-0.057l-8.55,13.799c-2.084,3.367,0.337,7.708,4.3,7.708
	h5.82v47.019L33.911,60.393v-4.678C38.109,54.344,41.17,50.441,41.204,45.795L41.204,45.795z M41.204,45.795"/>
</svg>
