<?xml version="1.0" encoding="utf-8"?>
<!-- Generator: Adobe Illustrator 15.0.2, SVG Export Plug-In . SVG Version: 6.00 Build 0)  -->
<!DOCTYPE svg PUBLIC "-//W3C//DTD SVG 1.0//EN" "http://www.w3.org/TR/2001/REC-SVG-20010904/DTD/svg10.dtd">
<svg version="1.0" id="Layer_1" xmlns="http://www.w3.org/2000/svg" xmlns:xlink="http://www.w3.org/1999/xlink" x="0px" y="0px"
	 width="108px" height="108px" viewBox="0 0 108 108" enable-background="new 0 0 108 108" xml:space="preserve">
<path fill="none" stroke="#000000" stroke-miterlimit="10" d="M104.802,23.648L84.05,2.88L67.233,19.712l20.753,20.751
	L104.802,23.648z M95.824,22.445l-3.469,3.452l-4.227-4.222l3.469-3.47L95.824,22.445z M81.706,15.231l3.453-3.456l4.224,4.229
	l-3.469,3.449L81.706,15.231z M5.429,70.612c-2.975,2.971-2.975,7.79,0,10.762l21.521,21.522c2.972,2.972,7.791,2.957,10.748,0
	l54.577-54.578L59.99,16.032L5.429,70.612z M50.534,66.266l1.591-1.589l-0.541-0.541c-0.783-0.785-0.791-2.061,0-2.852l2.313-2.316
	c0.791-0.789,2.064-0.784,2.854,0.004l2.742,2.743c0.788,0.784,0.788,2.063,0,2.852l-2.317,2.317c-0.786,0.785-2.063,0.783-2.851,0
	l-0.542-0.546l-1.409,1.413c-0.653,0.654-1.589,0.944-2.497,0.781l-8.04-1.448l-1.504,1.5c0.978,1.716,0.732,3.938-0.729,5.399
	c-1.759,1.758-4.601,1.758-6.361,0c-1.758-1.757-1.758-4.602,0-6.361c1.446-1.447,3.643-1.699,5.349-0.754l-1.272-9.062
	c-0.129-0.879,0.172-1.762,0.798-2.389l1.02-1.022c-0.722-1.423-0.505-3.202,0.688-4.392c1.501-1.502,3.947-1.484,5.425,0.056
	c1.417,1.478,1.384,3.895-0.078,5.333c-1.189,1.17-2.958,1.385-4.375,0.666l-1.185,1.19l1.08,7.663l11.95-11.949l-1.479-1.48
	c-1.009-1.007-0.52-2.729,0.865-3.05l5.682-1.338c1.465-0.341,2.783,0.984,2.417,2.447l-1.386,5.62
	c-0.341,1.374-2.05,1.85-3.048,0.852l-1.394-1.392L43.858,65.063L50.534,66.266z"/>
</svg>
