<?xml version="1.0" encoding="utf-8"?>
<!-- Generator: Adobe Illustrator 15.0.2, SVG Export Plug-In . SVG Version: 6.00 Build 0)  -->
<!DOCTYPE svg PUBLIC "-//W3C//DTD SVG 1.0//EN" "http://www.w3.org/TR/2001/REC-SVG-20010904/DTD/svg10.dtd">
<svg version="1.0" id="Layer_1" xmlns="http://www.w3.org/2000/svg" xmlns:xlink="http://www.w3.org/1999/xlink" x="0px" y="0px"
	 width="108px" height="108px" viewBox="0 0 108 108" enable-background="new 0 0 108 108" xml:space="preserve">
<path d="M105.213,23.402L84.295,2.467L67.343,19.436l20.919,20.918L105.213,23.402z M96.162,22.19l-3.498,3.479l-4.262-4.255
	l3.498-3.498L96.162,22.19z M81.932,14.918l3.48-3.482l4.256,4.262l-3.496,3.478L81.932,14.918z M5.036,70.747
	c-2.998,2.996-2.998,7.852,0,10.848l21.694,21.696c2.997,2.996,7.854,2.98,10.836,0l55.018-55.019L60.039,15.726L5.036,70.747z
	 M50.505,66.363l1.604-1.599l-0.546-0.546c-0.79-0.79-0.798-2.076,0-2.878l2.332-2.331c0.796-0.795,2.081-0.792,2.878,0.004
	l2.763,2.765c0.795,0.789,0.795,2.081,0,2.874l-2.335,2.335c-0.793,0.79-2.08,0.79-2.873,0l-0.548-0.55l-1.42,1.425
	c-0.66,0.66-1.603,0.952-2.518,0.79l-8.104-1.462l-1.516,1.511c0.985,1.732,0.738,3.971-0.734,5.444
	c-1.773,1.773-4.639,1.773-6.413,0c-1.772-1.769-1.772-4.638,0-6.412c1.458-1.461,3.672-1.712,5.393-0.761l-1.284-9.133
	c-0.129-0.886,0.174-1.776,0.805-2.409l1.029-1.03c-0.729-1.436-0.51-3.228,0.691-4.429c1.514-1.513,3.979-1.496,5.469,0.056
	c1.429,1.491,1.396,3.927-0.077,5.376c-1.201,1.18-2.984,1.397-4.413,0.673l-1.194,1.198l1.089,7.727l12.046-12.048l-1.492-1.492
	c-1.014-1.015-0.52-2.75,0.874-3.074l5.728-1.349c1.477-0.344,2.804,0.991,2.436,2.466l-1.396,5.665
	c-0.345,1.384-2.066,1.864-3.073,0.858l-1.404-1.402l-10.529,10.53L50.505,66.363z"/>
</svg>
