<?xml version="1.0" encoding="utf-8"?>
<!-- Generator: Adobe Illustrator 15.0.2, SVG Export Plug-In . SVG Version: 6.00 Build 0)  -->
<!DOCTYPE svg PUBLIC "-//W3C//DTD SVG 1.0//EN" "http://www.w3.org/TR/2001/REC-SVG-20010904/DTD/svg10.dtd">
<svg version="1.0" id="Layer_1" xmlns="http://www.w3.org/2000/svg" xmlns:xlink="http://www.w3.org/1999/xlink" x="0px" y="0px"
	 width="108px" height="108px" viewBox="0 0 108 108" enable-background="new 0 0 108 108" xml:space="preserve">
<path fill="#1B1C1F" d="M42.556,53.17c-10.995,6.347,5.781,37.797,17.812,30.851c2.137,3.701,9.017,15.619,11.155,19.321
	c-5.076,2.931-9.372,4.778-15.258,1.415c-16.34-9.341-34.327-40.484-33.814-59.058c0.177-6.452,3.978-8.979,8.95-11.851
	C33.538,37.549,40.419,49.469,42.556,53.17L42.556,53.17z M47.168,52.646l5.526-3.191c1.189-0.686,1.599-2.214,0.912-3.402
	L43.091,27.837c-0.687-1.188-2.215-1.597-3.403-0.912l-5.528,3.191c-1.188,0.686-1.597,2.214-0.911,3.403l10.516,18.213
	C44.451,52.922,45.979,53.332,47.168,52.646L47.168,52.646z M75.896,102.404l5.529-3.19c1.188-0.685,1.596-2.213,0.91-3.403
	L71.819,77.597c-0.686-1.188-2.214-1.598-3.404-0.911l-5.525,3.191c-1.189,0.686-1.598,2.215-0.913,3.402l10.517,18.213
	C73.18,102.684,74.709,103.091,75.896,102.404L75.896,102.404z M65,47.583c1.417-6.711,0.136-13.573-3.606-19.32
	c-3.744-5.747-9.501-9.693-16.212-11.11c-1.189-0.25-2.353,0.509-2.604,1.696c-0.25,1.187,0.508,2.353,1.696,2.603
	c5.563,1.174,10.334,4.445,13.438,9.209c3.103,4.764,4.164,10.451,2.99,16.014c-0.25,1.188,0.507,2.352,1.696,2.604
	c0.152,0.032,0.305,0.048,0.456,0.048C63.869,49.326,64.781,48.616,65,47.583z M72.658,49.199
	c3.816-18.076-7.784-35.888-25.86-39.705c-1.187-0.252-2.353,0.509-2.604,1.696c-0.25,1.187,0.509,2.353,1.696,2.603
	c15.706,3.316,25.786,18.792,22.47,34.499c-0.25,1.187,0.507,2.352,1.695,2.603c0.154,0.034,0.307,0.049,0.455,0.049
	C71.527,50.943,72.44,50.233,72.658,49.199z M80.664,50.89c4.748-22.491-9.686-44.653-32.175-49.402
	c-1.19-0.252-2.353,0.509-2.604,1.695c-0.251,1.188,0.508,2.353,1.696,2.604c20.121,4.248,33.032,24.074,28.784,44.193
	c-0.252,1.188,0.508,2.354,1.695,2.604c0.152,0.032,0.307,0.047,0.455,0.047C79.533,52.633,80.447,51.924,80.664,50.89z"/>
</svg>
