<?xml version="1.0" encoding="utf-8"?>
<!-- Generator: Adobe Illustrator 15.0.2, SVG Export Plug-In . SVG Version: 6.00 Build 0)  -->
<!DOCTYPE svg PUBLIC "-//W3C//DTD SVG 1.0//EN" "http://www.w3.org/TR/2001/REC-SVG-20010904/DTD/svg10.dtd">
<svg version="1.0" id="Layer_1" xmlns="http://www.w3.org/2000/svg" xmlns:xlink="http://www.w3.org/1999/xlink" x="0px" y="0px"
	 width="108px" height="108px" viewBox="0 0 108 108" enable-background="new 0 0 108 108" xml:space="preserve">
<path d="M89.816,39.203l-5.168-2.922c0.932-1.152,1.721-2.474,2.311-3.982c2.443-6.233,1.434-14.376-2.451-19.804
	C79.402,5.365,71.031,1.44,60.935,1.44c-11.619,0-23.677,5.209-31.471,13.595c-6.253,6.728-9.225,14.823-8.594,23.405l0.483,6.592
	c-6.182,0.844-12.465,4.886-15.571,10.251c-4.953,8.575-4.425,19.328,1.448,29.5c7.383,12.79,21.144,21.382,34.242,21.381
	c5.018,0,9.801-1.221,14.219-3.627l4.642-2.527c3.919,3.947,9.729,6.55,15.194,6.55l0.58-0.011
	c13.184-0.438,24.242-11.07,28.174-27.089C107.471,66.467,105.596,48.128,89.816,39.203z M81.4,34.63
	c-1.154,1.229-2.73,2.267-4.898,2.714c-0.865,0.178-1.787,0.269-2.746,0.27c0,0-0.002,0-0.004,0c-6.041,0-13.009-3.539-19.749-6.959
	c-6.785-3.445-13.194-6.698-18.972-6.698c-3.837,0-6.974,1.435-9.459,4.348c1.494-4.645,4.108-8.28,6.496-10.849
	c7.142-7.686,18.203-12.46,28.867-12.46c8.918,0,16.264,3.399,20.684,9.569c3.174,4.432,4.027,11.345,2.031,16.439
	c-0.439,1.125-1.127,2.385-2.141,3.503 M10.308,83.006C5.087,73.963,4.56,64.507,8.859,57.063c2.857-4.935,9.234-8.656,14.832-8.656
	c2.372,0,5.69,0.678,8.04,3.905c3.978,5.471,3.577,14.514,3.19,23.257c-0.423,9.503-0.82,18.478,4.106,23.629
	c1.461,1.527,3.272,2.603,5.475,3.241C31.892,103.878,17.66,95.74,10.308,83.006z M54.581,99.221
	c-1.646,0.244-3.178,0.367-4.555,0.367c-0.001,0-0.001,0-0.002,0c-3.84,0-6.598-0.931-8.429-2.846
	c-3.878-4.055-3.513-12.293-3.125-21.014c0.415-9.355,0.845-19.029-3.866-25.506c-2.521-3.462-6.396-5.369-10.914-5.369
	c-0.361,0-0.728,0.06-1.091,0.084l1.751-6.139c2.886-10.119,7.478-11.289,10.681-11.289c4.927,0,10.968,3.067,17.362,6.313
	c7.113,3.612,14.467,7.345,21.358,7.345c0.002,0,0.004,0,0.004,0c1.199-0.001,2.365-0.116,3.465-0.342
	c2.531-0.521,4.719-1.732,6.48-3.491l3.887,4.567c3.887,4.567,5.486,8.415,4.889,11.764c-1.02,5.723-8.445,9.906-16.303,14.336
	c-8.16,4.597-16.596,9.351-19.599,16.772c-1.685,4.16-1.14,8.636,1.535,12.604c0.276,0.41,0.608,0.791,0.925,1.182L54.581,99.221z
	 M63.281,97.927c-0.843-0.788-1.611-1.628-2.223-2.536c-1.41-2.091-2.762-5.399-1.188-9.284
	c2.536-6.271,10.421-10.714,18.046-15.011c8.611-4.853,16.744-9.435,18.059-16.809c0.324-1.813,0.209-3.686-0.354-5.632
	c6.984,8.656,7.467,20.765,5.207,29.958c-2.688,10.958-10.809,23.917-24.84,24.384l-0.461,0.009c-4.156,0-8.696-1.898-11.931-4.774
	 M74.107,19.704c-0.99-1.698-1.484-3.207-1.545-4.581c-0.092-1.386,0.305-2.253,1.168-2.526c0.873-0.301,1.943,0.06,3.229,1.027
	c1.318,0.972,2.443,2.286,3.406,3.975c0.934,1.629,1.461,3.145,1.512,4.553c0.094,1.379-0.332,2.24-1.207,2.511
	c-0.834,0.312-1.904-0.017-3.221-1.025C76.172,22.643,75.047,21.329,74.107,19.704z M87.051,93.275
	c0.186,0.907-0.322,1.918-1.453,3.065c-1.141,1.171-2.594,2.112-4.4,2.839c-1.734,0.708-3.313,1.022-4.711,0.889
	c-1.379-0.093-2.174-0.634-2.328-1.532c-0.189-0.872,0.275-1.893,1.449-3.063c1.162-1.13,2.615-2.068,4.35-2.779
	c1.814-0.754,3.375-1.043,4.752-0.914C86.088,91.873,86.898,92.382,87.051,93.275z M15.725,61.679
	c0.458,1.571,0.558,3.295,0.298,5.229c-0.238,1.86-0.736,3.383-1.548,4.54c-0.764,1.152-1.629,1.577-2.48,1.268
	c-0.851-0.259-1.513-1.176-1.948-2.768c-0.412-1.566-0.514-3.297-0.275-5.154c0.238-1.958,0.756-3.457,1.545-4.588
	c0.761-1.155,1.608-1.606,2.455-1.298C14.651,59.197,15.28,60.128,15.725,61.679z"/>
</svg>
